<svg width="662" height="429" viewBox="0 0 662 429" fill="none" xmlns="http://www.w3.org/2000/svg">
<path d="M164.808 221.674L263.168 185.271L219.763 221.674L191.411 261.928L138.556 255.277L158.858 234.275L164.808 221.674Z" fill="#379482"/>
<path d="M392.643 321.942L420.364 337.991C421.279 338.521 422.448 338.247 423.033 337.365L477.701 254.885C478.2 254.131 479.143 253.807 480 254.093L551.069 277.794C552.29 278.201 553.572 277.366 553.693 276.085L564.006 166.925C564.125 165.657 563.046 164.602 561.781 164.75L500.256 171.982C500.06 172.005 499.862 171.999 499.669 171.964L478.698 168.2C478.597 168.182 478.499 168.156 478.402 168.123L459.33 161.584L432.609 147.951C432.487 147.889 432.358 147.839 432.226 147.803L412.009 142.29C410.441 141.862 409.041 143.375 409.603 144.901C422.23 179.219 445.179 241.826 445.603 243.945C446.032 246.089 410.899 293.777 392.033 319.026C391.316 319.985 391.606 321.342 392.643 321.942Z" fill="#DADEE1"/>
<path d="M1.97754 173.919C4.45856 172.816 7.97497 170.767 9.37594 168.347C11.4828 164.708 14.4775 161.361 16.1552 157.481C17.7464 153.802 18.9081 148.618 21.4796 145.532C27.5353 138.266 35.2109 132.271 42.4675 126.185C49.0484 120.666 58.4743 119.869 65.6533 115.66C67.2941 114.698 69.5882 114.376 71.442 114.267C75.1821 114.047 78.9629 113.013 82.4932 111.791C88.6444 109.662 95.4338 107.362 101.933 106.621C110 105.702 118.107 105.94 126.234 105.94C130.587 105.94 135.415 105.389 139.575 106.776C146.818 109.19 154.765 109.283 162.452 109.283C168.07 109.283 173.488 109.651 178.889 108.045C185.091 106.201 191.205 103.981 197.648 103.03C200.797 102.566 203.968 102.014 207.059 101.452C211.329 100.675 214.713 101.302 219.008 101.916C223.05 102.493 226.909 103.154 230.987 103.154C234.374 103.154 237.227 102.965 240.46 101.761C244.059 100.42 247.638 100.267 251.356 99.5014C259.806 97.7617 268.609 97.2614 276.957 95.3534C282.023 94.1954 287.647 92.8661 292.868 92.5983C298.28 92.3208 303.553 90.8832 308.717 89.348C312.458 88.2358 315.027 85.4059 318.437 83.6521C322.877 81.3689 325.433 76.1542 328.281 72.1985C330.895 68.5682 333.46 64.8787 336.02 61.2402C342.976 51.3548 350.187 41.9349 356.265 31.399C358.493 27.5373 361.094 24.0799 363.571 20.3169C365.447 17.4654 366.965 13.4117 370.009 11.6493C375.657 8.37965 377.969 2.69857 384.733 2.69857C386.874 2.69857 391.473 2.04263 393.767 2.69837C399.12 4.91016 400.012 5.67487 402.306 6.82195C404.728 8.47884 407.942 10.6048 408.987 11.6493C413.613 16.2752 409.355 22.0222 411.366 28.0558C413.854 35.5185 416.034 43.0858 419.043 50.3439C424.003 62.3062 426.313 75.444 432.478 87.0882C437.15 95.9141 442.65 104.213 447.894 112.627C450.052 116.09 450.71 120.84 453.311 124.018C455.859 127.133 458.022 131.562 462.071 133.119C476.425 138.64 489.939 146.847 504.047 153.055C508.797 155.144 513.84 156.728 518.534 158.874C520.908 159.96 524.063 159.432 526.645 159.432C535.808 159.432 544.971 159.432 554.133 159.432C558.323 159.432 565.563 157.392 568.93 154.943C574.475 150.911 582.461 148.569 586.575 142.901C592.269 135.057 598.062 127.487 603.229 119.22C606.959 113.253 612.465 110.182 617.747 105.878C624.091 100.71 630.644 96.374 637.218 91.5768C639.815 89.6819 656.904 84.6147 660.032 83.6521" stroke="#1C4D7F" stroke-width="3" stroke-linecap="round"/>
<path d="M227.645 107.89C225.493 106.695 224.712 104.003 221.794 103.711H232.628L243.424 100.368L306.612 92.4431L321.719 80.6599L343.499 50.6091L367.029 13.1875C369.323 12.3444 371.726 6.5683 384.365 2.92176C397.004 -0.724781 414.349 13.1875 411.243 17.9019V30.4699L426.564 72.3838L450.866 122.051L459.733 131.973L495.38 148.844C489.671 148.844 483.812 146.262 478.54 144.263C474.789 142.84 471.265 141.071 467.396 139.929C463.992 138.925 460.497 137.841 456.995 137.267C454.603 136.875 452.935 135.013 450.866 133.831C447.684 132.012 443.853 129.309 442.167 125.937C439.47 120.543 437.908 114.573 435.481 109.004C430.378 97.2979 423.701 86.3292 418.362 74.7984C415.721 69.0922 413.305 62.8639 411.243 56.906C409.436 51.6879 406.668 46.573 406.228 40.9948C405.949 37.465 403.521 34.3686 404.997 30.7382C404.254 31.7821 401.833 25.9531 402.183 24.2439C402.916 20.6626 403.711 18.4455 402.183 15.172C401.258 13.1888 397.188 10.6583 395.096 10.6583C389.126 10.6583 391.401 8.76954 385.735 10.6583C381.664 12.0153 376.994 14.8182 373.91 17.9019C370.13 21.6816 365.448 24.7339 363.014 29.6031C359.871 35.8891 357.888 43.2588 354.129 49.1052C351.72 52.8525 347.921 55.3373 345.802 59.3825C343.428 63.9147 341.711 68.2559 338.806 72.3838C335.782 76.6813 330.262 78.8413 326.919 82.9707C325.596 84.606 323.839 88.3151 321.719 89.2237C319.628 90.1197 317.769 91.3101 315.775 92.4431C314.462 93.1895 311.94 93.4903 311.07 94.7957C309.76 96.7601 308.037 98.4518 306.612 100.368C305.254 102.194 304.271 104.873 302.031 105.816C300.616 106.412 298.469 105.383 296.954 105.383C291.432 105.383 287.442 103.702 282.529 101.792C279.188 100.492 275.08 102.039 271.633 102.039H261.912C260.099 102.039 257.341 101.484 255.783 102.597C253.387 104.308 250.064 104.535 247.859 106.373C245.745 108.134 242.491 107.76 240.058 108.602C237.493 109.49 234.998 109.434 232.628 108.757C230.821 108.24 229.357 108.841 227.645 107.89Z" fill="#1C4D7F"/>
<path d="M347.142 297.042L389.322 320.093M347.142 297.042L313.738 287.917M347.142 297.042L369.507 256.895M389.322 320.093L445.68 245.064M389.322 320.093L419.523 338.969M490.357 386.796L450.139 361.783L448.671 360.681M490.357 386.796L539.894 409.358L552.981 277.965M490.357 386.796L552.981 277.965M501.638 170.502L564.417 163.145L552.981 277.965M501.638 170.502C496.785 171.294 483.504 171.387 469.203 165.428C453.691 158.965 429.207 143.155 408.725 141.192M501.638 170.502L477.634 253.811M335.867 156.489C349.855 152.516 382.199 143.925 399.68 141.343C402.571 140.916 405.601 140.893 408.725 141.192M335.867 156.489L312.386 165.355M335.867 156.489L369.507 256.895M189.588 261.956L137.975 255.808L158.832 233.958L165.536 220.798L266.548 182.661M189.588 261.956L219.144 222.571L266.548 182.661M189.588 261.956L238.046 267.728M266.548 182.661L284.216 175.99M284.216 175.99L251.277 233.958L238.046 267.728M284.216 175.99L305.505 167.952M238.046 267.728L241.202 268.104L277.037 277.893M277.037 277.893L305.505 167.952M277.037 277.893L313.738 287.917M305.505 167.952L312.386 165.355M312.386 165.355L329.645 222.749L313.738 287.917M445.68 245.064L390.519 219.179L369.507 256.895M445.68 245.064L408.725 141.192M419.523 338.969L420.711 339.712L448.671 360.681M419.523 338.969L477.634 253.811M477.634 253.811L525.111 269.031M552.981 277.965L525.111 269.031M448.671 360.681L456.748 348.602L507.268 310.222L525.111 269.031M253.877 167.952L224.959 101.746L305.505 88.9309L325.185 76.1152L365.603 14.3369L380.391 3.49292L394.192 1.84985L410.623 10.7223L412.594 27.1527L424.424 63.9568L448.413 112.262L459.585 130.993L506.248 152.352C503.071 153.776 490.17 153.587 466.51 143.335C442.851 133.082 433.555 128.373 429.173 127.168L396.071 121.394L359.503 130.993L321.241 141.343L253.877 167.952Z" stroke="#379482" stroke-width="3"/>
<path d="M9.26074 249.096L75.5976 258.604L112.015 263.823M541.401 423.098C503.394 407.925 461.84 385.704 409.416 348.571C360.763 314.108 275.128 287.844 249.902 283.034L112.015 263.823M112.015 263.823C115.492 249.904 137.311 220.957 162.313 212.172C187.315 203.388 314.097 149.066 387.672 133.377C406.579 129.344 439.279 137.501 472.067 155.666C505.198 174.02 555.329 146.396 576.367 126.329L645.667 58.8284" stroke="#C4C4C4" stroke-width="12"/>
<path d="M181.077 240.963V240.139L183.628 237.496C183.9 237.209 184.125 236.957 184.301 236.741C184.481 236.523 184.614 236.315 184.703 236.119C184.791 235.923 184.835 235.714 184.835 235.493C184.835 235.243 184.776 235.027 184.658 234.845C184.541 234.661 184.38 234.52 184.176 234.422C183.973 234.321 183.743 234.271 183.488 234.271C183.218 234.271 182.982 234.326 182.781 234.437C182.58 234.547 182.425 234.703 182.317 234.904C182.209 235.105 182.155 235.341 182.155 235.611H181.069C181.069 235.152 181.175 234.751 181.386 234.407C181.597 234.064 181.887 233.797 182.255 233.608C182.623 233.417 183.041 233.321 183.51 233.321C183.984 233.321 184.401 233.416 184.762 233.605C185.125 233.791 185.408 234.046 185.612 234.37C185.816 234.692 185.917 235.055 185.917 235.46C185.917 235.74 185.865 236.013 185.759 236.281C185.656 236.548 185.476 236.847 185.218 237.175C184.96 237.502 184.602 237.898 184.143 238.364L182.645 239.933V239.988H186.039V240.963H181.077Z" fill="black"/>
<path d="M231.66 238.075C231.154 238.075 230.702 237.988 230.305 237.814C229.91 237.64 229.597 237.398 229.366 237.089C229.138 236.777 229.015 236.416 228.998 236.006H230.154C230.169 236.23 230.244 236.424 230.378 236.588C230.516 236.75 230.695 236.875 230.916 236.964C231.137 237.052 231.382 237.096 231.652 237.096C231.949 237.096 232.212 237.044 232.44 236.941C232.671 236.838 232.851 236.695 232.981 236.511C233.111 236.324 233.176 236.109 233.176 235.867C233.176 235.614 233.111 235.392 232.981 235.2C232.853 235.006 232.666 234.854 232.418 234.744C232.172 234.633 231.875 234.578 231.527 234.578H230.89V233.65H231.527C231.807 233.65 232.052 233.6 232.263 233.5C232.477 233.399 232.644 233.259 232.764 233.08C232.884 232.898 232.944 232.686 232.944 232.443C232.944 232.21 232.891 232.007 232.786 231.836C232.683 231.661 232.536 231.525 232.344 231.427C232.155 231.329 231.932 231.28 231.674 231.28C231.429 231.28 231.199 231.325 230.986 231.416C230.775 231.504 230.603 231.632 230.471 231.799C230.338 231.963 230.267 232.161 230.257 232.392H229.156C229.169 231.984 229.289 231.626 229.517 231.317C229.748 231.007 230.052 230.766 230.43 230.591C230.808 230.417 231.228 230.33 231.689 230.33C232.172 230.33 232.59 230.425 232.941 230.614C233.294 230.8 233.566 231.049 233.758 231.361C233.952 231.672 234.047 232.014 234.045 232.384C234.047 232.806 233.93 233.165 233.692 233.459C233.456 233.754 233.142 233.951 232.749 234.052V234.111C233.25 234.187 233.638 234.385 233.912 234.707C234.19 235.028 234.327 235.427 234.325 235.903C234.327 236.318 234.212 236.69 233.979 237.019C233.748 237.348 233.433 237.606 233.033 237.795C232.633 237.982 232.175 238.075 231.66 238.075Z" fill="black"/>
<path d="M265.994 236.397V235.476L269.252 230.33H269.977V231.685H269.517L267.187 235.373V235.432H271.652V236.397H265.994ZM269.569 237.869V236.117L269.576 235.697V230.33H270.654V237.869H269.569Z" fill="black"/>
<path d="M307.452 241.897C306.991 241.897 306.576 241.809 306.208 241.632C305.843 241.453 305.551 241.207 305.332 240.896C305.114 240.584 304.997 240.228 304.982 239.828H306.087C306.114 240.152 306.257 240.418 306.517 240.627C306.778 240.836 307.089 240.94 307.452 240.94C307.742 240.94 307.999 240.874 308.222 240.741C308.448 240.606 308.624 240.421 308.752 240.185C308.882 239.95 308.947 239.681 308.947 239.379C308.947 239.072 308.881 238.799 308.748 238.558C308.616 238.318 308.433 238.129 308.2 237.991C307.969 237.854 307.704 237.784 307.405 237.781C307.176 237.781 306.947 237.821 306.716 237.899C306.486 237.978 306.299 238.081 306.157 238.208L305.115 238.054L305.538 234.255H309.683V235.23H306.484L306.245 237.34H306.289C306.436 237.197 306.632 237.078 306.875 236.983C307.12 236.887 307.383 236.839 307.662 236.839C308.121 236.839 308.53 236.948 308.888 237.167C309.249 237.385 309.532 237.683 309.738 238.061C309.947 238.437 310.05 238.869 310.048 239.357C310.05 239.845 309.94 240.281 309.716 240.664C309.496 241.047 309.189 241.348 308.796 241.569C308.406 241.788 307.958 241.897 307.452 241.897Z" fill="black"/>
<path d="M345.33 252.529C344.994 252.524 344.662 252.463 344.336 252.345C344.012 252.227 343.718 252.031 343.453 251.756C343.187 251.481 342.975 251.112 342.816 250.648C342.659 250.184 342.58 249.605 342.58 248.911C342.58 248.253 342.645 247.669 342.775 247.159C342.908 246.648 343.098 246.217 343.346 245.866C343.594 245.513 343.893 245.244 344.244 245.06C344.595 244.876 344.989 244.784 345.426 244.784C345.875 244.784 346.273 244.873 346.622 245.049C346.97 245.226 347.253 245.47 347.469 245.782C347.687 246.093 347.826 246.448 347.885 246.846H346.762C346.686 246.531 346.535 246.275 346.309 246.076C346.083 245.877 345.789 245.778 345.426 245.778C344.873 245.778 344.443 246.019 344.134 246.5C343.827 246.981 343.672 247.649 343.67 248.506H343.725C343.855 248.292 344.014 248.111 344.203 247.961C344.395 247.809 344.608 247.692 344.844 247.611C345.082 247.528 345.332 247.486 345.595 247.486C346.032 247.486 346.427 247.593 346.78 247.806C347.136 248.017 347.42 248.309 347.631 248.683C347.842 249.056 347.947 249.483 347.947 249.964C347.947 250.445 347.838 250.88 347.62 251.27C347.404 251.661 347.099 251.97 346.707 252.198C346.314 252.424 345.855 252.534 345.33 252.529ZM345.326 251.572C345.616 251.572 345.875 251.501 346.103 251.359C346.331 251.216 346.512 251.025 346.644 250.784C346.777 250.544 346.843 250.275 346.843 249.978C346.843 249.689 346.778 249.425 346.648 249.187C346.52 248.949 346.343 248.76 346.118 248.62C345.894 248.48 345.639 248.41 345.352 248.41C345.134 248.41 344.931 248.452 344.745 248.535C344.561 248.619 344.399 248.734 344.259 248.881C344.119 249.029 344.008 249.198 343.927 249.389C343.849 249.578 343.81 249.778 343.81 249.989C343.81 250.272 343.875 250.533 344.005 250.773C344.137 251.014 344.318 251.208 344.546 251.355C344.776 251.5 345.037 251.572 345.326 251.572Z" fill="black"/>
<path d="M388.093 190.887V198.426H386.951V192.028H386.907L385.104 193.206V192.116L386.985 190.887H388.093Z" fill="black"/>
<path d="M348.569 100.997V108.536H347.428V102.138H347.384L345.58 103.316V102.227L347.461 100.997H348.569Z" fill="black"/>
<path d="M353.469 100.997V108.536H352.328V102.138H352.283L350.48 103.316V102.227L352.361 100.997H353.469Z" fill="black"/>
<path d="M394.489 271.186L397.78 264.678V264.623H393.974V263.647H398.958V264.656L395.678 271.186H394.489Z" fill="black"/>
<path d="M479.978 302.082C479.45 302.082 478.984 301.991 478.579 301.81C478.176 301.628 477.861 301.378 477.633 301.059C477.404 300.74 477.292 300.376 477.294 299.969C477.292 299.65 477.357 299.357 477.489 299.089C477.624 298.819 477.807 298.595 478.038 298.416C478.268 298.234 478.526 298.119 478.811 298.07V298.025C478.435 297.935 478.135 297.733 477.909 297.422C477.683 297.11 477.571 296.752 477.574 296.347C477.571 295.962 477.673 295.618 477.879 295.316C478.088 295.012 478.374 294.773 478.737 294.598C479.1 294.424 479.514 294.337 479.978 294.337C480.436 294.337 480.846 294.425 481.207 294.602C481.57 294.776 481.856 295.015 482.065 295.32C482.273 295.622 482.379 295.964 482.381 296.347C482.379 296.752 482.264 297.11 482.035 297.422C481.807 297.733 481.51 297.935 481.144 298.025V298.07C481.427 298.119 481.681 298.234 481.906 298.416C482.135 298.595 482.316 298.819 482.451 299.089C482.589 299.357 482.659 299.65 482.661 299.969C482.659 300.376 482.543 300.74 482.315 301.059C482.087 301.378 481.77 301.628 481.365 301.81C480.963 301.991 480.5 302.082 479.978 302.082ZM479.978 301.151C480.289 301.151 480.559 301.099 480.787 300.996C481.016 300.891 481.192 300.745 481.318 300.558C481.443 300.369 481.506 300.148 481.509 299.895C481.506 299.633 481.438 299.401 481.303 299.2C481.17 298.998 480.99 298.84 480.762 298.725C480.533 298.61 480.272 298.552 479.978 298.552C479.681 298.552 479.417 298.61 479.186 298.725C478.955 298.84 478.774 298.998 478.641 299.2C478.509 299.401 478.444 299.633 478.446 299.895C478.444 300.148 478.504 300.369 478.627 300.558C478.752 300.745 478.93 300.891 479.16 300.996C479.391 301.099 479.663 301.151 479.978 301.151ZM479.978 297.643C480.228 297.643 480.45 297.592 480.644 297.492C480.838 297.391 480.99 297.251 481.1 297.072C481.213 296.893 481.271 296.683 481.273 296.443C481.271 296.207 481.214 296.001 481.104 295.824C480.996 295.647 480.845 295.511 480.651 295.415C480.457 295.317 480.233 295.268 479.978 295.268C479.717 295.268 479.489 295.317 479.293 295.415C479.099 295.511 478.948 295.647 478.84 295.824C478.732 296.001 478.679 296.207 478.682 296.443C478.679 296.683 478.733 296.893 478.844 297.072C478.954 297.251 479.106 297.391 479.3 297.492C479.497 297.592 479.722 297.643 479.978 297.643Z" fill="black"/>
<path d="M501.175 330.87C501.511 330.873 501.842 330.934 502.169 331.054C502.495 331.175 502.79 331.371 503.052 331.643C503.317 331.916 503.528 332.284 503.685 332.748C503.845 333.209 503.926 333.783 503.928 334.47C503.928 335.131 503.862 335.718 503.73 336.234C503.597 336.747 503.407 337.18 503.159 337.533C502.914 337.887 502.615 338.155 502.265 338.339C501.914 338.523 501.518 338.615 501.079 338.615C500.63 338.615 500.231 338.527 499.883 338.35C499.534 338.174 499.251 337.929 499.032 337.618C498.814 337.304 498.678 336.943 498.624 336.536H499.747C499.82 336.86 499.97 337.122 500.196 337.323C500.424 337.522 500.718 337.621 501.079 337.621C501.631 337.621 502.062 337.381 502.371 336.9C502.681 336.417 502.836 335.742 502.839 334.875H502.78C502.652 335.086 502.493 335.268 502.301 335.42C502.112 335.572 501.9 335.69 501.665 335.774C501.429 335.857 501.177 335.899 500.91 335.899C500.475 335.899 500.08 335.792 499.725 335.578C499.369 335.365 499.085 335.072 498.874 334.699C498.663 334.326 498.558 333.9 498.558 333.421C498.558 332.945 498.666 332.513 498.882 332.126C499.1 331.738 499.404 331.431 499.794 331.205C500.187 330.977 500.647 330.865 501.175 330.87ZM501.179 331.827C500.891 331.827 500.633 331.899 500.402 332.041C500.174 332.181 499.993 332.371 499.861 332.611C499.728 332.85 499.662 333.115 499.662 333.407C499.662 333.699 499.726 333.964 499.853 334.202C499.983 334.437 500.16 334.625 500.383 334.765C500.609 334.902 500.867 334.971 501.157 334.971C501.372 334.971 501.574 334.929 501.76 334.846C501.947 334.762 502.11 334.647 502.25 334.5C502.39 334.35 502.499 334.181 502.577 333.992C502.656 333.803 502.695 333.604 502.695 333.396C502.695 333.118 502.629 332.861 502.496 332.622C502.366 332.384 502.187 332.193 501.959 332.048C501.731 331.901 501.471 331.827 501.179 331.827Z" fill="black"/>
<path d="M526.166 350.972V358.511H525.025V352.113H524.981L523.177 353.291V352.202L525.058 350.972H526.166Z" fill="black"/>
<path d="M530.83 358.636C530.248 358.634 529.751 358.481 529.339 358.176C528.927 357.872 528.611 357.429 528.393 356.847C528.175 356.266 528.065 355.565 528.065 354.745C528.065 353.928 528.175 353.23 528.393 352.651C528.614 352.072 528.93 351.63 529.343 351.326C529.757 351.021 530.253 350.869 530.83 350.869C531.407 350.869 531.901 351.023 532.313 351.329C532.726 351.634 533.041 352.075 533.259 352.654C533.48 353.231 533.591 353.928 533.591 354.745C533.591 355.568 533.482 356.269 533.263 356.851C533.045 357.43 532.729 357.873 532.317 358.18C531.905 358.484 531.409 358.636 530.83 358.636ZM530.83 357.653C531.34 357.653 531.739 357.404 532.026 356.906C532.316 356.408 532.461 355.688 532.461 354.745C532.461 354.12 532.394 353.591 532.262 353.159C532.132 352.724 531.944 352.396 531.699 352.172C531.456 351.946 531.166 351.834 530.83 351.834C530.322 351.834 529.923 352.084 529.633 352.585C529.344 353.085 529.198 353.805 529.195 354.745C529.195 355.374 529.26 355.905 529.391 356.339C529.523 356.771 529.711 357.099 529.954 357.322C530.197 357.543 530.489 357.653 530.83 357.653Z" fill="black"/>
<path d="M446.978 218.353V210.814H449.665C450.251 210.814 450.737 210.921 451.123 211.135C451.508 211.348 451.796 211.64 451.988 212.011C452.179 212.379 452.275 212.794 452.275 213.255C452.275 213.719 452.178 214.136 451.984 214.507C451.792 214.875 451.503 215.167 451.115 215.383C450.73 215.596 450.245 215.703 449.661 215.703H447.813V214.739H449.558C449.929 214.739 450.229 214.675 450.46 214.547C450.691 214.417 450.86 214.24 450.968 214.017C451.076 213.794 451.13 213.54 451.13 213.255C451.13 212.97 451.076 212.718 450.968 212.497C450.86 212.276 450.689 212.103 450.456 211.978C450.226 211.853 449.921 211.79 449.543 211.79H448.115V218.353H446.978Z" fill="black"/>
<path d="M455.115 218.479C454.756 218.479 454.432 218.412 454.143 218.28C453.853 218.145 453.624 217.95 453.455 217.695C453.288 217.439 453.204 217.126 453.204 216.756C453.204 216.437 453.266 216.174 453.388 215.968C453.511 215.762 453.677 215.599 453.885 215.478C454.094 215.358 454.327 215.267 454.585 215.206C454.842 215.145 455.105 215.098 455.372 215.066C455.711 215.027 455.986 214.995 456.197 214.97C456.408 214.943 456.561 214.901 456.657 214.842C456.753 214.783 456.801 214.687 456.801 214.555V214.529C456.801 214.207 456.71 213.958 456.528 213.781C456.349 213.605 456.082 213.516 455.726 213.516C455.355 213.516 455.063 213.599 454.85 213.763C454.639 213.925 454.493 214.105 454.412 214.304L453.377 214.069C453.5 213.725 453.679 213.448 453.915 213.237C454.153 213.023 454.426 212.869 454.736 212.773C455.045 212.675 455.37 212.626 455.711 212.626C455.937 212.626 456.176 212.653 456.429 212.707C456.684 212.758 456.922 212.854 457.143 212.994C457.366 213.134 457.549 213.334 457.692 213.594C457.834 213.851 457.905 214.186 457.905 214.599V218.353H456.83V217.58H456.786C456.715 217.723 456.608 217.863 456.466 218C456.323 218.137 456.141 218.252 455.917 218.342C455.694 218.433 455.426 218.479 455.115 218.479ZM455.354 217.595C455.658 217.595 455.918 217.535 456.134 217.415C456.353 217.295 456.518 217.137 456.631 216.944C456.747 216.747 456.804 216.537 456.804 216.314V215.585C456.765 215.624 456.689 215.661 456.576 215.696C456.466 215.728 456.339 215.756 456.197 215.78C456.055 215.802 455.916 215.823 455.781 215.843C455.646 215.86 455.533 215.875 455.442 215.887C455.229 215.914 455.034 215.959 454.857 216.023C454.683 216.087 454.543 216.179 454.437 216.299C454.334 216.417 454.283 216.574 454.283 216.771C454.283 217.043 454.383 217.249 454.585 217.389C454.786 217.526 455.042 217.595 455.354 217.595Z" fill="black"/>
<path d="M459.371 218.353V212.699H460.435V213.597H460.494C460.597 213.293 460.778 213.054 461.039 212.88C461.301 212.703 461.598 212.615 461.929 212.615C461.998 212.615 462.079 212.617 462.172 212.622C462.268 212.627 462.343 212.633 462.397 212.64V213.693C462.353 213.681 462.274 213.667 462.161 213.653C462.048 213.635 461.936 213.627 461.823 213.627C461.563 213.627 461.331 213.682 461.127 213.793C460.926 213.9 460.766 214.051 460.648 214.245C460.531 214.437 460.472 214.655 460.472 214.901V218.353H459.371Z" fill="black"/>
<path d="M471.86 218.353V210.814H474.621C475.156 210.814 475.599 210.903 475.95 211.079C476.301 211.254 476.564 211.491 476.738 211.79C476.912 212.087 476.999 212.422 476.999 212.795C476.999 213.109 476.941 213.374 476.826 213.59C476.711 213.804 476.556 213.975 476.362 214.105C476.171 214.233 475.96 214.326 475.729 214.385V214.459C475.979 214.471 476.224 214.552 476.462 214.702C476.702 214.849 476.901 215.059 477.058 215.331C477.215 215.604 477.294 215.935 477.294 216.325C477.294 216.71 477.203 217.056 477.021 217.363C476.842 217.668 476.565 217.909 476.189 218.088C475.814 218.265 475.334 218.353 474.75 218.353H471.86ZM472.998 217.378H474.64C475.184 217.378 475.575 217.272 475.81 217.061C476.046 216.85 476.164 216.586 476.164 216.27C476.164 216.032 476.103 215.813 475.983 215.615C475.863 215.416 475.691 215.258 475.468 215.14C475.247 215.022 474.984 214.963 474.68 214.963H472.998V217.378ZM472.998 214.076H474.522C474.777 214.076 475.006 214.027 475.21 213.929C475.416 213.831 475.579 213.693 475.7 213.516C475.822 213.337 475.884 213.126 475.884 212.883C475.884 212.572 475.775 212.31 475.556 212.099C475.338 211.888 475.003 211.783 474.551 211.783H472.998V214.076Z" fill="black"/>
<path d="M464.521 216.529L464.513 215.163H464.708L466.998 212.73H468.338L465.726 215.5H465.55L464.521 216.529ZM463.492 218.479V210.814H464.611V218.479H463.492ZM467.122 218.479L465.063 215.747L465.834 214.965L468.495 218.479H467.122Z" fill="black"/>
<path d="M507.65 226.018V218.479H510.338C510.924 218.479 511.41 218.585 511.795 218.799C512.181 219.012 512.469 219.304 512.66 219.675C512.852 220.043 512.948 220.458 512.948 220.919C512.948 221.383 512.851 221.8 512.657 222.171C512.465 222.539 512.176 222.831 511.788 223.047C511.403 223.26 510.918 223.367 510.334 223.367H508.486V222.403H510.231C510.601 222.403 510.902 222.339 511.133 222.211C511.363 222.081 511.533 221.905 511.641 221.681C511.749 221.458 511.803 221.204 511.803 220.919C511.803 220.635 511.749 220.382 511.641 220.161C511.533 219.94 511.362 219.767 511.129 219.642C510.898 219.517 510.594 219.454 510.216 219.454H508.788V226.018H507.65Z" fill="black"/>
<path d="M515.788 226.143C515.429 226.143 515.105 226.077 514.816 225.944C514.526 225.809 514.297 225.614 514.127 225.359C513.96 225.104 513.877 224.791 513.877 224.42C513.877 224.101 513.938 223.838 514.061 223.632C514.184 223.426 514.349 223.263 514.558 223.143C514.767 223.022 515 222.932 515.257 222.87C515.515 222.809 515.778 222.762 516.045 222.73C516.384 222.691 516.659 222.659 516.87 222.635C517.081 222.608 517.234 222.565 517.33 222.506C517.426 222.447 517.474 222.351 517.474 222.219V222.193C517.474 221.871 517.383 221.622 517.201 221.446C517.022 221.269 516.754 221.181 516.399 221.181C516.028 221.181 515.736 221.263 515.523 221.427C515.311 221.589 515.165 221.77 515.084 221.968L514.05 221.733C514.173 221.389 514.352 221.112 514.588 220.901C514.826 220.687 515.099 220.533 515.408 220.437C515.718 220.339 516.043 220.29 516.384 220.29C516.61 220.29 516.849 220.317 517.102 220.371C517.357 220.422 517.595 220.518 517.816 220.658C518.039 220.798 518.222 220.998 518.364 221.258C518.507 221.516 518.578 221.851 518.578 222.263V226.018H517.503V225.245H517.459C517.388 225.387 517.281 225.527 517.139 225.664C516.996 225.802 516.813 225.916 516.59 226.007C516.367 226.097 516.099 226.143 515.788 226.143ZM516.027 225.259C516.331 225.259 516.591 225.199 516.807 225.079C517.026 224.959 517.191 224.802 517.304 224.608C517.42 224.411 517.477 224.202 517.477 223.978V223.249C517.438 223.289 517.362 223.326 517.249 223.36C517.139 223.392 517.012 223.42 516.87 223.445C516.727 223.467 516.589 223.487 516.454 223.507C516.319 223.524 516.206 223.539 516.115 223.551C515.902 223.578 515.707 223.624 515.53 223.687C515.356 223.751 515.216 223.843 515.11 223.964C515.007 224.081 514.956 224.238 514.956 224.435C514.956 224.707 515.056 224.913 515.257 225.053C515.459 225.191 515.715 225.259 516.027 225.259Z" fill="black"/>
<path d="M520.044 226.018V220.363H521.108V221.262H521.167C521.27 220.957 521.451 220.718 521.711 220.544C521.974 220.367 522.271 220.279 522.602 220.279C522.671 220.279 522.752 220.281 522.845 220.286C522.941 220.291 523.016 220.297 523.07 220.305V221.357C523.026 221.345 522.947 221.332 522.834 221.317C522.721 221.3 522.608 221.291 522.496 221.291C522.235 221.291 522.003 221.346 521.8 221.457C521.599 221.565 521.439 221.716 521.321 221.909C521.203 222.101 521.145 222.319 521.145 222.565V226.018H520.044Z" fill="black"/>
<path d="M533.17 226.018H531.963L534.676 218.479H535.99L538.703 226.018H537.495L535.364 219.848H535.305L533.17 226.018ZM533.372 223.065H537.289V224.022H533.372V223.065Z" fill="black"/>
<path d="M525.057 224.068L525.049 222.702H525.244L527.534 220.269H528.874L526.262 223.039H526.086L525.057 224.068ZM524.028 226.018V218.353H525.147V226.018H524.028ZM527.658 226.018L525.599 223.286L526.37 222.504L529.031 226.018H527.658Z" fill="black"/>
<path d="M132.046 206.876L128.655 197.275L131.899 196.13C132.652 195.864 133.316 195.782 133.89 195.885C134.466 195.984 134.951 196.222 135.344 196.6C135.738 196.978 136.035 197.449 136.235 198.015C136.434 198.581 136.5 199.135 136.432 199.68C136.368 200.223 136.145 200.716 135.764 201.16C135.382 201.601 134.817 201.953 134.07 202.217L131.745 203.038L131.381 202.007L133.668 201.199C134.184 201.017 134.567 200.782 134.816 200.493C135.066 200.205 135.207 199.884 135.241 199.531C135.277 199.174 135.226 198.803 135.091 198.419C134.955 198.034 134.762 197.716 134.511 197.464C134.263 197.21 133.951 197.053 133.575 196.993C133.197 196.929 132.748 196.99 132.226 197.174L130.182 197.896L133.209 206.465L132.046 206.876ZM143.176 203.113C142.526 203.343 141.901 203.39 141.301 203.254C140.704 203.116 140.17 202.818 139.699 202.359C139.23 201.899 138.865 201.297 138.602 200.553C138.337 199.803 138.242 199.1 138.316 198.445C138.394 197.788 138.621 197.219 139 196.738C139.381 196.255 139.897 195.899 140.547 195.669C141.197 195.44 141.82 195.393 142.417 195.531C143.017 195.667 143.552 195.966 144.021 196.43C144.494 196.892 144.863 197.498 145.127 198.248C145.39 198.992 145.482 199.691 145.404 200.344C145.328 200.996 145.1 201.564 144.719 202.046C144.34 202.528 143.826 202.884 143.176 203.113ZM142.825 202.119C143.319 201.945 143.68 201.675 143.91 201.309C144.139 200.944 144.258 200.527 144.265 200.061C144.272 199.594 144.191 199.12 144.021 198.639C143.851 198.158 143.616 197.736 143.316 197.375C143.016 197.013 142.662 196.76 142.252 196.617C141.843 196.473 141.392 196.489 140.898 196.663C140.404 196.837 140.043 197.109 139.815 197.478C139.586 197.847 139.469 198.266 139.463 198.736C139.457 199.205 139.538 199.681 139.708 200.162C139.878 200.644 140.113 201.063 140.412 201.422C140.711 201.78 141.064 202.03 141.472 202.17C141.88 202.311 142.331 202.294 142.825 202.119ZM148.075 201.214L145.531 194.014L146.638 193.623L149.181 200.824L148.075 201.214ZM145.67 192.615C145.454 192.691 145.242 192.684 145.034 192.592C144.829 192.499 144.69 192.35 144.617 192.143C144.545 191.937 144.559 191.733 144.66 191.532C144.764 191.33 144.924 191.191 145.14 191.115C145.356 191.039 145.566 191.047 145.771 191.14C145.979 191.232 146.12 191.381 146.193 191.587C146.265 191.793 146.25 191.997 146.145 192.199C146.044 192.4 145.886 192.539 145.67 192.615ZM154.334 192.718L153.439 193.351C153.318 193.207 153.169 193.079 152.992 192.966C152.817 192.848 152.608 192.774 152.366 192.744C152.123 192.714 151.841 192.756 151.519 192.869C151.078 193.025 150.747 193.256 150.525 193.563C150.305 193.866 150.249 194.172 150.359 194.481C150.456 194.756 150.633 194.938 150.889 195.027C151.145 195.115 151.505 195.138 151.967 195.094L153.129 194.979C153.828 194.908 154.392 194.978 154.821 195.188C155.249 195.395 155.552 195.75 155.73 196.254C155.876 196.666 155.887 197.077 155.765 197.486C155.645 197.894 155.407 198.266 155.052 198.602C154.696 198.939 154.238 199.206 153.679 199.403C152.945 199.663 152.281 199.718 151.687 199.569C151.093 199.421 150.624 199.063 150.279 198.495L151.236 197.862C151.473 198.214 151.765 198.438 152.112 198.533C152.461 198.628 152.863 198.595 153.316 198.435C153.832 198.253 154.202 197.999 154.428 197.673C154.656 197.343 154.715 197.023 154.606 196.714C154.518 196.464 154.356 196.285 154.122 196.178C153.886 196.068 153.572 196.035 153.18 196.079L151.88 196.221C151.166 196.298 150.596 196.227 150.17 196.008C149.747 195.785 149.448 195.425 149.272 194.928C149.129 194.522 149.116 194.122 149.234 193.729C149.354 193.335 149.582 192.979 149.916 192.66C150.253 192.341 150.675 192.092 151.181 191.913C151.893 191.661 152.508 191.62 153.025 191.789C153.544 191.957 153.981 192.267 154.334 192.718ZM161.231 190.282L160.336 190.915C160.215 190.771 160.066 190.643 159.889 190.53C159.714 190.412 159.505 190.338 159.262 190.308C159.02 190.278 158.737 190.319 158.416 190.433C157.975 190.589 157.644 190.82 157.422 191.127C157.202 191.43 157.146 191.736 157.255 192.045C157.353 192.32 157.529 192.502 157.786 192.591C158.042 192.679 158.401 192.702 158.864 192.658L160.025 192.543C160.724 192.472 161.289 192.541 161.718 192.752C162.146 192.959 162.449 193.314 162.627 193.817C162.773 194.23 162.784 194.641 162.661 195.05C162.542 195.457 162.304 195.83 161.949 196.166C161.593 196.503 161.135 196.77 160.576 196.967C159.842 197.227 159.177 197.282 158.584 197.133C157.99 196.984 157.52 196.626 157.176 196.059L158.133 195.426C158.37 195.778 158.662 196.002 159.008 196.097C159.358 196.192 159.76 196.159 160.213 195.999C160.728 195.817 161.099 195.563 161.325 195.237C161.553 194.907 161.612 194.587 161.503 194.278C161.415 194.028 161.253 193.849 161.019 193.742C160.783 193.632 160.469 193.599 160.077 193.643L158.777 193.785C158.062 193.862 157.493 193.791 157.067 193.572C156.644 193.349 156.345 192.989 156.169 192.492C156.026 192.086 156.013 191.686 156.13 191.293C156.251 190.899 156.479 190.542 156.813 190.224C157.15 189.905 157.571 189.656 158.078 189.477C158.79 189.225 159.405 189.184 159.922 189.353C160.441 189.521 160.878 189.831 161.231 190.282ZM167.179 194.656C166.723 194.817 166.279 194.877 165.846 194.837C165.412 194.793 165.028 194.646 164.693 194.395C164.358 194.141 164.107 193.78 163.941 193.311C163.796 192.898 163.759 192.535 163.831 192.222C163.902 191.905 164.047 191.625 164.267 191.382C164.487 191.139 164.749 190.924 165.051 190.736C165.356 190.544 165.668 190.367 165.987 190.205C166.405 189.994 166.744 189.827 167.006 189.703C167.27 189.574 167.452 189.452 167.552 189.336C167.654 189.219 167.674 189.071 167.611 188.893L167.598 188.856C167.435 188.393 167.181 188.078 166.838 187.912C166.497 187.744 166.072 187.75 165.563 187.93C165.035 188.116 164.661 188.378 164.443 188.715C164.225 189.053 164.101 189.374 164.072 189.679L162.889 189.675C162.922 189.172 163.052 188.743 163.278 188.389C163.507 188.03 163.79 187.737 164.128 187.509C164.467 187.276 164.818 187.096 165.181 186.968C165.412 186.886 165.688 186.82 166.008 186.771C166.329 186.717 166.661 186.724 167.002 186.794C167.346 186.862 167.672 187.034 167.979 187.308C168.287 187.582 168.542 188.006 168.744 188.577L170.42 193.321L169.314 193.712L168.969 192.737L168.913 192.757C168.893 192.94 168.827 193.151 168.715 193.391C168.603 193.631 168.424 193.865 168.177 194.092C167.931 194.32 167.598 194.508 167.179 194.656ZM166.997 193.602C167.435 193.448 167.773 193.232 168.012 192.954C168.255 192.675 168.405 192.372 168.462 192.046C168.522 191.719 168.499 191.406 168.393 191.106L168.035 190.093C168.008 190.166 167.923 190.254 167.781 190.357C167.64 190.456 167.472 190.559 167.278 190.666C167.086 190.77 166.898 190.868 166.713 190.961C166.53 191.05 166.382 191.124 166.268 191.181C165.994 191.32 165.747 191.476 165.527 191.649C165.309 191.817 165.152 192.012 165.058 192.231C164.965 192.447 164.968 192.695 165.068 192.976C165.203 193.361 165.448 193.601 165.802 193.698C166.158 193.79 166.556 193.758 166.997 193.602ZM172.016 187.886L173.546 192.217L172.439 192.608L169.896 185.408L170.965 185.03L171.362 186.155L171.456 186.122C171.495 185.697 171.648 185.313 171.913 184.969C172.178 184.623 172.582 184.354 173.125 184.162C173.613 183.989 174.075 183.939 174.511 184.01C174.946 184.077 175.337 184.277 175.682 184.608C176.027 184.937 176.307 185.407 176.523 186.019L178.14 190.595L177.033 190.985L175.444 186.485C175.244 185.92 174.941 185.531 174.536 185.319C174.13 185.104 173.67 185.087 173.158 185.268C172.805 185.393 172.516 185.581 172.292 185.832C172.071 186.082 171.933 186.383 171.877 186.733C171.821 187.083 171.868 187.467 172.016 187.886ZM180.749 181.574L181.08 182.512L177.349 183.83L177.018 182.892L180.749 181.574ZM177.496 180.783L178.602 180.392L181.026 187.255C181.137 187.568 181.265 187.786 181.411 187.91C181.559 188.03 181.714 188.091 181.876 188.094C182.041 188.092 182.204 188.062 182.367 188.005C182.489 187.962 182.586 187.92 182.66 187.88C182.733 187.837 182.791 187.802 182.834 187.776L183.411 188.691C183.345 188.745 183.251 188.81 183.126 188.886C183.003 188.965 182.838 189.04 182.632 189.113C182.319 189.224 181.989 189.265 181.642 189.236C181.297 189.207 180.978 189.089 180.684 188.884C180.393 188.677 180.174 188.365 180.026 187.946L177.496 180.783ZM188.669 186.875L186.126 179.675L187.195 179.297L187.579 180.385L187.654 180.358C187.659 179.956 187.795 179.583 188.06 179.24C188.326 178.896 188.674 178.648 189.105 178.496C189.186 178.467 189.289 178.433 189.412 178.393C189.535 178.353 189.628 178.325 189.693 178.309L190.09 179.435C190.05 179.438 189.959 179.455 189.818 179.483C189.679 179.508 189.536 179.546 189.389 179.598C189.039 179.722 188.752 179.905 188.529 180.149C188.308 180.389 188.163 180.665 188.094 180.978C188.027 181.286 188.051 181.603 188.166 181.928L189.776 186.485L188.669 186.875ZM196.34 184.335C195.69 184.564 195.065 184.611 194.465 184.475C193.868 184.338 193.334 184.04 192.862 183.58C192.394 183.12 192.029 182.518 191.766 181.774C191.501 181.024 191.406 180.322 191.48 179.666C191.557 179.01 191.785 178.441 192.163 177.959C192.545 177.476 193.06 177.12 193.71 176.89C194.361 176.661 194.984 176.615 195.581 176.752C196.181 176.888 196.715 177.188 197.185 177.651C197.657 178.113 198.026 178.719 198.291 179.469C198.554 180.213 198.646 180.912 198.567 181.565C198.492 182.218 198.264 182.785 197.882 183.268C197.504 183.749 196.99 184.105 196.34 184.335ZM195.989 183.341C196.483 183.166 196.844 182.896 197.074 182.531C197.303 182.165 197.421 181.749 197.429 181.282C197.436 180.815 197.355 180.341 197.185 179.86C197.015 179.379 196.78 178.958 196.48 178.596C196.18 178.234 195.825 177.982 195.416 177.838C195.007 177.694 194.555 177.71 194.062 177.884C193.568 178.059 193.207 178.33 192.978 178.699C192.75 179.068 192.633 179.487 192.627 179.957C192.62 180.427 192.702 180.902 192.872 181.384C193.042 181.865 193.277 182.285 193.575 182.643C193.874 183.002 194.228 183.251 194.636 183.392C195.044 183.532 195.495 183.515 195.989 183.341ZM203.417 181.856C202.961 182.017 202.516 182.077 202.084 182.037C201.65 181.993 201.266 181.846 200.931 181.595C200.595 181.341 200.344 180.98 200.179 180.511C200.033 180.098 199.996 179.735 200.068 179.422C200.139 179.105 200.285 178.825 200.505 178.582C200.725 178.339 200.986 178.124 201.289 177.936C201.594 177.744 201.905 177.567 202.224 177.405C202.642 177.194 202.982 177.027 203.244 176.903C203.508 176.774 203.69 176.652 203.789 176.536C203.892 176.419 203.912 176.271 203.849 176.093L203.836 176.056C203.672 175.593 203.419 175.279 203.075 175.112C202.735 174.944 202.31 174.95 201.8 175.13C201.272 175.316 200.899 175.578 200.68 175.915C200.462 176.253 200.338 176.574 200.309 176.88L199.127 176.875C199.16 176.372 199.289 175.943 199.516 175.589C199.744 175.23 200.027 174.937 200.365 174.709C200.705 174.476 201.056 174.296 201.418 174.168C201.65 174.086 201.925 174.02 202.245 173.971C202.567 173.917 202.898 173.925 203.239 173.994C203.583 174.062 203.909 174.234 204.217 174.508C204.525 174.782 204.78 175.206 204.982 175.777L206.657 180.521L205.551 180.912L205.207 179.937L205.15 179.957C205.131 180.14 205.065 180.351 204.953 180.591C204.84 180.831 204.661 181.065 204.415 181.293C204.168 181.52 203.836 181.708 203.417 181.856ZM203.235 180.803C203.672 180.648 204.011 180.432 204.25 180.154C204.492 179.875 204.642 179.573 204.699 179.247C204.759 178.919 204.736 178.606 204.63 178.306L204.273 177.293C204.246 177.366 204.161 177.454 204.018 177.557C203.877 177.656 203.71 177.759 203.516 177.867C203.324 177.97 203.135 178.068 202.95 178.161C202.767 178.25 202.619 178.324 202.506 178.381C202.232 178.52 201.984 178.676 201.764 178.849C201.546 179.018 201.39 179.212 201.295 179.431C201.202 179.647 201.206 179.895 201.305 180.176C201.441 180.561 201.686 180.801 202.04 180.898C202.396 180.99 202.794 180.958 203.235 180.803ZM211.449 178.998C210.848 179.21 210.265 179.245 209.699 179.104C209.131 178.96 208.619 178.656 208.164 178.192C207.707 177.724 207.343 177.109 207.074 176.346C206.807 175.59 206.705 174.888 206.768 174.24C206.831 173.592 207.04 173.035 207.395 172.568C207.751 172.102 208.232 171.761 208.838 171.547C209.307 171.382 209.705 171.329 210.032 171.389C210.361 171.445 210.632 171.546 210.845 171.692C211.061 171.834 211.231 171.953 211.356 172.049L211.45 172.016L210.198 168.472L211.305 168.082L214.696 177.682L213.627 178.06L213.236 176.953L213.105 177C213.07 177.16 213.013 177.366 212.934 177.619C212.853 177.869 212.701 178.121 212.478 178.376C212.254 178.627 211.911 178.834 211.449 178.998ZM211.248 177.951C211.691 177.794 212.025 177.546 212.25 177.207C212.474 176.864 212.592 176.459 212.606 175.99C212.618 175.518 212.529 175.01 212.336 174.466C212.147 173.929 211.902 173.486 211.604 173.138C211.304 172.787 210.961 172.553 210.575 172.436C210.189 172.316 209.77 172.336 209.32 172.495C208.851 172.66 208.503 172.918 208.276 173.269C208.05 173.616 207.932 174.022 207.92 174.487C207.91 174.947 207.995 175.43 208.174 175.936C208.355 176.449 208.597 176.887 208.902 177.251C209.208 177.61 209.559 177.858 209.956 177.996C210.354 178.129 210.785 178.114 211.248 177.951Z" fill="black"/>
<path d="M543.822 132.71L537.051 125.107L539.62 122.819C540.217 122.287 540.8 121.961 541.371 121.839C541.941 121.712 542.48 121.749 542.987 121.95C543.495 122.151 543.948 122.475 544.347 122.923C544.746 123.371 545.017 123.86 545.16 124.389C545.305 124.917 545.286 125.458 545.101 126.013C544.914 126.565 544.525 127.105 543.933 127.632L542.092 129.272L541.364 128.455L543.176 126.842C543.585 126.478 543.85 126.115 543.972 125.754C544.093 125.392 544.103 125.042 544.001 124.703C543.899 124.359 543.712 124.034 543.441 123.73C543.17 123.426 542.87 123.204 542.543 123.065C542.217 122.924 541.869 122.897 541.498 122.984C541.125 123.068 540.731 123.294 540.318 123.662L538.699 125.103L544.743 131.89L543.822 132.71ZM552.701 125.016C552.187 125.475 551.626 125.754 551.019 125.856C550.415 125.954 549.807 125.88 549.197 125.634C548.589 125.385 548.023 124.966 547.499 124.377C546.97 123.783 546.616 123.168 546.436 122.534C546.26 121.897 546.255 121.284 546.423 120.695C546.593 120.104 546.936 119.579 547.451 119.12C547.966 118.662 548.525 118.383 549.13 118.284C549.736 118.183 550.345 118.259 550.955 118.51C551.567 118.759 552.138 119.18 552.667 119.775C553.191 120.364 553.541 120.975 553.716 121.61C553.893 122.242 553.896 122.854 553.726 123.445C553.558 124.034 553.216 124.558 552.701 125.016ZM552 124.229C552.392 123.881 552.624 123.494 552.698 123.069C552.772 122.643 552.724 122.213 552.554 121.779C552.385 121.344 552.13 120.936 551.791 120.555C551.451 120.174 551.074 119.872 550.66 119.651C550.245 119.43 549.821 119.33 549.388 119.352C548.955 119.374 548.543 119.559 548.152 119.907C547.761 120.256 547.529 120.644 547.458 121.072C547.386 121.499 547.436 121.932 547.608 122.369C547.78 122.806 548.035 123.215 548.375 123.597C548.714 123.978 549.09 124.278 549.502 124.497C549.915 124.715 550.336 124.812 550.767 124.788C551.198 124.764 551.609 124.577 552 124.229ZM556.517 121.405L551.439 115.702L552.315 114.922L557.393 120.625L556.517 121.405ZM551.038 114.355C550.867 114.507 550.668 114.58 550.441 114.574C550.216 114.566 550.03 114.48 549.885 114.316C549.739 114.153 549.676 113.959 549.693 113.735C549.713 113.508 549.809 113.319 549.98 113.167C550.15 113.015 550.348 112.943 550.573 112.951C550.801 112.957 550.987 113.042 551.132 113.206C551.278 113.369 551.341 113.564 551.32 113.79C551.303 114.015 551.209 114.203 551.038 114.355ZM559.097 111.173L558.508 112.096C558.342 112.009 558.155 111.947 557.948 111.909C557.742 111.867 557.52 111.877 557.284 111.941C557.048 112.005 556.803 112.15 556.548 112.377C556.199 112.688 555.98 113.028 555.89 113.396C555.801 113.759 555.866 114.063 556.084 114.308C556.278 114.526 556.51 114.628 556.781 114.613C557.052 114.598 557.393 114.483 557.805 114.267L558.836 113.721C559.456 113.391 560.005 113.242 560.482 113.274C560.957 113.304 561.372 113.518 561.727 113.917C562.018 114.243 562.184 114.619 562.225 115.044C562.268 115.467 562.189 115.901 561.987 116.347C561.785 116.793 561.463 117.214 561.02 117.608C560.438 118.126 559.844 118.429 559.238 118.516C558.632 118.603 558.063 118.449 557.529 118.054L558.176 117.106C558.528 117.342 558.883 117.439 559.24 117.396C559.599 117.351 559.958 117.169 560.317 116.849C560.726 116.486 560.973 116.11 561.059 115.723C561.145 115.331 561.079 115.013 560.86 114.768C560.684 114.57 560.467 114.466 560.209 114.456C559.95 114.443 559.646 114.531 559.3 114.72L558.151 115.344C557.518 115.685 556.964 115.835 556.487 115.793C556.011 115.747 555.598 115.527 555.247 115.133C554.961 114.811 554.798 114.446 554.758 114.038C554.721 113.627 554.796 113.211 554.985 112.79C555.176 112.367 555.472 111.977 555.873 111.62C556.438 111.117 556.991 110.847 557.533 110.807C558.078 110.766 558.599 110.888 559.097 111.173ZM564.559 106.308L563.97 107.232C563.804 107.145 563.617 107.082 563.411 107.045C563.204 107.002 562.983 107.013 562.747 107.077C562.511 107.14 562.265 107.286 562.01 107.513C561.661 107.824 561.442 108.163 561.353 108.531C561.264 108.895 561.328 109.199 561.546 109.444C561.74 109.662 561.973 109.763 562.243 109.748C562.514 109.733 562.856 109.618 563.267 109.403L564.299 108.857C564.919 108.526 565.467 108.377 565.944 108.41C566.419 108.439 566.834 108.654 567.189 109.052C567.48 109.379 567.646 109.755 567.687 110.18C567.731 110.602 567.652 111.037 567.45 111.483C567.248 111.929 566.925 112.349 566.482 112.744C565.901 113.262 565.307 113.564 564.701 113.651C564.095 113.738 563.525 113.584 562.991 113.19L563.638 112.241C563.991 112.478 564.345 112.574 564.702 112.532C565.062 112.487 565.421 112.304 565.78 111.985C566.188 111.621 566.435 111.246 566.521 110.859C566.607 110.467 566.541 110.149 566.323 109.903C566.146 109.705 565.929 109.601 565.672 109.591C565.412 109.578 565.109 109.667 564.762 109.855L563.613 110.479C562.981 110.82 562.426 110.97 561.95 110.929C561.474 110.882 561.06 110.662 560.71 110.269C560.423 109.947 560.26 109.582 560.22 109.173C560.183 108.763 560.259 108.347 560.447 107.926C560.639 107.503 560.935 107.112 561.336 106.755C561.9 106.253 562.453 105.982 562.996 105.943C563.54 105.902 564.061 106.023 564.559 106.308ZM571.72 108.106C571.359 108.428 570.97 108.652 570.555 108.778C570.137 108.902 569.725 108.911 569.321 108.805C568.914 108.697 568.545 108.457 568.214 108.086C567.923 107.759 567.752 107.437 567.7 107.119C567.645 106.799 567.674 106.485 567.786 106.177C567.898 105.869 568.058 105.571 568.267 105.283C568.477 104.989 568.699 104.708 568.933 104.437C569.239 104.084 569.491 103.8 569.686 103.586C569.882 103.368 570.004 103.186 570.052 103.041C570.103 102.893 570.066 102.749 569.94 102.608L569.913 102.578C569.587 102.212 569.233 102.017 568.852 101.992C568.473 101.966 568.082 102.132 567.679 102.491C567.261 102.864 567.014 103.247 566.94 103.642C566.865 104.037 566.872 104.381 566.961 104.675L565.865 105.119C565.705 104.64 565.662 104.194 565.738 103.78C565.814 103.362 565.965 102.984 566.191 102.645C566.418 102.301 566.674 102.001 566.962 101.745C567.145 101.582 567.375 101.417 567.652 101.25C567.93 101.078 568.239 100.96 568.581 100.895C568.925 100.829 569.292 100.864 569.681 101.001C570.07 101.139 570.466 101.434 570.869 101.887L574.215 105.644L573.339 106.425L572.651 105.653L572.607 105.692C572.657 105.869 572.676 106.089 572.663 106.354C572.65 106.619 572.573 106.903 572.431 107.207C572.289 107.511 572.052 107.81 571.72 108.106ZM571.153 107.2C571.5 106.891 571.731 106.563 571.847 106.215C571.966 105.865 571.99 105.529 571.92 105.205C571.852 104.88 571.712 104.598 571.501 104.36L570.786 103.559C570.789 103.636 570.744 103.75 570.65 103.899C570.557 104.044 570.441 104.203 570.302 104.376C570.164 104.544 570.026 104.706 569.89 104.862C569.755 105.014 569.646 105.138 569.562 105.234C569.361 105.467 569.191 105.705 569.053 105.948C568.915 106.186 568.843 106.425 568.839 106.664C568.835 106.899 568.932 107.127 569.13 107.35C569.401 107.655 569.719 107.785 570.083 107.74C570.447 107.691 570.804 107.51 571.153 107.2ZM573.635 100.009L576.691 103.44L575.814 104.22L570.736 98.5175L571.582 97.7636L572.376 98.6547L572.45 98.5885C572.326 98.1799 572.322 97.7665 572.437 97.3483C572.551 96.9276 572.823 96.5255 573.254 96.142C573.64 95.7981 574.048 95.5764 574.479 95.477C574.907 95.375 575.344 95.412 575.789 95.588C576.232 95.7616 576.67 96.0909 577.102 96.5761L580.329 100.2L579.453 100.98L576.279 97.4158C575.88 96.9678 575.453 96.7224 574.997 96.6796C574.54 96.6343 574.108 96.7924 573.702 97.1539C573.423 97.403 573.227 97.6863 573.114 98.0037C573.004 98.319 572.99 98.6492 573.071 98.9942C573.152 99.3393 573.34 99.6777 573.635 100.009ZM579.332 90.8624L579.993 91.605L577.038 94.2368L576.376 93.4943L579.332 90.8624ZM576.021 91.3609L576.897 90.5806L581.738 96.0161C581.958 96.2636 582.159 96.4173 582.341 96.4771C582.524 96.5323 582.69 96.5302 582.842 96.4709C582.993 96.4069 583.134 96.3176 583.262 96.2029C583.359 96.117 583.434 96.0415 583.487 95.9765C583.537 95.909 583.578 95.855 583.609 95.8145L584.488 96.4429C584.448 96.5181 584.385 96.6142 584.299 96.7313C584.214 96.8508 584.09 96.9833 583.927 97.1288C583.679 97.3492 583.389 97.512 583.057 97.6172C582.727 97.7202 582.387 97.7322 582.037 97.6532C581.69 97.5721 581.369 97.3657 581.073 97.034L576.021 91.3609ZM588.669 92.7728L583.59 87.07L584.437 86.3161L585.204 87.1775L585.263 87.1246C585.116 86.7499 585.1 86.3534 585.216 85.9352C585.332 85.517 585.56 85.1558 585.902 84.8516C585.966 84.7943 586.048 84.7239 586.147 84.6404C586.245 84.5569 586.322 84.4956 586.376 84.4565L587.169 85.3475C587.133 85.3665 587.055 85.416 586.935 85.496C586.816 85.5712 586.698 85.6606 586.582 85.7642C586.304 86.0111 586.109 86.2897 585.994 86.6C585.88 86.9056 585.851 87.2161 585.905 87.5315C585.96 87.8422 586.102 88.1263 586.331 88.3837L589.545 91.9925L588.669 92.7728ZM594.808 87.5188C594.293 87.9773 593.732 88.257 593.125 88.358C592.521 88.4569 591.914 88.383 591.304 88.1364C590.696 87.8875 590.13 87.4686 589.605 86.8795C589.076 86.2855 588.722 85.671 588.543 85.0362C588.366 84.3992 588.362 83.7862 588.53 83.1973C588.7 82.6062 589.043 82.0814 589.557 81.6229C590.072 81.1644 590.632 80.8858 591.236 80.787C591.843 80.6859 592.451 80.7611 593.061 81.0124C593.674 81.2614 594.244 81.683 594.773 82.277C595.298 82.8661 595.648 83.478 595.822 84.1125C595.999 84.7449 596.002 85.3566 595.832 85.9477C595.664 86.5366 595.323 87.0603 594.808 87.5188ZM594.107 86.7317C594.498 86.3834 594.731 85.9966 594.804 85.5713C594.878 85.146 594.831 84.7159 594.661 84.2812C594.491 83.8465 594.237 83.4385 593.897 83.0573C593.558 82.6762 593.181 82.375 592.766 82.1538C592.352 81.9326 591.928 81.8329 591.495 81.8548C591.062 81.8767 590.649 82.0617 590.258 82.41C589.867 82.7583 589.636 83.1463 589.564 83.5741C589.492 84.0019 589.543 84.4344 589.714 84.8716C589.886 85.3088 590.142 85.718 590.481 86.0992C590.821 86.4804 591.197 86.7803 591.609 86.999C592.021 87.2178 592.443 87.3149 592.874 87.2906C593.305 87.2663 593.716 87.0799 594.107 86.7317ZM600.421 82.5468C600.06 82.8686 599.671 83.0926 599.255 83.2188C598.837 83.3425 598.426 83.3515 598.021 83.2459C597.614 83.1379 597.245 82.8982 596.915 82.5269C596.624 82.2002 596.452 81.878 596.4 81.5605C596.346 81.2404 596.375 80.9263 596.487 80.6182C596.598 80.3101 596.759 80.0119 596.968 79.7235C597.177 79.4304 597.399 79.1487 597.633 78.8782C597.94 78.525 598.191 78.2414 598.387 78.0274C598.582 77.8086 598.705 77.6267 598.753 77.4816C598.804 77.3343 598.766 77.1901 598.641 77.049L598.614 77.0193C598.288 76.653 597.934 76.4576 597.553 76.4332C597.174 76.4066 596.783 76.5729 596.38 76.9322C595.961 77.3047 595.715 77.6884 595.64 78.0832C595.566 78.4779 595.573 78.8222 595.662 79.1161L594.565 79.5597C594.405 79.081 594.363 78.6348 594.439 78.2213C594.514 77.8032 594.666 77.4246 594.892 77.0855C595.118 76.7418 595.375 76.4421 595.662 76.1864C595.845 76.0233 596.076 75.8582 596.353 75.6912C596.63 75.5194 596.94 75.4012 597.282 75.3365C597.626 75.2696 597.993 75.3049 598.381 75.4424C598.77 75.5799 599.166 75.8752 599.57 76.3281L602.916 80.0855L602.04 80.8658L601.352 80.0935L601.307 80.1332C601.358 80.3099 601.377 80.5304 601.364 80.795C601.351 81.0595 601.274 81.3438 601.131 81.6478C600.989 81.9518 600.753 82.2514 600.421 82.5468ZM599.854 81.6407C600.2 81.3321 600.432 81.0039 600.548 80.6562C600.667 80.3062 600.691 79.9696 600.621 79.6462C600.553 79.3207 600.413 79.0391 600.201 78.8015L599.487 77.9995C599.49 78.0771 599.444 78.1907 599.351 78.3403C599.258 78.4851 599.142 78.6439 599.003 78.8166C598.864 78.9846 598.727 79.1469 598.591 79.3034C598.455 79.4551 598.346 79.5791 598.263 79.6752C598.062 79.9077 597.892 80.1456 597.753 80.3887C597.615 80.6272 597.544 80.8661 597.539 81.1053C597.535 81.3398 597.632 81.5684 597.831 81.7912C598.102 82.0956 598.419 82.2255 598.784 82.1809C599.148 82.1315 599.505 81.9515 599.854 81.6407ZM606.774 76.8624C606.299 77.2856 605.773 77.5392 605.195 77.6231C604.615 77.7046 604.026 77.6165 603.428 77.3588C602.828 77.0987 602.259 76.6667 601.722 76.0628C601.188 75.4638 600.828 74.8525 600.641 74.229C600.454 73.6054 600.437 73.0105 600.589 72.4442C600.742 71.8779 601.058 71.3809 601.539 70.9533C601.91 70.6226 602.258 70.4233 602.584 70.3553C602.91 70.2826 603.199 70.2735 603.452 70.3281C603.705 70.3779 603.907 70.4237 604.06 70.4654L604.134 70.3993L601.635 67.5924L602.511 66.8121L609.282 74.4159L608.436 75.1697L607.655 74.2935L607.551 74.3861C607.58 74.5474 607.605 74.7601 607.627 75.0243C607.647 75.2861 607.602 75.5769 607.492 75.8968C607.38 76.2143 607.141 76.5361 606.774 76.8624ZM606.192 75.9695C606.544 75.6565 606.759 75.3004 606.838 74.9012C606.916 74.4995 606.872 74.0791 606.707 73.64C606.54 73.1984 606.265 72.7622 605.882 72.3316C605.502 71.9058 605.109 71.5884 604.701 71.3793C604.29 71.1678 603.885 71.0809 603.483 71.1187C603.08 71.154 602.7 71.3304 602.343 71.6478C601.972 71.9784 601.748 72.3493 601.67 72.7603C601.592 73.1666 601.636 73.587 601.801 74.0215C601.966 74.4512 602.228 74.8666 602.585 75.2676C602.946 75.6735 603.336 75.9872 603.756 76.2087C604.175 76.4255 604.594 76.5225 605.013 76.4998C605.433 76.4725 605.826 76.2957 606.192 75.9695Z" fill="black"/>
<path d="M153.265 86.7152C153.256 86.2466 153.094 85.8945 152.78 85.6591C152.465 85.4209 152.044 85.3069 151.516 85.3172C151.129 85.3248 150.783 85.394 150.475 85.5251C150.168 85.6561 149.919 85.8328 149.727 86.0554C149.535 86.2779 149.419 86.5288 149.379 86.808C149.347 87.0417 149.375 87.2414 149.464 87.4074C149.552 87.5704 149.675 87.7058 149.834 87.8136C149.995 87.9184 150.167 88.0046 150.35 88.072C150.533 88.1366 150.702 88.1888 150.856 88.2284L151.713 88.4503C151.927 88.5058 152.166 88.5836 152.429 88.6836C152.693 88.7836 152.94 88.9223 153.171 89.0996C153.401 89.2741 153.579 89.5008 153.704 89.7797C153.831 90.0585 153.865 90.4031 153.805 90.8134C153.735 91.2865 153.548 91.7163 153.246 92.103C152.947 92.4896 152.547 92.8 152.045 93.0342C151.547 93.2684 150.963 93.3921 150.292 93.4051C149.667 93.4173 149.14 93.3267 148.71 93.1334C148.283 92.94 147.965 92.6649 147.756 92.3081C147.55 91.9512 147.466 91.5337 147.502 91.0557L148.592 91.0344C148.57 91.3644 148.641 91.6358 148.804 91.8486C148.968 92.0585 149.192 92.2133 149.478 92.3128C149.764 92.4095 150.081 92.4545 150.427 92.4478C150.83 92.4399 151.201 92.3673 151.54 92.23C151.881 92.0898 152.161 91.8997 152.381 91.6595C152.603 91.4165 152.737 91.1354 152.782 90.8163C152.828 90.5256 152.783 90.2906 152.649 90.1114C152.515 89.9322 152.323 89.7881 152.074 89.6793C151.824 89.5705 151.551 89.4764 151.254 89.397L150.226 89.1102C149.574 88.9268 149.076 88.6566 148.731 88.2997C148.389 87.9426 148.259 87.4692 148.341 86.8794C148.417 86.3892 148.614 85.9592 148.934 85.5892C149.253 85.2164 149.652 84.9245 150.131 84.7134C150.61 84.4995 151.128 84.3871 151.685 84.3763C152.247 84.3653 152.731 84.4582 153.135 84.6549C153.539 84.8487 153.843 85.1227 154.046 85.4767C154.249 85.828 154.329 86.2341 154.287 86.6953L153.265 86.7152ZM159.575 90.394L160.147 86.5128L161.153 86.4932L160.19 93.0587L159.184 93.0783L159.35 91.9669L159.282 91.9682C159.084 92.3045 158.804 92.5927 158.442 92.8328C158.08 93.07 157.652 93.1934 157.158 93.203C156.749 93.211 156.398 93.1284 156.105 92.9551C155.814 92.7789 155.604 92.5102 155.475 92.149C155.349 91.7849 155.325 91.3236 155.406 90.7652L156.023 86.5932L157.029 86.5736L156.427 90.677C156.359 91.1557 156.439 91.5349 156.666 91.8146C156.893 92.0944 157.216 92.2301 157.633 92.222C157.883 92.2171 158.146 92.1481 158.422 92.0148C158.701 91.8815 158.947 91.6807 159.16 91.4122C159.377 91.1438 159.515 90.8044 159.575 90.394ZM165.841 86.4018L165.721 87.2565L162.329 87.3227L162.449 86.4679L165.841 86.4018ZM163.663 84.8758L164.668 84.8562L163.75 91.1139C163.71 91.3988 163.722 91.6117 163.784 91.7525C163.849 91.8905 163.945 91.9824 164.071 92.0283C164.199 92.0712 164.338 92.0913 164.485 92.0884C164.596 92.0862 164.687 92.0788 164.758 92.066C164.828 92.0504 164.885 92.038 164.927 92.0286L165.013 92.9305C164.937 92.9576 164.834 92.9852 164.704 93.0133C164.576 93.0442 164.419 93.0614 164.232 93.0651C163.947 93.0706 163.679 93.0148 163.427 92.8975C163.175 92.7802 162.979 92.5979 162.841 92.3506C162.703 92.1032 162.661 91.7887 162.716 91.4068L163.663 84.8758ZM170.199 86.3168L170.079 87.1715L166.688 87.2377L166.808 86.3829L170.199 86.3168ZM168.021 84.7908L169.027 84.7712L168.109 91.0289C168.069 91.3138 168.08 91.5267 168.143 91.6675C168.208 91.8055 168.303 91.8974 168.429 91.9433C168.558 91.9862 168.696 92.0063 168.844 92.0034C168.955 92.0012 169.045 91.9938 169.116 91.981C169.187 91.9654 169.243 91.953 169.286 91.9436L169.372 92.8455C169.295 92.8726 169.192 92.9002 169.062 92.9283C168.935 92.9592 168.778 92.9764 168.59 92.9801C168.306 92.9856 168.038 92.9298 167.786 92.8125C167.533 92.6953 167.338 92.5129 167.199 92.2656C167.061 92.0182 167.019 91.7037 167.074 91.3218L168.021 84.7908ZM173.382 92.9378C172.78 92.9495 172.273 92.8159 171.861 92.537C171.449 92.258 171.155 91.8617 170.977 91.348C170.802 90.8343 170.763 90.2327 170.861 89.5431C170.956 88.8707 171.159 88.2828 171.47 87.7795C171.784 87.2733 172.178 86.8791 172.653 86.5971C173.131 86.3122 173.659 86.1641 174.239 86.1528C174.841 86.141 175.346 86.2761 175.755 86.5579C176.167 86.8369 176.462 87.2346 176.64 87.7511C176.817 88.2648 176.857 88.8693 176.76 89.5645C176.665 90.2312 176.459 90.8163 176.142 91.3197C175.828 91.8203 175.434 92.213 174.959 92.4979C174.487 92.7798 173.961 92.9265 173.382 92.9378ZM173.381 92.0342C173.842 92.0252 174.238 91.8996 174.572 91.6572C174.908 91.4148 175.178 91.0985 175.38 90.7081C175.586 90.3176 175.721 89.8973 175.786 89.4471C175.846 89.0197 175.835 88.6235 175.754 88.2585C175.673 87.8907 175.51 87.597 175.264 87.3773C175.018 87.1548 174.677 87.0478 174.239 87.0563C173.779 87.0653 173.379 87.1924 173.04 87.4377C172.704 87.683 172.435 88.0022 172.232 88.3954C172.03 88.7887 171.897 89.2104 171.835 89.6605C171.775 90.0879 171.784 90.4841 171.862 90.8491C171.943 91.2113 172.107 91.5022 172.352 91.7218C172.601 91.9386 172.944 92.0428 173.381 92.0342ZM179.413 88.7455L178.842 92.6949L177.837 92.7145L178.8 86.149L179.771 86.1301L179.621 87.156L179.706 87.1543C179.904 86.818 180.176 86.5456 180.521 86.3371C180.867 86.1258 181.287 86.0153 181.781 86.0057C182.218 85.9971 182.589 86.0808 182.894 86.2567C183.201 86.4298 183.421 86.6983 183.553 87.0622C183.688 87.4233 183.716 87.8831 183.635 88.4416L183.018 92.6135L182.012 92.6331L182.614 88.5297C182.69 88.0167 182.615 87.6176 182.391 87.3321C182.169 87.0466 181.824 86.9084 181.355 86.9175C181.032 86.9239 180.733 86.9993 180.46 87.1438C180.19 87.2883 179.963 87.4959 179.778 87.7666C179.596 88.0373 179.474 88.3636 179.413 88.7455ZM188.23 92.5119L189.193 85.9464L190.164 85.9274L190.013 86.9192L190.081 86.9179C190.245 86.5907 190.5 86.3229 190.845 86.1145C191.191 85.906 191.56 85.7979 191.951 85.7903C192.028 85.7888 192.121 85.7884 192.229 85.7891C192.336 85.787 192.42 85.7897 192.48 85.797L192.33 86.8229C192.295 86.815 192.218 86.8037 192.099 86.789C191.979 86.7715 191.851 86.764 191.715 86.7667C191.397 86.7729 191.104 86.8454 190.837 86.9841C190.569 87.12 190.347 87.3062 190.17 87.5427C189.993 87.7763 189.881 88.0413 189.836 88.3377L189.235 92.4922L188.23 92.5119ZM192.717 92.4243L193.68 85.8589L194.686 85.8392L193.722 92.4047L192.717 92.4243ZM194.468 84.7353C194.272 84.7391 194.102 84.6757 193.957 84.545C193.815 84.4142 193.743 84.2551 193.739 84.0676C193.735 83.8801 193.802 83.7183 193.938 83.5821C194.078 83.4458 194.245 83.3758 194.441 83.3719C194.637 83.3681 194.806 83.4316 194.948 83.5624C195.093 83.6931 195.167 83.8522 195.17 84.0397C195.174 84.2271 195.106 84.389 194.967 84.5253C194.83 84.6615 194.664 84.7315 194.468 84.7353ZM201.878 85.699L198.495 92.3117L197.473 92.3316L196.016 85.8133L197.064 85.7929L198.103 90.9895L198.171 90.9882L200.745 85.7211L201.878 85.699ZM204.738 92.3263C204.11 92.3385 203.589 92.2095 203.174 91.9391C202.76 91.6659 202.467 91.2795 202.295 90.7799C202.123 90.2775 202.086 89.69 202.184 89.0175C202.282 88.345 202.49 87.7499 202.81 87.2322C203.129 86.7117 203.532 86.3032 204.018 86.0068C204.503 85.7075 205.04 85.5521 205.628 85.5406C205.969 85.534 206.298 85.5844 206.616 85.6918C206.933 85.7993 207.209 85.9786 207.445 86.2298C207.68 86.4781 207.847 86.8101 207.946 87.2259C208.045 87.6416 208.049 88.1558 207.959 88.7685L207.899 89.1959L202.854 89.2943L202.974 88.4225L206.996 88.344C207.054 87.9735 207.03 87.6444 206.925 87.3566C206.823 87.0687 206.65 86.8434 206.405 86.6805C206.163 86.5176 205.859 86.4397 205.492 86.4468C205.115 86.4542 204.764 86.5633 204.442 86.7742C204.119 86.9822 203.851 87.2432 203.639 87.5571C203.426 87.8681 203.296 88.1832 203.248 88.5024L203.143 89.2545C203.069 89.7987 203.09 90.2302 203.207 90.549C203.327 90.8677 203.529 91.0954 203.813 91.2319C204.097 91.3656 204.45 91.4283 204.873 91.4201C205.143 91.4148 205.391 91.373 205.617 91.2948C205.843 91.2136 206.043 91.0961 206.219 90.942C206.395 90.7852 206.542 90.5919 206.66 90.3623L207.586 90.617C207.436 90.9496 207.221 91.2436 206.942 91.4991C206.666 91.7517 206.34 91.9512 205.965 92.0978C205.593 92.2414 205.184 92.3176 204.738 92.3263ZM209.015 92.1065L209.978 85.541L210.949 85.5221L210.798 86.5139L210.866 86.5125C211.03 86.1854 211.285 85.9176 211.63 85.7091C211.976 85.5006 212.345 85.3926 212.737 85.3849C212.813 85.3834 212.906 85.3831 213.014 85.3838C213.122 85.3817 213.205 85.3843 213.265 85.3917L213.115 86.4175C213.081 86.4097 213.004 86.3984 212.884 86.3837C212.764 86.3661 212.636 86.3587 212.5 86.3613C212.182 86.3675 211.889 86.44 211.622 86.5788C211.355 86.7147 211.132 86.9009 210.955 87.1373C210.778 87.3709 210.666 87.636 210.621 87.9323L210.02 92.0869L209.015 92.1065Z" fill="#1C4D7F"/>
<path d="M186.686 376.987L188.135 368.26H189.192L187.896 376.049H191.953L191.8 376.987H186.686ZM196.001 377.123C195.399 377.123 194.895 376.98 194.488 376.693C194.082 376.406 193.795 376.004 193.628 375.487C193.463 374.97 193.436 374.367 193.547 373.68C193.655 373.01 193.869 372.426 194.19 371.929C194.514 371.429 194.916 371.042 195.396 370.769C195.879 370.494 196.41 370.356 196.99 370.356C197.592 370.356 198.095 370.501 198.498 370.791C198.905 371.078 199.192 371.481 199.359 372.001C199.527 372.518 199.555 373.123 199.444 373.816C199.336 374.481 199.119 375.062 198.792 375.559C198.469 376.054 198.067 376.438 197.586 376.714C197.109 376.987 196.581 377.123 196.001 377.123ZM196.018 376.22C196.479 376.22 196.878 376.102 197.216 375.866C197.557 375.63 197.832 375.319 198.042 374.933C198.256 374.546 198.399 374.129 198.473 373.68C198.541 373.254 198.538 372.858 198.464 372.491C198.39 372.122 198.233 371.825 197.991 371.6C197.75 371.373 197.41 371.26 196.973 371.26C196.513 371.26 196.111 371.379 195.767 371.617C195.426 371.856 195.15 372.17 194.94 372.559C194.73 372.948 194.589 373.367 194.518 373.816C194.45 374.242 194.452 374.639 194.523 375.005C194.596 375.369 194.754 375.663 194.996 375.887C195.24 376.109 195.581 376.22 196.018 376.22ZM204.397 370.441L204.261 371.294H200.869L201.005 370.441H204.397ZM202.249 368.873H203.255L202.215 375.112C202.17 375.396 202.177 375.609 202.237 375.751C202.299 375.89 202.393 375.984 202.518 376.032C202.646 376.078 202.784 376.1 202.931 376.1C203.042 376.1 203.133 376.095 203.204 376.083C203.275 376.069 203.332 376.058 203.374 376.049L203.443 376.953C203.366 376.978 203.262 377.004 203.132 377.029C203.004 377.058 202.846 377.072 202.659 377.072C202.374 377.072 202.107 377.011 201.857 376.889C201.607 376.767 201.416 376.581 201.282 376.331C201.149 376.081 201.113 375.765 201.176 375.385L202.249 368.873ZM210.191 371.907L209.236 372.163C209.202 372.01 209.142 371.862 209.057 371.72C208.975 371.575 208.847 371.457 208.673 371.366C208.503 371.272 208.27 371.225 207.975 371.225C207.574 371.225 207.226 371.318 206.931 371.502C206.635 371.684 206.466 371.916 206.423 372.197C206.381 372.444 206.438 372.642 206.594 372.789C206.75 372.937 207.012 373.058 207.378 373.152L208.316 373.39C208.878 373.535 209.279 373.752 209.517 374.042C209.759 374.329 209.841 374.703 209.764 375.163C209.702 375.538 209.539 375.873 209.274 376.169C209.01 376.464 208.672 376.697 208.26 376.867C207.848 377.038 207.389 377.123 206.884 377.123C206.21 377.123 205.679 376.978 205.29 376.688C204.901 376.396 204.693 375.973 204.668 375.419L205.673 375.18C205.699 375.529 205.824 375.794 206.048 375.973C206.276 376.149 206.594 376.237 207.003 376.237C207.472 376.237 207.862 376.137 208.175 375.938C208.487 375.737 208.665 375.495 208.708 375.214C208.75 374.984 208.705 374.792 208.571 374.639C208.441 374.485 208.213 374.37 207.889 374.294L206.85 374.038C206.27 373.893 205.864 373.671 205.631 373.373C205.401 373.075 205.324 372.7 205.401 372.248C205.463 371.879 205.622 371.552 205.878 371.268C206.137 370.984 206.46 370.761 206.85 370.599C207.242 370.437 207.668 370.356 208.128 370.356C208.776 370.356 209.26 370.498 209.581 370.782C209.902 371.063 210.105 371.438 210.191 371.907ZM214.483 376.987L215.932 368.26H218.983C219.591 368.26 220.075 368.365 220.436 368.575C220.797 368.782 221.044 369.062 221.177 369.414C221.311 369.764 221.341 370.152 221.267 370.578C221.204 370.953 221.086 371.262 220.913 371.507C220.743 371.751 220.538 371.944 220.3 372.086C220.064 372.228 219.818 372.333 219.562 372.402L219.545 372.487C219.807 372.504 220.058 372.598 220.3 372.768C220.541 372.938 220.727 373.183 220.858 373.501C220.988 373.819 221.017 374.208 220.943 374.669C220.869 375.106 220.703 375.5 220.444 375.849C220.186 376.198 219.825 376.475 219.362 376.68C218.899 376.885 218.324 376.987 217.636 376.987H214.483ZM215.693 376.049H217.79C218.48 376.049 218.993 375.916 219.328 375.649C219.666 375.379 219.869 375.052 219.937 374.669C219.983 374.373 219.95 374.1 219.839 373.85C219.731 373.598 219.551 373.396 219.298 373.245C219.048 373.092 218.733 373.015 218.352 373.015H216.204L215.693 376.049ZM216.358 372.095H218.318C218.636 372.095 218.935 372.032 219.213 371.907C219.491 371.782 219.724 371.606 219.912 371.379C220.099 371.152 220.216 370.885 220.261 370.578C220.329 370.194 220.253 369.869 220.031 369.602C219.81 369.332 219.409 369.197 218.829 369.197H216.835L216.358 372.095ZM228.168 377.123C227.552 377.123 227.046 376.978 226.651 376.688C226.259 376.399 225.986 376 225.833 375.491C225.68 374.983 225.657 374.402 225.765 373.748C225.873 373.083 226.091 372.497 226.421 371.988C226.751 371.477 227.161 371.078 227.653 370.791C228.144 370.501 228.685 370.356 229.276 370.356C229.736 370.356 230.137 370.441 230.478 370.612C230.819 370.782 231.082 371.021 231.266 371.328C231.451 371.635 231.537 371.992 231.526 372.402H230.52C230.492 372.103 230.364 371.839 230.137 371.609C229.912 371.376 229.58 371.26 229.14 371.26C228.748 371.26 228.387 371.362 228.057 371.566C227.728 371.768 227.451 372.054 227.226 372.423C227.002 372.789 226.85 373.22 226.77 373.714C226.685 374.22 226.692 374.66 226.792 375.035C226.891 375.41 227.072 375.701 227.333 375.909C227.594 376.116 227.924 376.22 228.322 376.22C228.583 376.22 228.827 376.174 229.055 376.083C229.282 375.992 229.484 375.862 229.66 375.691C229.836 375.521 229.975 375.316 230.077 375.078H231.083C230.958 375.464 230.758 375.812 230.482 376.122C230.207 376.429 229.873 376.673 229.481 376.855C229.089 377.034 228.651 377.123 228.168 377.123ZM234.931 377.123C234.329 377.123 233.824 376.98 233.418 376.693C233.012 376.406 232.725 376.004 232.557 375.487C232.393 374.97 232.366 374.367 232.476 373.68C232.584 373.01 232.799 372.426 233.12 371.929C233.444 371.429 233.846 371.042 234.326 370.769C234.809 370.494 235.34 370.356 235.92 370.356C236.522 370.356 237.025 370.501 237.428 370.791C237.834 371.078 238.121 371.481 238.289 372.001C238.457 372.518 238.485 373.123 238.374 373.816C238.266 374.481 238.049 375.062 237.722 375.559C237.398 376.054 236.996 376.438 236.516 376.714C236.039 376.987 235.51 377.123 234.931 377.123ZM234.948 376.22C235.408 376.22 235.807 376.102 236.145 375.866C236.486 375.63 236.762 375.319 236.972 374.933C237.185 374.546 237.329 374.129 237.403 373.68C237.471 373.254 237.468 372.858 237.394 372.491C237.32 372.122 237.162 371.825 236.921 371.6C236.68 371.373 236.34 371.26 235.903 371.26C235.442 371.26 235.04 371.379 234.697 371.617C234.356 371.856 234.08 372.17 233.87 372.559C233.66 372.948 233.519 373.367 233.448 373.816C233.38 374.242 233.381 374.639 233.452 375.005C233.526 375.369 233.684 375.663 233.925 375.887C234.17 376.109 234.51 376.22 234.948 376.22ZM239.389 376.987L240.48 370.441H241.452L241.281 371.464H241.367C241.563 371.115 241.828 370.843 242.164 370.65C242.502 370.454 242.884 370.356 243.31 370.356C243.736 370.356 244.078 370.454 244.337 370.65C244.595 370.843 244.776 371.115 244.878 371.464H244.946C245.168 371.123 245.463 370.853 245.833 370.654C246.205 370.456 246.625 370.356 247.094 370.356C247.673 370.356 248.12 370.539 248.432 370.906C248.747 371.272 248.841 371.839 248.713 372.606L247.98 376.987H246.975L247.708 372.606C247.784 372.12 247.708 371.775 247.477 371.571C247.25 371.363 246.958 371.26 246.6 371.26C246.139 371.26 245.76 371.397 245.462 371.673C245.164 371.948 244.98 372.299 244.912 372.725L244.196 376.987H243.173L243.923 372.504C243.983 372.129 243.912 371.828 243.71 371.6C243.509 371.373 243.216 371.26 242.833 371.26C242.571 371.26 242.316 371.331 242.066 371.473C241.816 371.612 241.601 371.805 241.422 372.052C241.243 372.296 241.128 372.578 241.077 372.896L240.395 376.987H239.389ZM249.819 376.987L250.91 370.441H251.916L250.825 376.987H249.819ZM251.72 369.333C251.524 369.333 251.355 369.267 251.213 369.133C251.073 369 251.004 368.839 251.004 368.652C251.004 368.464 251.073 368.304 251.213 368.17C251.355 368.037 251.524 367.97 251.72 367.97C251.916 367.97 252.083 368.037 252.223 368.17C252.365 368.304 252.436 368.464 252.436 368.652C252.436 368.839 252.365 369 252.223 369.133C252.083 369.267 251.916 369.333 251.72 369.333ZM254.32 373.049L253.672 376.987H252.667L253.758 370.441H254.729L254.559 371.464H254.644C254.849 371.132 255.126 370.865 255.475 370.663C255.824 370.458 256.246 370.356 256.741 370.356C257.178 370.356 257.547 370.447 257.849 370.629C258.153 370.808 258.367 371.081 258.492 371.447C258.62 371.811 258.638 372.271 258.547 372.828L257.849 376.987H256.843L257.525 372.896C257.61 372.385 257.543 371.984 257.324 371.694C257.109 371.404 256.766 371.26 256.297 371.26C255.974 371.26 255.674 371.329 255.398 371.468C255.126 371.608 254.894 371.811 254.704 372.078C254.516 372.345 254.388 372.669 254.32 373.049ZM261.919 379.578C261.431 379.578 261.022 379.515 260.692 379.39C260.362 379.268 260.098 379.106 259.899 378.904C259.7 378.706 259.55 378.492 259.448 378.265L260.351 377.703C260.419 377.822 260.507 377.958 260.615 378.112C260.723 378.268 260.887 378.403 261.105 378.517C261.327 378.633 261.638 378.691 262.039 378.691C262.564 378.691 263.024 378.563 263.419 378.308C263.814 378.052 264.058 377.652 264.152 377.106L264.357 375.777H264.272C264.181 375.896 264.054 376.044 263.892 376.22C263.73 376.393 263.513 376.548 263.24 376.684C262.968 376.818 262.618 376.885 262.192 376.885C261.661 376.885 261.206 376.76 260.828 376.51C260.45 376.26 260.179 375.896 260.014 375.419C259.852 374.941 259.828 374.362 259.942 373.68C260.053 373.01 260.266 372.426 260.581 371.929C260.899 371.429 261.291 371.042 261.757 370.769C262.223 370.494 262.732 370.356 263.283 370.356C263.709 370.356 264.036 370.427 264.263 370.569C264.493 370.708 264.661 370.867 264.766 371.046C264.871 371.223 264.95 371.367 265.004 371.481H265.107L265.277 370.441H266.249L265.141 377.174C265.047 377.737 264.844 378.194 264.531 378.546C264.219 378.902 263.835 379.162 263.381 379.326C262.926 379.494 262.439 379.578 261.919 379.578ZM262.448 375.981C262.848 375.981 263.205 375.889 263.517 375.704C263.833 375.519 264.094 375.254 264.301 374.907C264.509 374.561 264.652 374.146 264.732 373.663C264.811 373.191 264.806 372.775 264.715 372.414C264.624 372.054 264.452 371.771 264.199 371.566C263.949 371.362 263.621 371.26 263.215 371.26C262.786 371.26 262.415 371.367 262.102 371.583C261.793 371.799 261.541 372.089 261.348 372.453C261.155 372.816 261.022 373.22 260.948 373.663C260.874 374.117 260.877 374.519 260.956 374.869C261.036 375.215 261.198 375.488 261.442 375.687C261.689 375.883 262.024 375.981 262.448 375.981ZM275.862 371.907L274.908 372.163C274.874 372.01 274.814 371.862 274.729 371.72C274.647 371.575 274.519 371.457 274.345 371.366C274.175 371.272 273.942 371.225 273.647 371.225C273.246 371.225 272.898 371.318 272.602 371.502C272.307 371.684 272.138 371.916 272.095 372.197C272.053 372.444 272.11 372.642 272.266 372.789C272.422 372.937 272.683 373.058 273.05 373.152L273.987 373.39C274.55 373.535 274.95 373.752 275.189 374.042C275.431 374.329 275.513 374.703 275.436 375.163C275.374 375.538 275.21 375.873 274.946 376.169C274.682 376.464 274.344 376.697 273.932 376.867C273.52 377.038 273.061 377.123 272.556 377.123C271.882 377.123 271.351 376.978 270.962 376.688C270.573 376.396 270.365 375.973 270.34 375.419L271.345 375.18C271.371 375.529 271.496 375.794 271.72 375.973C271.948 376.149 272.266 376.237 272.675 376.237C273.144 376.237 273.534 376.137 273.847 375.938C274.159 375.737 274.337 375.495 274.379 375.214C274.422 374.984 274.377 374.792 274.243 374.639C274.112 374.485 273.885 374.37 273.561 374.294L272.522 374.038C271.942 373.893 271.536 373.671 271.303 373.373C271.073 373.075 270.996 372.7 271.073 372.248C271.135 371.879 271.294 371.552 271.55 371.268C271.808 370.984 272.132 370.761 272.522 370.599C272.914 370.437 273.34 370.356 273.8 370.356C274.448 370.356 274.932 370.498 275.253 370.782C275.574 371.063 275.777 371.438 275.862 371.907ZM279.345 377.123C278.743 377.123 278.238 376.98 277.832 376.693C277.426 376.406 277.139 376.004 276.971 375.487C276.807 374.97 276.78 374.367 276.89 373.68C276.998 373.01 277.213 372.426 277.534 371.929C277.858 371.429 278.26 371.042 278.74 370.769C279.223 370.494 279.754 370.356 280.334 370.356C280.936 370.356 281.439 370.501 281.842 370.791C282.248 371.078 282.535 371.481 282.703 372.001C282.871 372.518 282.899 373.123 282.788 373.816C282.68 374.481 282.463 375.062 282.136 375.559C281.812 376.054 281.41 376.438 280.93 376.714C280.453 376.987 279.925 377.123 279.345 377.123ZM279.362 376.22C279.822 376.22 280.221 376.102 280.56 375.866C280.9 375.63 281.176 375.319 281.386 374.933C281.599 374.546 281.743 374.129 281.817 373.68C281.885 373.254 281.882 372.858 281.808 372.491C281.734 372.122 281.577 371.825 281.335 371.6C281.094 371.373 280.754 371.26 280.317 371.26C279.856 371.26 279.454 371.379 279.111 371.617C278.77 371.856 278.494 372.17 278.284 372.559C278.074 372.948 277.933 373.367 277.862 373.816C277.794 374.242 277.795 374.639 277.866 375.005C277.94 375.369 278.098 375.663 278.339 375.887C278.584 376.109 278.925 376.22 279.362 376.22ZM286.505 377.123C285.903 377.123 285.399 376.98 284.992 376.693C284.586 376.406 284.299 376.004 284.132 375.487C283.967 374.97 283.94 374.367 284.051 373.68C284.159 373.01 284.373 372.426 284.694 371.929C285.018 371.429 285.42 371.042 285.9 370.769C286.383 370.494 286.914 370.356 287.494 370.356C288.096 370.356 288.599 370.501 289.002 370.791C289.409 371.078 289.696 371.481 289.863 372.001C290.031 372.518 290.059 373.123 289.948 373.816C289.84 374.481 289.623 375.062 289.296 375.559C288.973 376.054 288.571 376.438 288.09 376.714C287.613 376.987 287.085 377.123 286.505 377.123ZM286.522 376.22C286.982 376.22 287.382 376.102 287.72 375.866C288.061 375.63 288.336 375.319 288.546 374.933C288.759 374.546 288.903 374.129 288.977 373.68C289.045 373.254 289.042 372.858 288.968 372.491C288.894 372.122 288.737 371.825 288.495 371.6C288.254 371.373 287.914 371.26 287.477 371.26C287.017 371.26 286.615 371.379 286.271 371.617C285.93 371.856 285.654 372.17 285.444 372.559C285.234 372.948 285.093 373.367 285.022 373.816C284.954 374.242 284.955 374.639 285.026 375.005C285.1 375.369 285.258 375.663 285.499 375.887C285.744 376.109 286.085 376.22 286.522 376.22ZM292.617 373.049L291.969 376.987H290.964L292.055 370.441H293.026L292.856 371.464H292.941C293.145 371.132 293.422 370.865 293.772 370.663C294.121 370.458 294.543 370.356 295.037 370.356C295.475 370.356 295.844 370.447 296.145 370.629C296.449 370.808 296.664 371.081 296.789 371.447C296.917 371.811 296.935 372.271 296.844 372.828L296.145 376.987H295.14L295.822 372.896C295.907 372.385 295.84 371.984 295.621 371.694C295.405 371.404 295.063 371.26 294.594 371.26C294.27 371.26 293.971 371.329 293.695 371.468C293.422 371.608 293.191 371.811 293.001 372.078C292.813 372.345 292.685 372.669 292.617 373.049Z" fill="black"/>
<path d="M300.211 309.3L301.567 309.871L301.48 319.003L301.59 319.049L308.057 312.6L309.413 313.171L305.466 322.556L304.402 322.109L307.402 314.978L307.31 314.94L301.378 320.837L300.351 320.405L300.417 312.041L300.326 312.002L297.327 319.133L296.263 318.686L300.211 309.3ZM309.6 324.489C309.154 324.301 308.784 324.047 308.491 323.726C308.2 323.402 308.014 323.035 307.936 322.624C307.858 322.21 307.915 321.774 308.108 321.316C308.278 320.913 308.495 320.619 308.759 320.436C309.024 320.249 309.32 320.14 309.646 320.108C309.973 320.076 310.311 320.092 310.661 320.157C311.016 320.22 311.366 320.299 311.711 320.393C312.162 320.518 312.526 320.623 312.803 320.707C313.085 320.79 313.301 320.822 313.453 320.803C313.608 320.785 313.722 320.689 313.795 320.515L313.811 320.478C314.001 320.026 314.025 319.623 313.883 319.268C313.744 318.915 313.425 318.634 312.927 318.424C312.411 318.207 311.959 318.15 311.57 318.252C311.182 318.355 310.874 318.51 310.647 318.716L309.775 317.918C310.138 317.567 310.522 317.337 310.928 317.227C311.338 317.116 311.745 317.089 312.148 317.147C312.556 317.204 312.937 317.306 313.292 317.455C313.518 317.551 313.766 317.687 314.036 317.866C314.31 318.042 314.55 318.271 314.756 318.551C314.965 318.833 315.091 319.179 315.134 319.589C315.177 320 315.081 320.484 314.846 321.043L312.895 325.681L311.814 325.226L312.215 324.273L312.16 324.25C312.022 324.372 311.831 324.484 311.587 324.586C311.343 324.688 311.053 324.741 310.717 324.743C310.382 324.746 310.009 324.661 309.6 324.489ZM310.173 323.587C310.601 323.767 310.997 323.834 311.361 323.79C311.728 323.746 312.042 323.623 312.304 323.42C312.568 323.219 312.762 322.971 312.886 322.678L313.302 321.688C313.233 321.724 313.111 321.732 312.936 321.712C312.765 321.691 312.572 321.654 312.356 321.603C312.145 321.55 311.939 321.496 311.739 321.441C311.544 321.384 311.385 321.339 311.262 321.305C310.966 321.224 310.678 321.173 310.399 321.152C310.124 321.13 309.878 321.169 309.66 321.268C309.447 321.365 309.282 321.551 309.167 321.826C309.008 322.202 309.028 322.544 309.225 322.854C309.426 323.161 309.743 323.406 310.173 323.587ZM313.759 329.151L317.83 319.472L318.875 319.912L318.405 321.03L318.533 321.084C318.664 320.995 318.839 320.885 319.059 320.755C319.284 320.623 319.561 320.538 319.889 320.5C320.223 320.46 320.618 320.537 321.076 320.73C321.669 320.979 322.129 321.347 322.457 321.834C322.784 322.32 322.961 322.889 322.985 323.539C323.01 324.189 322.867 324.884 322.556 325.624C322.243 326.369 321.844 326.962 321.361 327.402C320.878 327.839 320.35 328.113 319.774 328.224C319.201 328.331 318.621 328.262 318.034 328.015C317.582 327.825 317.251 327.598 317.042 327.334C316.835 327.066 316.698 326.806 316.632 326.552C316.568 326.294 316.523 326.085 316.497 325.923L316.406 325.885L314.841 329.606L313.759 329.151ZM317.413 323.439C317.189 323.971 317.07 324.472 317.055 324.944C317.041 325.413 317.136 325.825 317.339 326.18C317.543 326.532 317.862 326.799 318.296 326.982C318.748 327.172 319.176 327.211 319.578 327.1C319.985 326.987 320.351 326.76 320.674 326.418C321.002 326.074 321.272 325.652 321.482 325.151C321.691 324.656 321.802 324.177 321.816 323.716C321.835 323.253 321.74 322.841 321.532 322.48C321.329 322.118 320.998 321.84 320.54 321.647C320.1 321.462 319.683 321.418 319.29 321.515C318.898 321.609 318.542 321.823 318.222 322.156C317.904 322.486 317.634 322.913 317.413 323.439ZM327.762 320.888L323.815 330.274L322.733 329.819L326.681 320.433L327.762 320.888ZM328.685 332.495C328.007 332.21 327.485 331.814 327.119 331.307C326.758 330.799 326.558 330.219 326.519 329.567C326.485 328.912 326.62 328.225 326.923 327.504C327.226 326.783 327.625 326.202 328.119 325.763C328.617 325.322 329.168 325.046 329.772 324.937C330.379 324.826 331.001 324.904 331.636 325.171C332.003 325.325 332.339 325.539 332.645 325.811C332.951 326.084 333.193 326.419 333.371 326.818C333.55 327.213 333.632 327.672 333.617 328.194C333.602 328.716 333.457 329.306 333.181 329.963L332.988 330.421L327.562 328.139L327.955 327.204L332.281 329.024C332.448 328.626 332.518 328.239 332.49 327.86C332.465 327.483 332.346 327.143 332.131 326.841C331.92 326.54 331.619 326.307 331.228 326.143C330.797 325.962 330.379 325.912 329.975 325.993C329.574 326.073 329.219 326.247 328.908 326.515C328.597 326.784 328.36 327.112 328.197 327.5L327.935 328.123C327.712 328.655 327.614 329.144 327.642 329.591C327.674 330.036 327.814 330.424 328.063 330.755C328.314 331.084 328.657 331.34 329.094 331.523C329.378 331.643 329.652 331.711 329.914 331.728C330.181 331.743 330.432 331.705 330.669 331.614C330.906 331.52 331.122 331.369 331.316 331.164L332.238 331.896C331.979 332.204 331.663 332.438 331.29 332.598C330.919 332.755 330.511 332.827 330.066 332.816C329.622 332.802 329.162 332.695 328.685 332.495ZM344.22 332.427L343.133 332.293C343.14 332.106 343.116 331.91 343.061 331.708C343.01 331.503 342.906 331.308 342.746 331.122C342.587 330.937 342.35 330.778 342.035 330.645C341.605 330.464 341.204 330.412 340.833 330.49C340.467 330.566 340.22 330.755 340.093 331.058C339.98 331.327 339.988 331.58 340.118 331.818C340.248 332.056 340.499 332.315 340.871 332.593L341.808 333.289C342.373 333.707 342.744 334.138 342.92 334.582C343.097 335.024 343.083 335.49 342.876 335.982C342.706 336.385 342.438 336.697 342.073 336.917C341.71 337.139 341.284 337.254 340.794 337.264C340.305 337.274 339.786 337.164 339.239 336.934C338.522 336.632 337.993 336.226 337.653 335.717C337.314 335.207 337.208 334.627 337.334 333.975L338.469 334.15C338.407 334.57 338.472 334.932 338.665 335.236C338.86 335.541 339.179 335.787 339.622 335.973C340.126 336.185 340.571 336.246 340.958 336.157C341.348 336.066 341.607 335.869 341.734 335.567C341.837 335.322 341.838 335.082 341.736 334.845C341.636 334.605 341.426 334.369 341.106 334.138L340.048 333.369C339.468 332.945 339.094 332.509 338.926 332.061C338.763 331.612 338.784 331.144 338.988 330.658C339.155 330.261 339.414 329.956 339.766 329.745C340.121 329.534 340.529 329.424 340.99 329.413C341.454 329.403 341.934 329.502 342.429 329.71C343.125 330.003 343.608 330.386 343.877 330.859C344.148 331.333 344.263 331.855 344.22 332.427ZM349.701 332.877L349.315 333.793L345.667 332.259L346.053 331.343L349.701 332.877ZM347.825 330.103L348.907 330.558L346.085 337.267C345.957 337.573 345.904 337.821 345.929 338.011C345.958 338.199 346.031 338.349 346.15 338.46C346.273 338.569 346.414 338.657 346.573 338.724C346.692 338.774 346.792 338.809 346.874 338.829C346.957 338.846 347.023 338.859 347.072 338.869L346.884 339.933C346.799 339.93 346.685 339.914 346.542 339.887C346.398 339.862 346.225 339.807 346.023 339.722C345.718 339.594 345.446 339.402 345.208 339.147C344.973 338.894 344.816 338.592 344.736 338.243C344.66 337.894 344.708 337.515 344.88 337.106L347.825 330.103ZM348.367 340.6L351.328 333.561L352.372 334.001L351.925 335.064L351.999 335.095C352.273 334.8 352.624 334.615 353.052 334.54C353.479 334.464 353.904 334.515 354.325 334.692C354.405 334.726 354.503 334.769 354.621 334.822C354.739 334.875 354.827 334.918 354.886 334.95L354.423 336.05C354.39 336.025 354.312 335.976 354.188 335.902C354.069 335.827 353.938 335.759 353.794 335.699C353.452 335.555 353.116 335.498 352.787 335.529C352.462 335.557 352.169 335.664 351.908 335.849C351.651 336.032 351.456 336.283 351.322 336.601L349.449 341.055L348.367 340.6ZM355.844 343.918C355.166 343.632 354.644 343.236 354.278 342.73C353.916 342.222 353.716 341.642 353.678 340.989C353.644 340.335 353.778 339.647 354.082 338.926C354.385 338.205 354.783 337.625 355.277 337.186C355.776 336.744 356.327 336.469 356.93 336.36C357.538 336.249 358.159 336.327 358.795 336.594C359.161 336.748 359.498 336.961 359.804 337.234C360.11 337.507 360.352 337.842 360.529 338.24C360.708 338.636 360.79 339.094 360.776 339.617C360.761 340.139 360.615 340.729 360.339 341.386L360.146 341.844L354.72 339.562L355.114 338.627L359.44 340.446C359.607 340.049 359.676 339.661 359.649 339.283C359.624 338.906 359.504 338.566 359.29 338.264C359.078 337.963 358.777 337.73 358.386 337.565C357.955 337.384 357.538 337.334 357.133 337.416C356.733 337.496 356.377 337.67 356.067 337.938C355.756 338.207 355.519 338.535 355.356 338.923L355.094 339.546C354.87 340.078 354.772 340.567 354.8 341.014C354.832 341.459 354.973 341.847 355.222 342.178C355.472 342.506 355.816 342.762 356.253 342.946C356.537 343.065 356.81 343.134 357.073 343.151C357.339 343.166 357.591 343.128 357.827 343.037C358.065 342.942 358.28 342.792 358.475 342.586L359.396 343.319C359.137 343.627 358.821 343.861 358.449 344.021C358.077 344.177 357.669 344.25 357.224 344.239C356.781 344.225 356.321 344.118 355.844 343.918ZM363.355 347.077C362.677 346.791 362.155 346.396 361.789 345.889C361.427 345.381 361.227 344.801 361.189 344.148C361.155 343.494 361.289 342.806 361.593 342.085C361.896 341.364 362.295 340.784 362.789 340.345C363.287 339.904 363.838 339.628 364.441 339.519C365.049 339.408 365.67 339.486 366.306 339.753C366.673 339.907 367.009 340.121 367.315 340.393C367.621 340.666 367.863 341.001 368.04 341.399C368.219 341.795 368.301 342.253 368.287 342.776C368.272 343.298 368.126 343.888 367.85 344.545L367.657 345.003L362.231 342.721L362.625 341.786L366.951 343.605C367.118 343.208 367.187 342.82 367.16 342.442C367.135 342.065 367.015 341.725 366.801 341.423C366.59 341.122 366.288 340.889 365.897 340.725C365.466 340.543 365.049 340.493 364.644 340.575C364.244 340.655 363.888 340.829 363.578 341.097C363.267 341.366 363.03 341.694 362.867 342.082L362.605 342.705C362.381 343.237 362.283 343.726 362.311 344.173C362.343 344.618 362.484 345.006 362.733 345.337C362.983 345.665 363.327 345.921 363.764 346.105C364.048 346.225 364.321 346.293 364.584 346.31C364.851 346.325 365.102 346.287 365.338 346.196C365.576 346.101 365.792 345.951 365.986 345.745L366.908 346.478C366.648 346.786 366.333 347.02 365.96 347.18C365.588 347.336 365.18 347.409 364.735 347.398C364.292 347.384 363.832 347.277 363.355 347.077ZM373.998 343.096L373.613 344.013L369.965 342.479L370.351 341.562L373.998 343.096ZM372.123 340.323L373.205 340.778L370.383 347.487C370.254 347.792 370.202 348.04 370.227 348.23C370.255 348.418 370.329 348.568 370.448 348.679C370.571 348.788 370.712 348.876 370.87 348.943C370.99 348.993 371.09 349.028 371.171 349.048C371.254 349.065 371.321 349.079 371.37 349.089L371.182 350.153C371.097 350.149 370.983 350.134 370.84 350.106C370.696 350.081 370.523 350.027 370.321 349.942C370.016 349.813 369.744 349.622 369.506 349.367C369.271 349.113 369.114 348.812 369.034 348.462C368.958 348.114 369.006 347.735 369.178 347.325L372.123 340.323Z" fill="black"/>
</svg>
