<?xml version="1.0" encoding="utf-8"?>
<!-- Generator: Adobe Illustrator 26.0.0, SVG Export Plug-In . SVG Version: 6.00 Build 0)  -->
<svg version="1.1" id="Layer_1" xmlns="http://www.w3.org/2000/svg" xmlns:xlink="http://www.w3.org/1999/xlink" x="0px" y="0px"
	 viewBox="0 0 512 512" style="enable-background:new 0 0 512 512;" xml:space="preserve">
<style type="text/css">
	.st0{fill:#379482;}
	.st1{fill:#1C4D7F;}
</style>
<g>
	<g>
		<path class="st0" d="M124.2,335.4v25.5H40.9V246.6h28.2v88.7h55.1V335.4z"/>
		<path class="st0" d="M213.4,344.2h-45.2l-6.7,16.7h-31.9l45.2-114.2h31.9L252,360.9H220L213.4,344.2z M204.6,322l-13.8-35.1
			L177,322H204.6z"/>
		<path class="st0" d="M264.4,246.6H324c21.1,0,35.8,12.1,35.8,28.8c0,11.4-5.8,20.5-15.8,25.5c13.2,5.8,20.9,16.7,20.9,29.1
			c0,18.3-16.1,30.9-38.7,30.9h-61.9V246.6H264.4z M317,291.8c7.9,0,13.5-4.5,13.5-10.6c0-6.2-5.6-10.5-13.5-10.5h-24.4v21.1H317z
			 M321.4,336.7c8.3,0,14.3-4.8,14.3-11.5c0-6.7-5.9-11.5-14.3-11.5h-28.8v22.9H321.4z"/>
		<path class="st0" d="M373,343.7l15.9-19.1c11.1,9.1,23.6,14.4,37.6,14.4c10.6,0,16.1-4.4,16.1-10.5c0-6.8-5.3-8.3-22-12.3
			c-24.4-5.5-42.6-12.1-42.6-35.1c0-22,17.6-36.6,43.7-36.6c19.1,0,34.1,5.5,46.2,15.6l-14.4,20.3c-10.5-8-22-12.1-32.6-12.1
			c-9.1,0-14.3,4.4-14.3,10c0,7,5.5,9.3,22.4,12.9c25.6,5.5,42,12.8,42,34.3c0,22.9-17.4,37.2-45.7,37.2
			C405.3,362.8,386.8,356.2,373,343.7z"/>
	</g>
	<g>
		<path class="st1" d="M85.8,150.3v54.9h-6.3v-24.9H47.2v24.9h-6.3v-54.9h6.3v24h32.4v-24H85.8z"/>
		<path class="st1" d="M137.5,192.7h-30.6l-5.5,12.4h-6.8l24.2-54.9h6.8l24.2,54.9H143L137.5,192.7z M134.9,186.8l-12.7-28.9
			l-12.7,28.9H134.9z"/>
		<path class="st1" d="M173.1,182.8L151,150.4h7.7l17.6,26.6l17.8-26.6h7.5l-22.2,32.5v22.3H173v-22.3H173.1z"/>
		<path class="st1" d="M206.8,197.4l3.9-4.9c4.7,4.7,10.3,7.9,17.9,7.9c8.5,0,12.7-4.7,12.7-9.6c0-5.8-5.2-8.2-14.8-10.4
			c-11-2.5-17.9-5.9-17.9-15.5c0-8.8,7.9-15.6,18.4-15.6c8.2,0,14.2,3.2,19.2,7.9l-3.8,4.9c-4.6-4.4-10-7-15.7-7
			c-6.8,0-11.8,4.5-11.8,9.6c0,5.6,5.4,7.6,14.8,9.9c10.5,2.4,17.9,6.3,17.9,15.9c0,8.7-6.6,15.8-19.3,15.8
			C219.4,206.1,212.3,202.8,206.8,197.4z"/>
		<path class="st1" d="M274,156.2h-18.5v-5.9h43.1v5.9h-18.5v48.9h-6.3v-48.9H274z"/>
		<path class="st1" d="M342.2,192.7h-30.6l-5.5,12.4h-6.8l24.2-54.9h6.8l24.2,54.9h-6.8L342.2,192.7z M339.6,186.8l-12.7-28.9
			l-12.7,28.9H339.6z"/>
		<path class="st1" d="M361.2,177.7c0-15.4,12.9-28.3,28.1-28.3c7.5,0,14.6,3.2,19.7,8.4l-4.2,4.4c-4-4.2-9.6-6.9-15.5-6.9
			c-11.8,0-21.8,10.4-21.8,22.6c0,12.3,10,22.7,21.8,22.7c5.9,0,11.5-2.8,15.5-6.9l4.2,4.4c-5.1,5.1-12.1,8.4-19.7,8.4
			C374.1,206.1,361.2,193.1,361.2,177.7z"/>
		<path class="st1" d="M418.6,150.3h6.3v30.3l27.8-30.3h8.2l-23,25.1l24.6,29.8h-8.1l-20.9-25.6l-8.6,9.1v16.3h-6.3V150.3z"/>
	</g>
</g>
</svg>
