<svg width="512" height="512" viewBox="0 0 512 512" fill="none" xmlns="http://www.w3.org/2000/svg">
<rect width="512" height="512" fill="white"/>
<path fill-rule="evenodd" clip-rule="evenodd" d="M307.998 146.617L371.823 123.621L370.035 118.657L144.371 199.963L146.16 204.927L301.042 149.124L293.424 210.662C292.991 214.161 290.236 216.918 286.737 217.353L284.025 217.69C277.282 218.529 272.062 223.999 271.54 230.773L266.678 293.827L264.161 290.979C261.449 287.908 257.549 286.15 253.452 286.15H220.294L214.432 269.014L208.191 271.149L220.871 308.213C220.919 308.752 221.06 309.246 221.254 309.686C221.527 312.568 224.164 314.807 227.327 316.162C231.28 317.857 237.607 319.019 247.408 319.019C256.946 319.019 262.501 318.82 265.708 318.239C267.276 317.955 268.852 317.493 270.039 316.459C270.616 315.956 271.009 315.405 271.277 314.859L269.376 327.517C269.167 328.91 267.97 329.941 266.56 329.941V336.537H277.556V329.941H275.565C275.712 329.475 275.824 328.992 275.899 328.496L278.019 314.373C278.646 310.196 277.393 305.955 274.596 302.789L272.762 300.714L278.116 231.28C278.398 227.632 281.208 224.687 284.839 224.236L287.551 223.898C294.048 223.091 299.166 217.97 299.97 211.473L307.998 146.617ZM80.725 392.949V370.563H94.2351V372.968H83.4358V380.532H93.5355V382.936H83.4358V390.544H94.41V392.949H80.725ZM86.2777 368.289L88.9447 363.218H91.9615L88.5512 368.289H86.2777ZM28.9722 372.968V370.563H45.7613V372.968H38.7221V392.949H36.0114V372.968H28.9722ZM129.901 370.563V392.949H143.018V390.544H132.612V370.563H129.901ZM177.995 392.949V370.563H191.505V372.968H180.706V380.532H190.805V382.936H180.706V390.544H191.68V392.949H177.995ZM183.548 368.289L186.215 363.218H189.231L185.821 368.289H183.548ZM237.817 373.58C238.75 374.192 239.282 375.052 239.413 376.159H242.036C242 375.03 241.65 374.021 240.987 373.132C240.331 372.243 239.442 371.543 238.32 371.033C237.198 370.516 235.915 370.257 234.473 370.257C233.044 370.257 231.751 370.519 230.592 371.044C229.441 371.561 228.523 372.29 227.838 373.23C227.16 374.163 226.821 375.256 226.821 376.509C226.821 378.018 227.331 379.238 228.352 380.171C229.372 381.104 230.756 381.821 232.505 382.324L235.26 383.111C236.047 383.33 236.779 383.585 237.457 383.876C238.134 384.168 238.681 384.547 239.096 385.013C239.511 385.479 239.719 386.084 239.719 386.828C239.719 387.644 239.479 388.358 238.998 388.97C238.517 389.575 237.865 390.048 237.041 390.391C236.218 390.726 235.289 390.894 234.254 390.894C233.365 390.894 232.534 390.762 231.762 390.5C230.997 390.231 230.363 389.822 229.86 389.276C229.364 388.722 229.08 388.023 229.007 387.177H226.209C226.297 388.401 226.672 389.476 227.335 390.402C228.005 391.327 228.924 392.049 230.089 392.566C231.263 393.083 232.651 393.342 234.254 393.342C235.974 393.342 237.435 393.054 238.637 392.479C239.847 391.903 240.765 391.127 241.392 390.15C242.025 389.174 242.342 388.081 242.342 386.871C242.342 385.822 242.128 384.937 241.698 384.215C241.268 383.494 240.721 382.904 240.058 382.444C239.402 381.978 238.714 381.61 237.992 381.34C237.278 381.071 236.63 380.859 236.047 380.706L233.773 380.094C233.358 379.985 232.902 379.843 232.407 379.668C231.911 379.486 231.438 379.256 230.986 378.979C230.534 378.695 230.162 378.342 229.871 377.919C229.587 377.489 229.445 376.976 229.445 376.378C229.445 375.664 229.649 375.026 230.057 374.465C230.472 373.904 231.048 373.463 231.784 373.143C232.527 372.822 233.394 372.662 234.385 372.662C235.74 372.662 236.885 372.968 237.817 373.58ZM280.29 370.563V392.949H277.579V370.563H280.29ZM316.505 370.563V392.949H330.19V390.544H319.216V382.936H329.316V380.532H319.216V372.968H330.016V370.563H316.505ZM318.735 363.218L322.146 368.289H324.419L321.752 363.218H318.735ZM380.984 377.559C380.744 376.823 380.427 376.163 380.033 375.58C379.647 374.99 379.184 374.487 378.645 374.072C378.113 373.656 377.508 373.339 376.831 373.121C376.153 372.902 375.41 372.793 374.601 372.793C373.275 372.793 372.069 373.135 370.983 373.82C369.897 374.505 369.034 375.515 368.392 376.848C367.751 378.182 367.43 379.817 367.43 381.756C367.43 383.694 367.755 385.33 368.403 386.664C369.052 387.997 369.93 389.006 371.037 389.691C372.145 390.376 373.391 390.719 374.776 390.719C376.058 390.719 377.188 390.445 378.164 389.899C379.148 389.345 379.913 388.565 380.459 387.56C380.99 386.59 381.266 385.457 381.289 384.16H375.388V381.756H383.913V384.16C383.913 386.004 383.52 387.607 382.733 388.97C381.953 390.333 380.875 391.389 379.498 392.14C378.128 392.883 376.554 393.255 374.776 393.255C372.794 393.255 371.052 392.788 369.551 391.856C368.057 390.923 366.891 389.597 366.053 387.877C365.222 386.157 364.807 384.117 364.807 381.756C364.807 379.985 365.044 378.393 365.518 376.979C365.999 375.558 366.676 374.349 367.551 373.35C368.425 372.352 369.46 371.587 370.655 371.055C371.85 370.523 373.165 370.257 374.601 370.257C375.781 370.257 376.882 370.436 377.902 370.793C378.929 371.142 379.844 371.641 380.645 372.29C381.454 372.931 382.128 373.7 382.667 374.596C383.207 375.485 383.578 376.473 383.782 377.559H380.984ZM432.846 370.563H419.336V392.949H433.021V390.544H422.047V382.936H432.147V380.532H422.047V372.968H432.846V370.563ZM475.552 393.255C474.633 393.24 473.715 393.065 472.797 392.73C471.879 392.395 471.041 391.83 470.283 391.036C469.525 390.234 468.917 389.152 468.458 387.789C467.999 386.419 467.769 384.7 467.769 382.63C467.769 380.648 467.955 378.892 468.327 377.362C468.698 375.824 469.237 374.531 469.944 373.481C470.651 372.425 471.504 371.623 472.502 371.077C473.508 370.53 474.641 370.257 475.901 370.257C477.155 370.257 478.27 370.508 479.246 371.011C480.23 371.507 481.031 372.199 481.651 373.088C482.27 373.977 482.671 375.001 482.853 376.159H480.186C479.938 375.154 479.457 374.319 478.743 373.656C478.029 372.993 477.082 372.662 475.901 372.662C474.167 372.662 472.801 373.416 471.802 374.924C470.811 376.433 470.312 378.55 470.305 381.275H470.48C470.888 380.655 471.372 380.127 471.934 379.69C472.502 379.245 473.129 378.903 473.814 378.662C474.499 378.422 475.224 378.302 475.989 378.302C477.271 378.302 478.444 378.622 479.508 379.264C480.572 379.898 481.425 380.776 482.066 381.898C482.707 383.013 483.028 384.292 483.028 385.734C483.028 387.119 482.718 388.387 482.099 389.538C481.479 390.682 480.609 391.593 479.486 392.271C478.372 392.941 477.06 393.269 475.552 393.255ZM475.552 390.85C476.47 390.85 477.293 390.62 478.022 390.161C478.758 389.702 479.337 389.086 479.76 388.314C480.19 387.542 480.405 386.682 480.405 385.734C480.405 384.809 480.197 383.967 479.782 383.21C479.374 382.444 478.809 381.836 478.087 381.384C477.373 380.932 476.557 380.706 475.639 380.706C474.947 380.706 474.302 380.845 473.704 381.122C473.107 381.391 472.582 381.763 472.13 382.237C471.686 382.71 471.336 383.253 471.081 383.865C470.826 384.47 470.698 385.108 470.698 385.778C470.698 386.667 470.906 387.498 471.321 388.27C471.744 389.043 472.32 389.666 473.048 390.139C473.784 390.613 474.619 390.85 475.552 390.85Z" fill="#379482"/>
</svg>
