<svg width="261" height="337" viewBox="0 0 261 337" fill="none" xmlns="http://www.w3.org/2000/svg">
<path d="M205.727 18.0914L205.954 17.3586L209.639 15.1984C210.071 14.9456 210.432 14.7213 210.721 14.5254C211.012 14.3269 211.243 14.1278 211.415 13.9283C211.59 13.7268 211.717 13.4985 211.796 13.2434C211.887 12.9503 211.895 12.6748 211.82 12.4167C211.748 12.1594 211.61 11.9351 211.404 11.7436C211.199 11.5521 210.946 11.4097 210.644 11.3165C210.324 11.2173 210.024 11.1972 209.744 11.2563C209.468 11.3134 209.228 11.4399 209.024 11.6357C208.824 11.8323 208.674 12.0893 208.576 12.4068L207.615 12.1094C207.766 11.6209 208.012 11.227 208.351 10.9277C208.691 10.6283 209.087 10.4356 209.538 10.3495C209.993 10.2643 210.463 10.2969 210.949 10.4473C211.438 10.5985 211.839 10.8357 212.152 11.1587C212.465 11.4818 212.675 11.8515 212.781 12.268C212.887 12.6844 212.873 13.1071 212.741 13.5358C212.646 13.8425 212.497 14.1252 212.295 14.3838C212.097 14.6406 211.806 14.906 211.424 15.1802C211.045 15.4526 210.538 15.7712 209.901 16.1362L207.409 17.5592L207.389 17.6244L211.264 18.8243L210.987 19.7198L205.727 18.0914ZM212.668 20.2404L212.895 19.5077L216.579 17.3474C217.011 17.0946 217.372 16.8703 217.662 16.6744C217.952 16.4759 218.183 16.2768 218.355 16.0773C218.531 15.8758 218.658 15.6475 218.737 15.3924C218.828 15.0993 218.836 14.8238 218.761 14.5657C218.689 14.3084 218.55 14.0841 218.345 13.8926C218.139 13.7011 217.886 13.5587 217.585 13.4655C217.265 13.3663 216.964 13.3463 216.684 13.4053C216.408 13.4624 216.168 13.5889 215.965 13.7847C215.764 13.9813 215.615 14.2383 215.516 14.5559L214.556 14.2584C214.707 13.7699 214.952 13.376 215.292 13.0767C215.631 12.7773 216.027 12.5846 216.479 12.4985C216.934 12.4133 217.404 12.4459 217.89 12.5963C218.378 12.7475 218.779 12.9847 219.092 13.3077C219.406 13.6308 219.615 14.0005 219.721 14.417C219.827 14.8335 219.814 15.2561 219.681 15.6849C219.586 15.9915 219.438 16.2742 219.236 16.5328C219.037 16.7896 218.747 17.055 218.365 17.3292C217.986 17.6016 217.478 17.9202 216.842 18.2852L214.349 19.7082L214.329 19.7734L218.204 20.9733L217.927 21.8688L212.668 20.2404ZM221.41 21.6983L221.209 22.1178C221.067 22.4129 220.894 22.7221 220.69 23.0455C220.488 23.3697 220.289 23.6723 220.092 23.9533C219.895 24.2343 219.735 24.457 219.613 24.6214L218.88 24.3945C218.969 24.2317 219.087 24.0167 219.232 23.7494C219.377 23.4821 219.533 23.1809 219.699 22.8457C219.867 22.5141 220.027 22.171 220.178 21.8164L220.368 21.3756L221.41 21.6983ZM225.223 24.2528C224.746 24.1049 224.345 23.8768 224.021 23.5683C223.697 23.2599 223.471 22.9044 223.343 22.5019C223.215 22.0994 223.205 21.6831 223.315 21.253L224.292 21.5555C224.213 21.9445 224.287 22.3095 224.515 22.6506C224.746 22.9898 225.074 23.2254 225.5 23.3573C225.842 23.4631 226.171 23.4772 226.487 23.3994C226.805 23.3225 227.083 23.1678 227.322 22.9353C227.564 22.701 227.74 22.4061 227.85 22.0506C227.963 21.6869 227.983 21.3378 227.911 21.0033C227.843 20.6669 227.696 20.3731 227.47 20.1218C227.245 19.8706 226.955 19.6886 226.6 19.5758C226.346 19.4941 226.072 19.4523 225.778 19.4506C225.485 19.4461 225.232 19.4794 225.02 19.5504L224.111 19.144L225.886 15.1971L230.217 16.5381L229.94 17.4337L226.455 16.3548L225.401 18.7227L225.45 18.7379C225.663 18.6551 225.912 18.6089 226.197 18.5991C226.483 18.5894 226.766 18.6278 227.045 18.7144C227.555 18.8723 227.972 19.1352 228.295 19.503C228.622 19.8689 228.834 20.2974 228.932 20.7886C229.033 21.2807 228.999 21.7967 228.832 22.3368C228.667 22.8687 228.401 23.3066 228.033 23.6506C227.668 23.9927 227.241 24.2203 226.751 24.3332C226.262 24.4435 225.752 24.4167 225.223 24.2528ZM234.898 17.8626C235.239 17.9712 235.561 18.1422 235.863 18.3756C236.166 18.6091 236.412 18.9174 236.603 19.3006C236.794 19.681 236.897 20.1515 236.911 20.7119C236.925 21.2723 236.813 21.9352 236.576 22.7005C236.347 23.4413 236.073 24.0776 235.753 24.6092C235.438 25.139 235.087 25.5598 234.702 25.8718C234.32 26.1847 233.91 26.3849 233.472 26.4725C233.037 26.5609 232.585 26.5324 232.116 26.387C231.649 26.2425 231.261 26.0212 230.952 25.7233C230.646 25.4234 230.428 25.0718 230.297 24.6685C230.17 24.2633 230.142 23.8307 230.213 23.3709L231.206 23.6785C231.177 24.0889 231.257 24.4601 231.445 24.7921C231.638 25.1222 231.954 25.3553 232.393 25.4915C233.036 25.6906 233.631 25.5669 234.176 25.1202C234.725 24.6744 235.158 23.9386 235.476 22.9128L235.41 22.8926C235.188 23.0736 234.947 23.2144 234.686 23.3153C234.426 23.4161 234.155 23.4718 233.872 23.4824C233.589 23.4929 233.304 23.4537 233.016 23.3646C232.538 23.2167 232.137 22.963 231.811 22.6034C231.489 22.2419 231.272 21.8165 231.162 21.3274C231.055 20.8364 231.085 20.3222 231.252 19.7848C231.41 19.2747 231.668 18.8432 232.027 18.4904C232.39 18.1358 232.818 17.8965 233.311 17.7727C233.807 17.6497 234.336 17.6797 234.898 17.8626ZM234.621 18.7582C234.279 18.6523 233.944 18.6424 233.617 18.7285C233.294 18.8127 233.007 18.9739 232.758 19.212C232.513 19.4482 232.336 19.74 232.229 20.0873C232.121 20.4347 232.099 20.7744 232.163 21.1064C232.23 21.4365 232.371 21.7269 232.585 21.9775C232.802 22.2262 233.082 22.4035 233.424 22.5094C233.681 22.5892 233.937 22.6134 234.191 22.5819C234.445 22.5477 234.682 22.468 234.903 22.3428C235.126 22.2158 235.321 22.0544 235.485 21.8586C235.651 21.66 235.772 21.4373 235.848 21.1903C235.949 20.8647 235.965 20.535 235.896 20.2013C235.829 19.8685 235.686 19.5714 235.467 19.3101C235.25 19.0497 234.968 18.8657 234.621 18.7582Z" fill="black"/>
<path d="M178.046 78.3754C177.82 78.8907 177.531 79.3114 177.177 79.6373C176.825 79.9607 176.439 80.1719 176.021 80.271C175.601 80.3663 175.177 80.3326 174.749 80.1701L175.179 79.1863C175.446 79.2782 175.707 79.2871 175.963 79.2129C176.216 79.1376 176.448 78.996 176.66 78.7879C176.872 78.5799 177.046 78.3223 177.18 78.0152C177.33 77.6716 177.404 77.3409 177.4 77.0231C177.397 76.7052 177.321 76.4241 177.174 76.1798C177.026 75.9354 176.812 75.7518 176.531 75.6288C176.237 75.5001 175.946 75.4597 175.658 75.5075C175.368 75.5541 175.098 75.6901 174.847 75.9154C174.597 76.1407 174.383 76.4563 174.205 76.8624L173.925 77.5026L173.066 77.1268L173.346 76.4865C173.485 76.169 173.55 75.8655 173.54 75.5759C173.531 75.2838 173.453 75.0245 173.304 74.798C173.156 74.569 172.941 74.393 172.66 74.27C172.389 74.1515 172.128 74.1083 171.875 74.1404C171.622 74.1724 171.392 74.2732 171.184 74.4429C170.978 74.6099 170.81 74.8405 170.682 75.1346C170.561 75.4105 170.498 75.693 170.492 75.982C170.485 76.2674 170.543 76.5284 170.666 76.7651C170.786 77.0006 170.976 77.183 171.236 77.3122L170.826 78.2491C170.414 78.0501 170.102 77.7633 169.891 77.3887C169.677 77.0129 169.565 76.595 169.556 76.135C169.547 75.6724 169.644 75.2107 169.845 74.75C170.062 74.2555 170.348 73.8751 170.703 73.6089C171.055 73.3415 171.436 73.1839 171.845 73.1363C172.253 73.0886 172.646 73.1474 173.023 73.3125C173.474 73.5095 173.806 73.7959 174.02 74.1717C174.235 74.5449 174.315 74.9599 174.261 75.4169L174.323 75.4442C174.627 74.9757 175.015 74.6754 175.485 74.5432C175.953 74.4098 176.44 74.4541 176.948 74.6762C177.382 74.8664 177.721 75.1556 177.964 75.5439C178.205 75.9285 178.335 76.3671 178.355 76.8596C178.376 77.3522 178.272 77.8574 178.046 78.3754ZM181.088 71.4224C180.939 71.748 180.733 72.0486 180.47 72.3242C180.207 72.5997 179.874 72.8108 179.472 72.9573C179.067 73.1027 178.586 73.1509 178.027 73.1019C177.466 73.0518 176.816 72.865 176.077 72.5416C175.369 72.2319 174.771 71.891 174.282 71.5191C173.791 71.1461 173.414 70.7514 173.149 70.3349C172.882 69.9173 172.729 69.4876 172.69 69.0456C172.652 68.601 172.732 68.1536 172.929 67.7033C173.125 67.2557 173.389 66.8967 173.721 66.6266C174.051 66.3526 174.424 66.1745 174.838 66.0923C175.253 66.01 175.681 66.0268 176.123 66.1428L175.706 67.0954C175.309 67.0267 174.935 67.0681 174.587 67.2195C174.238 67.371 173.972 67.6575 173.788 68.0791C173.516 68.6986 173.572 69.3044 173.955 69.8967C174.339 70.4864 175.017 70.9955 175.989 71.4241L176.017 71.3616C175.859 71.1191 175.746 70.8634 175.678 70.5947C175.608 70.3222 175.583 70.0448 175.605 69.7626C175.626 69.4804 175.696 69.2026 175.816 68.9293C176.016 68.4713 176.314 68.1024 176.709 67.8226C177.102 67.5417 177.549 67.3744 178.05 67.3207C178.548 67.2659 179.055 67.3513 179.57 67.5768C180.065 67.7931 180.469 68.1019 180.784 68.5031C181.096 68.9031 181.285 69.3565 181.352 69.8632C181.417 70.3662 181.329 70.8859 181.088 71.4224ZM180.229 71.0466C180.373 70.7186 180.419 70.3886 180.369 70.0566C180.32 69.722 180.191 69.4189 179.981 69.1472C179.772 68.8729 179.499 68.6618 179.16 68.5137C178.83 68.3691 178.497 68.3117 178.161 68.3417C177.824 68.3678 177.519 68.4744 177.245 68.6615C176.972 68.846 176.763 69.1022 176.62 69.4301C176.512 69.6773 176.46 69.9293 176.466 70.186C176.469 70.4416 176.52 70.687 176.618 70.9224C176.718 71.1552 176.857 71.365 177.036 71.5517C177.212 71.7373 177.42 71.8825 177.659 71.9873C177.977 72.1262 178.306 72.1819 178.647 72.1543C178.989 72.124 179.301 72.0158 179.584 71.8295C179.868 71.6407 180.083 71.3797 180.229 71.0466ZM182.169 65.6766L182.564 65.9235C182.841 66.0976 183.129 66.3042 183.428 66.5434C183.727 66.7799 184.006 67.0118 184.263 67.2391C184.52 67.4663 184.723 67.6499 184.873 67.7898L184.565 68.4925C184.414 68.3858 184.213 68.2453 183.964 68.0711C183.714 67.8969 183.432 67.7084 183.118 67.5057C182.807 67.3015 182.484 67.1044 182.149 66.9142L181.732 66.676L182.169 65.6766ZM182.281 63.9334L181.485 63.5849L177.463 57.6388L177.716 57.061L178.949 57.6008L178.778 57.9912L181.817 62.484L181.88 62.5113L183.95 57.7797L184.809 58.1555L182.281 63.9334ZM185.567 60.8874L183.686 60.0641L183.315 59.9018L177.572 57.389L177.975 56.4676L185.971 59.9661L185.567 60.8874ZM188.319 54.8968C188.084 55.4329 187.782 55.865 187.412 56.1931C187.041 56.5175 186.637 56.7207 186.201 56.8028C185.763 56.8838 185.328 56.8285 184.897 56.6368C184.557 56.4914 184.274 56.2884 184.047 56.0278C183.817 55.766 183.658 55.4759 183.567 55.1574C183.476 54.8351 183.468 54.5168 183.543 54.2026L183.496 54.1821C183.23 54.5214 182.882 54.7319 182.453 54.8137C182.02 54.8944 181.593 54.8406 181.17 54.6524C180.762 54.4773 180.444 54.2157 180.215 53.8674C179.986 53.5191 179.859 53.1223 179.834 52.6771C179.81 52.2293 179.9 51.7711 180.105 51.3026C180.308 50.8394 180.581 50.466 180.925 50.1825C181.27 49.8989 181.647 49.7231 182.059 49.655C182.471 49.5842 182.881 49.6364 183.288 49.8114C183.711 49.9997 184.039 50.2812 184.272 50.656C184.503 51.0271 184.586 51.4216 184.521 51.8397L184.568 51.8602C184.747 51.5941 184.984 51.3879 185.281 51.2417C185.575 51.0943 185.896 51.0148 186.246 51.0033C186.592 50.9906 186.935 51.057 187.275 51.2025C187.706 51.3941 188.04 51.6798 188.277 52.0595C188.512 52.4354 188.637 52.8698 188.651 53.3627C188.663 53.8519 188.552 54.3632 188.319 54.8968ZM187.46 54.5209C187.618 54.1592 187.696 53.8212 187.694 53.5071C187.692 53.193 187.616 52.9177 187.465 52.6811C187.314 52.4446 187.096 52.2624 186.811 52.1345C186.508 52.005 186.207 51.9664 185.908 52.0186C185.609 52.0708 185.336 52.2006 185.087 52.408C184.839 52.6128 184.641 52.8843 184.493 53.2227C184.344 53.5636 184.277 53.8972 184.292 54.2233C184.309 54.5469 184.399 54.8361 184.564 55.091C184.73 55.3434 184.964 55.5343 185.267 55.6638C185.552 55.7916 185.832 55.832 186.107 55.7848C186.383 55.7351 186.638 55.6031 186.871 55.3888C187.104 55.1746 187.301 54.8853 187.46 54.5209ZM183.665 52.8605C183.791 52.5743 183.844 52.2954 183.827 52.0241C183.81 51.7502 183.727 51.5045 183.577 51.287C183.427 51.0695 183.215 50.8991 182.94 50.7757C182.668 50.6599 182.405 50.6206 182.15 50.6578C181.892 50.6939 181.66 50.7987 181.454 50.9721C181.246 51.1443 181.077 51.3775 180.948 51.6716C180.817 51.9709 180.759 52.257 180.773 52.5298C180.784 52.8014 180.865 53.0428 181.014 53.254C181.161 53.464 181.37 53.6269 181.642 53.7428C181.917 53.8661 182.184 53.9103 182.445 53.8753C182.706 53.8377 182.943 53.7321 183.155 53.5584C183.368 53.3847 183.538 53.152 183.665 52.8605Z" fill="black"/>
<path d="M103.808 150.342C103.427 150.666 103.02 150.882 102.586 150.99C102.152 151.098 101.731 151.098 101.322 150.99C100.914 150.882 100.557 150.667 100.253 150.344L101.032 149.682C101.318 149.957 101.666 150.09 102.076 150.081C102.486 150.068 102.861 149.917 103.201 149.628C103.474 149.396 103.662 149.126 103.765 148.818C103.871 148.508 103.89 148.19 103.822 147.864C103.754 147.534 103.599 147.227 103.358 146.944C103.111 146.654 102.828 146.449 102.507 146.331C102.186 146.208 101.859 146.174 101.526 146.23C101.193 146.286 100.884 146.433 100.599 146.672C100.393 146.843 100.211 147.052 100.052 147.299C99.8913 147.544 99.7839 147.775 99.73 147.992L98.8995 148.542L96.5199 144.927L99.9744 141.99L100.582 142.704L97.8024 145.067L99.2358 147.227L99.2747 147.193C99.3191 146.969 99.4137 146.734 99.5586 146.488C99.7035 146.242 99.8874 146.024 100.11 145.834C100.517 145.488 100.963 145.278 101.446 145.202C101.931 145.122 102.406 145.173 102.873 145.354C103.342 145.533 103.76 145.838 104.126 146.268C104.487 146.693 104.714 147.152 104.806 147.648C104.9 148.139 104.863 148.622 104.695 149.096C104.526 149.568 104.23 149.983 103.808 150.342ZM109.54 145.47C109.111 145.834 108.666 146.085 108.206 146.223C107.747 146.36 107.308 146.38 106.889 146.286C106.469 146.187 106.103 145.971 105.789 145.638L106.608 144.942C106.807 145.142 107.038 145.264 107.3 145.31C107.561 145.353 107.832 145.327 108.114 145.233C108.395 145.139 108.664 144.984 108.919 144.767C109.205 144.524 109.416 144.259 109.552 143.971C109.688 143.684 109.744 143.398 109.718 143.114C109.693 142.83 109.581 142.571 109.382 142.337C109.174 142.093 108.931 141.929 108.651 141.846C108.37 141.76 108.067 141.764 107.743 141.857C107.419 141.949 107.089 142.139 106.751 142.426L106.218 142.879L105.611 142.165L106.144 141.712C106.408 141.488 106.599 141.243 106.717 140.979C106.837 140.712 106.88 140.445 106.846 140.176C106.813 139.905 106.697 139.653 106.499 139.419C106.307 139.194 106.091 139.04 105.85 138.958C105.609 138.876 105.357 138.866 105.097 138.928C104.838 138.987 104.586 139.121 104.341 139.329C104.112 139.524 103.931 139.75 103.8 140.008C103.668 140.261 103.606 140.521 103.613 140.788C103.617 141.052 103.708 141.299 103.885 141.529L103.106 142.192C102.823 141.832 102.668 141.438 102.642 141.008C102.615 140.577 102.698 140.152 102.891 139.734C103.086 139.315 103.375 138.942 103.758 138.617C104.17 138.267 104.593 138.05 105.029 137.967C105.463 137.881 105.875 137.906 106.263 138.043C106.651 138.179 106.978 138.404 107.245 138.718C107.563 139.092 107.736 139.495 107.764 139.927C107.793 140.356 107.684 140.765 107.435 141.152L107.479 141.204C107.958 140.916 108.437 140.816 108.918 140.903C109.397 140.988 109.816 141.242 110.174 141.664C110.482 142.025 110.659 142.434 110.707 142.889C110.755 143.34 110.68 143.792 110.482 144.243C110.285 144.695 109.97 145.104 109.54 145.47ZM113.215 140.623L113.461 141.018C113.634 141.296 113.802 141.608 113.965 141.953C114.131 142.297 114.279 142.628 114.411 142.945C114.543 143.262 114.645 143.516 114.718 143.707L114.134 144.204C114.044 144.042 113.925 143.828 113.778 143.562C113.63 143.296 113.459 143.003 113.265 142.683C113.076 142.363 112.872 142.044 112.654 141.726L112.383 141.33L113.215 140.623ZM115.394 140.336L114.897 139.752L115.049 135.483C115.068 134.983 115.072 134.558 115.062 134.209C115.05 133.857 115.006 133.555 114.93 133.303C114.854 133.047 114.729 132.817 114.556 132.614C114.358 132.38 114.129 132.226 113.871 132.15C113.616 132.073 113.352 132.07 113.08 132.141C112.808 132.211 112.552 132.349 112.312 132.553C112.057 132.77 111.879 133.013 111.779 133.281C111.679 133.545 111.657 133.815 111.713 134.092C111.771 134.366 111.908 134.63 112.123 134.884L111.357 135.535C111.026 135.145 110.825 134.727 110.754 134.28C110.684 133.833 110.733 133.395 110.903 132.968C111.075 132.538 111.355 132.159 111.742 131.83C112.132 131.498 112.547 131.287 112.987 131.196C113.428 131.105 113.853 131.126 114.261 131.26C114.669 131.394 115.019 131.632 115.31 131.974C115.518 132.218 115.677 132.495 115.787 132.804C115.897 133.109 115.965 133.497 115.992 133.967C116.018 134.432 116.015 135.032 115.982 135.765L115.846 138.632L115.891 138.684L118.982 136.056L119.589 136.77L115.394 140.336ZM121.137 135.454L119.11 127.042L119.066 126.99L115.637 129.905L115.03 129.191L119.29 125.57L119.93 126.323L121.982 134.736L121.137 135.454Z" fill="black"/>
<path d="M167.813 152.602L175.428 156.864L174.912 157.786L168.263 154.065L168.238 154.11L168.432 156.66L167.495 156.136L167.296 153.524L167.813 152.602ZM178.148 152.248C177.835 152.808 177.415 153.2 176.89 153.423C176.362 153.646 175.748 153.698 175.049 153.58C174.347 153.461 173.583 153.17 172.755 152.706C171.932 152.246 171.287 151.748 170.821 151.214C170.354 150.676 170.077 150.124 169.99 149.557C169.902 148.987 170.013 148.425 170.324 147.869C170.635 147.314 171.055 146.926 171.586 146.705C172.115 146.481 172.731 146.428 173.432 146.547C174.133 146.662 174.895 146.95 175.718 147.411C176.546 147.874 177.194 148.374 177.663 148.909C178.129 149.444 178.405 149.994 178.492 150.56C178.576 151.125 178.462 151.687 178.148 152.248ZM177.33 151.79C177.641 151.234 177.615 150.653 177.251 150.046C176.888 149.439 176.21 148.858 175.218 148.303C174.559 147.934 173.958 147.691 173.415 147.573C172.874 147.452 172.408 147.455 172.018 147.582C171.63 147.706 171.333 147.952 171.127 148.319C170.819 148.869 170.85 149.451 171.22 150.065C171.587 150.677 172.265 151.26 173.254 151.814C173.913 152.183 174.513 152.427 175.051 152.546C175.59 152.665 176.053 152.662 176.439 152.536C176.826 152.408 177.123 152.159 177.33 151.79ZM180.317 148.129L179.647 147.754L178.302 143.7C178.145 143.225 178.001 142.825 177.869 142.501C177.736 142.176 177.589 141.908 177.43 141.698C177.269 141.485 177.073 141.313 176.84 141.182C176.572 141.033 176.304 140.967 176.036 140.987C175.769 141.004 175.521 141.092 175.291 141.253C175.061 141.414 174.869 141.633 174.715 141.908C174.551 142.2 174.469 142.49 174.468 142.776C174.467 143.058 174.54 143.319 174.69 143.559C174.84 143.796 175.06 143.996 175.35 144.158L174.859 145.036C174.413 144.786 174.079 144.464 173.857 144.069C173.635 143.675 173.529 143.248 173.539 142.788C173.55 142.325 173.68 141.872 173.928 141.428C174.178 140.982 174.493 140.64 174.875 140.4C175.256 140.161 175.661 140.033 176.091 140.016C176.52 139.999 176.931 140.101 177.322 140.32C177.603 140.476 177.848 140.681 178.059 140.932C178.269 141.18 178.468 141.519 178.656 141.95C178.844 142.377 179.05 142.94 179.274 143.639L180.146 146.373L180.206 146.406L182.187 142.866L183.005 143.324L180.317 148.129ZM183.564 139.882L183.932 140.166C184.192 140.366 184.458 140.6 184.732 140.867C185.007 141.132 185.261 141.39 185.495 141.641C185.729 141.892 185.913 142.095 186.049 142.248L185.674 142.918C185.533 142.797 185.347 142.637 185.116 142.44C184.885 142.242 184.623 142.027 184.33 141.794C184.04 141.561 183.738 141.333 183.423 141.111L183.031 140.834L183.564 139.882ZM186.857 136.685C186.613 137.121 186.306 137.465 185.937 137.718C185.568 137.97 185.173 138.117 184.753 138.159C184.332 138.2 183.923 138.123 183.525 137.926L184.025 137.034C184.389 137.192 184.761 137.195 185.142 137.044C185.522 136.888 185.821 136.616 186.039 136.227C186.214 135.915 186.296 135.596 186.286 135.271C186.277 134.944 186.183 134.639 186.006 134.358C185.827 134.072 185.575 133.838 185.25 133.657C184.918 133.471 184.581 133.378 184.239 133.379C183.896 133.375 183.578 133.458 183.285 133.626C182.992 133.794 182.754 134.04 182.57 134.364C182.437 134.595 182.339 134.855 182.276 135.142C182.21 135.427 182.19 135.681 182.215 135.904L181.629 136.708L178.138 134.15L180.352 130.193L181.17 130.651L179.389 133.834L181.485 135.359L181.51 135.314C181.474 135.088 181.48 134.835 181.53 134.554C181.58 134.272 181.677 134.004 181.82 133.749C182.081 133.283 182.425 132.93 182.852 132.69C183.278 132.447 183.741 132.329 184.242 132.335C184.744 132.34 185.242 132.48 185.735 132.756C186.221 133.028 186.594 133.38 186.853 133.811C187.112 134.239 187.246 134.705 187.254 135.208C187.26 135.709 187.128 136.201 186.857 136.685ZM190.422 130.314C190.178 130.75 189.871 131.094 189.502 131.347C189.133 131.599 188.738 131.746 188.318 131.788C187.898 131.829 187.488 131.752 187.091 131.555L187.59 130.663C187.954 130.821 188.327 130.824 188.708 130.673C189.087 130.517 189.386 130.245 189.604 129.856C189.779 129.543 189.861 129.225 189.851 128.9C189.842 128.573 189.749 128.268 189.571 127.987C189.392 127.701 189.14 127.467 188.816 127.286C188.483 127.1 188.146 127.007 187.804 127.008C187.461 127.004 187.143 127.087 186.85 127.255C186.557 127.423 186.319 127.669 186.135 127.993C186.002 128.224 185.904 128.484 185.841 128.771C185.775 129.056 185.755 129.31 185.781 129.533L185.194 130.337L181.703 127.779L183.917 123.822L184.736 124.28L182.954 127.463L185.051 128.988L185.075 128.943C185.039 128.717 185.046 128.464 185.096 128.183C185.146 127.901 185.242 127.633 185.385 127.378C185.646 126.912 185.99 126.559 186.417 126.319C186.843 126.076 187.306 125.957 187.807 125.964C188.309 125.968 188.807 126.109 189.3 126.385C189.786 126.657 190.159 127.009 190.419 127.44C190.677 127.868 190.811 128.334 190.819 128.836C190.825 129.338 190.693 129.83 190.422 130.314Z" fill="black"/>
<path d="M85.1997 236.865L85.5454 236.18L89.5381 234.663C90.0063 234.486 90.3995 234.325 90.7177 234.18C91.0372 234.033 91.2982 233.875 91.5009 233.707C91.7074 233.537 91.8708 233.333 91.9911 233.095C92.1294 232.821 92.1832 232.55 92.1525 232.284C92.1243 232.018 92.0248 231.774 91.8542 231.551C91.6835 231.328 91.4574 231.145 91.1759 231.003C90.8767 230.852 90.5841 230.782 90.2982 230.794C90.0161 230.804 89.7585 230.889 89.5254 231.048C89.2948 231.208 89.1046 231.437 88.9548 231.734L88.0571 231.281C88.2875 230.824 88.595 230.476 88.9797 230.238C89.3643 229.999 89.7866 229.875 90.2465 229.865C90.709 229.857 91.1672 229.967 91.6212 230.197C92.0777 230.427 92.4335 230.728 92.6887 231.098C92.944 231.469 93.0891 231.869 93.1243 232.297C93.1595 232.725 93.076 233.14 92.8737 233.54C92.729 233.827 92.5355 234.081 92.2933 234.302C92.0549 234.522 91.7243 234.736 91.3017 234.943C90.8829 235.148 90.3294 235.378 89.6411 235.632L86.9463 236.62L86.9156 236.681L90.5371 238.509L90.1146 239.346L85.1997 236.865ZM94.2187 241.552C93.9017 241.385 93.6129 241.163 93.3522 240.885C93.0916 240.607 92.8991 240.263 92.7749 239.854C92.652 239.442 92.6304 238.958 92.71 238.403C92.791 237.846 93.0132 237.207 93.3768 236.487C93.7251 235.797 94.0983 235.218 94.4965 234.751C94.896 234.281 95.3109 233.926 95.7413 233.685C96.1729 233.441 96.6105 233.312 97.0539 233.297C97.4999 233.284 97.9423 233.388 98.381 233.609C98.8172 233.83 99.1611 234.113 99.4126 234.459C99.6679 234.805 99.8252 235.186 99.8846 235.605C99.944 236.023 99.9036 236.45 99.7634 236.885L98.8352 236.416C98.9257 236.023 98.9049 235.648 98.7728 235.292C98.6408 234.935 98.3694 234.654 97.9585 234.446C97.355 234.141 96.7469 234.164 96.1345 234.513C95.5245 234.864 94.9789 235.513 94.4975 236.461L94.5584 236.491C94.8092 236.347 95.0707 236.249 95.3428 236.195C95.6187 236.14 95.897 236.131 96.1776 236.168C96.4583 236.204 96.7317 236.29 96.998 236.424C97.4444 236.65 97.7963 236.968 98.0539 237.378C98.3128 237.785 98.4552 238.241 98.4812 238.744C98.5085 239.244 98.3954 239.746 98.1419 240.248C97.8987 240.73 97.5681 241.117 97.1503 241.409C96.7337 241.698 96.2706 241.862 95.761 241.901C95.2552 241.938 94.7411 241.822 94.2187 241.552ZM94.6412 240.715C94.9607 240.876 95.2876 240.941 95.6219 240.909C95.9587 240.879 96.2685 240.766 96.5513 240.572C96.8366 240.378 97.0625 240.117 97.2289 239.787C97.3915 239.465 97.4671 239.136 97.4557 238.799C97.4482 238.461 97.3585 238.15 97.1868 237.866C97.0177 237.583 96.7733 237.361 96.4538 237.2C96.2129 237.078 95.9641 237.013 95.7075 237.005C95.4522 236.993 95.2043 237.031 94.9638 237.116C94.7259 237.203 94.5088 237.33 94.3125 237.498C94.1174 237.664 93.961 237.864 93.8432 238.097C93.687 238.406 93.6134 238.732 93.6222 239.074C93.6336 239.417 93.7245 239.735 93.8949 240.028C94.0678 240.322 94.3165 240.551 94.6412 240.715ZM99.8962 242.948L99.6279 243.328C99.4389 243.595 99.2167 243.871 98.9615 244.156C98.7089 244.442 98.462 244.707 98.2209 244.952C97.9799 245.196 97.7854 245.389 97.6374 245.531L96.9527 245.185C97.0676 245.039 97.2189 244.847 97.4066 244.607C97.5943 244.368 97.798 244.097 98.0177 243.794C98.2386 243.495 98.4533 243.183 98.6616 242.859L98.9224 242.456L99.8962 242.948ZM103.292 246.132C102.79 245.879 102.386 245.567 102.08 245.196C101.777 244.826 101.587 244.43 101.511 244.006C101.439 243.582 101.496 243.16 101.682 242.742L102.64 243.226C102.534 243.487 102.511 243.747 102.571 244.007C102.632 244.263 102.761 244.503 102.957 244.727C103.153 244.95 103.4 245.137 103.7 245.288C104.034 245.457 104.361 245.548 104.678 245.562C104.996 245.576 105.281 245.516 105.533 245.383C105.785 245.249 105.98 245.045 106.118 244.771C106.263 244.485 106.319 244.196 106.287 243.907C106.257 243.614 106.136 243.337 105.925 243.074C105.713 242.812 105.41 242.581 105.014 242.381L104.391 242.066L104.813 241.229L105.437 241.544C105.746 241.7 106.046 241.781 106.335 241.788C106.628 241.795 106.891 241.731 107.125 241.594C107.362 241.459 107.55 241.255 107.688 240.981C107.821 240.717 107.879 240.458 107.86 240.204C107.842 239.95 107.754 239.715 107.596 239.498C107.441 239.283 107.22 239.103 106.933 238.958C106.665 238.822 106.386 238.744 106.098 238.722C105.813 238.7 105.549 238.743 105.306 238.853C105.064 238.96 104.872 239.139 104.729 239.392L103.816 238.931C104.037 238.53 104.341 238.235 104.726 238.044C105.113 237.851 105.537 237.763 105.997 237.779C106.459 237.796 106.915 237.917 107.363 238.144C107.845 238.387 108.209 238.694 108.456 239.063C108.703 239.43 108.84 239.819 108.865 240.229C108.89 240.639 108.81 241.029 108.624 241.396C108.402 241.835 108.098 242.151 107.711 242.344C107.327 242.538 106.908 242.595 106.455 242.516L106.424 242.577C106.875 242.906 107.154 243.31 107.26 243.787C107.367 244.261 107.296 244.745 107.046 245.24C106.832 245.663 106.525 245.985 106.124 246.206C105.727 246.426 105.282 246.532 104.789 246.525C104.296 246.518 103.797 246.387 103.292 246.132ZM109.915 249.476C109.469 249.251 109.112 248.959 108.844 248.601C108.576 248.243 108.412 247.855 108.353 247.436C108.293 247.018 108.353 246.606 108.533 246.2L109.446 246.661C109.303 247.032 109.316 247.404 109.483 247.778C109.655 248.151 109.94 248.438 110.338 248.639C110.657 248.8 110.979 248.869 111.303 248.845C111.63 248.822 111.93 248.716 112.204 248.526C112.482 248.335 112.704 248.074 112.872 247.742C113.044 247.402 113.122 247.061 113.107 246.719C113.095 246.376 112.999 246.062 112.819 245.777C112.638 245.491 112.382 245.264 112.051 245.093C111.814 244.97 111.551 244.884 111.262 244.833C110.973 244.78 110.719 244.771 110.497 244.805L109.669 244.253L112.076 240.657L116.124 242.7L115.701 243.537L112.445 241.893L111.011 244.053L111.057 244.076C111.28 244.03 111.534 244.025 111.817 244.063C112.1 244.101 112.373 244.186 112.634 244.318C113.111 244.559 113.478 244.887 113.735 245.304C113.997 245.719 114.135 246.177 114.149 246.678C114.166 247.179 114.047 247.683 113.793 248.187C113.542 248.684 113.206 249.072 112.786 249.35C112.369 249.626 111.91 249.78 111.408 249.81C110.907 249.837 110.41 249.726 109.915 249.476Z" fill="black"/>
<path d="M51.5576 205.693L46.6215 212.89L45.75 212.292L50.0594 206.009L50.0172 205.98L47.4599 205.942L48.0673 205.056L50.6861 205.095L51.5576 205.693ZM49.5351 212.718L50.0267 212.001L56.6217 209.166L57.1418 209.523L56.3802 210.633L56.0288 210.392L51.0457 212.535L51.0071 212.591L55.2664 215.512L54.7362 216.285L49.5351 212.718ZM51.9106 216.517L53.0723 214.824L53.3012 214.49L56.8466 209.32L57.676 209.889L52.7399 217.086L51.9106 216.517ZM56.6286 218.306L56.3121 218.647C56.0891 218.887 55.8321 219.131 55.5412 219.379C55.2527 219.629 54.9727 219.859 54.7012 220.069C54.4298 220.279 54.2113 220.445 54.0458 220.565L53.4132 220.132C53.5465 220.003 53.7221 219.832 53.94 219.62C54.1579 219.407 54.3959 219.166 54.654 218.895C54.9128 218.628 55.1671 218.348 55.4168 218.054L55.7289 217.689L56.6286 218.306ZM59.4919 221.862C59.0093 221.531 58.6415 221.153 58.3887 220.728C58.1397 220.302 58.0158 219.867 58.0169 219.424C58.0196 218.978 58.1555 218.561 58.4246 218.174C58.6311 217.868 58.8837 217.628 59.1823 217.453C59.4825 217.277 59.7974 217.174 60.1272 217.146C60.4609 217.116 60.775 217.168 61.0696 217.301L61.0985 217.259C60.8151 216.934 60.6736 216.552 60.6738 216.115C60.6757 215.675 60.8087 215.265 61.0729 214.885C61.3213 214.518 61.638 214.255 62.023 214.095C62.4081 213.935 62.8217 213.885 63.2637 213.943C63.7082 214.004 64.1412 214.178 64.5629 214.468C64.98 214.754 65.2954 215.092 65.5094 215.483C65.7233 215.875 65.8251 216.279 65.8149 216.695C65.8071 217.114 65.679 217.507 65.4307 217.874C65.1664 218.254 64.8284 218.523 64.4165 218.682C64.0086 218.84 63.6055 218.847 63.2071 218.705L63.1781 218.747C63.4061 218.972 63.564 219.244 63.652 219.563C63.7416 219.879 63.7593 220.21 63.7052 220.555C63.6526 220.898 63.523 221.223 63.3165 221.529C63.0474 221.916 62.7042 222.191 62.2868 222.352C61.8733 222.513 61.4233 222.554 60.9365 222.475C60.4537 222.395 59.9722 222.191 59.4919 221.862ZM60.0222 221.088C60.3478 221.312 60.6651 221.452 60.9741 221.509C61.283 221.566 61.5678 221.542 61.8284 221.438C62.089 221.335 62.3088 221.155 62.4879 220.899C62.672 220.625 62.7664 220.337 62.7712 220.034C62.7759 219.73 62.6998 219.437 62.5428 219.154C62.3881 218.872 62.1585 218.626 61.8539 218.418C61.547 218.207 61.2319 218.079 60.9086 218.033C60.5877 217.988 60.2866 218.023 60.0054 218.137C59.7265 218.252 59.4951 218.446 59.311 218.72C59.1319 218.976 59.0398 219.243 59.0345 219.522C59.0316 219.803 59.1135 220.078 59.2802 220.347C59.4468 220.616 59.6942 220.863 60.0222 221.088ZM62.3649 217.673C62.6226 217.849 62.8864 217.954 63.1562 217.988C63.4284 218.023 63.6853 217.987 63.9271 217.881C64.1688 217.775 64.376 217.598 64.5487 217.351C64.7134 217.106 64.8015 216.855 64.8127 216.597C64.8256 216.337 64.7662 216.09 64.6345 215.855C64.5045 215.618 64.3071 215.408 64.0423 215.227C63.7729 215.042 63.5029 214.931 63.2323 214.893C62.9634 214.853 62.7112 214.887 62.4757 214.994C62.2419 215.099 62.0426 215.274 61.8778 215.52C61.7052 215.766 61.6116 216.021 61.5971 216.283C61.585 216.547 61.6443 216.799 61.7751 217.041C61.9059 217.282 62.1025 217.493 62.3649 217.673ZM65.6323 226.073C65.1028 225.71 64.7506 225.256 64.5757 224.713C64.4024 224.167 64.4062 223.551 64.587 222.865C64.7694 222.177 65.1289 221.442 65.6656 220.66C66.1991 219.882 66.753 219.285 67.3274 218.87C67.9057 218.453 68.4808 218.228 69.0525 218.192C69.6282 218.157 70.1785 218.319 70.7033 218.679C71.2281 219.039 71.5763 219.493 71.748 220.041C71.9236 220.589 71.9202 221.206 71.7378 221.894C71.5594 222.581 71.2034 223.314 70.67 224.092C70.1333 224.874 69.577 225.475 69.0009 225.892C68.4266 226.308 67.8535 226.533 67.2817 226.568C66.7116 226.601 66.1618 226.436 65.6323 226.073ZM66.1625 225.3C66.6873 225.66 67.2685 225.686 67.9061 225.379C68.5437 225.072 69.1838 224.45 69.8265 223.513C70.2539 222.89 70.5511 222.314 70.718 221.784C70.8873 221.256 70.9265 220.792 70.8356 220.392C70.7471 219.994 70.5294 219.676 70.1827 219.438C69.6626 219.081 69.0801 219.059 68.4354 219.371C67.7923 219.681 67.1501 220.303 66.509 221.238C66.0816 221.861 65.7841 222.436 65.6164 222.962C65.4488 223.487 65.41 223.948 65.5002 224.344C65.5926 224.742 65.8134 225.06 66.1625 225.3Z" fill="black"/>
<path d="M38.0087 195.636L44.8681 201.031L44.2148 201.862L38.2261 197.151L38.1945 197.192L37.9892 199.741L37.1452 199.077L37.3553 196.466L38.0087 195.636ZM48.2736 196.895C47.8767 197.4 47.4013 197.721 46.8473 197.86C46.2912 197.998 45.677 197.954 45.0047 197.729C44.3302 197.502 43.6201 197.095 42.8743 196.508C42.133 195.925 41.5737 195.333 41.1965 194.733C40.8188 194.129 40.6312 193.54 40.6336 192.967C40.6355 192.39 40.8332 191.852 41.2266 191.352C41.6201 190.852 42.096 190.534 42.6543 190.398C43.2122 190.259 43.8284 190.303 44.5029 190.53C45.177 190.753 45.8846 191.156 46.626 191.739C47.3718 192.325 47.9344 192.92 48.3138 193.522C48.691 194.122 48.8784 194.709 48.876 195.281C48.8714 195.853 48.6706 196.39 48.2736 196.895ZM47.5368 196.315C47.9302 195.815 47.9947 195.237 47.7302 194.581C47.4656 193.924 46.8868 193.245 45.9937 192.543C45.3997 192.075 44.8439 191.741 44.3262 191.54C43.8103 191.337 43.3499 191.267 42.9449 191.332C42.5416 191.394 42.21 191.59 41.9501 191.921C41.5602 192.417 41.4999 192.996 41.7694 193.66C42.0366 194.322 42.6157 195.003 43.5066 195.704C44.1005 196.171 44.6544 196.506 45.168 196.708C45.6817 196.909 46.1391 196.978 46.5401 196.914C46.9428 196.848 47.2751 196.648 47.5368 196.315ZM50.8686 191.473L51.1881 191.811C51.4128 192.049 51.6396 192.322 51.8684 192.628C52.0989 192.933 52.3101 193.227 52.5019 193.512C52.6937 193.796 52.8444 194.025 52.9541 194.198L52.4799 194.801C52.3598 194.659 52.201 194.473 52.0034 194.242C51.8059 194.01 51.5804 193.757 51.327 193.482C51.0776 193.206 50.8145 192.934 50.5376 192.666L50.1941 192.331L50.8686 191.473ZM54.6131 188.836C54.2162 189.34 53.7408 189.662 53.1869 189.801C52.6307 189.938 52.0165 189.894 51.3442 189.669C50.6697 189.442 49.9596 189.035 49.2138 188.449C48.4725 187.866 47.9132 187.274 47.536 186.674C47.1584 186.069 46.9707 185.481 46.9731 184.908C46.975 184.331 47.1727 183.793 47.5661 183.292C47.9596 182.792 48.4355 182.474 48.9939 182.339C49.5518 182.2 50.168 182.243 50.8425 182.47C51.5165 182.693 52.2242 183.096 52.9655 183.679C53.7113 184.266 54.2739 184.86 54.6533 185.462C55.0305 186.063 55.2179 186.649 55.2155 187.222C55.2109 187.793 55.0101 188.331 54.6131 188.836ZM53.8763 188.256C54.2697 187.756 54.3342 187.178 54.0697 186.521C53.8052 185.865 53.2263 185.186 52.3332 184.483C51.7392 184.016 51.1834 183.682 50.6658 183.481C50.1498 183.277 49.6894 183.208 49.2844 183.272C48.8811 183.335 48.5495 183.531 48.2896 183.862C47.8997 184.357 47.8394 184.937 48.1089 185.601C48.3761 186.263 48.9552 186.944 49.8461 187.645C50.4401 188.112 50.9939 188.447 51.5076 188.648C52.0212 188.85 52.4786 188.919 52.8796 188.855C53.2824 188.788 53.6146 188.589 53.8763 188.256ZM59.2501 182.941C58.8531 183.445 58.3777 183.767 57.8238 183.906C57.2676 184.043 56.6534 184 55.9811 183.774C55.3066 183.547 54.5965 183.141 53.8507 182.554C53.1094 181.971 52.5501 181.379 52.1729 180.779C51.7953 180.174 51.6076 179.586 51.61 179.013C51.6119 178.436 51.8096 177.898 52.203 177.398C52.5965 176.897 53.0724 176.58 53.6308 176.444C54.1887 176.305 54.8049 176.348 55.4794 176.575C56.1534 176.798 56.8611 177.201 57.6024 177.784C58.3482 178.371 58.9108 178.965 59.2902 179.568C59.6674 180.168 59.8548 180.754 59.8524 181.327C59.8478 181.898 59.647 182.436 59.2501 182.941ZM58.5132 182.361C58.9066 181.861 58.9711 181.283 58.7066 180.627C58.4421 179.97 57.8632 179.291 56.9701 178.588C56.3761 178.121 55.8203 177.787 55.3027 177.586C54.7868 177.382 54.3263 177.313 53.9213 177.377C53.518 177.44 53.1865 177.636 52.9265 177.967C52.5366 178.462 52.4763 179.042 52.7458 179.706C53.013 180.368 53.5921 181.049 54.483 181.75C55.077 182.217 55.6308 182.552 56.1445 182.753C56.6581 182.955 57.1155 183.024 57.5165 182.96C57.9193 182.893 58.2515 182.694 58.5132 182.361Z" fill="black"/>
<path d="M2.42292 218.557C20.2155 234.073 85.5131 280.276 132.241 293.808M11.6295 202.519C29.4221 218.034 94.7196 264.237 141.447 277.77" stroke="#C4C4C4"/>
<path d="M44.9461 177.721L26.981 204.491L62.6138 230.595L119.697 262.369L189.339 141.769L258.981 21.1693L196.996 1.36865L157.309 92.6586L101.128 135.19L44.9461 177.721Z" stroke="#379482" stroke-width="2"/>
<path d="M55.747 239.263L56.8038 239.952L55.3333 247.64L55.419 247.696L61.8591 243.246L62.9159 243.935L58.1509 251.247L57.3227 250.707L60.9429 245.152L60.8715 245.105L54.9664 249.171L54.1666 248.65L55.502 241.606L55.4306 241.559L51.8103 247.114L50.9821 246.575L55.747 239.263ZM61.3419 253.509C60.9944 253.283 60.7217 253.012 60.5238 252.696C60.3274 252.378 60.2274 252.04 60.2236 251.682C60.2214 251.321 60.3367 250.962 60.5693 250.605C60.7741 250.291 61.0019 250.076 61.2529 249.962C61.5054 249.845 61.7716 249.798 62.0516 249.821C62.3315 249.844 62.6143 249.91 62.8999 250.018C63.1894 250.125 63.4724 250.245 63.7488 250.378C64.1099 250.552 64.401 250.696 64.622 250.81C64.847 250.922 65.0249 250.982 65.1558 250.99C65.289 250.998 65.3999 250.935 65.4883 250.799L65.5069 250.771C65.7364 250.419 65.8184 250.082 65.7528 249.761C65.6896 249.442 65.464 249.156 65.0761 248.903C64.6738 248.641 64.3011 248.523 63.9578 248.551C63.6145 248.578 63.3313 248.661 63.1082 248.801L62.4946 247.994C62.8546 247.754 63.2141 247.618 63.5731 247.588C63.936 247.557 64.2831 247.596 64.6144 247.707C64.9497 247.817 65.2553 247.962 65.5314 248.142C65.7076 248.257 65.8959 248.41 66.0965 248.602C66.301 248.793 66.4685 249.022 66.5989 249.29C66.7317 249.56 66.785 249.871 66.7588 250.223C66.7325 250.576 66.5775 250.97 66.2936 251.406L63.9391 255.019L63.0965 254.469L63.5804 253.727L63.5376 253.699C63.4029 253.781 63.2247 253.846 63.003 253.895C62.7813 253.944 62.5288 253.944 62.2454 253.894C61.962 253.845 61.6608 253.717 61.3419 253.509ZM61.9637 252.836C62.2969 253.053 62.6204 253.171 62.9342 253.189C63.2504 253.208 63.5343 253.153 63.7858 253.021C64.0398 252.892 64.2412 252.713 64.3901 252.484L64.8927 251.713C64.829 251.733 64.7249 251.721 64.5802 251.678C64.4395 251.633 64.2821 251.573 64.1079 251.497C63.9377 251.42 63.7726 251.343 63.6127 251.266C63.4566 251.188 63.3295 251.125 63.2313 251.078C62.9937 250.964 62.7588 250.877 62.5265 250.817C62.2981 250.757 62.0845 250.751 61.8857 250.802C61.6908 250.851 61.5235 250.983 61.384 251.197C61.1932 251.49 61.1572 251.781 61.2761 252.073C61.3989 252.363 61.6281 252.617 61.9637 252.836ZM64.1368 258.077L69.0506 250.537L69.8646 251.067L69.2969 251.939L69.3969 252.004C69.5208 251.949 69.6856 251.883 69.8912 251.807C70.1008 251.73 70.3471 251.701 70.6302 251.719C70.9172 251.736 71.2392 251.862 71.5962 252.094C72.058 252.395 72.3898 252.776 72.5916 253.236C72.7934 253.697 72.855 254.203 72.7764 254.755C72.6979 255.308 72.4709 255.872 72.0956 256.448C71.7171 257.029 71.2903 257.468 70.8151 257.765C70.3415 258.06 69.8537 258.21 69.3518 258.215C68.8515 258.218 68.3728 258.071 67.9158 257.773C67.5636 257.543 67.3195 257.301 67.1837 257.047C67.0494 256.79 66.974 256.549 66.9575 256.324C66.9425 256.098 66.9367 255.914 66.9399 255.774L66.8685 255.727L64.9793 258.626L64.1368 258.077ZM68.092 253.819C67.8221 254.233 67.6447 254.638 67.5598 255.033C67.4765 255.427 67.4933 255.789 67.6102 256.119C67.7286 256.447 67.9569 256.721 68.2948 256.942C68.6471 257.171 69.0015 257.27 69.3582 257.238C69.7187 257.205 70.0616 257.069 70.3869 256.83C70.7161 256.59 71.008 256.275 71.2623 255.885C71.5136 255.499 71.6806 255.113 71.7632 254.726C71.8498 254.338 71.833 253.976 71.7129 253.64C71.5967 253.303 71.3601 253.019 71.003 252.786C70.6603 252.563 70.3157 252.462 69.9692 252.484C69.6243 252.503 69.2915 252.629 68.9709 252.86C68.6518 253.09 68.3588 253.409 68.092 253.819ZM77.2108 253.251L72.4459 260.562L71.6033 260.013L76.3682 252.702L77.2108 253.251ZM76.2138 263.181C75.6854 262.836 75.3056 262.423 75.0744 261.94C74.8472 261.456 74.7673 260.936 74.8347 260.38C74.9061 259.823 75.1249 259.263 75.4909 258.701C75.857 258.14 76.282 257.711 76.7658 257.416C77.2537 257.121 77.7604 256.973 78.2859 256.973C78.8154 256.972 79.3277 257.133 79.8228 257.455C80.1084 257.641 80.3594 257.873 80.5758 258.15C80.7923 258.426 80.9449 258.746 81.0338 259.109C81.1243 259.47 81.1233 259.87 81.031 260.308C80.9386 260.746 80.7257 261.221 80.3922 261.733L80.1596 262.09L75.9325 259.335L76.4071 258.607L79.7774 260.803C79.979 260.494 80.0971 260.177 80.1315 259.854C80.1683 259.532 80.1194 259.227 79.9848 258.939C79.8526 258.653 79.6342 258.411 79.3295 258.212C78.9939 257.994 78.6493 257.888 78.2956 257.894C77.9458 257.9 77.6193 257.993 77.3162 258.172C77.0132 258.351 76.7631 258.591 76.5662 258.894L76.2497 259.379C75.9798 259.793 75.8225 260.191 75.7776 260.572C75.7366 260.952 75.7958 261.301 75.9552 261.618C76.1161 261.933 76.3667 262.202 76.707 262.424C76.9284 262.568 77.1485 262.667 77.3673 262.722C77.5901 262.775 77.808 262.782 78.0211 262.741C78.2358 262.698 78.4409 262.604 78.6364 262.46L79.3015 263.219C79.0358 263.44 78.7336 263.588 78.3948 263.666C78.0576 263.741 77.7022 263.74 77.3287 263.663C76.9567 263.583 76.5851 263.423 76.2138 263.181Z" fill="#8E8E8E"/>
</svg>
