<svg width="234" height="255" viewBox="0 0 234 255" fill="none" xmlns="http://www.w3.org/2000/svg">
<path d="M158.728 36.0412C158.271 35.8394 157.899 35.5667 157.613 35.2231C157.326 34.8795 157.143 34.5004 157.062 34.0859C156.981 33.6713 157.019 33.2567 157.177 32.842L158.113 33.2547C157.99 33.6321 158.022 34.0032 158.209 34.3682C158.399 34.7317 158.698 35.0034 159.107 35.1834C159.434 35.3278 159.759 35.3795 160.081 35.3385C160.406 35.2987 160.701 35.177 160.964 34.9734C161.232 34.7684 161.44 34.4957 161.591 34.1552C161.744 33.8069 161.805 33.4624 161.772 33.1219C161.742 32.7798 161.63 32.4711 161.435 32.1956C161.24 31.9201 160.972 31.706 160.633 31.5532C160.39 31.4428 160.122 31.3699 159.831 31.3344C159.54 31.2963 159.285 31.3003 159.066 31.3465L158.21 30.8384L160.427 27.1214L164.575 28.9511L164.197 29.8089L160.859 28.3369L159.54 30.5681L159.587 30.5887C159.808 30.531 160.061 30.5137 160.345 30.5368C160.63 30.5599 160.907 30.6305 161.174 30.7486C161.663 30.9641 162.047 31.2731 162.326 31.6756C162.608 32.0766 162.77 32.5267 162.811 33.0259C162.854 33.5262 162.761 34.035 162.533 34.5523C162.309 35.0618 161.994 35.4662 161.588 35.7656C161.187 36.0636 160.736 36.2405 160.236 36.2965C159.738 36.3498 159.235 36.2647 158.728 36.0412ZM165.517 39.0354C164.93 38.7763 164.5 38.3958 164.228 37.8938C163.957 37.3892 163.847 36.7833 163.898 36.0762C163.95 35.3665 164.167 34.5775 164.55 33.7093C164.931 32.8463 165.365 32.1576 165.853 31.643C166.344 31.127 166.868 30.799 167.423 30.659C167.982 30.5175 168.553 30.5751 169.135 30.8319C169.718 31.0887 170.144 31.4707 170.414 31.9779C170.688 32.4837 170.798 33.0914 170.746 33.8012C170.698 34.5094 170.483 35.2951 170.102 36.158C169.72 37.0262 169.284 37.7189 168.795 38.236C168.307 38.7506 167.785 39.0779 167.23 39.2179C166.676 39.3553 166.105 39.2945 165.517 39.0354ZM165.896 38.1776C166.478 38.4344 167.054 38.3532 167.624 37.9339C168.194 37.5146 168.708 36.7851 169.167 35.7453C169.472 35.0539 169.657 34.4325 169.723 33.8811C169.792 33.3308 169.745 32.8675 169.582 32.4913C169.421 32.1162 169.149 31.8438 168.764 31.6741C168.187 31.4196 167.61 31.5053 167.034 31.9313C166.46 32.3547 165.943 33.0849 165.486 34.122C165.181 34.8135 164.995 35.433 164.927 35.9807C164.859 36.5283 164.907 36.9884 165.068 37.3609C165.233 37.7346 165.508 38.0068 165.896 38.1776ZM171.414 40.2016L171.166 40.5952C170.991 40.872 170.784 41.1593 170.544 41.4571C170.306 41.756 170.073 42.0338 169.845 42.2903C169.617 42.5468 169.433 42.7496 169.293 42.8989L168.591 42.5893C168.698 42.4379 168.839 42.2377 169.014 41.9889C169.189 41.74 169.378 41.4587 169.582 41.1448C169.787 40.8348 169.985 40.5123 170.176 40.1774L170.416 39.7614L171.414 40.2016ZM177.996 34.8704L174.475 42.8556L173.508 42.4291L176.582 35.4577L176.536 35.4371L174.015 35.8717L174.449 34.8892L177.03 34.444L177.996 34.8704ZM179.281 45.1057C178.745 44.8695 178.314 44.566 177.987 44.1951C177.664 43.8228 177.462 43.4185 177.381 42.9823C177.301 42.5435 177.358 42.1089 177.551 41.6786C177.697 41.3395 177.901 41.0568 178.162 40.8305C178.425 40.6016 178.715 40.4426 179.034 40.3534C179.357 40.2628 179.675 40.2557 179.989 40.3321L180.01 40.2853C179.671 40.018 179.461 39.6694 179.381 39.2396C179.302 38.8071 179.357 38.3796 179.546 37.9571C179.722 37.5504 179.985 37.2331 180.334 37.0051C180.683 36.7771 181.08 36.6511 181.525 36.627C181.973 36.6041 182.431 36.6958 182.899 36.9022C183.362 37.1062 183.734 37.3808 184.017 37.7258C184.299 38.0709 184.474 38.4491 184.541 38.8606C184.61 39.2731 184.557 39.6827 184.381 40.0894C184.191 40.5119 183.909 40.8391 183.533 41.0709C183.162 41.3013 182.767 41.3834 182.349 41.3171L182.328 41.3638C182.594 41.5431 182.799 41.7812 182.945 42.0782C183.091 42.3725 183.17 42.6944 183.18 43.0437C183.192 43.3904 183.125 43.7332 182.978 44.0723C182.785 44.5026 182.499 44.8357 182.118 45.0716C181.742 45.3061 181.307 45.4294 180.814 45.4418C180.325 45.4527 179.814 45.3407 179.281 45.1057ZM179.659 44.2479C180.02 44.4072 180.358 44.4863 180.672 44.4851C180.986 44.4839 181.262 44.4083 181.499 44.2582C181.736 44.1081 181.919 43.8907 182.047 43.6059C182.178 43.3032 182.217 43.0024 182.166 42.7034C182.115 42.4045 181.986 42.1302 181.779 41.8807C181.575 41.6324 181.304 41.4337 180.966 41.2846C180.626 41.1345 180.292 41.0666 179.966 41.0811C179.642 41.0967 179.353 41.1864 179.097 41.3501C178.845 41.515 178.653 41.7487 178.523 42.0514C178.394 42.3362 178.353 42.6161 178.399 42.8911C178.448 43.1673 178.579 43.4224 178.793 43.6563C179.006 43.8902 179.295 44.0874 179.659 44.2479ZM181.331 40.4581C181.617 40.5842 181.895 40.6388 182.167 40.6218C182.441 40.606 182.686 40.5236 182.904 40.3744C183.122 40.2252 183.293 40.0134 183.418 39.7391C183.534 39.4676 183.574 39.2043 183.538 38.9491C183.502 38.6913 183.398 38.4591 183.225 38.2525C183.054 38.0433 182.821 37.8739 182.527 37.7444C182.229 37.6125 181.943 37.5532 181.67 37.5664C181.398 37.577 181.156 37.6567 180.945 37.8055C180.734 37.9518 180.571 38.1607 180.454 38.4322C180.33 38.7065 180.285 38.9739 180.319 39.2343C180.356 39.4958 180.461 39.7331 180.634 39.946C180.807 40.159 181.039 40.3297 181.331 40.4581Z" fill="black"/>
<path d="M89.5899 93.9892L84.7856 86.7935L84.7263 86.7599L82.5136 90.6784L81.6972 90.2174L84.4463 85.349L85.3072 85.8352L90.1347 93.0244L89.5899 93.9892ZM94.214 86.0431C93.9682 86.4785 93.6602 86.8217 93.2901 87.0727C92.9199 87.3237 92.5246 87.4691 92.1041 87.509C91.6835 87.5488 91.2747 87.4697 90.8776 87.2716L91.3805 86.381C91.7439 86.5406 92.1164 86.5454 92.498 86.3954C92.8785 86.2416 93.1784 85.9705 93.3977 85.5821C93.5737 85.2704 93.6572 84.9522 93.6481 84.6273C93.6405 84.3 93.5483 83.9951 93.3718 83.7127C93.1941 83.4264 92.9433 83.1918 92.6192 83.0088C92.2877 82.8216 91.9509 82.7277 91.6088 82.7269C91.2655 82.7224 90.9472 82.8036 90.6538 82.9707C90.3604 83.1378 90.121 83.3827 89.9355 83.7054C89.8018 83.9365 89.7028 84.1955 89.6388 84.4823C89.5722 84.7677 89.5511 85.0217 89.5755 85.2443L88.9855 86.0465L85.505 83.4742L87.7345 79.5261L88.5508 79.9871L86.7572 83.1634L88.8475 84.6962L88.8727 84.6516C88.837 84.426 88.8447 84.1726 88.8958 83.8915C88.9468 83.6104 89.0443 83.3424 89.1882 83.0876C89.4508 82.6225 89.7961 82.271 90.2241 82.0331C90.651 81.7913 91.1148 81.6748 91.6156 81.6835C92.1178 81.6898 92.615 81.8319 93.1073 82.1099C93.5921 82.3837 93.9636 82.737 94.2216 83.1698C94.4785 83.5987 94.6102 84.0646 94.6167 84.5674C94.6206 85.0688 94.4864 85.5607 94.214 86.0431ZM95.9046 80.38L96.2718 80.6657C96.5301 80.867 96.7956 81.1018 97.0682 81.3699C97.3423 81.6356 97.5958 81.8946 97.8286 82.1467C98.0614 82.3989 98.2451 82.6022 98.3798 82.7565L98.0026 83.4245C97.8625 83.3029 97.6772 83.1428 97.4468 82.9442C97.2164 82.7456 96.9551 82.5295 96.6628 82.2959C96.3744 82.0613 96.073 81.8324 95.7586 81.6092L95.3682 81.33L95.9046 80.38ZM91.2478 73.3044L98.8472 77.5956L98.3275 78.5159L91.693 74.7694L91.6678 74.8139L91.8521 77.3649L90.917 76.8369L90.7282 74.2246L91.2478 73.3044ZM101.585 72.9901C101.269 73.5491 100.848 73.9394 100.322 74.1609C99.793 74.381 99.1792 74.4308 98.4805 74.3104C97.7794 74.1885 97.0157 73.8943 96.1895 73.4277C95.3682 72.9639 94.7256 72.464 94.2616 71.928C93.7965 71.388 93.5216 70.8348 93.437 70.2682C93.3513 69.6978 93.4649 69.1356 93.7778 68.5814C94.0907 68.0273 94.5128 67.6409 95.0441 67.4222C95.5744 67.1996 96.1901 67.1492 96.8912 67.2711C97.5913 67.3891 98.352 67.68 99.1733 68.1438C99.9995 68.6103 100.646 69.1124 101.112 69.6498C101.576 70.1859 101.851 70.7372 101.935 71.3037C102.017 71.8689 101.901 72.431 101.585 72.9901ZM100.769 72.5291C101.082 71.975 101.057 71.3937 100.696 70.7852C100.335 70.1767 99.6599 69.5931 98.6704 69.0343C98.0124 68.6628 97.4122 68.4169 96.87 68.2966C96.3292 68.174 95.8636 68.1753 95.4731 68.3006C95.084 68.4234 94.786 68.6679 94.5793 69.034C94.2692 69.5832 94.2977 70.1654 94.6648 70.7805C95.0295 71.3942 95.7053 71.9798 96.6924 72.5372C97.3504 72.9087 97.9486 73.1552 98.4869 73.2765C99.0253 73.3978 99.4877 73.3963 99.8744 73.272C100.262 73.1453 100.56 72.8977 100.769 72.5291Z" fill="black"/>
<path d="M161.105 139.364L157.515 131.492L157.461 131.45L154.65 134.963L153.918 134.377L157.411 130.012L158.183 130.63L161.797 138.499L161.105 139.364ZM167.004 132.183C166.776 132.459 166.499 132.696 166.174 132.894C165.848 133.092 165.472 133.209 165.045 133.246C164.617 133.282 164.139 133.203 163.613 133.011C163.084 132.817 162.504 132.468 161.874 131.964C161.271 131.481 160.782 130.997 160.407 130.511C160.029 130.023 159.767 129.544 159.619 129.073C159.47 128.601 159.434 128.146 159.511 127.709C159.589 127.27 159.782 126.858 160.089 126.475C160.394 126.093 160.742 125.815 161.133 125.64C161.524 125.462 161.93 125.386 162.351 125.414C162.773 125.442 163.182 125.57 163.579 125.796L162.929 126.608C162.563 126.439 162.192 126.382 161.816 126.438C161.44 126.494 161.109 126.701 160.821 127.061C160.399 127.588 160.295 128.188 160.511 128.859C160.729 129.528 161.252 130.196 162.08 130.862L162.122 130.809C162.033 130.534 161.99 130.258 161.994 129.98C161.997 129.699 162.045 129.425 162.139 129.158C162.233 128.891 162.373 128.641 162.559 128.408C162.872 128.017 163.255 127.738 163.709 127.571C164.161 127.401 164.636 127.356 165.134 127.434C165.63 127.51 166.097 127.724 166.536 128.076C166.958 128.413 167.268 128.816 167.468 129.285C167.665 129.752 167.73 130.239 167.663 130.746C167.596 131.249 167.376 131.728 167.004 132.183ZM166.272 131.597C166.496 131.318 166.627 131.011 166.664 130.678C166.704 130.342 166.658 130.016 166.525 129.699C166.395 129.38 166.186 129.105 165.897 128.874C165.616 128.649 165.309 128.507 164.977 128.449C164.645 128.387 164.322 128.41 164.009 128.52C163.697 128.627 163.43 128.821 163.206 129.1C163.037 129.311 162.922 129.541 162.861 129.79C162.798 130.038 162.783 130.288 162.817 130.541C162.853 130.791 162.933 131.03 163.057 131.257C163.179 131.482 163.342 131.676 163.546 131.839C163.817 132.056 164.12 132.195 164.457 132.257C164.795 132.316 165.125 132.293 165.446 132.186C165.77 132.078 166.045 131.881 166.272 131.597ZM169.539 126.915L169.856 127.256C170.079 127.496 170.303 127.77 170.529 128.078C170.757 128.384 170.966 128.681 171.155 128.967C171.345 129.253 171.494 129.483 171.602 129.657L171.123 130.256C171.004 130.113 170.847 129.926 170.651 129.693C170.455 129.46 170.232 129.205 169.981 128.927C169.734 128.65 169.473 128.375 169.198 128.105L168.858 127.767L169.539 126.915ZM166.402 118.586C166.628 118.308 166.905 118.071 167.233 117.875C167.561 117.679 167.938 117.563 168.364 117.526C168.788 117.487 169.264 117.563 169.79 117.755C170.317 117.948 170.893 118.294 171.518 118.794C172.124 119.279 172.616 119.767 172.994 120.259C173.371 120.746 173.635 121.227 173.784 121.699C173.935 122.169 173.972 122.624 173.893 123.063C173.816 123.5 173.624 123.911 173.317 124.295C173.012 124.676 172.664 124.956 172.273 125.135C171.883 125.31 171.475 125.384 171.052 125.358C170.628 125.329 170.216 125.197 169.814 124.962L170.463 124.15C170.835 124.327 171.209 124.389 171.587 124.335C171.965 124.277 172.298 124.068 172.585 123.709C173.006 123.183 173.108 122.585 172.892 121.913C172.678 121.24 172.152 120.567 171.313 119.897L171.271 119.95C171.358 120.223 171.4 120.499 171.399 120.778C171.398 121.057 171.35 121.33 171.256 121.598C171.163 121.865 171.022 122.116 170.834 122.351C170.521 122.741 170.138 123.022 169.684 123.194C169.23 123.362 168.755 123.407 168.259 123.331C167.763 123.25 167.296 123.034 166.857 122.683C166.44 122.349 166.133 121.951 165.936 121.488C165.738 121.02 165.672 120.535 165.738 120.03C165.805 119.523 166.026 119.042 166.402 118.586ZM167.134 119.172C166.91 119.451 166.779 119.759 166.739 120.095C166.699 120.427 166.744 120.752 166.875 121.071C167.005 121.386 167.212 121.657 167.496 121.884C167.779 122.112 168.088 122.256 168.42 122.319C168.752 122.377 169.073 122.352 169.385 122.245C169.696 122.134 169.963 121.938 170.187 121.659C170.356 121.448 170.472 121.219 170.535 120.971C170.596 120.722 170.609 120.472 170.573 120.221C170.537 119.967 170.458 119.727 170.336 119.502C170.211 119.275 170.048 119.081 169.847 118.919C169.58 118.706 169.279 118.571 168.944 118.513C168.609 118.453 168.281 118.478 167.957 118.586C167.636 118.693 167.361 118.888 167.134 119.172ZM178.092 118.328C177.726 118.785 177.322 119.124 176.88 119.345C176.437 119.562 175.994 119.653 175.552 119.619C175.107 119.584 174.702 119.418 174.335 119.121C174.045 118.892 173.824 118.623 173.673 118.312C173.519 118 173.44 117.678 173.435 117.347C173.43 117.012 173.505 116.703 173.66 116.419L173.62 116.387C173.275 116.645 172.884 116.758 172.448 116.726C172.009 116.692 171.61 116.529 171.251 116.237C170.903 115.963 170.663 115.627 170.533 115.232C170.402 114.836 170.382 114.42 170.473 113.983C170.566 113.544 170.772 113.125 171.091 112.726C171.407 112.331 171.768 112.042 172.174 111.857C172.58 111.673 172.991 111.601 173.406 111.642C173.822 111.68 174.204 111.837 174.552 112.112C174.912 112.403 175.156 112.76 175.283 113.183C175.411 113.601 175.389 114.004 175.217 114.391L175.257 114.422C175.499 114.212 175.782 114.074 176.106 114.01C176.428 113.944 176.759 113.951 177.099 114.03C177.438 114.108 177.752 114.261 178.042 114.489C178.408 114.786 178.657 115.149 178.787 115.577C178.917 116.001 178.925 116.453 178.81 116.933C178.695 117.408 178.456 117.873 178.092 118.328ZM177.36 117.742C177.607 117.434 177.77 117.128 177.849 116.824C177.929 116.52 177.926 116.234 177.842 115.967C177.758 115.699 177.594 115.467 177.352 115.269C177.093 115.066 176.812 114.95 176.51 114.923C176.208 114.896 175.91 114.95 175.616 115.086C175.323 115.22 175.062 115.43 174.831 115.719C174.599 116.009 174.447 116.314 174.378 116.633C174.31 116.95 174.322 117.253 174.415 117.542C174.509 117.828 174.686 118.073 174.945 118.277C175.187 118.475 175.447 118.586 175.725 118.612C176.005 118.635 176.285 118.574 176.566 118.428C176.847 118.281 177.111 118.053 177.36 117.742ZM174.126 115.154C174.321 114.91 174.445 114.655 174.499 114.388C174.554 114.12 174.537 113.861 174.449 113.612C174.361 113.363 174.2 113.143 173.966 112.953C173.734 112.77 173.49 112.664 173.234 112.634C172.975 112.602 172.724 112.643 172.48 112.757C172.234 112.869 172.011 113.051 171.81 113.301C171.606 113.556 171.475 113.817 171.418 114.084C171.358 114.35 171.374 114.604 171.463 114.846C171.55 115.087 171.71 115.299 171.943 115.481C172.176 115.672 172.423 115.784 172.684 115.818C172.946 115.849 173.202 115.809 173.452 115.696C173.702 115.583 173.927 115.403 174.126 115.154Z" fill="black"/>
<path d="M73.3656 161.667L73.8072 160.918L80.1935 157.64L80.7367 157.96L80.0526 159.12L79.6856 158.904L74.8602 161.381L74.8256 161.44L79.2742 164.064L78.7979 164.871L73.3656 161.667ZM75.9947 165.296L77.0382 163.526L77.2438 163.178L80.4284 157.778L81.2946 158.289L76.861 165.807L75.9947 165.296ZM81.6555 168.773C81.1025 168.447 80.7202 168.018 80.5086 167.488C80.2985 166.955 80.2603 166.341 80.3939 165.644C80.5289 164.945 80.8375 164.187 81.3195 163.37C81.7987 162.558 82.3106 161.925 82.8553 161.471C83.4039 161.016 83.9623 160.752 84.5303 160.678C85.1022 160.603 85.6623 160.727 86.2104 161.05C86.7585 161.374 87.1369 161.803 87.3456 162.338C87.5581 162.873 87.5969 163.489 87.4618 164.188C87.3306 164.886 87.0255 165.641 86.5463 166.453C86.0643 167.27 85.5502 167.907 85.004 168.363C84.4593 168.817 83.9029 169.081 83.3349 169.155C82.7683 169.226 82.2085 169.099 81.6555 168.773ZM82.1318 167.965C82.6799 168.289 83.2615 168.276 83.8767 167.926C84.4919 167.576 85.0881 166.912 85.6654 165.933C86.0493 165.283 86.3065 164.687 86.4369 164.147C86.5697 163.609 86.5772 163.143 86.4592 162.75C86.3437 162.359 86.1049 162.057 85.7428 161.843C85.1995 161.523 84.6169 161.54 83.995 161.896C83.3745 162.249 82.7763 162.913 82.2005 163.89C81.8166 164.541 81.5589 165.134 81.4275 165.67C81.2961 166.206 81.2888 166.668 81.4058 167.057C81.5252 167.448 81.7672 167.75 82.1318 167.965ZM87.3747 170.622L87.0822 170.984C86.876 171.239 86.6363 171.5 86.3631 171.767C86.0923 172.036 85.8286 172.285 85.5721 172.513C85.3156 172.741 85.1089 172.921 84.952 173.052L84.2913 172.663C84.4155 172.525 84.579 172.343 84.782 172.116C84.9849 171.889 85.2059 171.632 85.4449 171.344C85.6849 171.06 85.9194 170.763 86.1485 170.453L86.4351 170.068L87.3747 170.622ZM90.4876 173.982C89.9346 173.656 89.5523 173.228 89.3408 172.697C89.1306 172.164 89.0924 171.55 89.226 170.853C89.3611 170.155 89.6696 169.397 90.1517 168.579C90.6308 167.767 91.1428 167.134 91.6875 166.68C92.2361 166.225 92.7944 165.961 93.3624 165.887C93.9344 165.812 94.4944 165.936 95.0425 166.259C95.5906 166.583 95.969 167.012 96.1777 167.547C96.3903 168.082 96.429 168.698 96.2939 169.397C96.1628 170.095 95.8576 170.85 95.3785 171.662C94.8964 172.48 94.3823 173.116 93.8362 173.573C93.2914 174.026 92.7351 174.29 92.167 174.364C91.6004 174.436 91.0406 174.308 90.4876 173.982ZM90.9639 173.175C91.512 173.498 92.0937 173.485 92.7088 173.135C93.324 172.786 93.9202 172.121 94.4975 171.143C94.8814 170.492 95.1386 169.896 95.269 169.357C95.4019 168.818 95.4093 168.352 95.2914 167.96C95.1759 167.568 94.9371 167.266 94.5749 167.052C94.0317 166.732 93.4491 166.749 92.8271 167.105C92.2066 167.458 91.6084 168.123 91.0326 169.099C90.6487 169.75 90.391 170.343 90.2596 170.879C90.1282 171.415 90.121 171.878 90.2379 172.267C90.3573 172.657 90.5993 172.96 90.9639 173.175ZM101.444 170.035C101.751 170.219 102.024 170.46 102.265 170.757C102.505 171.054 102.674 171.41 102.771 171.827C102.87 172.242 102.861 172.723 102.746 173.272C102.63 173.82 102.369 174.439 101.962 175.129C101.568 175.797 101.154 176.353 100.721 176.797C100.291 177.24 99.8535 177.569 99.4069 177.783C98.9627 178 98.5176 178.1 98.0717 178.084C97.6282 178.07 97.1948 177.938 96.7715 177.688C96.3506 177.44 96.0241 177.135 95.7919 176.774C95.5636 176.412 95.4322 176.02 95.3979 175.597C95.3674 175.173 95.4397 174.746 95.6148 174.315L96.5104 174.843C96.3876 175.236 96.3798 175.615 96.4868 175.982C96.5977 176.347 96.8514 176.647 97.2478 176.881C97.8277 177.223 98.4347 177.24 99.0687 176.931C99.7051 176.623 100.296 176.007 100.842 175.082L100.783 175.048C100.525 175.172 100.257 175.254 99.9808 175.292C99.7044 175.33 99.4273 175.322 99.1497 175.267C98.872 175.212 98.6035 175.108 98.3441 174.955C97.9135 174.701 97.5811 174.361 97.3469 173.936C97.1167 173.51 97.0043 173.047 97.0098 172.545C97.0191 172.043 97.1667 171.549 97.4525 171.065C97.7238 170.605 98.0748 170.245 98.5055 169.984C98.9401 169.723 99.4117 169.588 99.9203 169.582C100.431 169.576 100.939 169.727 101.444 170.035ZM100.968 170.843C100.659 170.661 100.336 170.574 99.998 170.582C99.6638 170.59 99.348 170.681 99.0507 170.855C98.7572 171.028 98.5181 171.271 98.3334 171.584C98.1486 171.898 98.049 172.223 98.0345 172.561C98.0239 172.898 98.0937 173.213 98.2441 173.506C98.3983 173.798 98.6296 174.035 98.9379 174.217C99.1703 174.354 99.4136 174.436 99.6677 174.464C99.9231 174.489 100.172 174.467 100.416 174.396C100.662 174.324 100.889 174.211 101.094 174.059C101.301 173.904 101.47 173.715 101.601 173.492C101.775 173.198 101.866 172.881 101.876 172.541C101.888 172.202 101.817 171.879 101.664 171.575C101.513 171.271 101.281 171.027 100.968 170.843Z" fill="black"/>
<path d="M121.897 198L39.7104 153.228L83.2887 75.2547L124.23 2L231.71 52.2743L121.897 198Z" stroke="#379482" stroke-width="2"/>
<path d="M19.8162 150.959C48.6032 164.184 106.831 189.23 160.127 237.949M12.1927 169.094C40.3946 182.051 92.4257 203.794 146.703 253.77" stroke="#C4C4C4"/>
<path d="M80.0591 187.478L81.1282 188.147L79.798 195.861L79.8847 195.916L86.2427 191.349L87.3118 192.019L82.6809 199.416L81.8429 198.891L85.3613 193.271L85.2891 193.226L79.459 197.399L78.6499 196.892L79.8567 189.825L79.7845 189.78L76.2661 195.4L75.4281 194.875L80.0591 187.478ZM85.9125 201.62C85.561 201.4 85.2834 201.134 85.0797 200.822C84.8776 200.508 84.7714 200.172 84.7611 199.813C84.7524 199.452 84.861 199.091 85.0872 198.73C85.2861 198.412 85.5101 198.194 85.7589 198.075C86.0092 197.953 86.2746 197.902 86.5549 197.92C86.8352 197.938 87.1192 197.998 87.4067 198.101C87.6981 198.203 87.9832 198.318 88.2619 198.445C88.6262 198.613 88.9199 198.752 89.1429 198.861C89.3699 198.97 89.5489 199.026 89.6799 199.031C89.8133 199.038 89.9229 198.972 90.0088 198.835L90.0269 198.806C90.25 198.45 90.3259 198.112 90.2544 197.792C90.1854 197.474 89.9547 197.192 89.5622 196.947C89.1552 196.692 88.7804 196.581 88.4377 196.615C88.095 196.648 87.8133 196.737 87.5928 196.88L86.9646 196.085C87.3201 195.838 87.6771 195.696 88.0355 195.659C88.3978 195.621 88.7455 195.654 89.0788 195.759C89.416 195.863 89.7243 196.002 90.0036 196.177C90.1818 196.289 90.3729 196.439 90.5769 196.627C90.7849 196.814 90.9565 197.04 91.0918 197.306C91.2295 197.573 91.2885 197.883 91.2686 198.236C91.2488 198.589 91.101 198.986 90.8251 199.427L88.5367 203.082L87.6843 202.548L88.1547 201.797L88.1113 201.77C87.9781 201.854 87.8012 201.923 87.5804 201.975C87.3596 202.028 87.1071 202.033 86.8229 201.989C86.5386 201.945 86.2352 201.822 85.9125 201.62ZM86.5219 200.936C86.859 201.147 87.1846 201.258 87.4987 201.271C87.8152 201.284 88.098 201.223 88.3472 201.088C88.5987 200.954 88.7968 200.771 88.9416 200.54L89.43 199.76C89.3667 199.78 89.2624 199.77 89.117 199.73C88.9755 199.688 88.817 199.631 88.6415 199.558C88.4699 199.484 88.3034 199.41 88.142 199.336C87.9846 199.26 87.8564 199.2 87.7573 199.155C87.5177 199.045 87.2812 198.963 87.0479 198.907C86.8185 198.85 86.6048 198.849 86.4069 198.903C86.2129 198.956 86.0481 199.091 85.9124 199.307C85.727 199.603 85.6964 199.896 85.8205 200.185C85.9486 200.473 86.1824 200.723 86.5219 200.936ZM88.7901 206.136L93.5658 198.508L94.3893 199.023L93.8376 199.905L93.9387 199.968C94.0616 199.911 94.2252 199.842 94.4294 199.762C94.6376 199.682 94.8833 199.648 95.1667 199.661C95.454 199.673 95.7782 199.792 96.1394 200.019C96.6065 200.311 96.9452 200.686 97.1553 201.142C97.3655 201.599 97.4363 202.104 97.3679 202.658C97.2994 203.212 97.0828 203.78 96.7179 204.363C96.3501 204.95 95.9314 205.397 95.4617 205.703C94.9935 206.006 94.5085 206.165 94.0068 206.18C93.5066 206.191 93.0254 206.053 92.563 205.763C92.2067 205.54 91.9582 205.303 91.8178 205.05C91.6789 204.796 91.5991 204.557 91.5785 204.332C91.5594 204.106 91.5502 203.923 91.5509 203.782L91.4786 203.737L89.6425 206.67L88.7901 206.136ZM92.6672 201.806C92.4049 202.225 92.2349 202.634 92.1572 203.031C92.081 203.425 92.1044 203.787 92.2273 204.115C92.3517 204.441 92.5849 204.711 92.9268 204.925C93.2832 205.148 93.6394 205.241 93.9954 205.202C94.3552 205.163 94.6956 205.02 95.0165 204.775C95.3413 204.53 95.6273 204.209 95.8746 203.814C96.1188 203.424 96.2787 203.035 96.3542 202.647C96.4337 202.257 96.4104 201.896 96.2841 201.562C96.1618 201.227 95.9201 200.947 95.5589 200.721C95.2121 200.504 94.8657 200.409 94.5197 200.437C94.1752 200.463 93.8448 200.595 93.5284 200.832C93.2135 201.068 92.9265 201.392 92.6672 201.806ZM101.774 201.072L97.1431 208.47L96.2907 207.936L100.922 200.539L101.774 201.072ZM100.958 211.019C100.424 210.684 100.036 210.278 99.7963 209.799C99.5603 209.319 99.4709 208.801 99.5283 208.244C99.5895 207.685 99.798 207.122 100.154 206.554C100.51 205.985 100.927 205.549 101.405 205.246C101.887 204.941 102.391 204.784 102.917 204.774C103.446 204.764 103.961 204.915 104.462 205.229C104.751 205.41 105.006 205.637 105.228 205.909C105.449 206.182 105.608 206.499 105.703 206.86C105.8 207.22 105.807 207.619 105.722 208.059C105.638 208.499 105.434 208.978 105.109 209.495L104.883 209.856L100.607 207.179L101.068 206.442L104.478 208.577C104.674 208.264 104.786 207.945 104.815 207.621C104.846 207.299 104.791 206.995 104.651 206.71C104.514 206.426 104.291 206.188 103.983 205.995C103.643 205.782 103.297 205.682 102.943 205.696C102.594 205.708 102.269 205.807 101.969 205.991C101.669 206.175 101.424 206.42 101.232 206.726L100.925 207.217C100.662 207.636 100.512 208.037 100.474 208.419C100.44 208.799 100.506 209.147 100.671 209.462C100.838 209.774 101.093 210.038 101.437 210.253C101.661 210.393 101.883 210.489 102.103 210.539C102.327 210.589 102.545 210.591 102.757 210.546C102.971 210.499 103.174 210.402 103.367 210.255L104.046 211.001C103.784 211.226 103.485 211.381 103.148 211.465C102.812 211.546 102.456 211.551 102.082 211.481C101.708 211.408 101.334 211.254 100.958 211.019Z" fill="#8E8E8E"/>
</svg>
