<svg width="149" height="319" viewBox="0 0 149 319" fill="none" xmlns="http://www.w3.org/2000/svg">
<path d="M107.209 71.8155C106.627 71.5459 106.204 71.1577 105.94 70.6509C105.678 70.1416 105.579 69.5338 105.643 68.8277C105.708 68.119 105.94 67.3341 106.338 66.4729C106.734 65.6169 107.18 64.936 107.677 64.4303C108.178 63.9232 108.707 63.6046 109.265 63.4746C109.827 63.3431 110.396 63.411 110.974 63.6782C111.551 63.9454 111.971 64.335 112.232 64.8469C112.496 65.3575 112.596 65.9671 112.531 66.6758C112.47 67.3831 112.241 68.1648 111.845 69.0208C111.447 69.882 110.999 70.5667 110.501 71.075C110.004 71.5807 109.476 71.8986 108.918 72.0287C108.362 72.1561 107.792 72.0851 107.209 71.8155ZM107.603 70.9646C108.181 71.2318 108.758 71.1609 109.335 70.7519C109.913 70.3429 110.44 69.6227 110.917 68.5914C111.234 67.9055 111.431 67.2875 111.507 66.7374C111.586 66.1884 111.547 65.7244 111.391 65.3453C111.237 64.9674 110.969 64.6901 110.587 64.5136C110.015 64.2488 109.437 64.3242 108.854 64.7397C108.271 65.1527 107.742 65.8736 107.266 66.9023C106.949 67.5882 106.752 68.2043 106.674 68.7507C106.597 69.297 106.635 69.7579 106.79 70.1332C106.948 70.5098 107.219 70.7869 107.603 70.9646ZM113.084 73.0872L112.829 73.4762C112.649 73.7499 112.437 74.0334 112.191 74.3269C111.949 74.6215 111.711 74.895 111.478 75.1474C111.246 75.3998 111.058 75.5993 110.915 75.746L110.219 75.424C110.329 75.2744 110.473 75.0769 110.653 74.8312C110.832 74.5855 111.026 74.3076 111.236 73.9974C111.446 73.6911 111.65 73.3722 111.847 73.0408L112.094 72.6291L113.084 73.0872ZM120.42 68.0484C120.744 68.2013 121.04 68.4134 121.309 68.6849C121.578 68.9564 121.781 69.2947 121.92 69.6998C122.059 70.1023 122.098 70.5822 122.038 71.1395C121.977 71.6968 121.779 72.339 121.442 73.0661C121.116 73.77 120.76 74.3642 120.373 74.8488C119.99 75.332 119.587 75.7027 119.164 75.9609C118.743 76.2202 118.311 76.3643 117.865 76.393C117.423 76.423 116.978 76.3348 116.532 76.1284C116.089 75.9233 115.733 75.6525 115.466 75.3162C115.203 74.9784 115.034 74.601 114.957 74.1838C114.885 73.7653 114.914 73.3329 115.046 72.8866L115.989 73.3231C115.906 73.726 115.936 74.1045 116.079 74.4587C116.226 74.8114 116.508 75.0843 116.926 75.2776C117.537 75.5603 118.142 75.5165 118.743 75.1462C119.345 74.7771 119.872 74.1052 120.323 73.1306L120.261 73.102C120.017 73.2517 119.759 73.3593 119.487 73.4248C119.216 73.4902 118.939 73.5094 118.658 73.4824C118.376 73.4553 118.099 73.3786 117.825 73.2522C117.371 73.0422 117.007 72.7374 116.732 72.3378C116.46 71.9367 116.302 71.4865 116.258 70.987C116.217 70.4862 116.315 69.9805 116.551 69.47C116.775 68.9852 117.089 68.5918 117.492 68.2898C117.898 67.9864 118.354 67.8061 118.859 67.7488C119.367 67.6927 119.888 67.7926 120.42 68.0484ZM120.027 68.8993C119.702 68.749 119.372 68.6948 119.036 68.7368C118.704 68.7773 118.399 68.8991 118.121 69.102C117.846 69.3036 117.632 69.5693 117.479 69.8994C117.327 70.2294 117.26 70.5632 117.279 70.9007C117.302 71.2368 117.403 71.5433 117.582 71.82C117.764 72.0954 118.018 72.3083 118.343 72.4585C118.588 72.5719 118.838 72.6297 119.093 72.6321C119.35 72.632 119.596 72.5845 119.831 72.4896C120.069 72.3934 120.283 72.2592 120.472 72.0869C120.663 71.9121 120.812 71.7074 120.921 71.4727C121.064 71.1633 121.123 70.8387 121.099 70.4988C121.077 70.16 120.975 69.8467 120.792 69.5586C120.612 69.2717 120.357 69.0519 120.027 68.8993ZM121.015 78.0711L127.8 72.702L127.829 72.6401L123.745 70.7507L124.138 69.8998L129.212 72.2473L128.797 73.1446L122.021 78.5363L121.015 78.0711Z" fill="black"/>
<path d="M58.8204 205.428L59.1854 204.639L65.2141 200.742L65.7865 201.007L65.2211 202.229L64.8343 202.05L60.2792 204.995L60.2506 205.057L64.938 207.225L64.5444 208.076L58.8204 205.428ZM61.7973 208.777L62.6597 206.913L62.8296 206.546L65.4616 200.857L66.3743 201.279L62.71 209.2L61.7973 208.777ZM67.8685 211.718C67.358 211.481 66.9435 211.183 66.6249 210.823C66.309 210.464 66.1059 210.074 66.0156 209.654C65.929 209.232 65.9715 208.808 66.1429 208.384L67.1175 208.835C67.02 209.1 67.0057 209.361 67.0745 209.618C67.1446 209.872 67.2814 210.108 67.4849 210.324C67.6885 210.54 67.9424 210.719 68.2467 210.86C68.587 211.017 68.9161 211.097 69.234 211.1C69.5518 211.103 69.8345 211.034 70.0818 210.892C70.3292 210.749 70.5173 210.539 70.6461 210.261C70.7809 209.969 70.8274 209.679 70.7856 209.391C70.7449 209.1 70.6146 208.826 70.3946 208.571C70.1746 208.316 69.8635 208.095 69.4613 207.909L68.827 207.616L69.2206 206.765L69.8549 207.059C70.1694 207.204 70.4716 207.275 70.7613 207.271C71.0535 207.269 71.3144 207.195 71.5439 207.051C71.776 206.908 71.9565 206.697 72.0853 206.419C72.2093 206.151 72.258 205.89 72.2312 205.637C72.2045 205.383 72.1084 205.151 71.9432 204.94C71.7804 204.73 71.5534 204.558 71.2621 204.423C70.9887 204.296 70.7076 204.227 70.4188 204.216C70.1336 204.203 69.8715 204.255 69.6323 204.373C69.3943 204.488 69.208 204.675 69.0734 204.932L68.1452 204.502C68.3527 204.094 68.646 203.789 69.0249 203.585C69.4051 203.379 69.8252 203.276 70.2854 203.276C70.7481 203.277 71.2076 203.383 71.664 203.595C72.1539 203.821 72.5282 204.115 72.787 204.476C73.047 204.834 73.1966 205.218 73.2357 205.627C73.2748 206.036 73.2079 206.428 73.035 206.802C72.8286 207.248 72.5353 207.574 72.1552 207.78C71.7776 207.987 71.361 208.059 70.9053 207.995L70.8766 208.057C71.3387 208.371 71.6309 208.764 71.7533 209.237C71.8769 209.708 71.8224 210.194 71.5898 210.697C71.3906 211.128 71.0943 211.46 70.7011 211.695C70.3115 211.928 69.8704 212.049 69.3775 212.059C68.8846 212.069 68.3816 211.955 67.8685 211.718ZM73.81 213.02L73.5549 213.409C73.3751 213.683 73.1625 213.966 72.9172 214.26C72.6745 214.554 72.4368 214.828 72.2042 215.08C71.9717 215.333 71.7839 215.532 71.6409 215.679L70.9447 215.357C71.0546 215.207 71.1992 215.01 71.3786 214.764C71.558 214.518 71.7523 214.241 71.9615 213.93C72.1721 213.624 72.376 213.305 72.5731 212.974L72.8199 212.562L73.81 213.02ZM81.1462 207.981C81.4699 208.134 81.7662 208.346 82.035 208.618C82.3038 208.889 82.5073 209.228 82.6454 209.633C82.7847 210.035 82.8241 210.515 82.7634 211.072C82.7028 211.63 82.5043 212.272 82.168 212.999C81.8423 213.703 81.486 214.297 81.0991 214.782C80.7159 215.265 80.3128 215.636 79.8897 215.894C79.4692 216.153 79.0363 216.297 78.5911 216.326C78.1484 216.356 77.704 216.268 77.2579 216.061C76.8145 215.856 76.4592 215.585 76.1923 215.249C75.9291 214.911 75.7594 214.534 75.6832 214.117C75.6107 213.698 75.6402 213.266 75.7715 212.82L76.7152 213.256C76.6321 213.659 76.662 214.038 76.805 214.392C76.9517 214.744 77.2339 215.017 77.6516 215.211C78.2626 215.493 78.8683 215.449 79.4684 215.079C80.0711 214.71 80.5979 214.038 81.0488 213.064L80.9869 213.035C80.7424 213.185 80.4844 213.292 80.2131 213.358C79.9418 213.423 79.6653 213.442 79.3836 213.415C79.1019 213.388 78.8243 213.312 78.551 213.185C78.0972 212.975 77.7327 212.67 77.4575 212.271C77.186 211.87 77.0281 211.419 76.9837 210.92C76.9431 210.419 77.0408 209.913 77.277 209.403C77.5013 208.918 77.8147 208.525 78.2174 208.223C78.6238 207.919 79.0797 207.739 79.5852 207.682C80.0932 207.626 80.6135 207.726 81.1462 207.981ZM80.7526 208.832C80.4277 208.682 80.0975 208.628 79.762 208.67C79.4302 208.71 79.125 208.832 78.8464 209.035C78.5716 209.237 78.3579 209.502 78.2052 209.832C78.0525 210.162 77.9858 210.496 78.0049 210.834C78.0278 211.17 78.1286 211.476 78.3074 211.753C78.4899 212.028 78.7435 212.241 79.0684 212.392C79.3134 212.505 79.5636 212.563 79.8192 212.565C80.0759 212.565 80.3217 212.517 80.5565 212.423C80.7951 212.326 81.009 212.192 81.1983 212.02C81.3887 211.845 81.5382 211.64 81.6468 211.406C81.7899 211.096 81.8493 210.772 81.825 210.432C81.8033 210.093 81.701 209.78 81.5181 209.492C81.3378 209.205 81.0826 208.985 80.7526 208.832ZM87.9425 211.125C88.2662 211.278 88.5624 211.491 88.8312 211.762C89.1 212.033 89.3035 212.372 89.4416 212.777C89.581 213.179 89.6203 213.659 89.5597 214.217C89.4991 214.774 89.3006 215.416 88.9642 216.143C88.6386 216.847 88.2823 217.441 87.8953 217.926C87.5121 218.409 87.109 218.78 86.6859 219.038C86.2655 219.297 85.8326 219.441 85.3873 219.47C84.9446 219.5 84.5002 219.412 84.0542 219.206C83.6107 219 83.2555 218.73 82.9885 218.393C82.7253 218.055 82.5556 217.678 82.4794 217.261C82.407 216.842 82.4364 216.41 82.5678 215.964L83.5114 216.4C83.4283 216.803 83.4583 217.182 83.6012 217.536C83.7479 217.888 84.0301 218.161 84.4478 218.355C85.0589 218.637 85.6645 218.594 86.2646 218.223C86.8674 217.854 87.3942 217.182 87.8451 216.208L87.7832 216.179C87.5386 216.329 87.2807 216.436 87.0094 216.502C86.7381 216.567 86.4615 216.586 86.1798 216.559C85.8981 216.532 85.6206 216.456 85.3473 216.329C84.8935 216.119 84.529 215.814 84.2537 215.415C83.9822 215.014 83.8243 214.564 83.7799 214.064C83.7393 213.563 83.8371 213.058 84.0732 212.547C84.2975 212.062 84.611 211.669 85.0136 211.367C85.42 211.063 85.876 210.883 86.3814 210.826C86.8894 210.77 87.4098 210.87 87.9425 211.125ZM87.5488 211.976C87.224 211.826 86.8938 211.772 86.5582 211.814C86.2264 211.854 85.9212 211.976 85.6427 212.179C85.3679 212.381 85.1541 212.646 85.0015 212.976C84.8488 213.306 84.782 213.64 84.8011 213.978C84.8241 214.314 84.9249 214.62 85.1036 214.897C85.2861 215.173 85.5398 215.385 85.8647 215.536C86.1096 215.649 86.3599 215.707 86.6154 215.709C86.8722 215.709 87.118 215.662 87.3528 215.567C87.5913 215.471 87.8053 215.336 87.9945 215.164C88.185 214.989 88.3344 214.784 88.443 214.55C88.5861 214.24 88.6455 213.916 88.6212 213.576C88.5995 213.237 88.4972 212.924 88.3143 212.636C88.134 212.349 87.8789 212.129 87.5488 211.976Z" fill="black"/>
<path d="M110.525 162.04L119.214 162.855L119.116 163.907L111.53 163.196L111.525 163.247L112.735 165.5L111.665 165.4L110.427 163.092L110.525 162.04ZM119.833 157.533C119.773 158.172 119.548 158.7 119.158 159.117C118.765 159.534 118.225 159.83 117.538 160.006C116.849 160.181 116.031 160.224 115.087 160.135C114.147 160.047 113.357 159.853 112.714 159.553C112.069 159.25 111.593 158.857 111.284 158.375C110.973 157.889 110.847 157.33 110.906 156.696C110.966 156.062 111.193 155.537 111.589 155.121C111.982 154.701 112.524 154.404 113.214 154.229C113.901 154.051 114.714 154.006 115.653 154.094C116.598 154.182 117.393 154.377 118.038 154.677C118.68 154.977 119.156 155.368 119.464 155.85C119.77 156.333 119.893 156.894 119.833 157.533ZM118.9 157.445C118.959 156.812 118.7 156.291 118.122 155.883C117.544 155.475 116.689 155.218 115.558 155.112C114.805 155.041 114.157 155.062 113.613 155.173C113.069 155.282 112.645 155.474 112.339 155.747C112.034 156.018 111.862 156.363 111.823 156.782C111.764 157.41 112.028 157.93 112.614 158.341C113.197 158.753 114.053 159.011 115.182 159.117C115.934 159.188 116.581 159.168 117.122 159.059C117.663 158.95 118.085 158.76 118.387 158.489C118.689 158.215 118.86 157.867 118.9 157.445ZM120.152 152.85L112.829 148.243L112.761 148.237L112.341 152.717L111.407 152.63L111.929 147.063L112.914 147.156L120.256 151.747L120.152 152.85ZM119.58 146.168L120.032 146.279C120.35 146.357 120.688 146.463 121.047 146.597C121.406 146.727 121.743 146.86 122.058 146.995C122.374 147.13 122.624 147.241 122.81 147.327L122.739 148.091C122.561 148.037 122.327 147.966 122.035 147.879C121.744 147.792 121.417 147.701 121.055 147.607C120.696 147.511 120.327 147.425 119.949 147.35L119.479 147.254L119.58 146.168ZM121.298 141.912C121.251 142.41 121.11 142.849 120.875 143.229C120.639 143.609 120.338 143.904 119.97 144.112C119.602 144.32 119.197 144.414 118.754 144.396L118.849 143.377C119.246 143.375 119.588 143.227 119.875 142.934C120.16 142.639 120.323 142.269 120.364 141.825C120.398 141.468 120.344 141.144 120.203 140.851C120.062 140.555 119.854 140.314 119.577 140.129C119.298 139.94 118.974 139.828 118.603 139.793C118.224 139.758 117.878 139.81 117.566 139.949C117.25 140.085 116.993 140.289 116.793 140.561C116.594 140.833 116.475 141.155 116.438 141.525C116.41 141.791 116.425 142.067 116.484 142.355C116.54 142.643 116.624 142.883 116.737 143.077L116.526 144.05L112.299 143.123L112.722 138.609L113.655 138.696L113.315 142.328L115.849 142.874L115.854 142.823C115.729 142.631 115.633 142.397 115.564 142.119C115.496 141.842 115.476 141.557 115.503 141.266C115.553 140.734 115.725 140.273 116.018 139.881C116.309 139.486 116.685 139.19 117.146 138.993C117.607 138.794 118.119 138.721 118.682 138.774C119.236 138.825 119.719 138.996 120.132 139.286C120.541 139.573 120.852 139.944 121.063 140.401C121.271 140.857 121.349 141.361 121.298 141.912ZM121.986 134.575C121.931 135.158 121.779 135.663 121.531 136.091C121.28 136.515 120.961 136.835 120.572 137.049C120.181 137.264 119.751 137.348 119.282 137.301C118.914 137.269 118.581 137.165 118.284 136.989C117.984 136.812 117.741 136.587 117.555 136.313C117.367 136.036 117.26 135.736 117.233 135.414L117.182 135.409C117.036 135.815 116.771 136.124 116.389 136.336C116.004 136.548 115.581 136.631 115.12 136.585C114.679 136.547 114.295 136.398 113.968 136.139C113.641 135.88 113.396 135.543 113.232 135.129C113.069 134.711 113.011 134.248 113.059 133.738C113.106 133.235 113.249 132.795 113.487 132.417C113.725 132.04 114.028 131.755 114.397 131.561C114.767 131.365 115.172 131.286 115.614 131.324C116.074 131.37 116.474 131.535 116.813 131.818C117.149 132.097 117.352 132.446 117.421 132.863L117.472 132.868C117.558 132.559 117.719 132.289 117.954 132.057C118.187 131.825 118.468 131.649 118.796 131.528C119.121 131.408 119.468 131.363 119.836 131.395C120.305 131.442 120.712 131.608 121.056 131.894C121.397 132.178 121.652 132.551 121.819 133.015C121.985 133.475 122.04 133.995 121.986 134.575ZM121.052 134.488C121.089 134.095 121.057 133.749 120.957 133.452C120.856 133.154 120.697 132.917 120.48 132.739C120.263 132.562 119.998 132.457 119.688 132.425C119.359 132.397 119.061 132.455 118.794 132.598C118.527 132.742 118.307 132.951 118.136 133.226C117.965 133.498 117.862 133.818 117.828 134.185C117.793 134.556 117.834 134.894 117.951 135.199C118.068 135.501 118.245 135.747 118.481 135.937C118.717 136.125 119 136.233 119.328 136.261C119.639 136.293 119.917 136.243 120.164 136.112C120.41 135.978 120.611 135.773 120.765 135.497C120.919 135.22 121.015 134.884 121.052 134.488ZM116.928 134.101C116.957 133.79 116.921 133.508 116.819 133.256C116.717 133.001 116.561 132.794 116.351 132.635C116.14 132.475 115.885 132.38 115.586 132.349C115.292 132.324 115.029 132.369 114.798 132.485C114.565 132.6 114.378 132.772 114.236 133.001C114.092 133.23 114.005 133.505 113.975 133.824C113.945 134.15 113.979 134.44 114.078 134.694C114.174 134.949 114.326 135.153 114.534 135.306C114.739 135.46 114.989 135.549 115.284 135.573C115.583 135.604 115.851 135.562 116.087 135.448C116.324 135.33 116.516 135.155 116.663 134.924C116.81 134.692 116.899 134.418 116.928 134.101Z" fill="black"/>
<path d="M63.788 140.63L71.5136 144.69L71.022 145.625L64.2772 142.081L64.2534 142.126L64.5147 144.671L63.5641 144.171L63.2964 141.566L63.788 140.63ZM74.1109 140.004C73.8122 140.572 73.4032 140.975 72.8837 141.212C72.3618 141.448 71.7498 141.516 71.0478 141.417C70.3433 141.316 69.5711 141.045 68.7311 140.604C67.8962 140.165 67.2387 139.685 66.7588 139.163C66.2776 138.638 65.9861 138.093 65.8844 137.529C65.7815 136.962 65.8781 136.396 66.1741 135.833C66.4701 135.27 66.8803 134.871 67.4048 134.636C67.9281 134.397 68.542 134.328 69.2465 134.429C69.9498 134.526 70.7189 134.794 71.5538 135.232C72.3938 135.674 73.055 136.156 73.5375 136.679C74.0175 137.201 74.3084 137.744 74.4101 138.307C74.5093 138.87 74.4096 139.435 74.1109 140.004ZM73.281 139.567C73.577 139.004 73.5354 138.424 73.156 137.827C72.7767 137.229 72.084 136.666 71.0781 136.138C70.4092 135.786 69.8019 135.559 69.2563 135.455C68.712 135.349 68.2466 135.364 67.8601 135.501C67.4749 135.636 67.1845 135.889 66.9889 136.261C66.6955 136.819 66.7416 137.4 67.1272 138.004C67.5102 138.607 68.2034 139.171 69.2069 139.699C69.8758 140.05 70.4812 140.279 71.0229 140.383C71.5647 140.488 72.0269 140.473 72.4096 140.337C72.7936 140.199 73.0841 139.942 73.281 139.567ZM76.1699 135.829L75.4909 135.472L74.0394 131.455C73.8697 130.984 73.7151 130.588 73.5754 130.268C73.4332 129.946 73.2797 129.682 73.1148 129.477C72.9488 129.268 72.7475 129.101 72.5112 128.977C72.2395 128.834 71.9701 128.776 71.7027 128.802C71.4366 128.826 71.1907 128.922 70.9649 129.089C70.7392 129.256 70.553 129.479 70.4063 129.758C70.2503 130.054 70.1758 130.346 70.1828 130.632C70.1885 130.914 70.2691 131.173 70.4244 131.409C70.5811 131.642 70.8066 131.836 71.1008 131.99L70.633 132.881C70.1803 132.643 69.8378 132.33 69.6055 131.941C69.3731 131.553 69.2559 131.129 69.2538 130.668C69.2529 130.206 69.3708 129.75 69.6073 129.299C69.8452 128.847 70.1515 128.496 70.5264 128.247C70.9012 127.998 71.303 127.859 71.7318 127.831C72.1606 127.803 72.5737 127.893 72.971 128.102C73.2552 128.251 73.506 128.449 73.7234 128.694C73.9397 128.936 74.1477 129.27 74.3475 129.696C74.5461 130.118 74.7668 130.676 75.0095 131.368L75.9536 134.078L76.014 134.11L77.9011 130.519L78.731 130.955L76.1699 135.829ZM79.1991 127.499L79.5748 127.774C79.839 127.967 80.1114 128.194 80.3921 128.453C80.6741 128.711 80.9353 128.962 81.1756 129.207C81.4159 129.452 81.6057 129.65 81.745 129.8L81.3882 130.479C81.2444 130.361 81.0544 130.207 80.8181 130.015C80.5818 129.824 80.314 129.616 80.0148 129.391C79.7195 129.165 79.4113 128.946 79.0903 128.732L78.6916 128.465L79.1991 127.499ZM82.4066 124.217C82.174 124.659 81.8765 125.012 81.5142 125.274C81.1518 125.536 80.7611 125.693 80.3419 125.746C79.9228 125.798 79.5118 125.731 79.1089 125.545L79.5846 124.64C79.9527 124.789 80.3251 124.782 80.702 124.621C81.0777 124.455 81.3692 124.175 81.5767 123.781C81.7432 123.464 81.817 123.143 81.7982 122.819C81.7806 122.492 81.6793 122.19 81.4943 121.913C81.3081 121.632 81.0503 121.405 80.7208 121.232C80.3838 121.055 80.0443 120.971 79.7023 120.981C79.3591 120.987 79.0434 121.077 78.7552 121.253C78.467 121.429 78.2351 121.681 78.0594 122.009C77.9327 122.244 77.8416 122.506 77.7863 122.795C77.7284 123.082 77.715 123.337 77.7461 123.558L77.1806 124.378L73.6239 121.912L75.733 117.899L76.5629 118.335L74.8661 121.564L77.0019 123.033L77.0256 122.987C76.9832 122.763 76.9832 122.509 77.0257 122.227C77.0683 121.944 77.1576 121.673 77.2937 121.414C77.5422 120.942 77.8767 120.58 78.2973 120.329C78.7167 120.075 79.1768 119.944 79.6776 119.938C80.1797 119.929 80.681 120.056 81.1815 120.319C81.6744 120.578 82.0563 120.92 82.3273 121.344C82.5971 121.765 82.7428 122.227 82.7645 122.73C82.7836 123.231 82.6643 123.726 82.4066 124.217ZM85.8027 117.754C85.5701 118.196 85.2726 118.549 84.9103 118.811C84.5479 119.073 84.1571 119.23 83.738 119.283C83.3189 119.335 82.9079 119.269 82.505 119.083L82.9807 118.177C83.3488 118.326 83.7212 118.319 84.0981 118.158C84.4738 117.993 84.7653 117.713 84.9728 117.318C85.1393 117.001 85.2131 116.68 85.1943 116.356C85.1767 116.029 85.0754 115.727 84.8904 115.45C84.7042 115.169 84.4464 114.942 84.1169 114.769C83.7799 114.592 83.4404 114.508 83.0984 114.518C82.7552 114.524 82.4395 114.615 82.1513 114.791C81.8631 114.966 81.6312 115.218 81.4555 115.547C81.3288 115.782 81.2377 116.043 81.1823 116.332C81.1244 116.619 81.111 116.874 81.1422 117.096L80.5766 117.915L77.02 115.449L79.1291 111.436L79.959 111.872L78.2622 115.101L80.3979 116.57L80.4217 116.524C80.3792 116.3 80.3793 116.046 80.4218 115.764C80.4644 115.481 80.5537 115.211 80.6898 114.952C80.9383 114.479 81.2728 114.117 81.6934 113.866C82.1128 113.612 82.5729 113.481 83.0737 113.475C83.5758 113.466 84.0771 113.593 84.5776 113.856C85.0705 114.115 85.4524 114.457 85.7234 114.882C85.9932 115.303 86.1389 115.764 86.1606 116.267C86.1797 116.768 86.0604 117.263 85.8027 117.754Z" fill="black"/>
<path d="M2.34676 212.594C21.7747 226.005 91.8638 264.553 139.819 272.733M9.68696 195.62C29.1149 209.031 99.204 247.58 147.159 255.76" stroke="#C4C4C4"/>
<path d="M116.011 239.795L25.043 198.241L53.793 148.13L82.5429 98.0183L137.783 1.36497L139.612 2.13002L128.027 118.795L116.011 239.795Z" stroke="#379482" stroke-width="2"/>
<path d="M57.6649 227.157L58.7926 227.722L58.1981 235.528L58.2895 235.574L64.187 230.426L65.3147 230.991L61.4042 238.793L60.5204 238.35L63.4914 232.423L63.4152 232.384L58.006 237.09L57.1527 236.662L57.6855 229.513L57.6093 229.474L54.6383 235.402L53.7545 234.959L57.6649 227.157ZM64.8299 240.682C64.4591 240.496 64.1576 240.258 63.9253 239.966C63.6944 239.673 63.5569 239.348 63.5127 238.992C63.4699 238.634 63.5439 238.264 63.7349 237.883C63.9029 237.548 64.1051 237.309 64.3416 237.167C64.5793 237.023 64.8386 236.946 65.1193 236.937C65.4001 236.929 65.6885 236.962 65.9845 237.037C66.2842 237.111 66.5789 237.199 66.8685 237.299C67.2469 237.432 67.5524 237.542 67.7848 237.63C68.021 237.716 68.2046 237.756 68.3355 237.749C68.4689 237.742 68.5718 237.667 68.6444 237.522L68.6597 237.492C68.8481 237.116 68.8916 236.772 68.7903 236.461C68.6915 236.151 68.4351 235.892 68.0211 235.684C67.5919 235.469 67.2082 235.395 66.8702 235.46C66.5322 235.526 66.2602 235.641 66.0542 235.804L65.3536 235.072C65.6842 234.793 66.0262 234.618 66.3794 234.547C66.7365 234.475 67.0859 234.475 67.4276 234.548C67.7731 234.619 68.0931 234.729 68.3878 234.877C68.5757 234.971 68.7801 235.102 69.001 235.27C69.2258 235.436 69.418 235.646 69.5779 235.897C69.7403 236.15 69.8283 236.453 69.8419 236.807C69.8555 237.16 69.7459 237.569 69.5129 238.034L67.5806 241.889L66.6815 241.438L67.0787 240.646L67.033 240.623C66.9084 240.719 66.7387 240.804 66.5239 240.878C66.3091 240.951 66.0582 240.98 65.7711 240.963C65.4839 240.946 65.1702 240.852 64.8299 240.682ZM65.3718 239.943C65.7274 240.121 66.0621 240.202 66.3759 240.184C66.6923 240.168 66.9681 240.08 67.2033 239.922C67.441 239.765 67.621 239.564 67.7432 239.32L68.1556 238.497C68.0946 238.524 67.9898 238.524 67.8412 238.497C67.6963 238.469 67.5331 238.427 67.3515 238.371C67.1737 238.313 67.001 238.255 66.8333 238.197C66.6695 238.137 66.5361 238.089 66.4332 238.054C66.1843 237.967 65.9411 237.907 65.7035 237.874C65.4698 237.839 65.2569 237.858 65.065 237.93C64.8769 238.001 64.7256 238.151 64.611 238.38C64.4545 238.692 64.4516 238.986 64.6026 239.262C64.7573 239.537 65.0137 239.764 65.3718 239.943ZM68.1218 244.906L72.1545 236.86L73.0231 237.295L72.5572 238.225L72.6638 238.278C72.7808 238.21 72.9371 238.126 73.1329 238.027C73.3325 237.927 73.5739 237.87 73.8572 237.856C74.1444 237.841 74.4784 237.929 74.8594 238.12C75.3521 238.367 75.7247 238.708 75.9771 239.143C76.2295 239.578 76.3478 240.074 76.332 240.632C76.3163 241.189 76.1543 241.775 75.8463 242.39C75.5357 243.01 75.1611 243.494 74.7224 243.843C74.285 244.189 73.8173 244.394 73.3192 244.455C72.8224 244.515 72.3302 244.422 71.8425 244.178C71.4666 243.989 71.1969 243.776 71.0332 243.538C70.8708 243.298 70.7687 243.067 70.727 242.846C70.6866 242.623 70.6601 242.441 70.6475 242.301L70.5713 242.263L69.0209 245.356L68.1218 244.906ZM71.5719 240.229C71.3504 240.671 71.2198 241.093 71.18 241.496C71.1415 241.896 71.199 242.253 71.3524 242.569C71.5071 242.881 71.7648 243.128 72.1254 243.309C72.5013 243.497 72.8646 243.555 73.2153 243.483C73.5699 243.41 73.8953 243.236 74.1916 242.962C74.4917 242.687 74.7461 242.341 74.9548 241.924C75.1611 241.513 75.2834 241.11 75.3219 240.716C75.3642 240.321 75.3068 239.964 75.1495 239.643C74.9961 239.322 74.7289 239.065 74.3479 238.874C73.9822 238.691 73.6284 238.63 73.2866 238.69C72.9461 238.749 72.6296 238.911 72.3371 239.177C72.0459 239.441 71.7908 239.792 71.5719 240.229ZM80.5685 238.636L76.6581 246.439L75.759 245.988L79.6694 238.186L80.5685 238.636ZM80.6971 248.616C80.1333 248.333 79.7093 247.965 79.4251 247.511C79.1448 247.056 79.0068 246.548 79.0111 245.988C79.0193 245.426 79.1736 244.846 79.474 244.246C79.7744 243.647 80.1484 243.173 80.5959 242.826C81.0473 242.477 81.5341 242.273 82.0563 242.214C82.5824 242.153 83.1095 242.255 83.6378 242.52C83.9426 242.673 84.2181 242.874 84.4643 243.125C84.7105 243.375 84.8983 243.676 85.0275 244.027C85.1581 244.375 85.2021 244.772 85.1598 245.218C85.1174 245.664 84.9594 246.16 84.6857 246.706L84.4948 247.087L79.9842 244.826L80.3737 244.049L83.97 245.852C84.1355 245.521 84.2171 245.194 84.2149 244.868C84.2152 244.544 84.1323 244.247 83.9661 243.976C83.8024 243.707 83.5581 243.491 83.233 243.328C82.8749 243.148 82.5205 243.082 82.1698 243.128C81.8229 243.174 81.509 243.302 81.228 243.514C80.947 243.726 80.7257 243.993 80.564 244.316L80.3043 244.834C80.0828 245.276 79.9713 245.689 79.9696 246.073C79.9718 246.455 80.0699 246.795 80.264 247.092C80.4594 247.387 80.7387 247.626 81.1019 247.808C81.3381 247.926 81.568 248 81.7916 248.03C82.0189 248.058 82.2362 248.04 82.4434 247.975C82.6518 247.908 82.845 247.792 83.023 247.627L83.7694 248.306C83.5304 248.555 83.2469 248.737 82.919 248.852C82.5923 248.965 82.2391 249.004 81.8593 248.969C81.4807 248.932 81.0933 248.814 80.6971 248.616Z" fill="#8E8E8E"/>
</svg>
