<svg width="404" height="274" viewBox="0 0 404 274" fill="none" xmlns="http://www.w3.org/2000/svg">
<path d="M111.097 164.686L50.1743 228.183L191.755 245.344L269.838 141.518L395.973 29.9705L233.741 87.1258L126.542 131.222L111.097 164.686Z" stroke="#379482" stroke-width="2"/>
<path d="M111.309 228.56L111.406 227.696L115.889 222.089L116.516 222.159L116.367 223.497L115.943 223.45L112.556 227.687L112.548 227.754L117.681 228.326L117.578 229.258L111.309 228.56ZM115.194 230.793L115.421 228.752L115.466 228.349L116.16 222.119L117.159 222.231L116.194 230.904L115.194 230.793ZM118.967 231.213L119.052 230.451L122.263 227.635C122.64 227.306 122.953 227.018 123.2 226.771C123.448 226.521 123.638 226.282 123.769 226.054C123.903 225.823 123.985 225.575 124.015 225.309C124.048 225.004 124.004 224.732 123.882 224.493C123.763 224.254 123.585 224.059 123.347 223.91C123.109 223.761 122.834 223.669 122.52 223.634C122.187 223.597 121.889 223.633 121.625 223.744C121.364 223.852 121.152 224.022 120.989 224.252C120.829 224.483 120.731 224.764 120.694 225.094L119.695 224.983C119.751 224.474 119.918 224.041 120.195 223.684C120.472 223.326 120.825 223.062 121.252 222.892C121.683 222.723 122.151 222.666 122.656 222.723C123.164 222.779 123.603 222.937 123.971 223.195C124.34 223.453 124.615 223.777 124.798 224.166C124.98 224.555 125.047 224.973 124.997 225.419C124.962 225.738 124.869 226.043 124.719 226.335C124.573 226.625 124.337 226.94 124.014 227.282C123.693 227.62 123.254 228.029 122.698 228.507L120.518 230.374L120.51 230.442L124.542 230.891L124.439 231.822L118.967 231.213ZM127.827 230.999L127.709 231.449C127.625 231.765 127.513 232.102 127.373 232.458C127.237 232.814 127.098 233.149 126.957 233.462C126.817 233.775 126.702 234.024 126.613 234.208L125.85 234.123C125.907 233.947 125.982 233.713 126.074 233.424C126.166 233.134 126.262 232.809 126.363 232.448C126.465 232.091 126.558 231.724 126.64 231.347L126.743 230.878L127.827 230.999ZM132.043 232.789C131.405 232.718 130.881 232.484 130.471 232.087C130.061 231.686 129.774 231.141 129.611 230.452C129.448 229.759 129.419 228.941 129.524 227.998C129.628 227.06 129.836 226.273 130.147 225.636C130.461 224.997 130.862 224.527 131.35 224.227C131.841 223.924 132.403 223.808 133.035 223.878C133.668 223.949 134.189 224.185 134.599 224.588C135.011 224.989 135.299 225.535 135.462 226.228C135.628 226.918 135.659 227.732 135.555 228.669C135.45 229.612 135.242 230.404 134.93 231.044C134.619 231.681 134.22 232.149 133.732 232.45C133.244 232.747 132.682 232.86 132.043 232.789ZM132.147 231.857C132.78 231.928 133.305 231.677 133.723 231.107C134.141 230.536 134.413 229.686 134.538 228.556C134.622 227.805 134.613 227.157 134.511 226.611C134.411 226.065 134.227 225.637 133.959 225.327C133.693 225.018 133.351 224.839 132.934 224.793C132.307 224.723 131.783 224.978 131.361 225.557C130.939 226.133 130.666 226.984 130.54 228.111C130.457 228.862 130.465 229.509 130.564 230.052C130.664 230.595 130.847 231.019 131.113 231.326C131.382 231.633 131.726 231.81 132.147 231.857ZM139.497 233.619C138.859 233.548 138.335 233.314 137.925 232.916C137.515 232.516 137.228 231.971 137.065 231.281C136.902 230.589 136.873 229.771 136.978 228.828C137.082 227.89 137.29 227.103 137.601 226.466C137.915 225.826 138.316 225.356 138.804 225.056C139.295 224.754 139.857 224.638 140.489 224.708C141.122 224.778 141.643 225.015 142.053 225.418C142.465 225.818 142.753 226.365 142.916 227.058C143.082 227.748 143.113 228.562 143.009 229.499C142.904 230.442 142.696 231.234 142.384 231.874C142.073 232.511 141.674 232.979 141.186 233.279C140.698 233.577 140.135 233.69 139.497 233.619ZM139.601 232.687C140.234 232.758 140.759 232.507 141.177 231.936C141.595 231.366 141.867 230.515 141.992 229.386C142.076 228.635 142.067 227.986 141.965 227.441C141.865 226.895 141.681 226.467 141.413 226.157C141.147 225.847 140.805 225.669 140.388 225.623C139.761 225.553 139.236 225.808 138.815 226.387C138.393 226.963 138.12 227.814 137.994 228.941C137.911 229.692 137.919 230.339 138.018 230.882C138.118 231.424 138.301 231.849 138.567 232.156C138.836 232.463 139.18 232.64 139.601 232.687Z" fill="black"/>
<path d="M219.187 202.481C218.85 202.931 218.472 203.274 218.053 203.511C217.636 203.745 217.213 203.863 216.783 203.864C216.352 203.86 215.947 203.731 215.567 203.475L216.211 202.615C216.45 202.766 216.702 202.834 216.968 202.82C217.232 202.805 217.49 202.72 217.744 202.566C217.998 202.412 218.226 202.201 218.427 201.932C218.651 201.632 218.798 201.327 218.868 201.017C218.937 200.707 218.928 200.416 218.84 200.144C218.752 199.873 218.586 199.645 218.34 199.461C218.083 199.268 217.809 199.162 217.518 199.143C217.225 199.122 216.931 199.193 216.636 199.355C216.34 199.517 216.06 199.776 215.794 200.13L215.375 200.69L214.625 200.127L215.044 199.568C215.251 199.291 215.384 199.01 215.44 198.726C215.499 198.439 215.481 198.169 215.388 197.914C215.296 197.658 215.128 197.437 214.882 197.253C214.646 197.076 214.401 196.974 214.147 196.948C213.894 196.921 213.647 196.967 213.406 197.084C213.167 197.2 212.951 197.386 212.759 197.643C212.578 197.884 212.452 198.145 212.381 198.425C212.309 198.701 212.305 198.968 212.371 199.227C212.434 199.484 212.577 199.704 212.801 199.89L212.187 200.708C211.832 200.42 211.594 200.07 211.473 199.657C211.351 199.242 211.338 198.81 211.434 198.36C211.531 197.907 211.731 197.48 212.032 197.077C212.356 196.646 212.721 196.341 213.128 196.162C213.532 195.983 213.939 195.916 214.347 195.963C214.756 196.01 215.125 196.157 215.455 196.404C215.848 196.699 216.106 197.054 216.228 197.468C216.352 197.881 216.336 198.303 216.178 198.736L216.233 198.777C216.636 198.39 217.082 198.186 217.57 198.165C218.056 198.142 218.52 198.297 218.964 198.629C219.343 198.913 219.607 199.272 219.754 199.706C219.901 200.135 219.928 200.592 219.835 201.076C219.742 201.56 219.526 202.028 219.187 202.481ZM216.491 191.126C216.708 190.842 216.977 190.596 217.299 190.39C217.62 190.183 217.993 190.055 218.418 190.004C218.841 189.951 219.319 190.013 219.851 190.188C220.383 190.363 220.97 190.691 221.611 191.172C222.232 191.637 222.739 192.109 223.133 192.588C223.525 193.064 223.804 193.535 223.968 194.003C224.135 194.468 224.185 194.921 224.121 195.363C224.058 195.802 223.879 196.218 223.585 196.612C223.292 197.003 222.953 197.294 222.568 197.485C222.183 197.672 221.779 197.759 221.355 197.747C220.93 197.731 220.513 197.612 220.104 197.391L220.728 196.559C221.104 196.724 221.481 196.773 221.857 196.707C222.233 196.637 222.558 196.418 222.834 196.05C223.238 195.511 223.321 194.909 223.084 194.245C222.848 193.579 222.301 192.924 221.442 192.28L221.401 192.334C221.496 192.605 221.548 192.879 221.555 193.158C221.563 193.437 221.524 193.712 221.439 193.982C221.354 194.252 221.221 194.507 221.04 194.748C220.741 195.148 220.367 195.441 219.918 195.627C219.47 195.809 218.996 195.87 218.499 195.81C218 195.745 217.526 195.544 217.076 195.207C216.648 194.887 216.329 194.498 216.117 194.041C215.905 193.581 215.824 193.097 215.873 192.591C215.924 192.082 216.13 191.594 216.491 191.126ZM217.241 191.689C217.027 191.975 216.905 192.287 216.876 192.624C216.847 192.957 216.902 193.281 217.043 193.595C217.183 193.906 217.398 194.17 217.689 194.388C217.98 194.606 218.293 194.741 218.627 194.793C218.96 194.84 219.281 194.806 219.589 194.688C219.896 194.567 220.157 194.363 220.372 194.077C220.534 193.861 220.642 193.628 220.698 193.379C220.751 193.128 220.756 192.877 220.712 192.628C220.668 192.374 220.581 192.137 220.452 191.916C220.32 191.694 220.151 191.505 219.944 191.35C219.672 191.145 219.366 191.02 219.029 190.973C218.693 190.923 218.365 190.958 218.045 191.077C217.727 191.194 217.459 191.398 217.241 191.689ZM226.167 190.976L226.494 191.307C226.725 191.539 226.958 191.806 227.194 192.107C227.431 192.406 227.649 192.695 227.848 192.976C228.046 193.256 228.202 193.481 228.316 193.651L227.856 194.265C227.733 194.126 227.57 193.944 227.367 193.717C227.164 193.491 226.932 193.243 226.672 192.974C226.417 192.704 226.147 192.438 225.864 192.176L225.513 191.849L226.167 190.976ZM222.766 182.752C222.983 182.467 223.252 182.221 223.573 182.015C223.895 181.808 224.268 181.68 224.693 181.629C225.116 181.577 225.593 181.638 226.126 181.813C226.658 181.989 227.245 182.316 227.886 182.797C228.507 183.262 229.014 183.734 229.407 184.213C229.8 184.689 230.079 185.16 230.243 185.628C230.409 186.093 230.46 186.546 230.396 186.988C230.333 187.427 230.154 187.843 229.859 188.237C229.566 188.628 229.228 188.919 228.843 189.11C228.458 189.297 228.053 189.385 227.63 189.372C227.205 189.356 226.788 189.237 226.379 189.016L227.003 188.184C227.379 188.349 227.756 188.398 228.132 188.332C228.507 188.262 228.833 188.043 229.109 187.675C229.513 187.136 229.596 186.534 229.359 185.87C229.123 185.204 228.576 184.549 227.716 183.905L227.675 183.959C227.771 184.23 227.823 184.505 227.83 184.783C227.838 185.062 227.799 185.337 227.714 185.607C227.629 185.877 227.496 186.132 227.315 186.373C227.015 186.773 226.641 187.066 226.193 187.252C225.744 187.434 225.271 187.495 224.773 187.435C224.275 187.37 223.801 187.169 223.351 186.832C222.923 186.512 222.604 186.123 222.392 185.667C222.18 185.206 222.099 184.722 222.148 184.216C222.199 183.708 222.405 183.219 222.766 182.752ZM223.516 183.314C223.301 183.6 223.18 183.912 223.151 184.249C223.122 184.582 223.177 184.906 223.318 185.22C223.457 185.531 223.673 185.795 223.964 186.013C224.255 186.232 224.568 186.366 224.902 186.418C225.235 186.465 225.556 186.431 225.864 186.313C226.171 186.192 226.432 185.988 226.647 185.702C226.809 185.486 226.917 185.253 226.973 185.004C227.026 184.753 227.031 184.502 226.987 184.253C226.943 184 226.856 183.762 226.727 183.541C226.595 183.319 226.426 183.13 226.219 182.975C225.946 182.77 225.641 182.645 225.304 182.598C224.968 182.548 224.64 182.583 224.32 182.702C224.002 182.819 223.734 183.023 223.516 183.314ZM232.693 184.256L228.854 176.502L228.799 176.461L226.101 180.063L225.351 179.501L228.703 175.026L229.494 175.619L233.357 183.369L232.693 184.256Z" fill="black"/>
<path d="M292.516 112.006C292.14 112.335 291.735 112.557 291.303 112.671C290.871 112.786 290.45 112.792 290.04 112.69C289.63 112.589 289.27 112.379 288.961 112.06L289.73 111.386C290.02 111.657 290.37 111.785 290.78 111.77C291.19 111.751 291.563 111.594 291.898 111.301C292.168 111.065 292.352 110.792 292.451 110.483C292.552 110.171 292.566 109.853 292.493 109.528C292.42 109.199 292.261 108.895 292.016 108.615C291.765 108.328 291.478 108.128 291.156 108.014C290.833 107.896 290.506 107.867 290.174 107.928C289.842 107.988 289.535 108.14 289.253 108.383C289.05 108.557 288.871 108.769 288.716 109.018C288.558 109.265 288.454 109.498 288.404 109.716L287.581 110.278L285.149 106.698L288.56 103.711L289.178 104.416L286.433 106.819L287.898 108.958L287.937 108.924C287.978 108.699 288.069 108.463 288.21 108.214C288.351 107.966 288.532 107.746 288.752 107.553C289.154 107.201 289.596 106.984 290.079 106.901C290.562 106.814 291.038 106.858 291.508 107.032C291.98 107.204 292.402 107.503 292.774 107.928C293.141 108.347 293.374 108.803 293.475 109.297C293.575 109.787 293.545 110.27 293.384 110.747C293.222 111.221 292.933 111.641 292.516 112.006ZM292.437 100.316L298.186 106.882L297.391 107.578L292.372 101.846L292.333 101.879L291.662 104.348L290.955 103.54L291.642 101.012L292.437 100.316ZM300.042 103.671L300.294 104.062C300.471 104.337 300.644 104.647 300.812 104.99C300.983 105.332 301.136 105.66 301.272 105.975C301.408 106.29 301.514 106.543 301.59 106.733L301.013 107.238C300.921 107.077 300.8 106.865 300.648 106.601C300.496 106.337 300.321 106.047 300.123 105.73C299.928 105.413 299.72 105.097 299.497 104.782L299.221 104.39L300.042 103.671ZM304.196 101.778C303.756 102.163 303.298 102.426 302.824 102.566C302.35 102.701 301.898 102.714 301.469 102.603C301.037 102.49 300.667 102.255 300.359 101.898C300.113 101.622 299.943 101.318 299.848 100.985C299.752 100.651 299.73 100.32 299.784 99.9937C299.838 99.6631 299.967 99.3716 300.168 99.1193L300.135 99.0808C299.749 99.2747 299.345 99.3173 298.921 99.2087C298.496 99.098 298.132 98.8675 297.829 98.5172C297.535 98.1857 297.358 97.8136 297.299 97.401C297.24 96.9884 297.293 96.5752 297.459 96.1614C297.628 95.7458 297.904 95.3695 298.289 95.0327C298.67 94.6995 299.076 94.4778 299.508 94.3675C299.94 94.2573 300.357 94.2587 300.758 94.3719C301.161 94.4832 301.51 94.7046 301.804 95.0361C302.107 95.3864 302.284 95.7806 302.336 96.2189C302.387 96.6532 302.295 97.0457 302.058 97.3964L302.092 97.4349C302.367 97.2699 302.669 97.1842 303 97.1779C303.329 97.1695 303.653 97.2344 303.974 97.3724C304.294 97.5083 304.576 97.7143 304.821 97.9902C305.13 98.3469 305.311 98.7474 305.364 99.1918C305.417 99.6323 305.345 100.078 305.148 100.53C304.951 100.978 304.634 101.394 304.196 101.778ZM303.578 101.073C303.875 100.812 304.09 100.54 304.221 100.255C304.353 99.9694 304.401 99.6877 304.365 99.4095C304.329 99.1313 304.209 98.8737 304.005 98.6368C303.786 98.3907 303.53 98.2278 303.238 98.148C302.945 98.0682 302.642 98.0692 302.328 98.1511C302.017 98.2312 301.723 98.3928 301.445 98.6361C301.165 98.8813 300.962 99.1548 300.838 99.4566C300.715 99.7565 300.674 100.057 300.715 100.357C300.757 100.656 300.888 100.929 301.107 101.175C301.311 101.412 301.547 101.567 301.816 101.641C302.087 101.714 302.374 101.702 302.676 101.608C302.978 101.513 303.279 101.335 303.578 101.073ZM300.849 97.9565C301.085 97.7506 301.252 97.5211 301.351 97.268C301.453 97.013 301.482 96.7552 301.439 96.4947C301.395 96.2341 301.276 95.9896 301.08 95.7612C300.883 95.5408 300.661 95.3932 300.414 95.3185C300.166 95.2416 299.911 95.2378 299.651 95.3071C299.389 95.3743 299.137 95.5137 298.896 95.7251C298.65 95.9404 298.475 96.1744 298.372 96.4273C298.267 96.678 298.237 96.9307 298.282 97.1854C298.326 97.4379 298.446 97.6744 298.643 97.8948C298.839 98.1232 299.063 98.2769 299.313 98.3559C299.566 98.4331 299.825 98.4382 300.091 98.3713C300.357 98.3044 300.61 98.1661 300.849 97.9565ZM309.759 96.9065C309.319 97.292 308.861 97.5546 308.387 97.6943C307.913 97.83 307.461 97.8423 307.032 97.7313C306.6 97.6182 306.23 97.3833 305.922 97.0266C305.676 96.7506 305.506 96.4464 305.412 96.114C305.315 95.7794 305.294 95.4489 305.347 95.1223C305.402 94.7917 305.53 94.5002 305.732 94.2478L305.698 94.2093C305.313 94.4032 304.908 94.4459 304.484 94.3373C304.059 94.2265 303.695 93.996 303.392 93.6458C303.098 93.3142 302.921 92.9422 302.862 92.5296C302.803 92.1169 302.856 91.7038 303.022 91.29C303.191 90.8743 303.468 90.4981 303.852 90.1612C304.233 89.8281 304.639 89.6064 305.071 89.4961C305.503 89.3858 305.92 89.3873 306.321 89.5004C306.724 89.6117 307.073 89.8331 307.367 90.1647C307.67 90.5149 307.847 90.9092 307.899 91.3474C307.951 91.7817 307.858 92.1742 307.621 92.5249L307.655 92.5634C307.93 92.3984 308.232 92.3128 308.563 92.3065C308.892 92.2981 309.217 92.3629 309.538 92.5009C309.857 92.6369 310.139 92.8428 310.384 93.1188C310.693 93.4754 310.874 93.876 310.927 94.3204C310.98 94.7608 310.908 95.207 310.711 95.659C310.515 96.107 310.197 96.5228 309.759 96.9065ZM309.141 96.2012C309.438 95.941 309.653 95.6683 309.784 95.3831C309.916 95.0979 309.964 94.8162 309.928 94.538C309.892 94.2598 309.772 94.0023 309.569 93.7653C309.349 93.5192 309.093 93.3563 308.801 93.2765C308.508 93.1967 308.205 93.1978 307.891 93.2797C307.58 93.3597 307.286 93.5214 307.008 93.7647C306.728 94.0098 306.525 94.2833 306.401 94.5851C306.278 94.885 306.237 95.1853 306.278 95.4859C306.32 95.7847 306.451 96.0571 306.67 96.3031C306.874 96.5401 307.11 96.6957 307.379 96.7699C307.65 96.8422 307.937 96.831 308.239 96.7363C308.541 96.6416 308.842 96.4632 309.141 96.2012ZM306.413 93.085C306.648 92.8791 306.815 92.6496 306.914 92.3965C307.016 92.1415 307.045 91.8837 307.002 91.6232C306.959 91.3626 306.839 91.1182 306.643 90.8897C306.446 90.6693 306.224 90.5218 305.977 90.447C305.729 90.3701 305.474 90.3664 305.214 90.4357C304.952 90.5029 304.7 90.6422 304.459 90.8537C304.213 91.0689 304.038 91.303 303.935 91.5558C303.83 91.8065 303.8 92.0592 303.845 92.3139C303.889 92.5664 304.009 92.8029 304.206 93.0233C304.402 93.2517 304.626 93.4055 304.876 93.4845C305.129 93.5616 305.388 93.5667 305.654 93.4998C305.92 93.4329 306.173 93.2946 306.413 93.085Z" fill="black"/>
<path d="M271.29 87.2438L270.959 86.4397L272.202 79.3694L272.785 79.1298L273.297 80.3754L272.902 80.5373L271.964 85.8797L271.99 85.9427L276.767 83.9805L277.124 84.8477L271.29 87.2438ZM275.77 87.3387L274.989 85.4387L274.835 85.0643L272.454 79.2658L273.384 78.8837L276.7 86.9566L275.77 87.3387ZM279.533 85.793L280.21 77.1674L280.184 77.1043L276.022 78.8139L275.666 77.9467L280.837 75.8226L281.213 76.7371L280.558 85.372L279.533 85.793ZM285.185 82.1818L285.296 82.6335C285.375 82.9514 285.438 83.3001 285.487 83.6795C285.538 84.0578 285.576 84.418 285.603 84.7602C285.63 85.1023 285.649 85.3757 285.659 85.5803L284.95 85.8717C284.915 85.6895 284.868 85.4491 284.81 85.1505C284.752 84.8519 284.68 84.5204 284.595 84.1561C284.514 83.7934 284.419 83.4271 284.31 83.0572L284.176 82.5963L285.185 82.1818ZM286.479 73.3765C286.811 73.2431 287.168 73.1702 287.55 73.1577C287.932 73.1452 288.318 73.226 288.709 73.4002C289.099 73.5718 289.478 73.8693 289.845 74.2927C290.213 74.7161 290.548 75.2984 290.853 76.0394C291.147 76.7568 291.341 77.4222 291.433 78.0354C291.527 78.6449 291.524 79.1926 291.426 79.6783C291.33 80.163 291.141 80.5783 290.86 80.9244C290.581 81.2693 290.214 81.5352 289.759 81.7219C289.307 81.9075 288.867 81.9839 288.439 81.9509C288.012 81.9142 287.62 81.7819 287.263 81.5542C286.906 81.3227 286.609 81.007 286.371 80.6072L287.333 80.2122C287.572 80.5471 287.87 80.7825 288.227 80.9185C288.585 81.0508 288.977 81.0295 289.403 80.8547C290.026 80.5989 290.406 80.1251 290.542 79.4332C290.681 78.7403 290.547 77.8972 290.139 76.9038L290.076 76.9297C290.019 77.2109 289.923 77.4732 289.786 77.7166C289.65 77.96 289.476 78.1758 289.265 78.364C289.053 78.5522 288.808 78.7035 288.53 78.8179C288.067 79.0078 287.596 79.0678 287.116 78.9979C286.637 78.9242 286.199 78.7338 285.803 78.4267C285.408 78.1159 285.104 77.7004 284.89 77.1801C284.687 76.686 284.612 76.1887 284.664 75.6881C284.718 75.1837 284.896 74.7268 285.198 74.3173C285.502 73.9067 285.929 73.5931 286.479 73.3765ZM286.835 74.2437C286.504 74.3797 286.24 74.5849 286.042 74.8595C285.847 75.1304 285.728 75.4369 285.688 75.7792C285.649 76.1177 285.698 76.4551 285.836 76.7915C285.974 77.1279 286.174 77.4038 286.434 77.6193C286.696 77.8311 286.989 77.9655 287.314 78.0227C287.64 78.0761 287.968 78.0349 288.3 77.8989C288.549 77.7963 288.762 77.6522 288.937 77.4665C289.112 77.2781 289.244 77.0656 289.334 76.8289C289.426 76.5886 289.473 76.3404 289.475 76.0846C289.477 75.826 289.428 75.5772 289.33 75.3381C289.201 75.0227 289.003 74.7584 288.737 74.5451C288.474 74.3307 288.175 74.1925 287.839 74.1307C287.506 74.0679 287.172 74.1055 286.835 74.2437ZM296.765 78.8445C296.302 79.0345 295.848 79.1136 295.402 79.0818C294.956 79.0501 294.555 78.9197 294.2 78.6909C293.845 78.462 293.573 78.1469 293.384 77.7456L294.33 77.3571C294.516 77.7072 294.806 77.9414 295.199 78.0597C295.593 78.1742 295.996 78.1468 296.409 77.9773C296.74 77.8413 297.002 77.6429 297.196 77.3821C297.393 77.1202 297.509 76.8237 297.545 76.4926C297.582 76.1578 297.53 75.8182 297.389 75.474C297.244 75.1218 297.038 74.8396 296.77 74.6274C296.503 74.4114 296.202 74.2784 295.868 74.2281C295.535 74.1779 295.195 74.2222 294.85 74.361C294.602 74.4598 294.364 74.6021 294.136 74.7878C293.907 74.9708 293.733 75.1573 293.615 75.3473L292.655 75.6125L291.512 71.4384L295.706 69.7158L296.062 70.583L292.688 71.9689L293.382 74.4663L293.429 74.4469C293.541 74.2475 293.704 74.0531 293.918 73.8639C294.132 73.6746 294.374 73.5244 294.645 73.4132C295.139 73.2103 295.627 73.1478 296.111 73.2257C296.596 73.2998 297.032 73.4952 297.42 73.8119C297.811 74.1274 298.114 74.5467 298.329 75.0697C298.54 75.5847 298.613 76.0921 298.548 76.5918C298.485 77.0877 298.3 77.5352 297.994 77.9342C297.687 78.3306 297.277 78.6341 296.765 78.8445Z" fill="black"/>
<path d="M177.215 121.262L176.898 120.453L178.258 113.404L178.846 113.174L179.336 114.428L178.939 114.584L177.912 119.91L177.937 119.973L182.747 118.091L183.088 118.964L177.215 121.262ZM181.693 121.432L180.944 119.519L180.797 119.142L178.512 113.305L179.449 112.938L182.629 121.065L181.693 121.432ZM184.795 110.846L187.976 118.973L186.991 119.358L184.215 112.263L184.167 112.282L182.699 114.376L182.307 113.376L183.811 111.231L184.795 110.846ZM190.811 116.582L190.915 117.036C190.988 117.355 191.045 117.705 191.087 118.085C191.132 118.464 191.165 118.825 191.186 119.167C191.207 119.51 191.221 119.783 191.228 119.988L190.514 120.268C190.482 120.085 190.44 119.844 190.387 119.544C190.333 119.245 190.267 118.912 190.188 118.546C190.113 118.182 190.024 117.815 189.921 117.443L189.795 116.98L190.811 116.582ZM195.375 116.205C194.777 116.439 194.204 116.476 193.656 116.315C193.107 116.152 192.6 115.803 192.135 115.268C191.668 114.731 191.262 114.02 190.916 113.136C190.572 112.258 190.39 111.465 190.369 110.756C190.349 110.044 190.486 109.441 190.778 108.948C191.072 108.452 191.515 108.088 192.108 107.856C192.7 107.624 193.272 107.591 193.822 107.757C194.373 107.92 194.883 108.27 195.349 108.807C195.817 109.341 196.223 110.047 196.567 110.925C196.913 111.809 197.097 112.606 197.119 113.317C197.14 114.026 197.004 114.627 196.712 115.119C196.419 115.609 195.973 115.971 195.375 116.205ZM195.034 115.332C195.626 115.1 195.975 114.634 196.079 113.935C196.184 113.235 196.029 112.356 195.615 111.298C195.339 110.594 195.029 110.024 194.685 109.589C194.343 109.152 193.981 108.859 193.599 108.709C193.22 108.559 192.835 108.56 192.443 108.713C191.856 108.943 191.51 109.412 191.406 110.121C191.301 110.827 191.455 111.708 191.868 112.764C192.144 113.467 192.452 114.036 192.793 114.47C193.133 114.904 193.493 115.195 193.871 115.343C194.252 115.49 194.639 115.487 195.034 115.332ZM202.36 113.472C201.762 113.706 201.189 113.743 200.641 113.582C200.092 113.418 199.584 113.069 199.119 112.535C198.652 111.997 198.246 111.287 197.9 110.403C197.557 109.525 197.374 108.731 197.353 108.023C197.334 107.31 197.47 106.708 197.762 106.215C198.056 105.719 198.499 105.355 199.092 105.123C199.685 104.891 200.256 104.858 200.806 105.024C201.358 105.186 201.867 105.536 202.333 106.074C202.801 106.607 203.207 107.313 203.551 108.192C203.897 109.075 204.081 109.873 204.103 110.584C204.124 111.293 203.989 111.893 203.696 112.386C203.403 112.876 202.957 113.238 202.36 113.472ZM202.018 112.599C202.61 112.367 202.959 111.901 203.063 111.201C203.168 110.502 203.013 109.623 202.599 108.564C202.323 107.861 202.013 107.291 201.669 106.855C201.327 106.418 200.965 106.125 200.584 105.976C200.204 105.825 199.819 105.827 199.427 105.98C198.84 106.21 198.494 106.679 198.391 107.388C198.286 108.094 198.44 108.975 198.853 110.03C199.128 110.734 199.436 111.303 199.777 111.737C200.118 112.171 200.477 112.462 200.855 112.61C201.236 112.757 201.624 112.753 202.018 112.599Z" fill="black"/>
<path d="M119.04 159.737L126.871 163.589L126.404 164.538L119.568 161.175L119.545 161.22L119.874 163.757L118.91 163.283L118.573 160.686L119.04 159.737ZM127.979 161.337L127.29 160.999L125.732 157.022C125.55 156.556 125.385 156.164 125.237 155.847C125.086 155.529 124.926 155.27 124.755 155.069C124.584 154.864 124.378 154.703 124.139 154.585C123.863 154.45 123.592 154.399 123.326 154.432C123.06 154.463 122.817 154.565 122.596 154.738C122.375 154.911 122.195 155.139 122.055 155.422C121.907 155.723 121.841 156.016 121.855 156.302C121.868 156.584 121.956 156.841 122.117 157.072C122.28 157.301 122.511 157.489 122.809 157.636L122.365 158.538C121.906 158.312 121.556 158.008 121.313 157.626C121.07 157.244 120.942 156.823 120.927 156.363C120.914 155.901 121.02 155.441 121.244 154.985C121.47 154.526 121.767 154.167 122.135 153.908C122.503 153.649 122.901 153.5 123.329 153.46C123.757 153.421 124.172 153.5 124.575 153.698C124.863 153.84 125.119 154.031 125.343 154.271C125.566 154.507 125.782 154.835 125.993 155.255C126.203 155.672 126.439 156.223 126.7 156.909L127.716 159.593L127.777 159.623L129.568 155.983L130.409 156.397L127.979 161.337ZM130.785 152.93L131.168 153.194C131.437 153.38 131.715 153.6 132.003 153.852C132.292 154.102 132.559 154.346 132.806 154.584C133.053 154.823 133.248 155.015 133.391 155.162L133.053 155.85C132.906 155.737 132.712 155.587 132.47 155.402C132.229 155.217 131.956 155.016 131.651 154.799C131.349 154.582 131.036 154.37 130.709 154.165L130.303 153.909L130.785 152.93ZM133.904 149.563C133.683 150.012 133.395 150.372 133.04 150.643C132.684 150.915 132.298 151.083 131.88 151.147C131.463 151.21 131.05 151.154 130.643 150.979L131.094 150.062C131.466 150.2 131.838 150.184 132.21 150.012C132.582 149.837 132.866 149.549 133.062 149.149C133.22 148.828 133.286 148.506 133.258 148.182C133.232 147.855 133.123 147.556 132.93 147.284C132.737 147.009 132.473 146.789 132.139 146.624C131.797 146.456 131.456 146.382 131.114 146.4C130.771 146.415 130.458 146.515 130.174 146.698C129.891 146.882 129.666 147.14 129.499 147.472C129.379 147.711 129.295 147.975 129.247 148.265C129.197 148.554 129.19 148.808 129.227 149.029L128.684 149.864L125.063 147.494L127.064 143.425L127.905 143.839L126.295 147.112L128.469 148.523L128.492 148.478C128.443 148.254 128.437 148.001 128.472 147.717C128.507 147.434 128.589 147.161 128.718 146.898C128.954 146.419 129.278 146.048 129.692 145.786C130.105 145.521 130.561 145.378 131.062 145.358C131.563 145.336 132.068 145.45 132.575 145.699C133.075 145.945 133.466 146.276 133.748 146.694C134.029 147.108 134.187 147.565 134.222 148.067C134.254 148.567 134.148 149.066 133.904 149.563ZM134.119 144.8L133.339 144.416L129.587 138.296L129.865 137.731L131.074 138.325L130.885 138.707L133.721 143.331L133.782 143.361L136.062 138.727L136.903 139.141L134.119 144.8ZM137.538 141.904L135.695 140.997L135.332 140.819L129.707 138.052L130.151 137.149L137.982 141.002L137.538 141.904Z" fill="black"/>
<path d="M84.7817 209.563L84.2524 209.008L84.1618 204.737C84.1517 204.237 84.1318 203.812 84.1019 203.464C84.0701 203.114 84.009 202.815 83.9184 202.567C83.828 202.316 83.6907 202.094 83.5064 201.901C83.2947 201.678 83.058 201.537 82.7962 201.477C82.5365 201.414 82.273 201.426 82.0057 201.512C81.7384 201.598 81.4906 201.75 81.2623 201.967C81.0197 202.199 80.8559 202.451 80.771 202.724C80.6862 202.993 80.6797 203.264 80.7515 203.537C80.8254 203.809 80.977 204.064 81.2063 204.305L80.4784 204.999C80.1255 204.629 79.9012 204.222 79.8053 203.78C79.7094 203.338 79.734 202.898 79.8791 202.462C80.0262 202.023 80.2838 201.628 80.6519 201.278C81.0221 200.925 81.4246 200.69 81.8594 200.574C82.2942 200.458 82.7192 200.455 83.1345 200.565C83.5498 200.676 83.9123 200.893 84.222 201.218C84.4435 201.451 84.618 201.718 84.7454 202.021C84.8728 202.319 84.9631 202.702 85.0162 203.169C85.0694 203.633 85.1003 204.231 85.1088 204.965L85.1365 207.835L85.1836 207.885L88.1201 205.085L88.7669 205.764L84.7817 209.563ZM92.2577 202.602C91.8505 202.99 91.4209 203.266 90.9689 203.43C90.5189 203.592 90.0818 203.637 89.6575 203.567C89.2333 203.493 88.8551 203.298 88.5231 202.982L89.3004 202.241C89.5109 202.429 89.7484 202.538 90.0129 202.569C90.2755 202.597 90.5447 202.556 90.8206 202.447C91.0965 202.337 91.3558 202.166 91.5985 201.935C91.8699 201.676 92.0654 201.399 92.185 201.105C92.3046 200.81 92.3437 200.522 92.3022 200.24C92.2607 199.957 92.1342 199.705 91.9225 199.483C91.701 199.251 91.4484 199.101 91.1646 199.034C90.8789 198.965 90.577 198.986 90.2589 199.096C89.9408 199.207 89.6213 199.416 89.3005 199.722L88.7946 200.204L88.1478 199.525L88.6537 199.043C88.9045 198.804 89.0815 198.549 89.1844 198.278C89.2894 198.005 89.3169 197.736 89.2671 197.469C89.2192 197.201 89.0895 196.956 88.8778 196.733C88.6739 196.52 88.4493 196.379 88.2037 196.31C87.9582 196.242 87.7069 196.246 87.4499 196.322C87.195 196.397 86.9513 196.545 86.7189 196.766C86.5009 196.974 86.3335 197.21 86.2167 197.474C86.0999 197.735 86.0524 197.998 86.0742 198.264C86.094 198.527 86.1987 198.769 86.3884 198.989L85.6481 199.694C85.3448 199.351 85.1682 198.966 85.1181 198.539C85.0661 198.11 85.1246 197.681 85.2936 197.253C85.4647 196.823 85.7322 196.435 86.0962 196.088C86.4869 195.716 86.8975 195.475 87.3281 195.367C87.7568 195.257 88.1687 195.259 88.5638 195.373C88.9589 195.487 89.2986 195.693 89.5828 195.991C89.9219 196.347 90.1175 196.739 90.1695 197.168C90.2235 197.596 90.1373 198.009 89.9106 198.41L89.9577 198.459C90.4193 198.145 90.8926 198.018 91.3774 198.077C91.8603 198.135 92.2929 198.365 92.6751 198.766C93.0024 199.109 93.2029 199.507 93.2765 199.958C93.3501 200.406 93.301 200.861 93.1292 201.323C92.9574 201.785 92.6669 202.211 92.2577 202.602ZM95.6512 197.554L95.9194 197.934C96.1079 198.202 96.2935 198.503 96.4764 198.839C96.6613 199.173 96.8284 199.495 96.9777 199.804C97.1271 200.113 97.2437 200.361 97.3276 200.548L96.7724 201.077C96.6737 200.92 96.543 200.713 96.3804 200.456C96.2178 200.198 96.0306 199.916 95.819 199.607C95.6114 199.299 95.3896 198.992 95.1538 198.687L94.8615 198.306L95.6512 197.554ZM96.4279 195.989L95.8281 195.36L94.4173 188.321L94.8739 187.886L95.803 188.861L95.4945 189.155L96.5607 194.473L96.6077 194.522L100.346 190.959L100.993 191.638L96.4279 195.989ZM100.636 194.45L99.2191 192.963L98.9398 192.67L94.6148 188.133L95.3427 187.439L101.364 193.756L100.636 194.45ZM103.581 191.643L101.079 183.361L101.032 183.311L97.7747 186.416L97.1279 185.738L101.175 181.88L101.857 182.596L104.383 190.879L103.581 191.643Z" fill="black"/>
<path d="M240.333 257.885L46.0119 234.946C42.6339 234.547 40.8365 231.136 42.1622 228.319C48.4332 214.993 57.3275 197.851 67.4932 181.6C77.7087 165.27 88.996 150.188 99.989 140.694C102.886 138.191 108.301 134.863 116.136 130.835C123.866 126.861 133.618 122.373 144.931 117.507C167.549 107.778 196.182 96.6336 226.88 85.2038C280.532 65.228 340.307 44.4489 384.977 28.9204C391.42 26.6806 397.549 24.5501 403.301 22.5469" stroke="#C4C4C4"/>
<path d="M0.498535 245.277L238.754 272.846M403.019 0.874268C397.019 3.13798 390.624 5.54568 383.901 8.07681C337.292 25.625 274.924 49.1066 218.944 71.6806C186.913 84.597 161.135 93.3579 137.535 104.353C125.732 109.851 115.556 114.924 107.491 119.414C99.3164 123.965 93.6667 127.727 90.6436 130.555C79.1736 141.284 58.5681 166.82 47.9093 185.274L28.1511 224.885C26.2317 228.733 22.0673 230.923 17.8093 230.324L3.52781 228.314" stroke="#C4C4C4"/>
<path d="M207.182 89.68L203.952 81.5726L206.691 80.4811C207.327 80.2276 207.893 80.1353 208.388 80.204C208.885 80.269 209.309 80.4566 209.658 80.7667C210.008 81.0768 210.278 81.4707 210.469 81.9484C210.659 82.4261 210.734 82.8991 210.695 83.3676C210.658 83.8349 210.484 84.2652 210.172 84.6583C209.86 85.0488 209.389 85.3697 208.758 85.621L206.794 86.4034L206.447 85.5325L208.379 84.7627C208.815 84.5892 209.134 84.3747 209.338 84.1191C209.542 83.8635 209.653 83.5841 209.669 83.2807C209.688 82.9737 209.632 82.6579 209.503 82.3333C209.374 82.0087 209.197 81.7426 208.974 81.535C208.753 81.3263 208.48 81.2025 208.156 81.1635C207.831 81.122 207.447 81.189 207.007 81.3646L205.281 82.0524L208.164 89.2888L207.182 89.68ZM216.587 86.0793C216.038 86.298 215.505 86.3593 214.986 86.2631C214.47 86.1659 214.003 85.9287 213.583 85.5514C213.167 85.1732 212.833 84.67 212.583 84.0419C212.33 83.4085 212.225 82.8099 212.266 82.246C212.31 81.681 212.486 81.1859 212.794 80.7606C213.104 80.3342 213.533 80.0116 214.082 79.7929C214.631 79.5742 215.164 79.5134 215.68 79.6106C216.198 79.7068 216.666 79.9454 217.084 80.3263C217.504 80.7061 217.841 81.2127 218.093 81.8461C218.344 82.4742 218.446 83.0694 218.401 83.6317C218.359 84.193 218.182 84.6868 217.872 85.1132C217.564 85.5385 217.136 85.8605 216.587 86.0793ZM216.253 85.24C216.67 85.0739 216.97 84.8303 217.154 84.5093C217.338 84.1882 217.426 83.8278 217.416 83.4279C217.407 83.028 217.321 82.6248 217.159 82.2184C216.997 81.812 216.781 81.459 216.512 81.1596C216.243 80.8601 215.931 80.6558 215.575 80.5466C215.22 80.4375 214.834 80.466 214.417 80.6321C214 80.7983 213.7 81.0432 213.517 81.3669C213.334 81.6905 213.248 82.0536 213.258 82.4562C213.269 82.8587 213.355 83.2632 213.517 83.6696C213.679 84.076 213.894 84.4277 214.162 84.7245C214.43 85.0213 214.742 85.223 215.096 85.3295C215.45 85.436 215.836 85.4062 216.253 85.24ZM220.718 84.2865L218.295 78.206L219.23 77.8337L221.652 83.9142L220.718 84.2865ZM218.367 77.0032C218.184 77.0758 218.003 77.0764 217.821 77.0049C217.643 76.9324 217.518 76.809 217.449 76.6349C217.38 76.4607 217.385 76.2858 217.465 76.1102C217.547 75.9336 217.68 75.809 217.862 75.7365C218.044 75.6639 218.224 75.6639 218.403 75.7364C218.584 75.8079 218.71 75.9307 218.779 76.1049C218.849 76.279 218.842 76.4544 218.759 76.6311C218.68 76.8066 218.549 76.9307 218.367 77.0032ZM225.79 76.7974L225.046 77.3693C224.937 77.2505 224.805 77.1456 224.65 77.0547C224.496 76.96 224.314 76.9039 224.105 76.8862C223.897 76.8685 223.656 76.9138 223.384 77.0221C223.012 77.1704 222.736 77.3798 222.557 77.6501C222.379 77.9168 222.342 78.1808 222.446 78.4421C222.538 78.6743 222.696 78.8241 222.918 78.8914C223.141 78.9587 223.449 78.9657 223.844 78.9124L224.835 78.7744C225.431 78.6898 225.917 78.7302 226.292 78.8959C226.665 79.0588 226.937 79.3528 227.106 79.7777C227.245 80.126 227.269 80.4774 227.178 80.8318C227.089 81.1851 226.898 81.512 226.605 81.8123C226.312 82.1126 225.929 82.3569 225.457 82.5451C224.836 82.7922 224.27 82.8622 223.756 82.7549C223.242 82.6477 222.828 82.357 222.514 81.8828L223.312 81.3078C223.527 81.6014 223.785 81.7832 224.085 81.8533C224.387 81.9222 224.73 81.8805 225.113 81.728C225.548 81.5545 225.857 81.3244 226.04 81.0376C226.223 80.7472 226.263 80.4713 226.159 80.2101C226.075 79.9989 225.931 79.8516 225.726 79.7679C225.521 79.6817 225.251 79.6639 224.916 79.7146L223.808 79.8809C223.199 79.9709 222.708 79.9293 222.336 79.7563C221.966 79.5796 221.698 79.2815 221.53 78.8619C221.394 78.5188 221.369 78.1769 221.456 77.8362C221.547 77.4945 221.729 77.1816 222.005 76.8977C222.282 76.6126 222.635 76.3849 223.063 76.2146C223.664 75.9748 224.189 75.9185 224.638 76.0457C225.088 76.1719 225.473 76.4224 225.79 76.7974ZM231.614 74.4767L230.87 75.0486C230.761 74.9298 230.629 74.8249 230.474 74.7339C230.32 74.6393 230.139 74.5831 229.93 74.5654C229.721 74.5478 229.48 74.5931 229.209 74.7014C228.836 74.8497 228.561 75.059 228.381 75.3294C228.203 75.5961 228.166 75.8601 228.27 76.1214C228.362 76.3536 228.52 76.5034 228.742 76.5707C228.965 76.6379 229.274 76.6449 229.668 76.5917L230.659 76.4537C231.255 76.369 231.741 76.4095 232.116 76.5751C232.49 76.7381 232.761 77.032 232.93 77.4569C233.069 77.8053 233.093 78.1567 233.002 78.511C232.913 78.8644 232.722 79.1912 232.429 79.4915C232.136 79.7918 231.753 80.0361 231.281 80.2243C230.661 80.4715 230.094 80.5414 229.58 80.4342C229.066 80.3269 228.652 80.0362 228.338 79.5621L229.136 78.9871C229.351 79.2807 229.609 79.4625 229.909 79.5325C230.212 79.6015 230.554 79.5597 230.937 79.4073C231.372 79.2337 231.681 79.0036 231.864 78.7169C232.048 78.4264 232.088 78.1506 231.983 77.8893C231.899 77.6782 231.755 77.5308 231.55 77.4472C231.345 77.3609 231.075 77.3432 230.74 77.3939L229.632 77.5602C229.023 77.6501 228.532 77.6086 228.16 77.4356C227.79 77.2589 227.522 76.9607 227.354 76.5411C227.218 76.198 227.193 75.8562 227.281 75.5155C227.371 75.1738 227.553 74.8609 227.829 74.5769C228.107 74.2919 228.459 74.0642 228.887 73.8938C229.489 73.6541 230.014 73.5978 230.462 73.725C230.913 73.8511 231.297 74.1017 231.614 74.4767ZM236.858 78.0204C236.473 78.1739 236.094 78.2407 235.722 78.2207C235.349 78.198 235.015 78.0849 234.72 77.8815C234.424 77.6753 234.197 77.3743 234.039 76.9785C233.9 76.6301 233.856 76.3204 233.907 76.0493C233.957 75.7755 234.072 75.5309 234.253 75.3154C234.433 75.0999 234.649 74.9065 234.902 74.7354C235.157 74.5606 235.418 74.3985 235.686 74.249C236.036 74.0543 236.321 73.8993 236.542 73.7841C236.763 73.6651 236.915 73.5543 236.996 73.4515C237.08 73.3477 237.092 73.2206 237.032 73.0701L237.02 73.0385C236.864 72.6479 236.636 72.387 236.336 72.2557C236.039 72.1235 235.675 72.143 235.245 72.3144C234.799 72.4922 234.488 72.7292 234.313 73.0254C234.137 73.3216 234.042 73.6011 234.027 73.8638L233.014 73.9005C233.026 73.4679 233.122 73.0961 233.304 72.7851C233.487 72.4704 233.72 72.2096 234.001 72.0026C234.284 71.792 234.579 71.6257 234.885 71.5037C235.08 71.4258 235.314 71.3602 235.587 71.3068C235.86 71.2496 236.144 71.245 236.439 71.2929C236.736 71.3397 237.021 71.4754 237.294 71.6999C237.567 71.9245 237.799 72.2783 237.992 72.7612L239.588 76.7674L238.654 77.1397L238.326 76.3162L238.278 76.3352C238.268 76.4924 238.218 76.6756 238.13 76.8849C238.043 77.0943 237.897 77.3006 237.694 77.504C237.49 77.7073 237.212 77.8795 236.858 78.0204ZM236.666 77.1244C237.036 76.9771 237.318 76.7805 237.514 76.5344C237.712 76.2872 237.83 76.0231 237.868 75.7419C237.908 75.4598 237.878 75.192 237.777 74.9386L237.436 74.0836C237.415 74.1468 237.346 74.2251 237.227 74.3183C237.11 74.4078 236.97 74.5018 236.807 74.6003C236.646 74.695 236.488 74.7855 236.333 74.8718C236.179 74.9545 236.055 75.0223 235.96 75.0755C235.73 75.2039 235.523 75.3458 235.34 75.5012C235.159 75.6529 235.032 75.8244 234.958 76.0158C234.886 76.2036 234.898 76.4162 234.992 76.6537C235.122 76.9783 235.34 77.1759 235.646 77.2465C235.954 77.3133 236.294 77.2726 236.666 77.1244ZM240.77 72.0578L242.228 75.7157L241.293 76.0879L238.87 70.0074L239.773 69.6478L240.152 70.5978L240.231 70.5663C240.25 70.2007 240.368 69.8664 240.583 69.5634C240.798 69.2577 241.135 69.0133 241.594 68.8304C242.006 68.6663 242.4 68.6072 242.776 68.6531C243.151 68.6963 243.492 68.854 243.799 69.1261C244.105 69.3955 244.361 69.7889 244.568 70.3061L246.107 74.1698L245.173 74.5421L243.659 70.7417C243.468 70.2641 243.196 69.9414 242.842 69.7737C242.486 69.6033 242.092 69.6044 241.659 69.7769C241.361 69.8957 241.12 70.0666 240.937 70.2895C240.756 70.5113 240.648 70.7731 240.612 71.0748C240.577 71.3765 240.629 71.7042 240.77 72.0578ZM248.036 66.3553L248.351 67.1471L245.2 68.4027L244.885 67.6109L248.036 66.3553ZM245.223 65.7882L246.157 65.4159L248.466 71.2114C248.571 71.4753 248.688 71.658 248.818 71.7595C248.948 71.8572 249.083 71.9044 249.223 71.9009C249.363 71.8937 249.502 71.8627 249.64 71.808C249.743 71.767 249.825 71.7281 249.887 71.6912C249.947 71.6518 249.996 71.6202 250.032 71.5965L250.557 72.36C250.503 72.409 250.424 72.468 250.32 72.5369C250.217 72.6086 250.078 72.6791 249.904 72.7485C249.64 72.8536 249.359 72.8999 249.061 72.8874C248.765 72.8738 248.487 72.7841 248.228 72.6181C247.972 72.451 247.774 72.1907 247.633 71.837L245.223 65.7882Z" fill="#8E8E8E"/>
<path d="M167.676 251.633L168.927 251.795L170.939 259.36L171.041 259.373L174.912 252.569L176.163 252.731L175.043 261.386L174.062 261.259L174.913 254.684L174.828 254.673L171.273 260.899L170.326 260.776L168.472 253.85L168.388 253.839L167.537 260.415L166.557 260.288L167.676 251.633ZM178.899 262.04C178.488 261.987 178.125 261.861 177.809 261.663C177.495 261.461 177.258 261.2 177.099 260.879C176.94 260.555 176.888 260.181 176.943 259.759C176.991 259.387 177.103 259.095 177.28 258.883C177.456 258.668 177.676 258.51 177.938 258.409C178.201 258.309 178.484 258.245 178.788 258.219C179.095 258.19 179.402 258.175 179.709 258.174C180.11 258.175 180.435 258.178 180.683 258.184C180.935 258.188 181.121 258.165 181.242 258.115C181.366 258.065 181.438 257.96 181.459 257.799L181.463 257.766C181.517 257.349 181.445 257.01 181.247 256.749C181.051 256.489 180.724 256.329 180.265 256.27C179.789 256.208 179.402 256.264 179.104 256.438C178.807 256.611 178.588 256.809 178.447 257.032L177.544 256.571C177.765 256.198 178.03 255.92 178.34 255.737C178.653 255.551 178.983 255.437 179.33 255.393C179.68 255.346 180.018 255.344 180.345 255.386C180.553 255.413 180.789 255.47 181.053 255.555C181.32 255.639 181.571 255.773 181.805 255.958C182.041 256.143 182.224 256.4 182.354 256.729C182.483 257.058 182.514 257.48 182.448 257.996L181.894 262.273L180.897 262.144L181.011 261.265L180.96 261.258C180.874 261.39 180.742 261.526 180.563 261.667C180.385 261.807 180.157 261.916 179.881 261.995C179.604 262.074 179.277 262.089 178.899 262.04ZM179.167 261.164C179.562 261.215 179.904 261.18 180.195 261.06C180.488 260.941 180.72 260.767 180.89 260.54C181.062 260.313 181.166 260.065 181.201 259.794L181.319 258.881C181.27 258.926 181.171 258.961 181.022 258.985C180.876 259.006 180.708 259.02 180.518 259.027C180.331 259.031 180.149 259.033 179.972 259.033C179.797 259.031 179.656 259.03 179.547 259.03C179.283 259.03 179.034 259.054 178.798 259.101C178.566 259.145 178.372 259.233 178.214 259.365C178.06 259.494 177.967 259.685 177.934 259.938C177.889 260.285 177.983 260.564 178.217 260.774C178.453 260.983 178.77 261.112 179.167 261.164ZM183.4 264.943L184.555 256.017L185.518 256.142L185.385 257.173L185.503 257.188C185.591 257.085 185.711 256.954 185.863 256.797C186.018 256.636 186.228 256.503 186.491 256.396C186.757 256.288 187.101 256.261 187.524 256.315C188.07 256.386 188.534 256.585 188.916 256.912C189.298 257.24 189.573 257.669 189.742 258.201C189.911 258.733 189.951 259.339 189.863 260.021C189.774 260.709 189.58 261.289 189.281 261.763C188.982 262.235 188.608 262.582 188.158 262.804C187.709 263.024 187.213 263.099 186.672 263.029C186.255 262.975 185.93 262.862 185.698 262.692C185.465 262.519 185.293 262.334 185.18 262.139C185.068 261.942 184.984 261.779 184.926 261.651L184.841 261.64L184.397 265.072L183.4 264.943ZM185.115 259.39C185.052 259.88 185.068 260.322 185.163 260.715C185.258 261.105 185.43 261.424 185.679 261.671C185.928 261.915 186.253 262.063 186.653 262.115C187.07 262.169 187.432 262.104 187.74 261.921C188.05 261.734 188.3 261.463 188.489 261.107C188.682 260.748 188.808 260.337 188.868 259.875C188.927 259.419 188.91 258.998 188.816 258.614C188.726 258.227 188.554 257.908 188.3 257.658C188.049 257.404 187.712 257.251 187.29 257.196C186.884 257.143 186.53 257.202 186.227 257.372C185.925 257.539 185.679 257.797 185.491 258.145C185.303 258.49 185.178 258.905 185.115 259.39ZM193.084 254.921L191.964 263.576L190.967 263.447L192.087 254.792L193.084 254.921ZM196.495 264.3C195.869 264.219 195.348 264.011 194.93 263.676C194.515 263.339 194.218 262.905 194.037 262.374C193.86 261.842 193.814 261.243 193.9 260.578C193.986 259.913 194.183 259.343 194.491 258.867C194.802 258.389 195.194 258.035 195.668 257.807C196.144 257.577 196.676 257.5 197.262 257.575C197.6 257.619 197.927 257.719 198.242 257.874C198.557 258.029 198.833 258.251 199.071 258.54C199.309 258.826 199.481 259.186 199.588 259.621C199.695 260.056 199.71 260.576 199.631 261.182L199.576 261.605L194.573 260.957L194.684 260.095L198.674 260.611C198.721 260.245 198.69 259.909 198.581 259.602C198.474 259.296 198.298 259.043 198.052 258.842C197.809 258.642 197.507 258.518 197.146 258.471C196.749 258.42 196.392 258.474 196.076 258.634C195.764 258.791 195.51 259.016 195.315 259.309C195.119 259.601 194.998 259.926 194.952 260.284L194.878 260.859C194.814 261.349 194.845 261.776 194.97 262.139C195.098 262.499 195.303 262.787 195.584 263.004C195.866 263.218 196.208 263.351 196.611 263.404C196.873 263.438 197.114 263.432 197.335 263.386C197.559 263.337 197.758 263.248 197.932 263.119C198.107 262.987 198.251 262.814 198.365 262.599L199.293 262.994C199.15 263.308 198.942 263.574 198.671 263.79C198.399 264.005 198.079 264.158 197.709 264.25C197.339 264.34 196.934 264.356 196.495 264.3Z" fill="#8E8E8E"/>
</svg>
