<svg width="301" height="363" viewBox="0 0 301 363" fill="none" xmlns="http://www.w3.org/2000/svg">
<path d="M92.8165 200.392C92.4792 200.842 92.1012 201.186 91.6826 201.422C91.2657 201.656 90.8421 201.774 90.412 201.775C89.9813 201.771 89.5762 201.642 89.1965 201.386L89.8404 200.526C90.0791 200.677 90.3314 200.745 90.5973 200.731C90.8609 200.716 91.1197 200.631 91.3736 200.477C91.6275 200.323 91.855 200.112 92.056 199.843C92.2808 199.543 92.4278 199.238 92.497 198.928C92.5662 198.618 92.5569 198.327 92.4693 198.055C92.3817 197.784 92.2151 197.556 91.9695 197.372C91.7126 197.179 91.4387 197.074 91.1478 197.054C90.8546 197.034 90.5603 197.104 90.2649 197.266C89.9696 197.428 89.689 197.687 89.4233 198.041L89.0042 198.601L88.254 198.038L88.673 197.479C88.8808 197.202 89.0131 196.921 89.0698 196.637C89.1281 196.351 89.1107 196.08 89.0174 195.826C88.9258 195.569 88.7572 195.348 88.5117 195.165C88.2752 194.987 88.0303 194.885 87.7769 194.859C87.5234 194.832 87.2763 194.878 87.0354 194.996C86.7963 195.111 86.5805 195.297 86.388 195.554C86.2074 195.795 86.0814 196.056 86.01 196.336C85.9379 196.612 85.9346 196.879 86.0001 197.138C86.0633 197.395 86.2066 197.616 86.43 197.801L85.8167 198.619C85.4609 198.331 85.223 197.981 85.1029 197.568C84.9805 197.153 84.9672 196.721 85.063 196.271C85.1606 195.818 85.3601 195.391 85.6616 194.989C85.9852 194.557 86.3504 194.252 86.7572 194.074C87.1616 193.894 87.5681 193.827 87.9767 193.874C88.3852 193.921 88.7543 194.068 89.084 194.315C89.4773 194.61 89.7351 194.965 89.8575 195.379C89.9816 195.792 89.965 196.214 89.8078 196.647L89.8624 196.688C90.2656 196.301 90.7113 196.097 91.1993 196.076C91.6851 196.053 92.1497 196.208 92.593 196.54C92.9727 196.824 93.2362 197.183 93.3836 197.617C93.5304 198.046 93.5573 198.503 93.4644 198.987C93.3714 199.471 93.1554 199.94 92.8165 200.392ZM90.1203 189.038C90.3373 188.753 90.6065 188.507 90.9279 188.301C91.2494 188.094 91.6227 187.966 92.0476 187.915C92.4703 187.863 92.9479 187.924 93.4804 188.099C94.0129 188.275 94.5997 188.602 95.2408 189.083C95.8615 189.548 96.3685 190.02 96.762 190.499C97.1548 190.975 97.4334 191.446 97.5979 191.914C97.764 192.379 97.8148 192.832 97.7502 193.274C97.6874 193.713 97.5086 194.129 97.2139 194.523C96.9209 194.914 96.5821 195.205 96.1976 195.396C95.8124 195.583 95.4079 195.671 94.9841 195.658C94.5596 195.642 94.1428 195.523 93.7336 195.302L94.3571 194.47C94.7338 194.635 95.1103 194.684 95.4864 194.618C95.8619 194.548 96.1877 194.329 96.4636 193.961C96.8674 193.422 96.9506 192.82 96.7133 192.156C96.4778 191.49 95.9303 190.835 95.0709 190.191L95.03 190.245C95.1256 190.516 95.1772 190.791 95.1847 191.07C95.1922 191.348 95.1534 191.623 95.0683 191.893C94.9832 192.163 94.8504 192.418 94.6698 192.659C94.37 193.059 93.996 193.352 93.5478 193.538C93.099 193.721 92.6258 193.781 92.128 193.721C91.6297 193.656 91.1554 193.455 90.7053 193.118C90.2778 192.798 89.9583 192.409 89.7468 191.953C89.5346 191.492 89.4531 191.008 89.5023 190.502C89.5532 189.994 89.7592 189.505 90.1203 189.038ZM90.8706 189.6C90.656 189.886 90.5343 190.198 90.5054 190.535C90.4761 190.868 90.5316 191.192 90.6721 191.506C90.812 191.817 91.0275 192.081 91.3185 192.3C91.6095 192.518 91.9221 192.652 92.2562 192.704C92.5898 192.751 92.9105 192.717 93.2184 192.599C93.5257 192.478 93.7867 192.274 94.0013 191.988C94.1631 191.772 94.2718 191.539 94.3274 191.29C94.3807 191.039 94.3854 190.788 94.3415 190.539C94.2971 190.286 94.2103 190.048 94.0812 189.827C93.9499 189.605 93.7808 189.416 93.5739 189.261C93.301 189.057 92.9959 188.931 92.6583 188.884C92.3225 188.835 91.9947 188.869 91.6749 188.988C91.3567 189.105 91.0887 189.309 90.8706 189.6ZM99.7963 188.887L100.124 189.218C100.354 189.451 100.587 189.717 100.823 190.018C101.061 190.317 101.279 190.607 101.477 190.887C101.676 191.167 101.832 191.392 101.945 191.562L101.485 192.176C101.362 192.038 101.199 191.855 100.996 191.628C100.793 191.402 100.562 191.154 100.302 190.885C100.046 190.615 99.7766 190.349 99.4935 190.087L99.1422 189.76L99.7963 188.887ZM96.3952 180.663C96.6121 180.378 96.8813 180.132 97.2028 179.926C97.5243 179.72 97.8975 179.591 98.3225 179.54C98.7452 179.488 99.2228 179.549 99.7553 179.724C100.288 179.9 100.875 180.228 101.516 180.708C102.136 181.173 102.643 181.645 103.037 182.125C103.43 182.6 103.708 183.071 103.873 183.539C104.039 184.004 104.09 184.458 104.025 184.899C103.962 185.338 103.783 185.755 103.489 186.148C103.196 186.539 102.857 186.83 102.472 187.021C102.087 187.208 101.683 187.296 101.259 187.283C100.834 187.267 100.418 187.148 100.008 186.927L100.632 186.095C101.009 186.26 101.385 186.309 101.761 186.243C102.137 186.173 102.463 185.954 102.738 185.586C103.142 185.047 103.225 184.445 102.988 183.781C102.753 183.115 102.205 182.46 101.346 181.816L101.305 181.871C101.4 182.141 101.452 182.416 101.46 182.695C101.467 182.974 101.428 183.248 101.343 183.518C101.258 183.788 101.125 184.043 100.945 184.284C100.645 184.684 100.271 184.978 99.8227 185.164C99.3739 185.346 98.9006 185.406 98.4029 185.346C97.9045 185.281 97.4303 185.08 96.9801 184.743C96.5527 184.423 96.2332 184.034 96.0216 183.578C95.8095 183.117 95.728 182.633 95.7772 182.127C95.828 181.619 96.0341 181.13 96.3952 180.663ZM97.1455 181.225C96.9308 181.511 96.8091 181.823 96.7803 182.16C96.7509 182.493 96.8065 182.817 96.947 183.131C97.0869 183.442 97.3024 183.707 97.5934 183.925C97.8844 184.143 98.1969 184.277 98.5311 184.329C98.8646 184.377 99.1853 184.342 99.4932 184.225C99.8006 184.103 100.062 183.9 100.276 183.613C100.438 183.397 100.547 183.164 100.602 182.915C100.656 182.664 100.66 182.413 100.616 182.164C100.572 181.911 100.485 181.673 100.356 181.453C100.225 181.23 100.056 181.041 99.8487 180.886C99.5759 180.682 99.2707 180.556 98.9332 180.509C98.5974 180.46 98.2696 180.494 97.9497 180.613C97.6316 180.73 97.3635 180.934 97.1455 181.225ZM106.322 182.167L102.483 174.413L102.429 174.373L99.7303 177.974L98.9801 177.412L102.332 172.937L103.124 173.53L106.986 181.281L106.322 182.167Z" fill="black"/>
<path d="M168.726 123.555C168.35 123.884 167.946 124.106 167.514 124.221C167.081 124.335 166.66 124.341 166.25 124.239C165.84 124.138 165.48 123.928 165.171 123.609L165.941 122.936C166.231 123.206 166.581 123.334 166.99 123.319C167.4 123.3 167.773 123.144 168.109 122.85C168.378 122.614 168.562 122.341 168.661 122.032C168.762 121.72 168.776 121.402 168.703 121.077C168.63 120.748 168.471 120.444 168.226 120.164C167.976 119.877 167.689 119.677 167.366 119.563C167.044 119.445 166.717 119.416 166.384 119.477C166.052 119.538 165.745 119.689 165.463 119.932C165.261 120.106 165.082 120.318 164.926 120.567C164.769 120.814 164.665 121.047 164.614 121.265L163.792 121.827L161.359 118.247L164.771 115.26L165.388 115.965L162.644 118.368L164.109 120.507L164.147 120.473C164.188 120.248 164.279 120.012 164.421 119.764C164.562 119.515 164.743 119.295 164.963 119.102C165.365 118.75 165.807 118.533 166.289 118.45C166.772 118.363 167.249 118.407 167.718 118.581C168.19 118.753 168.612 119.052 168.985 119.477C169.351 119.896 169.585 120.353 169.685 120.846C169.785 121.336 169.755 121.819 169.595 122.296C169.433 122.77 169.143 123.19 168.726 123.555ZM168.647 111.865L174.397 118.431L173.602 119.127L168.582 113.395L168.544 113.429L167.873 115.897L167.165 115.089L167.852 112.561L168.647 111.865ZM176.252 115.22L176.504 115.611C176.681 115.887 176.854 116.196 177.023 116.539C177.193 116.881 177.347 117.209 177.483 117.524C177.619 117.839 177.725 118.092 177.801 118.282L177.224 118.787C177.132 118.626 177.01 118.414 176.858 118.15C176.707 117.887 176.532 117.596 176.333 117.279C176.139 116.962 175.93 116.646 175.708 116.331L175.432 115.939L176.252 115.22ZM180.406 113.327C179.966 113.713 179.509 113.975 179.034 114.115C178.56 114.251 178.109 114.263 177.679 114.152C177.248 114.039 176.878 113.804 176.569 113.447C176.324 113.171 176.154 112.867 176.059 112.535C175.962 112.2 175.941 111.87 175.995 111.543C176.049 111.212 176.177 110.921 176.379 110.668L176.345 110.63C175.96 110.824 175.555 110.867 175.132 110.758C174.706 110.647 174.342 110.417 174.039 110.066C173.745 109.735 173.568 109.363 173.509 108.95C173.45 108.538 173.504 108.124 173.67 107.711C173.838 107.295 174.115 106.919 174.5 106.582C174.88 106.249 175.286 106.027 175.718 105.917C176.151 105.806 176.567 105.808 176.968 105.921C177.372 106.032 177.72 106.254 178.015 106.585C178.317 106.936 178.495 107.33 178.546 107.768C178.598 108.202 178.505 108.595 178.269 108.946L178.302 108.984C178.577 108.819 178.88 108.733 179.21 108.727C179.539 108.719 179.864 108.784 180.185 108.922C180.504 109.058 180.786 109.263 181.032 109.539C181.34 109.896 181.521 110.297 181.574 110.741C181.628 111.181 181.556 111.628 181.359 112.08C181.162 112.528 180.844 112.943 180.406 113.327ZM179.789 112.622C180.086 112.362 180.3 112.089 180.432 111.804C180.563 111.519 180.611 111.237 180.575 110.959C180.539 110.681 180.42 110.423 180.216 110.186C179.997 109.94 179.741 109.777 179.448 109.697C179.155 109.617 178.852 109.618 178.539 109.7C178.228 109.78 177.933 109.942 177.655 110.185C177.375 110.43 177.173 110.704 177.048 111.006C176.926 111.306 176.884 111.606 176.925 111.907C176.968 112.205 177.098 112.478 177.318 112.724C177.521 112.961 177.758 113.116 178.027 113.191C178.298 113.263 178.584 113.252 178.887 113.157C179.189 113.062 179.489 112.884 179.789 112.622ZM177.06 109.506C177.295 109.3 177.462 109.07 177.562 108.817C177.663 108.562 177.692 108.304 177.649 108.044C177.606 107.783 177.486 107.539 177.29 107.31C177.093 107.09 176.871 106.942 176.625 106.868C176.376 106.791 176.122 106.787 175.862 106.856C175.599 106.924 175.348 107.063 175.106 107.274C174.86 107.49 174.686 107.724 174.582 107.976C174.477 108.227 174.447 108.48 174.493 108.735C174.537 108.987 174.657 109.224 174.854 109.444C175.05 109.672 175.273 109.826 175.524 109.905C175.776 109.982 176.035 109.987 176.302 109.92C176.568 109.854 176.821 109.715 177.06 109.506ZM185.969 108.456C185.529 108.841 185.072 109.104 184.598 109.244C184.123 109.379 183.672 109.392 183.242 109.281C182.811 109.167 182.441 108.932 182.132 108.576C181.887 108.3 181.717 107.996 181.622 107.663C181.525 107.329 181.504 106.998 181.558 106.671C181.612 106.341 181.74 106.049 181.942 105.797L181.908 105.759C181.523 105.952 181.119 105.995 180.695 105.886C180.269 105.776 179.905 105.545 179.602 105.195C179.308 104.863 179.131 104.491 179.072 104.079C179.013 103.666 179.067 103.253 179.233 102.839C179.401 102.424 179.678 102.047 180.063 101.71C180.443 101.377 180.849 101.156 181.282 101.045C181.714 100.935 182.13 100.936 182.531 101.05C182.935 101.161 183.284 101.382 183.578 101.714C183.881 102.064 184.058 102.458 184.109 102.897C184.161 103.331 184.069 103.723 183.832 104.074L183.866 104.113C184.14 103.948 184.443 103.862 184.773 103.856C185.102 103.847 185.427 103.912 185.748 104.05C186.067 104.186 186.349 104.392 186.595 104.668C186.903 105.025 187.084 105.425 187.137 105.87C187.191 106.31 187.119 106.756 186.922 107.208C186.725 107.656 186.408 108.072 185.969 108.456ZM185.352 107.75C185.649 107.49 185.863 107.218 185.995 106.932C186.127 106.647 186.174 106.365 186.138 106.087C186.103 105.809 185.983 105.551 185.779 105.314C185.56 105.068 185.304 104.906 185.011 104.826C184.718 104.746 184.415 104.747 184.102 104.829C183.791 104.909 183.496 105.071 183.218 105.314C182.938 105.559 182.736 105.833 182.611 106.134C182.489 106.434 182.448 106.734 182.488 107.035C182.531 107.334 182.662 107.606 182.881 107.852C183.085 108.089 183.321 108.245 183.59 108.319C183.861 108.391 184.147 108.38 184.45 108.285C184.752 108.191 185.053 108.012 185.352 107.75ZM182.623 104.634C182.858 104.428 183.025 104.199 183.125 103.946C183.226 103.691 183.255 103.433 183.212 103.172C183.169 102.912 183.049 102.667 182.853 102.439C182.656 102.219 182.435 102.071 182.188 101.996C181.939 101.919 181.685 101.916 181.425 101.985C181.162 102.052 180.911 102.191 180.669 102.403C180.423 102.618 180.249 102.852 180.145 103.105C180.04 103.356 180.01 103.608 180.056 103.863C180.1 104.116 180.22 104.352 180.417 104.573C180.613 104.801 180.836 104.955 181.087 105.034C181.339 105.111 181.599 105.116 181.865 105.049C182.131 104.982 182.384 104.844 182.623 104.634Z" fill="black"/>
<path d="M112.208 149.735L35.4355 250.441L129.379 258.493L159.55 262.952L176.118 220.617L192.687 178.283L275.183 32.9515L230.932 49.6758L112.208 149.735Z" stroke="#379482" stroke-width="2"/>
<path d="M77.3314 247.423C76.7724 247.36 76.2847 247.209 75.8684 246.968C75.455 246.728 75.1388 246.423 74.9199 246.052C74.7042 245.68 74.6103 245.265 74.6383 244.808L75.7056 244.926C75.6971 245.208 75.7662 245.46 75.913 245.683C76.06 245.902 76.2644 246.082 76.526 246.223C76.7876 246.363 77.085 246.452 77.4182 246.489C77.7909 246.531 78.1285 246.502 78.4309 246.405C78.7334 246.307 78.9794 246.151 79.1689 245.938C79.3584 245.725 79.4702 245.465 79.5041 245.161C79.5397 244.842 79.4919 244.552 79.3608 244.291C79.23 244.028 79.0199 243.81 78.7303 243.638C78.4408 243.466 78.0758 243.355 77.6354 243.306L76.9408 243.229L77.0445 242.297L77.7391 242.374C78.0835 242.413 78.3926 242.384 78.6662 242.289C78.9426 242.194 79.1668 242.042 79.3387 241.832C79.5135 241.623 79.6179 241.366 79.6518 241.061C79.6845 240.767 79.648 240.504 79.5424 240.273C79.4367 240.041 79.272 239.851 79.0484 239.703C78.8275 239.556 78.5576 239.464 78.2385 239.429C77.9393 239.395 77.6508 239.419 77.3731 239.499C77.0986 239.577 76.8666 239.71 76.677 239.898C76.4878 240.083 76.3701 240.318 76.3239 240.605L75.3075 240.491C75.375 240.039 75.5563 239.656 75.8513 239.343C76.1466 239.027 76.5124 238.796 76.9488 238.65C77.3881 238.505 77.8576 238.46 78.3573 238.516C78.8938 238.575 79.3419 238.735 79.7017 238.995C80.0618 239.253 80.3253 239.569 80.4921 239.945C80.6589 240.321 80.7195 240.714 80.674 241.123C80.6196 241.612 80.4447 242.014 80.1495 242.33C79.857 242.646 79.4846 242.846 79.0321 242.93L79.0246 242.998C79.5623 243.149 79.9641 243.43 80.2301 243.839C80.4963 244.246 80.5988 244.725 80.5375 245.276C80.485 245.747 80.3094 246.156 80.0107 246.503C79.7151 246.848 79.3351 247.103 78.8707 247.268C78.4064 247.434 77.8933 247.485 77.3314 247.423ZM84.7049 248.244C84.208 248.188 83.7714 248.04 83.3953 247.798C83.0192 247.556 82.7304 247.249 82.5287 246.878C82.3271 246.507 82.2395 246.1 82.2659 245.657L83.2824 245.77C83.2782 246.167 83.4199 246.511 83.7075 246.803C83.9983 247.093 84.3653 247.262 84.8086 247.312C85.1644 247.351 85.4899 247.303 85.7851 247.168C86.0832 247.032 86.3275 246.828 86.518 246.555C86.7116 246.279 86.829 245.956 86.8702 245.586C86.9123 245.208 86.8666 244.861 86.733 244.546C86.6025 244.229 86.4029 243.968 86.1341 243.763C85.8653 243.559 85.5461 243.435 85.1765 243.391C84.9114 243.359 84.6344 243.369 84.3455 243.423C84.0568 243.474 83.8149 243.554 83.6198 243.664L82.6504 243.436L83.6508 239.225L88.1571 239.727L88.0534 240.658L84.428 240.255L83.8383 242.779L83.8891 242.785C84.0827 242.663 84.3188 242.571 84.5974 242.508C84.876 242.444 85.1607 242.429 85.4515 242.461C85.9824 242.52 86.4411 242.7 86.8279 243C87.2178 243.298 87.507 243.679 87.6954 244.143C87.8867 244.607 87.9511 245.121 87.8885 245.682C87.8269 246.236 87.6476 246.716 87.3508 247.123C87.057 247.528 86.6802 247.832 86.2202 248.035C85.7606 248.235 85.2555 248.305 84.7049 248.244ZM90.5772 247.577L90.4585 248.027C90.3746 248.343 90.2629 248.679 90.1232 249.035C89.9863 249.392 89.8476 249.727 89.707 250.04C89.5664 250.353 89.4515 250.601 89.3623 250.786L88.6 250.701C88.6568 250.524 88.7314 250.291 88.8237 250.001C88.916 249.711 89.0122 249.386 89.1124 249.026C89.215 248.669 89.3073 248.301 89.3893 247.925L89.4929 247.456L90.5772 247.577ZM94.8027 249.368C94.3057 249.312 93.8692 249.164 93.4931 248.922C93.117 248.68 92.8281 248.373 92.6265 248.002C92.4248 247.631 92.3372 247.224 92.3637 246.781L93.3801 246.894C93.376 247.291 93.5177 247.635 93.8053 247.928C94.0961 248.217 94.4631 248.387 94.9064 248.436C95.2621 248.476 95.5876 248.428 95.8829 248.292C96.181 248.156 96.4252 247.952 96.6157 247.679C96.8094 247.403 96.9268 247.08 96.9679 246.71C97.0101 246.332 96.9643 245.985 96.8308 245.67C96.7003 245.353 96.5007 245.092 96.2319 244.888C95.963 244.683 95.6439 244.559 95.2743 244.515C95.0092 244.483 94.7322 244.493 94.4432 244.547C94.1546 244.598 93.9127 244.678 93.7175 244.788L92.7482 244.56L93.7486 240.349L98.2549 240.851L98.1511 241.783L94.5258 241.379L93.9361 243.903L93.9869 243.909C94.1805 243.787 94.4166 243.695 94.6952 243.632C94.9738 243.568 95.2585 243.553 95.5493 243.585C96.0801 243.644 96.5389 243.824 96.9257 244.124C97.3156 244.422 97.6047 244.803 97.7932 245.267C97.9845 245.732 98.0488 246.245 97.9863 246.807C97.9247 247.36 97.7454 247.84 97.4485 248.247C97.1548 248.652 96.778 248.956 96.318 249.159C95.8583 249.36 95.3532 249.429 94.8027 249.368ZM102.177 250.189C101.539 250.118 101.015 249.884 100.605 249.486C100.195 249.086 99.9081 248.541 99.7448 247.851C99.5818 247.159 99.5528 246.341 99.6578 245.398C99.7621 244.46 99.9698 243.673 100.281 243.036C100.595 242.396 100.996 241.926 101.484 241.626C101.975 241.324 102.537 241.208 103.169 241.278C103.802 241.348 104.323 241.585 104.732 241.988C105.145 242.388 105.433 242.935 105.596 243.628C105.762 244.318 105.793 245.132 105.689 246.069C105.584 247.012 105.376 247.804 105.064 248.444C104.753 249.081 104.354 249.549 103.866 249.849C103.378 250.147 102.815 250.26 102.177 250.189ZM102.281 249.257C102.913 249.327 103.439 249.077 103.857 248.506C104.275 247.935 104.546 247.085 104.672 245.956C104.756 245.205 104.747 244.556 104.644 244.01C104.545 243.465 104.361 243.037 104.093 242.727C103.827 242.417 103.485 242.239 103.067 242.193C102.441 242.123 101.916 242.378 101.495 242.957C101.073 243.533 100.8 244.384 100.674 245.511C100.591 246.262 100.599 246.909 100.698 247.452C100.798 247.994 100.981 248.419 101.247 248.726C101.515 249.033 101.86 249.21 102.281 249.257Z" fill="black"/>
<path d="M233.647 54.4315L237.129 62.4339L236.16 62.8556L233.12 55.8691L233.073 55.8895L231.684 58.037L231.255 57.0523L232.678 54.8532L233.647 54.4315ZM241.979 60.4535C241.521 60.653 241.068 60.7415 240.621 60.719C240.175 60.6965 239.772 60.5745 239.412 60.353C239.052 60.1316 238.773 59.8222 238.576 59.4249L239.514 59.0168C239.708 59.363 240.002 59.5912 240.397 59.7013C240.793 59.8076 241.196 59.7718 241.605 59.5938C241.933 59.451 242.192 59.2472 242.38 58.9824C242.571 58.7165 242.681 58.4176 242.71 58.0858C242.741 57.7503 242.682 57.4119 242.533 57.0707C242.381 56.7216 242.169 56.4438 241.896 56.2371C241.625 56.0268 241.322 55.8999 240.987 55.8567C240.652 55.8134 240.314 55.8647 239.971 56.0106C239.725 56.1145 239.49 56.2617 239.266 56.4521C239.041 56.6399 238.872 56.8299 238.757 57.0223L237.803 57.3074L236.573 53.1579L240.731 51.3486L241.105 52.2083L237.76 53.6638L238.506 56.1463L238.553 56.1259C238.66 55.9243 238.819 55.7266 239.029 55.5329C239.239 55.3393 239.478 55.1841 239.747 55.0673C240.236 54.8542 240.724 54.7815 241.209 54.8493C241.695 54.9134 242.136 55.0997 242.53 55.4083C242.927 55.7157 243.239 56.1286 243.464 56.6469C243.686 57.1575 243.77 57.6633 243.716 58.1642C243.662 58.6614 243.487 59.1126 243.189 59.5179C242.89 59.9205 242.487 60.2324 241.979 60.4535ZM246.739 56.9506L246.86 57.3998C246.945 57.716 247.016 58.0633 247.072 58.4416C247.131 58.8188 247.177 59.1782 247.211 59.5197C247.245 59.8612 247.269 60.1341 247.284 60.3385L246.581 60.6445C246.542 60.4631 246.49 60.2237 246.426 59.9264C246.362 59.629 246.283 59.2992 246.191 58.9367C246.102 58.5757 245.999 58.2115 245.882 57.8439L245.739 57.3859L246.739 56.9506ZM248.006 55.7485L247.66 54.9514L248.755 47.8569L249.333 47.6052L249.87 48.8399L249.48 49.01L248.652 54.3706L248.68 54.4331L253.415 52.3722L253.789 53.2319L248.006 55.7485ZM252.487 55.7504L251.668 53.867L251.506 53.4958L249.005 47.748L249.927 47.3467L253.409 55.3491L252.487 55.7504ZM255.066 52.6763L254.719 51.8792L255.815 44.7846L256.393 44.533L256.93 45.7677L256.539 45.9378L255.712 51.2984L255.739 51.3609L260.475 49.3L260.849 50.1597L255.066 52.6763ZM259.547 52.6782L258.727 50.7948L258.566 50.4236L256.065 44.6758L256.987 44.2745L260.469 52.2769L259.547 52.6782Z" fill="black"/>
<path d="M134.594 251.068L134.716 250.207L139.365 244.738L139.99 244.826L139.801 246.159L139.379 246.1L135.866 250.232L135.856 250.3L140.97 251.025L140.838 251.954L134.594 251.068ZM138.41 253.417L138.698 251.383L138.755 250.982L139.635 244.776L140.631 244.917L139.406 253.558L138.41 253.417ZM143.432 252.924L143.299 253.37C143.206 253.684 143.084 254.017 142.934 254.368C142.786 254.72 142.638 255.051 142.488 255.36C142.338 255.668 142.216 255.913 142.121 256.095L141.361 255.987C141.424 255.813 141.505 255.582 141.606 255.295C141.707 255.008 141.813 254.686 141.924 254.328C142.037 253.974 142.141 253.61 142.234 253.236L142.351 252.771L143.432 252.924ZM147.601 254.841C147.106 254.771 146.674 254.609 146.306 254.356C145.937 254.103 145.658 253.788 145.467 253.411C145.277 253.034 145.201 252.624 145.241 252.182L146.254 252.326C146.238 252.722 146.369 253.071 146.648 253.371C146.93 253.67 147.291 253.85 147.733 253.913C148.087 253.963 148.414 253.925 148.713 253.798C149.015 253.671 149.266 253.475 149.464 253.207C149.666 252.937 149.793 252.618 149.845 252.25C149.899 251.873 149.864 251.525 149.74 251.206C149.619 250.885 149.427 250.618 149.164 250.406C148.902 250.194 148.587 250.06 148.218 250.005C147.954 249.964 147.677 249.967 147.387 250.012C147.097 250.054 146.853 250.127 146.654 250.23L145.692 249.974L146.819 245.795L151.308 246.432L151.176 247.36L147.564 246.848L146.899 249.353L146.95 249.36C147.147 249.244 147.386 249.159 147.666 249.104C147.947 249.049 148.232 249.043 148.521 249.084C149.05 249.159 149.503 249.352 149.881 249.664C150.262 249.973 150.539 250.363 150.714 250.832C150.891 251.302 150.94 251.817 150.86 252.377C150.782 252.928 150.589 253.403 150.28 253.801C149.974 254.196 149.588 254.489 149.122 254.678C148.657 254.864 148.15 254.919 147.601 254.841ZM156.41 247.155L155.184 255.796L154.138 255.648L155.208 248.104L155.157 248.097L152.849 249.198L153 248.135L155.363 247.007L156.41 247.155Z" fill="black"/>
<path d="M219.657 120C219.397 120.427 219.078 120.76 218.7 120.998C218.322 121.237 217.922 121.37 217.5 121.396C217.079 121.422 216.673 121.33 216.282 121.119L216.814 120.245C217.172 120.416 217.544 120.433 217.93 120.296C218.315 120.154 218.624 119.893 218.856 119.512C219.042 119.206 219.136 118.891 219.137 118.566C219.14 118.239 219.058 117.931 218.891 117.643C218.722 117.351 218.479 117.108 218.161 116.915C217.836 116.717 217.503 116.612 217.161 116.6C216.818 116.585 216.497 116.655 216.198 116.813C215.9 116.97 215.652 117.207 215.457 117.524C215.315 117.75 215.208 118.006 215.135 118.291C215.059 118.574 215.029 118.827 215.047 119.05L214.431 119.833L211.036 117.149L213.393 113.275L214.194 113.762L212.297 116.879L214.337 118.479L214.363 118.435C214.335 118.208 214.351 117.955 214.411 117.676C214.471 117.397 214.578 117.132 214.73 116.882C215.007 116.426 215.364 116.086 215.799 115.862C216.234 115.634 216.701 115.533 217.202 115.558C217.703 115.58 218.196 115.739 218.679 116.032C219.154 116.322 219.514 116.687 219.758 117.128C220.001 117.565 220.117 118.035 220.107 118.538C220.095 119.039 219.945 119.526 219.657 120ZM223.452 113.762C223.192 114.19 222.873 114.523 222.495 114.761C222.116 115 221.717 115.133 221.295 115.159C220.873 115.185 220.467 115.093 220.077 114.882L220.609 114.008C220.967 114.179 221.339 114.196 221.725 114.059C222.11 113.917 222.419 113.656 222.651 113.275C222.837 112.969 222.93 112.654 222.932 112.329C222.935 112.002 222.853 111.694 222.686 111.406C222.517 111.114 222.274 110.871 221.956 110.678C221.631 110.48 221.298 110.375 220.956 110.363C220.613 110.348 220.292 110.418 219.993 110.576C219.695 110.733 219.447 110.97 219.251 111.287C219.11 111.513 219.003 111.769 218.929 112.054C218.854 112.337 218.824 112.59 218.841 112.813L218.226 113.596L214.831 110.912L217.187 107.038L217.988 107.525L216.092 110.642L218.132 112.242L218.158 112.198C218.13 111.971 218.146 111.718 218.206 111.439C218.266 111.16 218.372 110.895 218.525 110.645C218.802 110.189 219.159 109.849 219.594 109.625C220.029 109.397 220.496 109.296 220.996 109.321C221.498 109.343 221.99 109.501 222.473 109.795C222.949 110.085 223.309 110.45 223.553 110.891C223.795 111.328 223.912 111.798 223.902 112.301C223.89 112.802 223.739 113.289 223.452 113.762ZM225.325 108.157L225.683 108.455C225.935 108.665 226.192 108.908 226.456 109.185C226.722 109.459 226.966 109.726 227.191 109.986C227.415 110.245 227.592 110.455 227.722 110.613L227.323 111.269C227.187 111.142 227.007 110.976 226.783 110.77C226.56 110.564 226.305 110.34 226.021 110.097C225.74 109.853 225.447 109.614 225.14 109.381L224.758 109.089L225.325 108.157ZM225.669 106.445L224.926 105.993L221.736 99.5624L222.064 99.0236L223.214 99.7236L222.993 100.088L225.404 104.946L225.462 104.982L228.146 100.57L228.947 101.057L225.669 106.445ZM229.333 103.866L227.579 102.798L227.233 102.588L221.878 99.3294L222.4 98.4703L229.856 103.007L229.333 103.866ZM231.448 100.39L226.881 93.0418L226.822 93.0063L224.483 96.8507L223.682 96.3634L226.588 91.5871L227.433 92.1009L232.024 99.4435L231.448 100.39Z" fill="black"/>
<path d="M173.032 214.313C172.832 214.839 172.563 215.273 172.226 215.616C171.89 215.956 171.516 216.186 171.102 216.305C170.687 216.421 170.262 216.408 169.827 216.267L170.209 215.263C170.479 215.342 170.741 215.338 170.993 215.251C171.242 215.164 171.467 215.011 171.669 214.793C171.87 214.575 172.031 214.309 172.15 213.996C172.283 213.645 172.34 213.311 172.321 212.994C172.302 212.677 172.213 212.399 172.054 212.163C171.895 211.926 171.672 211.753 171.385 211.644C171.085 211.53 170.792 211.503 170.507 211.565C170.22 211.626 169.956 211.775 169.717 212.012C169.478 212.25 169.28 212.575 169.122 212.99L168.874 213.643L167.997 213.309L168.246 212.656C168.369 212.332 168.419 212.026 168.395 211.737C168.372 211.446 168.281 211.191 168.121 210.972C167.962 210.75 167.739 210.585 167.452 210.476C167.176 210.371 166.912 210.341 166.662 210.385C166.411 210.429 166.186 210.541 165.987 210.721C165.789 210.898 165.633 211.136 165.518 211.436C165.411 211.718 165.362 212.003 165.371 212.292C165.378 212.577 165.448 212.835 165.582 213.066C165.714 213.295 165.913 213.468 166.179 213.584L165.815 214.54C165.393 214.361 165.068 214.09 164.839 213.726C164.607 213.362 164.475 212.95 164.443 212.491C164.411 212.029 164.485 211.563 164.664 211.093C164.856 210.589 165.123 210.195 165.465 209.911C165.804 209.627 166.176 209.451 166.582 209.383C166.988 209.316 167.383 209.355 167.768 209.502C168.227 209.677 168.573 209.946 168.805 210.311C169.038 210.673 169.139 211.084 169.107 211.543L169.171 211.567C169.452 211.085 169.824 210.766 170.287 210.611C170.748 210.454 171.237 210.475 171.755 210.672C172.198 210.841 172.55 211.113 172.812 211.489C173.071 211.861 173.223 212.293 173.267 212.784C173.311 213.275 173.233 213.785 173.032 214.313ZM175.712 207.267C175.484 207.867 175.126 208.316 174.639 208.614C174.149 208.911 173.55 209.052 172.841 209.038C172.13 209.023 171.33 208.846 170.444 208.509C169.562 208.174 168.852 207.776 168.313 207.315C167.772 206.851 167.417 206.346 167.248 205.798C167.078 205.247 167.106 204.674 167.332 204.079C167.559 203.484 167.918 203.039 168.411 202.743C168.901 202.444 169.503 202.301 170.214 202.317C170.924 202.329 171.72 202.502 172.601 202.837C173.488 203.175 174.202 203.574 174.744 204.036C175.283 204.496 175.637 205 175.806 205.547C175.972 206.094 175.941 206.667 175.712 207.267ZM174.836 206.934C175.062 206.339 174.951 205.768 174.503 205.221C174.055 204.673 173.3 204.197 172.238 203.793C171.531 203.525 170.901 203.371 170.347 203.334C169.794 203.294 169.334 203.365 168.966 203.547C168.6 203.727 168.342 204.014 168.193 204.407C167.968 204.996 168.084 205.567 168.539 206.12C168.992 206.673 169.748 207.15 170.807 207.553C171.514 207.822 172.142 207.976 172.692 208.015C173.243 208.054 173.7 207.983 174.063 207.803C174.428 207.619 174.686 207.329 174.836 206.934ZM176.571 201.318L176.977 201.545C177.263 201.706 177.56 201.898 177.87 202.122C178.181 202.344 178.471 202.562 178.739 202.776C179.007 202.991 179.219 203.164 179.375 203.297L179.102 204.013C178.945 203.914 178.738 203.784 178.481 203.622C178.223 203.46 177.932 203.286 177.608 203.099C177.288 202.91 176.956 202.729 176.611 202.555L176.183 202.338L176.571 201.318ZM170.906 195.021L179.063 198.124L178.687 199.112L171.566 196.402L171.548 196.45L172.112 198.945L171.109 198.563L170.53 196.009L170.906 195.021ZM181.037 193.271C180.859 193.739 180.606 194.124 180.278 194.428C179.949 194.732 179.58 194.935 179.171 195.037C178.761 195.14 178.345 195.123 177.922 194.986L178.286 194.03C178.669 194.134 179.038 194.082 179.393 193.877C179.746 193.668 180.002 193.355 180.161 192.938C180.288 192.603 180.323 192.276 180.265 191.956C180.208 191.634 180.072 191.346 179.855 191.094C179.636 190.837 179.353 190.643 179.005 190.511C178.649 190.375 178.302 190.333 177.964 190.383C177.624 190.43 177.321 190.558 177.056 190.768C176.791 190.977 176.591 191.255 176.456 191.602C176.359 191.85 176.3 192.121 176.279 192.414C176.256 192.706 176.273 192.961 176.331 193.177L175.868 194.059L172.041 192.038L173.653 187.8L174.529 188.133L173.232 191.542L175.529 192.744L175.547 192.697C175.478 192.479 175.448 192.227 175.456 191.942C175.464 191.656 175.521 191.376 175.625 191.103C175.814 190.604 176.103 190.204 176.491 189.905C176.876 189.602 177.318 189.417 177.814 189.351C178.311 189.282 178.824 189.348 179.353 189.549C179.873 189.747 180.293 190.04 180.613 190.429C180.932 190.815 181.132 191.256 181.214 191.752C181.293 192.247 181.234 192.754 181.037 193.271Z" fill="black"/>
<path d="M5.3028 254.566C36.9825 254.566 147.862 259.589 216.63 281.61M5.94671 274.229C36.9825 274.229 147.089 278.519 217.274 301.272" stroke="#C4C4C4"/>
<path d="M229.104 39.1936L226.12 30.9923L228.891 29.9841C229.534 29.75 230.103 29.6748 230.596 29.7584C231.09 29.8384 231.508 30.0387 231.848 30.3593C232.188 30.6799 232.447 31.0818 232.622 31.565C232.798 32.0482 232.859 32.5233 232.805 32.9903C232.754 33.4563 232.567 33.8811 232.244 34.2647C231.92 34.6455 231.439 34.952 230.801 35.1842L228.815 35.9068L228.494 35.0258L230.449 34.3148C230.889 34.1546 231.215 33.9498 231.427 33.7005C231.638 33.4512 231.757 33.1752 231.783 32.8725C231.811 32.5662 231.765 32.2489 231.645 31.9205C231.526 31.5921 231.357 31.3208 231.14 31.1065C230.926 30.8912 230.657 30.7593 230.334 30.7105C230.01 30.6591 229.625 30.7145 229.18 30.8767L227.434 31.5119L230.097 38.8323L229.104 39.1936ZM238.613 35.879C238.058 36.0811 237.522 36.1262 237.007 36.0144C236.495 35.9016 236.034 35.6503 235.627 35.2606C235.221 34.8699 234.903 34.3568 234.672 33.7214C234.439 33.0807 234.352 32.4791 234.41 31.9168C234.471 31.3534 234.662 30.8638 234.982 30.448C235.305 30.0312 235.744 29.7218 236.299 29.5198C236.855 29.3177 237.389 29.2731 237.901 29.3859C238.417 29.4977 238.877 29.7503 239.284 30.1437C239.692 30.5361 240.013 31.0527 240.246 31.6934C240.478 32.3288 240.562 32.9268 240.5 33.4875C240.441 34.0472 240.25 34.5355 239.927 34.9522C239.606 35.3681 239.168 35.677 238.613 35.879ZM238.304 35.0301C238.726 34.8766 239.034 34.6422 239.227 34.3269C239.421 34.0116 239.519 33.6539 239.522 33.2539C239.524 32.8539 239.451 32.4484 239.301 32.0372C239.152 31.6261 238.947 31.2668 238.687 30.9593C238.427 30.6518 238.121 30.4382 237.769 30.3183C237.417 30.1985 237.03 30.2153 236.608 30.3687C236.187 30.5222 235.879 30.7579 235.687 31.0759C235.494 31.3939 235.397 31.7542 235.395 32.1569C235.394 32.5596 235.468 32.9665 235.617 33.3776C235.767 33.7887 235.971 34.1467 236.23 34.4515C236.489 34.7563 236.794 34.9673 237.145 35.0845C237.496 35.2017 237.882 35.1835 238.304 35.0301ZM242.796 34.212L240.558 28.061L241.504 27.7171L243.741 33.8682L242.796 34.212ZM240.666 26.861C240.482 26.928 240.3 26.923 240.121 26.8461C239.945 26.7683 239.824 26.6412 239.76 26.465C239.696 26.2888 239.707 26.1142 239.792 25.9411C239.88 25.7671 240.016 25.6465 240.2 25.5795C240.384 25.5125 240.564 25.5179 240.741 25.5958C240.92 25.6727 241.042 25.7993 241.106 25.9755C241.17 26.1517 241.158 26.3268 241.07 26.5008C240.985 26.6739 240.85 26.794 240.666 26.861ZM248.093 26.8798L247.331 27.4289C247.226 27.3069 247.097 27.198 246.945 27.1024C246.794 27.0032 246.614 26.9416 246.406 26.9176C246.198 26.8936 245.956 26.9316 245.681 27.0316C245.305 27.1686 245.022 27.3695 244.835 27.6343C244.649 27.8955 244.604 28.1583 244.7 28.4226C244.785 28.6575 244.938 28.812 245.159 28.886C245.379 28.9599 245.687 28.9763 246.083 28.935L247.078 28.827C247.676 28.7604 248.161 28.8156 248.53 28.9924C248.899 29.1667 249.161 29.4687 249.318 29.8985C249.446 30.2509 249.459 30.6028 249.357 30.9543C249.258 31.3048 249.057 31.6257 248.755 31.917C248.453 32.2083 248.063 32.4409 247.585 32.6148C246.958 32.843 246.389 32.8958 245.879 32.773C245.369 32.6503 244.964 32.3472 244.664 31.8638L245.479 31.3132C245.685 31.6131 245.937 31.8027 246.235 31.8817C246.535 31.9598 246.879 31.9285 247.266 31.7876C247.707 31.6274 248.023 31.4067 248.213 31.1256C248.406 30.8409 248.454 30.5663 248.358 30.302C248.281 30.0885 248.141 29.9368 247.939 29.847C247.736 29.7546 247.466 29.7287 247.131 29.7692L246.018 29.9019C245.406 29.9734 244.917 29.917 244.551 29.7329C244.186 29.5451 243.927 29.2389 243.772 28.8145C243.646 28.4674 243.632 28.1249 243.729 27.787C243.83 27.4482 244.022 27.141 244.306 26.8655C244.592 26.589 244.951 26.3721 245.384 26.2147C245.993 25.9933 246.519 25.9529 246.963 26.0936C247.41 26.2333 247.787 26.4954 248.093 26.8798ZM253.984 24.7363L253.223 25.2854C253.118 25.1634 252.989 25.0545 252.836 24.9589C252.685 24.8597 252.506 24.7981 252.298 24.7741C252.089 24.7501 251.848 24.7881 251.573 24.8881C251.196 25.0251 250.914 25.226 250.726 25.4908C250.54 25.752 250.495 26.0147 250.591 26.279C250.677 26.514 250.83 26.6684 251.05 26.7424C251.271 26.8164 251.579 26.8328 251.975 26.7914L252.97 26.6835C253.568 26.6169 254.052 26.6721 254.422 26.8489C254.791 27.0231 255.053 27.3252 255.21 27.755C255.338 28.1074 255.351 28.4593 255.249 28.8108C255.15 29.1613 254.949 29.4822 254.647 29.7735C254.345 30.0648 253.955 30.2974 253.477 30.4712C252.85 30.6995 252.281 30.7523 251.771 30.6295C251.26 30.5068 250.855 30.2037 250.556 29.7203L251.371 29.1697C251.577 29.4696 251.829 29.6591 252.127 29.7382C252.427 29.8163 252.771 29.785 253.158 29.6441C253.598 29.4839 253.914 29.2632 254.105 28.9821C254.298 28.6974 254.346 28.4228 254.25 28.1585C254.172 27.945 254.032 27.7933 253.83 27.7035C253.628 27.6111 253.358 27.5851 253.022 27.6257L251.91 27.7584C251.298 27.8299 250.809 27.7735 250.442 27.5894C250.078 27.4016 249.818 27.0954 249.664 26.6709C249.538 26.3239 249.523 25.9814 249.621 25.6435C249.722 25.3047 249.914 24.9975 250.197 24.722C250.484 24.4455 250.843 24.2285 251.276 24.0712C251.884 23.8497 252.411 23.8094 252.855 23.9501C253.302 24.0898 253.678 24.3519 253.984 24.7363ZM259.118 28.437C258.729 28.5788 258.348 28.6341 257.977 28.6028C257.605 28.5689 257.274 28.4458 256.986 28.2335C256.696 28.0185 256.478 27.7107 256.332 27.3103C256.204 26.9579 256.17 26.647 256.229 26.3775C256.287 26.1054 256.409 25.8644 256.596 25.6544C256.783 25.4444 257.005 25.2578 257.263 25.0944C257.522 24.9273 257.788 24.7732 258.06 24.6319C258.417 24.4478 258.707 24.3016 258.93 24.193C259.155 24.0809 259.31 23.9746 259.395 23.8744C259.482 23.7732 259.498 23.6465 259.442 23.4943L259.431 23.4622C259.287 23.0671 259.067 22.7995 258.771 22.6592C258.478 22.518 258.114 22.5266 257.679 22.6849C257.227 22.849 256.91 23.0765 256.725 23.3673C256.541 23.6581 256.437 23.9346 256.415 24.1967L255.401 24.2027C255.425 23.7707 255.533 23.402 255.724 23.0966C255.917 22.7876 256.157 22.5339 256.445 22.3356C256.734 22.1336 257.034 21.9762 257.343 21.8636C257.541 21.7917 257.777 21.7332 258.05 21.688C258.326 21.6391 258.61 21.6431 258.903 21.6999C259.198 21.7556 259.479 21.8999 259.745 22.1326C260.011 22.3653 260.233 22.726 260.411 23.2145L261.885 27.2671L260.94 27.611L260.637 26.778L260.589 26.7955C260.573 26.9523 260.519 27.134 260.424 27.3406C260.33 27.5471 260.178 27.749 259.969 27.9461C259.76 28.1432 259.476 28.3068 259.118 28.437ZM258.954 27.5356C259.327 27.3996 259.616 27.2116 259.819 26.9715C260.024 26.7304 260.15 26.47 260.196 26.1901C260.245 25.9093 260.223 25.6407 260.13 25.3844L259.815 24.5195C259.793 24.5821 259.721 24.6582 259.599 24.7478C259.479 24.8337 259.336 24.9234 259.171 25.0169C259.007 25.1067 258.846 25.1924 258.689 25.274C258.532 25.3519 258.406 25.416 258.31 25.4663C258.076 25.5877 257.865 25.7233 257.678 25.8731C257.492 26.0192 257.359 26.1868 257.28 26.3759C257.202 26.5614 257.207 26.7742 257.295 27.0145C257.414 27.3429 257.626 27.547 257.93 27.6268C258.236 27.7029 258.577 27.6725 258.954 27.5356ZM263.209 22.5955L264.555 26.2957L263.61 26.6396L261.372 20.4886L262.285 20.1564L262.635 21.1175L262.715 21.0883C262.745 20.7235 262.873 20.3929 263.098 20.0965C263.322 19.7975 263.666 19.5634 264.13 19.3944C264.547 19.2429 264.942 19.1958 265.317 19.253C265.69 19.3075 266.026 19.4754 266.325 19.7567C266.623 20.0353 266.867 20.4362 267.058 20.9595L268.48 24.8679L267.535 25.2118L266.136 21.3674C265.96 20.8842 265.698 20.5534 265.349 20.3751C264.999 20.194 264.605 20.1832 264.167 20.3425C263.865 20.4522 263.619 20.6157 263.429 20.833C263.242 21.0493 263.126 21.3077 263.081 21.6082C263.036 21.9087 263.079 22.2378 263.209 22.5955ZM270.644 17.1154L270.935 17.9163L267.748 19.076L267.456 18.2751L270.644 17.1154ZM267.849 16.4634L268.794 16.1196L270.927 21.9823C271.024 22.2492 271.136 22.4354 271.262 22.5407C271.389 22.6424 271.523 22.6936 271.662 22.6943C271.803 22.6913 271.943 22.6646 272.082 22.6141C272.186 22.5762 272.27 22.5398 272.332 22.5048C272.394 22.4672 272.444 22.4371 272.481 22.4145L272.982 23.1936C272.927 23.2409 272.846 23.2975 272.74 23.3633C272.635 23.4317 272.494 23.498 272.318 23.5621C272.051 23.6592 271.769 23.697 271.471 23.6755C271.175 23.653 270.901 23.5548 270.647 23.3811C270.396 23.2064 270.205 22.9401 270.075 22.5824L267.849 16.4634Z" fill="#8E8E8E"/>
<path d="M99.1467 266.333L100.398 266.495L102.409 274.06L102.511 274.073L106.382 267.269L107.633 267.431L106.513 276.086L105.532 275.959L106.383 269.383L106.299 269.372L102.743 275.598L101.796 275.476L99.9426 268.55L99.8581 268.539L99.0072 275.115L98.0267 274.988L99.1467 266.333ZM110.37 276.74C109.958 276.686 109.595 276.561 109.28 276.362C108.965 276.161 108.728 275.9 108.569 275.579C108.41 275.254 108.358 274.881 108.413 274.458C108.461 274.087 108.574 273.795 108.75 273.582C108.927 273.368 109.146 273.21 109.408 273.109C109.671 273.008 109.954 272.945 110.258 272.918C110.566 272.889 110.873 272.875 111.179 272.874C111.58 272.874 111.905 272.878 112.153 272.884C112.405 272.888 112.591 272.865 112.712 272.815C112.836 272.765 112.908 272.66 112.929 272.499L112.934 272.465C112.988 272.048 112.915 271.709 112.717 271.449C112.522 271.189 112.194 271.029 111.735 270.969C111.259 270.908 110.872 270.964 110.575 271.137C110.277 271.311 110.058 271.509 109.918 271.731L109.015 271.271C109.235 270.898 109.5 270.62 109.81 270.437C110.123 270.251 110.453 270.136 110.8 270.092C111.15 270.046 111.488 270.044 111.815 270.086C112.023 270.113 112.26 270.169 112.523 270.255C112.791 270.338 113.041 270.472 113.275 270.657C113.512 270.843 113.695 271.1 113.824 271.429C113.953 271.758 113.985 272.18 113.918 272.696L113.364 276.973L112.367 276.843L112.481 275.964L112.43 275.958C112.344 276.09 112.212 276.226 112.033 276.366C111.855 276.507 111.627 276.616 111.351 276.695C111.074 276.774 110.747 276.789 110.37 276.74ZM110.638 275.863C111.032 275.914 111.375 275.88 111.665 275.76C111.958 275.64 112.19 275.467 112.36 275.24C112.532 275.013 112.636 274.764 112.671 274.494L112.789 273.581C112.74 273.626 112.641 273.661 112.492 273.684C112.346 273.705 112.178 273.72 111.988 273.727C111.802 273.731 111.619 273.733 111.442 273.733C111.267 273.731 111.126 273.729 111.017 273.73C110.753 273.73 110.504 273.754 110.269 273.8C110.037 273.845 109.842 273.933 109.684 274.064C109.53 274.193 109.437 274.385 109.404 274.638C109.359 274.985 109.453 275.263 109.687 275.474C109.923 275.682 110.24 275.812 110.638 275.863ZM114.87 279.642L116.025 270.717L116.988 270.841L116.855 271.873L116.973 271.888C117.061 271.785 117.181 271.654 117.333 271.496C117.489 271.336 117.698 271.203 117.961 271.096C118.227 270.987 118.571 270.96 118.994 271.015C119.541 271.086 120.005 271.285 120.386 271.612C120.768 271.939 121.043 272.369 121.212 272.9C121.381 273.432 121.421 274.039 121.333 274.721C121.244 275.408 121.05 275.989 120.751 276.463C120.452 276.934 120.078 277.281 119.628 277.504C119.179 277.723 118.683 277.798 118.143 277.728C117.726 277.674 117.401 277.562 117.168 277.392C116.935 277.218 116.763 277.034 116.651 276.839C116.539 276.641 116.454 276.479 116.396 276.351L116.311 276.34L115.867 279.771L114.87 279.642ZM116.585 274.089C116.522 274.58 116.538 275.021 116.633 275.415C116.728 275.805 116.901 276.124 117.149 276.371C117.399 276.615 117.723 276.763 118.123 276.815C118.54 276.869 118.902 276.804 119.21 276.62C119.52 276.434 119.77 276.163 119.96 275.806C120.152 275.447 120.278 275.037 120.338 274.575C120.397 274.118 120.38 273.698 120.286 273.314C120.196 272.927 120.024 272.608 119.77 272.357C119.519 272.104 119.182 271.95 118.76 271.896C118.354 271.843 118 271.902 117.697 272.072C117.395 272.239 117.149 272.497 116.961 272.845C116.773 273.19 116.648 273.605 116.585 274.089ZM124.554 269.62L123.434 278.276L122.437 278.146L123.557 269.491L124.554 269.62ZM127.965 278.999C127.34 278.918 126.818 278.71 126.4 278.376C125.985 278.038 125.688 277.605 125.507 277.074C125.33 276.541 125.284 275.942 125.37 275.278C125.456 274.613 125.653 274.042 125.961 273.567C126.272 273.088 126.664 272.735 127.138 272.507C127.615 272.277 128.146 272.199 128.732 272.275C129.07 272.319 129.397 272.418 129.712 272.574C130.027 272.729 130.303 272.951 130.541 273.24C130.779 273.525 130.951 273.886 131.058 274.321C131.165 274.756 131.18 275.276 131.101 275.882L131.047 276.304L126.043 275.657L126.154 274.795L130.144 275.311C130.191 274.945 130.16 274.608 130.051 274.302C129.945 273.996 129.768 273.743 129.522 273.542C129.279 273.341 128.977 273.218 128.616 273.171C128.219 273.12 127.862 273.174 127.547 273.333C127.234 273.491 126.98 273.716 126.785 274.008C126.589 274.301 126.468 274.626 126.422 274.984L126.348 275.559C126.284 276.049 126.315 276.475 126.44 276.838C126.568 277.199 126.773 277.487 127.054 277.704C127.336 277.918 127.678 278.051 128.081 278.103C128.343 278.137 128.584 278.131 128.805 278.085C129.029 278.037 129.228 277.948 129.403 277.819C129.577 277.687 129.721 277.514 129.835 277.299L130.764 277.694C130.62 278.008 130.412 278.273 130.141 278.49C129.87 278.704 129.549 278.858 129.179 278.95C128.809 279.04 128.405 279.056 127.965 278.999Z" fill="#8E8E8E"/>
<path d="M202.918 55.5045L300.3 18.2701M198.892 35.4219L295.701 1.05164" stroke="#C4C4C4"/>
</svg>
