<svg width="343" height="324" viewBox="0 0 343 324" fill="none" xmlns="http://www.w3.org/2000/svg">
<path d="M231.552 30.294C231.901 30.3756 232.235 30.521 232.555 30.7301C232.874 30.9392 233.144 31.2274 233.364 31.5945C233.585 31.9589 233.724 32.4199 233.781 32.9775C233.839 33.5352 233.779 34.2047 233.603 34.9862C233.432 35.7427 233.208 36.3984 232.931 36.9533C232.658 37.5061 232.342 37.953 231.982 38.2941C231.625 38.6358 231.232 38.8674 230.803 38.9888C230.376 39.1109 229.923 39.1178 229.444 39.0095C228.967 38.9019 228.563 38.7116 228.232 38.4386C227.903 38.1635 227.658 37.83 227.496 37.4381C227.338 37.0441 227.276 36.6151 227.311 36.1512L228.325 36.3803C228.328 36.7916 228.437 37.1555 228.651 37.4718C228.868 37.7859 229.201 37.9937 229.65 38.0951C230.307 38.2434 230.89 38.0737 231.399 37.5858C231.911 37.0986 232.286 36.3312 232.522 35.2837L232.456 35.2687C232.248 35.4664 232.018 35.6257 231.767 35.7466C231.515 35.8674 231.249 35.9441 230.968 35.9767C230.686 36.0093 230.399 35.9925 230.105 35.9261C229.618 35.8159 229.197 35.5943 228.844 35.2612C228.495 34.926 228.246 34.5188 228.098 34.0397C227.953 33.5585 227.943 33.0436 228.067 32.4949C228.185 31.974 228.409 31.5236 228.739 31.1439C229.073 30.7621 229.481 30.4902 229.963 30.3282C230.448 30.1669 230.978 30.1555 231.552 30.294ZM231.346 31.2085C230.997 31.1296 230.662 31.1458 230.343 31.2572C230.027 31.3664 229.754 31.5494 229.524 31.8062C229.298 32.0609 229.145 32.3656 229.065 32.7203C228.984 33.075 228.989 33.4153 229.079 33.7413C229.171 34.0652 229.334 34.3437 229.567 34.5769C229.803 34.8079 230.096 34.9628 230.445 35.0417C230.708 35.1012 230.965 35.1053 231.215 35.0541C231.466 35.0001 231.697 34.9022 231.906 34.7602C232.12 34.6161 232.301 34.44 232.45 34.232C232.599 34.0211 232.702 33.7896 232.759 33.5374C232.834 33.2049 232.825 32.875 232.73 32.5477C232.637 32.2211 232.472 31.9361 232.232 31.6927C231.996 31.45 231.7 31.2886 231.346 31.2085ZM235.643 39.0642L235.475 39.4981C235.356 39.8034 235.208 40.1252 235.029 40.4635C234.854 40.8025 234.679 41.1197 234.504 41.4152C234.33 41.7107 234.188 41.9452 234.079 42.1186L233.331 41.9496C233.407 41.7804 233.507 41.5569 233.631 41.279C233.755 41.0012 233.886 40.6888 234.026 40.3417C234.168 39.998 234.3 39.6435 234.424 39.2781L234.579 38.8238L235.643 39.0642ZM241.079 32.5683L239.156 41.0811L238.125 40.8482L239.804 33.4162L239.754 33.4049L237.364 34.3154L237.601 33.268L240.048 32.3354L241.079 32.5683ZM244.305 42.3664C243.734 42.2375 243.252 42.0224 242.86 41.7212C242.472 41.4179 242.196 41.06 242.033 40.6474C241.87 40.2321 241.842 39.7947 241.949 39.3353C242.027 38.9745 242.173 38.6579 242.386 38.3856C242.6 38.1106 242.854 37.8987 243.15 37.75C243.449 37.5991 243.76 37.531 244.083 37.5457L244.094 37.4958C243.711 37.2985 243.438 36.9967 243.277 36.5903C243.116 36.1811 243.088 35.751 243.192 35.3C243.287 34.867 243.484 34.5052 243.783 34.2144C244.081 33.9237 244.447 33.7237 244.879 33.6146C245.315 33.5061 245.781 33.5082 246.28 33.6209C246.774 33.7323 247.192 33.9302 247.535 34.2146C247.879 34.499 248.123 34.8366 248.268 35.2275C248.415 35.6191 248.442 36.0313 248.347 36.4642C248.242 36.9153 248.027 37.2906 247.703 37.5902C247.383 37.8877 247.011 38.044 246.588 38.0592L246.577 38.1091C246.872 38.234 247.12 38.4282 247.319 38.6917C247.52 38.9525 247.658 39.2533 247.736 39.594C247.814 39.932 247.813 40.2815 247.735 40.6423C247.628 41.1017 247.411 41.4837 247.083 41.7882C246.758 42.0906 246.355 42.2952 245.874 42.402C245.396 42.5066 244.873 42.4948 244.305 42.3664ZM244.511 41.452C244.897 41.539 245.243 41.5518 245.551 41.4903C245.859 41.4288 246.115 41.3017 246.319 41.1089C246.523 40.9161 246.66 40.6676 246.732 40.3634C246.802 40.0413 246.783 39.7385 246.675 39.4549C246.567 39.1714 246.388 38.927 246.137 38.7218C245.889 38.5173 245.585 38.3743 245.225 38.2929C244.862 38.2109 244.522 38.2084 244.204 38.2852C243.89 38.3627 243.623 38.5063 243.404 38.716C243.187 38.9263 243.044 39.1925 242.974 39.5146C242.903 39.8188 242.916 40.1014 243.014 40.3624C243.115 40.6241 243.293 40.8492 243.548 41.0377C243.802 41.2263 244.123 41.3643 244.511 41.452ZM245.424 37.4117C245.729 37.4806 246.013 37.4807 246.276 37.4119C246.542 37.3438 246.767 37.2157 246.952 37.0274C247.138 36.8392 247.265 36.5985 247.334 36.3054C247.396 36.0166 247.385 35.7504 247.3 35.507C247.216 35.2608 247.069 35.0529 246.86 34.8834C246.651 34.711 246.391 34.5894 246.077 34.5187C245.759 34.4467 245.467 34.4434 245.202 34.5087C244.937 34.5713 244.715 34.6959 244.536 34.8826C244.358 35.0666 244.237 35.303 244.175 35.5918C244.106 35.8849 244.113 36.1559 244.197 36.4049C244.283 36.6545 244.432 36.8672 244.642 37.0429C244.853 37.2187 245.114 37.3416 245.424 37.4117Z" fill="black"/>
<path d="M203.353 27.199C203.711 27.1986 204.07 27.2635 204.429 27.3938C204.788 27.5241 205.117 27.7427 205.415 28.0497C205.713 28.3538 205.954 28.7707 206.138 29.3003C206.322 29.8299 206.417 30.4952 206.425 31.2963C206.432 32.0719 206.364 32.7614 206.222 33.365C206.082 33.9657 205.877 34.4733 205.605 34.8877C205.336 35.3021 205.006 35.6176 204.616 35.8342C204.229 36.0508 203.79 36.1613 203.298 36.1658C202.81 36.1702 202.373 36.0776 201.987 35.8879C201.605 35.6953 201.29 35.4269 201.043 35.0825C200.798 34.7353 200.639 34.3319 200.567 33.8723L201.607 33.8628C201.704 34.2625 201.893 34.5918 202.174 34.8506C202.458 35.1066 202.83 35.2325 203.29 35.2283C203.963 35.2222 204.492 34.9234 204.875 34.3318C205.262 33.7402 205.451 32.9075 205.441 31.8337L205.373 31.8343C205.216 32.0744 205.029 32.282 204.812 32.4573C204.594 32.6326 204.353 32.7683 204.087 32.8645C203.82 32.9606 203.537 33.0101 203.236 33.0128C202.736 33.0173 202.276 32.8979 201.856 32.6546C201.439 32.4083 201.103 32.069 200.849 31.6367C200.598 31.2014 200.47 30.7026 200.465 30.1401C200.46 29.606 200.575 29.1163 200.81 28.671C201.047 28.2228 201.382 27.8646 201.814 27.5965C202.249 27.3283 202.762 27.1958 203.353 27.199ZM203.362 28.1365C203.004 28.1397 202.682 28.2321 202.397 28.4137C202.114 28.5924 201.891 28.8331 201.726 29.1357C201.564 29.4355 201.484 29.7672 201.488 30.1308C201.491 30.4944 201.574 30.8247 201.735 31.1215C201.9 31.4155 202.122 31.6493 202.402 31.8229C202.685 31.9936 203.005 32.0774 203.363 32.0741C203.633 32.0717 203.884 32.0168 204.116 31.9096C204.348 31.7996 204.55 31.6514 204.722 31.4652C204.896 31.2761 205.032 31.0632 205.129 30.8265C205.226 30.587 205.274 30.338 205.272 30.0795C205.268 29.7386 205.183 29.4197 205.016 29.1229C204.851 28.8261 204.624 28.5867 204.336 28.4046C204.05 28.2226 203.725 28.1332 203.362 28.1365ZM209.345 34.7984L209.281 35.2593C209.235 35.5835 209.165 35.9308 209.069 36.301C208.975 36.6712 208.878 37.0201 208.775 37.3477C208.673 37.6754 208.589 37.9361 208.523 38.1299L207.756 38.1368C207.791 37.9547 207.837 37.7142 207.894 37.4154C207.951 37.1166 208.007 36.7822 208.064 36.4124C208.123 36.0453 208.171 35.6699 208.207 35.286L208.254 34.8083L209.345 34.7984ZM213.148 27.2296L213.227 35.9565L212.17 35.9661L212.101 28.347L212.05 28.3475L209.932 29.7815L209.922 28.7077L212.091 27.2391L213.148 27.2296ZM218.435 27.0623C218.793 27.0619 219.151 27.1268 219.51 27.2571C219.87 27.3874 220.198 27.606 220.496 27.913C220.795 28.2171 221.036 28.634 221.22 29.1636C221.403 29.6932 221.499 30.3585 221.506 31.1596C221.513 31.9352 221.445 32.6247 221.303 33.2283C221.164 33.8291 220.958 34.3366 220.686 34.751C220.417 35.1654 220.088 35.4809 219.698 35.6975C219.31 35.9141 218.871 36.0246 218.38 36.0291C217.891 36.0335 217.454 35.9409 217.069 35.7512C216.686 35.5586 216.371 35.2902 216.124 34.9458C215.879 34.5986 215.721 34.1952 215.649 33.7356L216.688 33.7261C216.786 34.1258 216.975 34.4551 217.255 34.7139C217.539 34.9699 217.911 35.0958 218.371 35.0916C219.044 35.0855 219.573 34.7867 219.957 34.1951C220.344 33.6035 220.532 32.7708 220.522 31.697L220.454 31.6976C220.297 31.9377 220.11 32.1454 219.893 32.3206C219.676 32.4959 219.434 32.6316 219.168 32.7278C218.902 32.8239 218.618 32.8734 218.317 32.8761C217.817 32.8807 217.357 32.7612 216.937 32.5179C216.52 32.2716 216.185 31.9323 215.931 31.5C215.68 31.0647 215.552 30.5659 215.546 30.0034C215.542 29.4693 215.657 28.9796 215.891 28.5343C216.129 28.0861 216.463 27.7279 216.896 27.4598C217.331 27.1916 217.844 27.0591 218.435 27.0623ZM218.443 27.9998C218.085 28.003 217.764 28.0954 217.478 28.277C217.196 28.4557 216.972 28.6964 216.807 28.999C216.645 29.2988 216.566 29.6305 216.569 29.9941C216.572 30.3577 216.655 30.688 216.817 30.9848C216.981 31.2788 217.204 31.5126 217.484 31.6862C217.767 31.8569 218.087 31.9407 218.445 31.9374C218.715 31.935 218.966 31.8801 219.198 31.7729C219.43 31.6629 219.631 31.5147 219.803 31.3285C219.977 31.1394 220.113 30.9265 220.211 30.6898C220.308 30.4503 220.355 30.2013 220.353 29.9428C220.35 29.6019 220.265 29.283 220.097 28.9862C219.932 28.6894 219.706 28.45 219.417 28.2679C219.132 28.0859 218.807 27.9965 218.443 27.9998Z" fill="black"/>
<path d="M155.94 46.2245L155.791 45.4722L158.002 41.818C158.261 41.3899 158.472 41.0208 158.633 40.7107C158.794 40.3978 158.903 40.1127 158.959 39.8554C159.017 39.5947 159.02 39.3334 158.968 39.0715C158.908 38.7705 158.784 38.5244 158.596 38.333C158.41 38.1411 158.181 38.0099 157.909 37.9393C157.637 37.8687 157.347 37.8642 157.038 37.9256C156.709 37.9909 156.435 38.1162 156.217 38.3014C156.001 38.4833 155.851 38.7087 155.765 38.9777C155.682 39.2462 155.673 39.5434 155.738 39.8694L154.751 40.0653C154.652 39.5637 154.68 39.1005 154.836 38.6756C154.992 38.2507 155.248 37.8928 155.605 37.6019C155.964 37.3105 156.393 37.1152 156.892 37.0161C157.393 36.9165 157.859 36.9342 158.288 37.069C158.718 37.2039 159.078 37.4292 159.369 37.7449C159.661 38.0606 159.85 38.4386 159.938 38.8789C160 39.1938 160.004 39.513 159.95 39.8367C159.898 40.1569 159.769 40.5287 159.563 40.9518C159.36 41.3716 159.065 41.8936 158.679 42.5176L157.165 44.9559L157.178 45.0228L161.158 44.2325L161.34 45.1521L155.94 46.2245ZM163.066 44.8092L162.917 44.0569L165.128 40.4027C165.388 39.9746 165.598 39.6055 165.76 39.2954C165.921 38.9825 166.029 38.6974 166.085 38.4401C166.144 38.1794 166.147 37.9181 166.095 37.6562C166.035 37.3552 165.911 37.1091 165.722 36.9177C165.536 36.7258 165.307 36.5946 165.036 36.524C164.764 36.4535 164.473 36.4489 164.164 36.5103C163.835 36.5756 163.562 36.7009 163.344 36.8861C163.128 37.068 162.977 37.2935 162.891 37.5624C162.809 37.8309 162.8 38.1281 162.864 38.4541L161.878 38.65C161.778 38.1485 161.807 37.6852 161.963 37.2603C162.119 36.8354 162.375 36.4775 162.731 36.1866C163.09 35.8952 163.519 35.6999 164.018 35.6008C164.52 35.5012 164.985 35.5189 165.415 35.6537C165.844 35.7886 166.204 36.0139 166.496 36.3296C166.787 36.6453 166.977 37.0233 167.064 37.4636C167.127 37.7785 167.131 38.0977 167.076 38.4214C167.024 38.7416 166.895 39.1134 166.69 39.5365C166.486 39.9563 166.192 40.4783 165.806 41.1023L164.292 43.5406L164.305 43.6075L168.284 42.8172L168.467 43.7368L163.066 44.8092ZM171.448 41.9281L171.471 42.3928C171.487 42.7199 171.482 43.0742 171.456 43.4558C171.434 43.8369 171.402 44.1979 171.363 44.5388C171.324 44.8797 171.289 45.1515 171.26 45.3543L170.508 45.5037C170.508 45.3182 170.509 45.0733 170.509 44.7691C170.51 44.4649 170.503 44.1259 170.49 43.752C170.48 43.3804 170.457 43.0026 170.421 42.6187L170.378 42.1406L171.448 41.9281ZM173.587 42.7199L175.911 34.3859L175.898 34.319L171.484 35.1956L171.302 34.276L176.785 33.1869L176.978 34.1566L174.674 42.5041L173.587 42.7199ZM178.804 39.859L178.635 39.0063L181.215 32.3073L181.833 32.1844L182.096 33.5052L181.678 33.5882L179.729 38.6501L179.742 38.7169L184.808 37.7109L184.991 38.6304L178.804 39.859ZM183.182 40.8142L182.782 38.7996L182.703 38.4025L181.482 32.2541L182.469 32.0582L184.169 40.6183L183.182 40.8142Z" fill="black"/>
<path d="M90.9433 64.574L90.747 63.8325L92.7246 60.0468C92.9569 59.6032 93.1438 59.2216 93.2855 58.902C93.4264 58.5796 93.5168 58.2883 93.5566 58.0279C93.5984 57.7641 93.5852 57.5031 93.5168 57.245C93.4383 56.9484 93.2989 56.7105 93.0986 56.5314C92.9011 56.3515 92.6645 56.2349 92.3888 56.1815C92.1132 56.1281 91.8229 56.1418 91.5181 56.2225C91.194 56.3083 90.9289 56.4505 90.7229 56.6491C90.5189 56.8442 90.3826 57.0786 90.314 57.3524C90.2482 57.6255 90.2579 57.9228 90.3429 58.2441L89.3707 58.5015C89.2399 58.0072 89.2389 57.5431 89.368 57.1092C89.497 56.6754 89.7303 56.3021 90.0677 55.9894C90.4079 55.676 90.8238 55.4542 91.3154 55.324C91.8097 55.1931 92.2754 55.1815 92.7124 55.2891C93.1494 55.3968 93.5233 55.599 93.834 55.8958C94.1448 56.1927 94.3576 56.558 94.4725 56.992C94.5547 57.3023 94.5787 57.6206 94.5447 57.9471C94.5126 58.27 94.4073 58.6491 94.2286 59.0843C94.052 59.5161 93.7907 60.0554 93.4448 60.7025L92.0865 63.2309L92.104 63.2969L96.0257 62.2585L96.2656 63.1648L90.9433 64.574ZM100.749 62.101C100.129 62.2654 99.5552 62.2364 99.0291 62.0143C98.5023 61.7893 98.0381 61.3847 97.6365 60.8004C97.2342 60.2134 96.9116 59.4613 96.6688 58.544C96.4274 57.6322 96.3366 56.8231 96.3964 56.1167C96.4582 55.4067 96.6623 54.8237 97.0088 54.3675C97.3573 53.9079 97.8392 53.5967 98.4543 53.4338C99.0695 53.2709 99.6409 53.3033 100.168 53.531C100.698 53.7552 101.164 54.1608 101.566 54.7478C101.971 55.3314 102.293 56.079 102.535 56.9908C102.778 57.9081 102.87 58.7213 102.811 59.4305C102.751 60.1369 102.548 60.7182 102.201 61.1744C101.854 61.6278 101.37 61.9367 100.749 62.101ZM100.509 61.1947C101.124 61.0319 101.524 60.6087 101.707 59.9254C101.891 59.242 101.837 58.3511 101.546 57.2526C101.353 56.5221 101.11 55.9208 100.817 55.4487C100.527 54.9758 100.201 54.6434 99.839 54.4513C99.4794 54.2585 99.0964 54.216 98.6899 54.3236C98.0803 54.485 97.6834 54.9119 97.4994 55.6042C97.3146 56.2938 97.3673 57.1865 97.6574 58.2822C97.8509 59.0127 98.0921 59.613 98.3811 60.0831C98.6702 60.5532 98.9941 60.8833 99.353 61.0733C99.7147 61.2626 100.1 61.3031 100.509 61.1947ZM106.084 59.3308L106.136 59.7932C106.172 60.1186 106.189 60.4726 106.187 60.8551C106.189 61.2368 106.18 61.599 106.162 61.9417C106.144 62.2845 106.127 62.5579 106.111 62.7621L105.369 62.9585C105.358 62.7733 105.343 62.5288 105.325 62.2252C105.306 61.9216 105.278 61.5836 105.241 61.2113C105.208 60.8411 105.162 60.4655 105.102 60.0845L105.029 59.6101L106.084 59.3308ZM110.646 59.4805C110.08 59.6303 109.554 59.6624 109.067 59.5768C108.582 59.4878 108.172 59.2981 107.836 59.0078C107.5 58.7148 107.273 58.34 107.155 57.8834C107.058 57.5271 107.041 57.179 107.103 56.8391C107.166 56.4965 107.293 56.1908 107.487 55.9221C107.682 55.65 107.926 55.4457 108.219 55.3094L108.206 55.2599C107.775 55.2625 107.393 55.121 107.062 54.8355C106.73 54.5472 106.506 54.1789 106.391 53.7305C106.274 53.3028 106.281 52.891 106.412 52.495C106.542 52.0991 106.773 51.7527 107.106 51.4559C107.442 51.1584 107.857 50.9442 108.351 50.8133C108.84 50.6839 109.303 50.6657 109.739 50.7589C110.175 50.8521 110.547 51.0385 110.857 51.3181C111.168 51.597 111.382 51.9503 111.499 52.378C111.614 52.8264 111.598 53.2583 111.449 53.6738C111.303 54.0859 111.046 54.3964 110.678 54.6055L110.691 54.6549C111.01 54.6291 111.319 54.6869 111.618 54.8281C111.917 54.9666 112.179 55.169 112.405 55.4353C112.631 55.6989 112.792 56.0088 112.889 56.3651C113.007 56.8217 112.991 57.2609 112.841 57.6826C112.694 58.1009 112.431 58.4687 112.054 58.7861C111.678 59.1 111.209 59.3315 110.646 59.4805ZM110.406 58.5743C110.788 58.4732 111.101 58.3241 111.346 58.1271C111.59 57.9301 111.758 57.699 111.85 57.4338C111.941 57.1686 111.948 56.8846 111.871 56.5818C111.784 56.264 111.627 56.0043 111.4 55.8028C111.174 55.6012 110.902 55.4675 110.584 55.4016C110.27 55.335 109.934 55.349 109.577 55.4435C109.217 55.5388 108.915 55.6939 108.669 55.9088C108.426 56.1231 108.256 56.3738 108.158 56.6612C108.064 56.9478 108.06 57.25 108.147 57.5678C108.224 57.8706 108.367 58.115 108.575 58.3009C108.786 58.4861 109.047 58.6034 109.36 58.6529C109.673 58.7023 110.022 58.6761 110.406 58.5743ZM109.346 54.5702C109.648 54.4902 109.9 54.3589 110.101 54.1763C110.305 53.9929 110.446 53.7749 110.523 53.5223C110.6 53.2697 110.602 52.9975 110.527 52.7057C110.449 52.4208 110.316 52.1901 110.128 52.0135C109.94 51.8342 109.713 51.7178 109.449 51.6643C109.185 51.608 108.897 51.6209 108.587 51.7031C108.271 51.7867 108.011 51.9188 107.806 52.0995C107.6 52.2773 107.461 52.4905 107.389 52.7389C107.316 52.9845 107.318 53.2498 107.397 53.5346C107.471 53.8265 107.603 54.0634 107.792 54.2455C107.984 54.4268 108.214 54.5466 108.482 54.6049C108.751 54.6632 109.038 54.6516 109.346 54.5702ZM115.483 48.925C115.83 48.8361 116.193 48.8104 116.573 48.8478C116.954 48.8853 117.326 49.0159 117.691 49.2396C118.055 49.4606 118.392 49.8049 118.701 50.2727C119.01 50.7404 119.267 51.3615 119.472 52.136C119.67 52.8857 119.775 53.5706 119.787 54.1906C119.8 54.8071 119.726 55.3498 119.565 55.8185C119.407 56.2865 119.166 56.6737 118.841 56.98C118.52 57.2856 118.121 57.5013 117.646 57.6271C117.174 57.7522 116.727 57.7704 116.307 57.6818C115.889 57.5898 115.517 57.4075 115.193 57.135C114.87 56.859 114.616 56.5073 114.433 56.0799L115.438 55.8137C115.631 56.177 115.896 56.4493 116.232 56.6307C116.57 56.8086 116.961 56.8386 117.406 56.7208C118.057 56.5485 118.495 56.1283 118.721 55.4602C118.949 54.7914 118.926 53.9379 118.651 52.8998L118.585 52.9173C118.493 53.1887 118.363 53.4361 118.196 53.6597C118.029 53.8832 117.828 54.0744 117.594 54.2334C117.36 54.3924 117.097 54.5104 116.806 54.5875C116.323 54.7155 115.847 54.7134 115.38 54.5814C114.916 54.4459 114.507 54.2 114.154 53.8438C113.803 53.4842 113.555 53.0325 113.411 52.4887C113.275 51.9724 113.265 51.4695 113.382 50.98C113.501 50.487 113.737 50.0572 114.09 49.6906C114.445 49.3232 114.91 49.068 115.483 48.925ZM115.723 49.8312C115.377 49.9229 115.088 50.0919 114.857 50.3384C114.627 50.5813 114.47 50.8698 114.385 51.2038C114.302 51.5344 114.307 51.8754 114.4 52.2269C114.493 52.5785 114.655 52.878 114.885 53.1257C115.117 53.3698 115.39 53.5414 115.704 53.6404C116.021 53.736 116.352 53.7379 116.698 53.6463C116.959 53.5772 117.188 53.4621 117.387 53.3008C117.584 53.1368 117.743 52.9434 117.863 52.7206C117.986 52.4942 118.065 52.2544 118.1 52.001C118.135 51.7448 118.12 51.4918 118.054 51.2419C117.966 50.9123 117.805 50.6245 117.569 50.3783C117.336 50.1314 117.058 49.9554 116.733 49.8503C116.411 49.7445 116.074 49.7382 115.723 49.8312Z" fill="black"/>
<path d="M101.497 173.35C101.309 172.796 101.24 172.273 101.292 171.781C101.347 171.291 101.508 170.869 101.774 170.514C102.043 170.159 102.401 169.906 102.848 169.757C103.197 169.635 103.543 169.594 103.887 169.633C104.233 169.671 104.546 169.777 104.828 169.951C105.113 170.127 105.334 170.357 105.49 170.64L105.538 170.623C105.506 170.193 105.621 169.803 105.883 169.453C106.147 169.101 106.499 168.852 106.938 168.706C107.357 168.56 107.768 168.539 108.172 168.641C108.576 168.744 108.938 168.951 109.257 169.262C109.577 169.576 109.82 169.975 109.984 170.459C110.147 170.938 110.198 171.398 110.135 171.84C110.072 172.281 109.912 172.666 109.655 172.994C109.398 173.324 109.06 173.562 108.642 173.708C108.203 173.854 107.771 173.868 107.346 173.749C106.925 173.631 106.597 173.396 106.363 173.043L106.314 173.06C106.362 173.377 106.326 173.689 106.206 173.997C106.088 174.304 105.905 174.58 105.655 174.824C105.408 175.067 105.11 175.25 104.761 175.372C104.314 175.521 103.874 175.536 103.443 175.415C103.016 175.297 102.631 175.06 102.288 174.706C101.949 174.353 101.685 173.901 101.497 173.35ZM102.385 173.048C102.512 173.422 102.682 173.724 102.896 173.954C103.11 174.184 103.352 174.336 103.623 174.409C103.894 174.482 104.177 174.469 104.474 174.371C104.785 174.262 105.033 174.087 105.219 173.847C105.404 173.607 105.518 173.327 105.562 173.006C105.607 172.687 105.569 172.353 105.45 172.004C105.33 171.651 105.155 171.36 104.923 171.13C104.693 170.902 104.431 170.75 104.137 170.673C103.845 170.598 103.543 170.615 103.232 170.724C102.935 170.822 102.701 170.982 102.53 171.202C102.36 171.425 102.261 171.694 102.234 172.01C102.206 172.325 102.257 172.671 102.385 173.048ZM106.306 171.712C106.406 172.008 106.555 172.25 106.751 172.438C106.948 172.629 107.175 172.755 107.433 172.814C107.69 172.873 107.962 172.856 108.248 172.762C108.526 172.664 108.747 172.515 108.91 172.315C109.076 172.115 109.177 171.881 109.212 171.614C109.249 171.346 109.217 171.06 109.113 170.756C109.008 170.447 108.858 170.196 108.664 170.004C108.472 169.812 108.25 169.688 107.997 169.633C107.747 169.577 107.482 169.598 107.203 169.696C106.917 169.79 106.69 169.938 106.522 170.14C106.354 170.344 106.251 170.582 106.211 170.853C106.171 171.125 106.203 171.411 106.306 171.712ZM103.914 180.447C103.804 180.106 103.753 179.745 103.762 179.364C103.77 178.983 103.873 178.603 104.071 178.223C104.272 177.843 104.594 177.482 105.04 177.142C105.487 176.8 106.093 176.499 106.857 176.239C107.588 175.99 108.26 175.838 108.871 175.783C109.485 175.726 110.031 175.763 110.507 175.892C110.985 176.02 111.388 176.234 111.716 176.533C112.044 176.836 112.287 177.22 112.445 177.685C112.603 178.147 112.65 178.59 112.588 179.014C112.528 179.439 112.374 179.822 112.123 180.162C111.873 180.503 111.546 180.779 111.141 180.992L110.806 180.008C111.146 179.79 111.393 179.508 111.548 179.161C111.703 178.814 111.706 178.423 111.558 177.987C111.34 177.347 110.89 176.938 110.208 176.759C109.527 176.583 108.683 176.665 107.676 177.004L107.698 177.069C107.978 177.142 108.234 177.254 108.466 177.406C108.701 177.56 108.906 177.748 109.081 177.971C109.256 178.194 109.391 178.446 109.488 178.728C109.649 179.202 109.678 179.675 109.575 180.148C109.475 180.62 109.258 181.045 108.924 181.423C108.594 181.8 108.162 182.079 107.629 182.26C107.118 182.434 106.612 182.48 106.109 182.396C105.609 182.311 105.163 182.104 104.772 181.775C104.384 181.448 104.099 181.005 103.914 180.447ZM104.802 180.144C104.917 180.483 105.105 180.758 105.366 180.969C105.628 181.183 105.928 181.32 106.267 181.379C106.606 181.44 106.95 181.411 107.3 181.292C107.641 181.176 107.926 180.994 108.153 180.745C108.384 180.498 108.538 180.213 108.614 179.89C108.691 179.57 108.672 179.24 108.556 178.902C108.469 178.646 108.337 178.425 108.16 178.24C107.985 178.053 107.782 177.906 107.55 177.799C107.32 177.695 107.075 177.634 106.817 177.617C106.562 177.598 106.311 177.631 106.063 177.716C105.735 177.828 105.455 178.009 105.222 178.259C104.99 178.512 104.833 178.803 104.749 179.131C104.667 179.462 104.685 179.8 104.802 180.144ZM106.994 185.417L106.536 185.5C106.214 185.559 105.862 185.601 105.48 185.626C105.1 185.654 104.738 185.67 104.395 185.676C104.051 185.682 103.777 185.684 103.573 185.681L103.325 184.955C103.509 184.932 103.752 184.9 104.054 184.86C104.355 184.821 104.691 184.769 105.059 184.707C105.426 184.648 105.798 184.575 106.174 184.489L106.642 184.384L106.994 185.417ZM108.088 186.778L108.911 186.498L115.891 188.172L116.095 188.769L114.82 189.203L114.683 188.8L109.408 187.535L109.343 187.557L111.009 192.446L110.121 192.748L108.088 186.778ZM107.718 191.244L109.662 190.582L110.046 190.451L115.979 188.43L116.304 189.382L108.042 192.196L107.718 191.244ZM109.747 197.57C109.54 196.962 109.529 196.388 109.714 195.848C109.902 195.307 110.273 194.816 110.828 194.375C111.386 193.932 112.114 193.559 113.012 193.253C113.905 192.948 114.706 192.802 115.415 192.812C116.127 192.825 116.723 192.988 117.202 193.302C117.685 193.618 118.029 194.077 118.234 194.679C118.439 195.282 118.446 195.854 118.256 196.396C118.069 196.94 117.697 197.433 117.139 197.875C116.585 198.319 115.861 198.693 114.969 198.997C114.07 199.303 113.265 199.451 112.554 199.441C111.845 199.43 111.251 199.268 110.772 198.954C110.295 198.639 109.954 198.178 109.747 197.57ZM110.634 197.268C110.839 197.87 111.289 198.239 111.984 198.375C112.678 198.51 113.563 198.395 114.639 198.029C115.354 197.785 115.937 197.501 116.388 197.176C116.839 196.854 117.148 196.506 117.315 196.131C117.482 195.759 117.498 195.374 117.363 194.976C117.159 194.379 116.706 194.013 116.002 193.877C115.302 193.741 114.415 193.855 113.342 194.221C112.626 194.464 112.044 194.747 111.595 195.068C111.147 195.389 110.84 195.735 110.675 196.106C110.511 196.48 110.498 196.867 110.634 197.268Z" fill="black"/>
<path d="M165.266 264.464C164.99 264.954 164.659 265.343 164.274 265.632C163.891 265.918 163.486 266.089 163.06 266.145C162.633 266.197 162.214 266.121 161.804 265.916L162.332 264.981C162.588 265.099 162.847 265.135 163.109 265.087C163.369 265.037 163.614 264.92 163.846 264.734C164.078 264.549 164.276 264.31 164.441 264.018C164.625 263.691 164.732 263.37 164.76 263.053C164.789 262.737 164.742 262.449 164.62 262.191C164.498 261.933 164.304 261.729 164.037 261.578C163.757 261.42 163.472 261.351 163.181 261.369C162.887 261.386 162.605 261.494 162.333 261.693C162.061 261.892 161.816 262.184 161.598 262.57L161.255 263.179L160.438 262.718L160.782 262.11C160.952 261.808 161.047 261.512 161.066 261.223C161.087 260.932 161.035 260.666 160.91 260.426C160.786 260.183 160.59 259.986 160.323 259.835C160.066 259.69 159.81 259.621 159.555 259.627C159.3 259.633 159.061 259.71 158.837 259.858C158.615 260.003 158.425 260.216 158.267 260.496C158.119 260.758 158.028 261.032 157.993 261.319C157.957 261.603 157.989 261.868 158.087 262.116C158.183 262.363 158.353 262.563 158.599 262.718L158.096 263.609C157.706 263.369 157.425 263.052 157.253 262.658C157.078 262.263 157.009 261.836 157.046 261.377C157.084 260.916 157.227 260.466 157.474 260.028C157.739 259.558 158.062 259.209 158.442 258.98C158.82 258.749 159.215 258.631 159.626 258.625C160.037 258.619 160.422 258.717 160.781 258.919C161.209 259.161 161.51 259.479 161.685 259.875C161.862 260.268 161.9 260.689 161.8 261.138L161.859 261.171C162.209 260.736 162.625 260.476 163.106 260.392C163.585 260.307 164.065 260.4 164.548 260.673C164.961 260.906 165.268 261.228 165.47 261.639C165.671 262.046 165.757 262.495 165.727 262.987C165.698 263.479 165.544 263.971 165.266 264.464ZM168.912 258.002C168.666 258.438 168.358 258.781 167.988 259.032C167.618 259.283 167.223 259.429 166.802 259.469C166.382 259.509 165.973 259.43 165.576 259.232L166.078 258.341C166.442 258.501 166.814 258.505 167.196 258.355C167.576 258.201 167.876 257.93 168.095 257.542C168.271 257.23 168.354 256.912 168.345 256.587C168.337 256.259 168.245 255.955 168.069 255.672C167.891 255.386 167.64 255.151 167.316 254.969C166.984 254.781 166.647 254.688 166.305 254.687C165.962 254.683 165.644 254.764 165.35 254.931C165.057 255.098 164.818 255.343 164.632 255.666C164.499 255.897 164.4 256.156 164.336 256.443C164.269 256.729 164.248 256.983 164.273 257.205L163.683 258.008L160.202 255.437L162.43 251.488L163.246 251.948L161.454 255.125L163.545 256.657L163.57 256.613C163.534 256.387 163.542 256.134 163.593 255.853C163.644 255.571 163.741 255.303 163.885 255.049C164.147 254.583 164.492 254.232 164.92 253.994C165.347 253.752 165.811 253.635 166.312 253.644C166.814 253.65 167.311 253.792 167.803 254.069C168.288 254.343 168.66 254.696 168.918 255.129C169.175 255.558 169.307 256.024 169.314 256.526C169.318 257.028 169.184 257.52 168.912 258.002ZM170.6 252.339L170.967 252.624C171.226 252.825 171.491 253.06 171.764 253.328C172.038 253.594 172.292 253.852 172.525 254.105C172.758 254.357 172.941 254.56 173.076 254.714L172.699 255.382C172.559 255.261 172.374 255.101 172.143 254.902C171.913 254.704 171.651 254.488 171.359 254.254C171.071 254.02 170.769 253.791 170.455 253.568L170.064 253.289L170.6 252.339ZM170.887 250.616L170.13 250.188L166.73 243.866L167.04 243.317L168.212 243.979L168.003 244.35L170.573 249.127L170.632 249.16L173.17 244.662L173.986 245.123L170.887 250.616ZM174.465 247.917L172.676 246.908L172.323 246.709L166.864 243.629L167.358 242.753L174.959 247.041L174.465 247.917ZM169.99 237.844C170.169 237.534 170.404 237.256 170.696 237.01C170.988 236.764 171.342 236.588 171.757 236.483C172.169 236.376 172.651 236.375 173.201 236.481C173.752 236.586 174.376 236.835 175.074 237.229C175.749 237.61 176.313 238.013 176.765 238.437C177.216 238.858 177.553 239.29 177.776 239.732C178.001 240.172 178.11 240.615 178.103 241.061C178.097 241.505 177.973 241.941 177.732 242.369C177.492 242.794 177.193 243.127 176.837 243.366C176.479 243.601 176.089 243.74 175.667 243.782C175.244 243.821 174.816 243.757 174.381 243.59L174.892 242.685C175.287 242.8 175.667 242.8 176.031 242.686C176.395 242.568 176.689 242.309 176.915 241.908C177.246 241.322 177.251 240.715 176.93 240.087C176.611 239.456 175.983 238.877 175.048 238.35L175.015 238.409C175.144 238.665 175.231 238.931 175.274 239.206C175.318 239.482 175.315 239.759 175.265 240.038C175.216 240.316 175.117 240.587 174.969 240.849C174.723 241.285 174.39 241.623 173.97 241.866C173.548 242.104 173.087 242.225 172.585 242.229C172.083 242.23 171.586 242.092 171.097 241.815C170.631 241.553 170.264 241.209 169.996 240.783C169.726 240.354 169.583 239.885 169.566 239.376C169.551 238.866 169.692 238.355 169.99 237.844ZM170.807 238.305C170.631 238.617 170.55 238.942 170.565 239.28C170.579 239.613 170.676 239.927 170.856 240.221C171.035 240.511 171.282 240.746 171.599 240.925C171.916 241.103 172.243 241.197 172.581 241.205C172.918 241.209 173.232 241.133 173.522 240.977C173.811 240.817 174.043 240.581 174.219 240.27C174.352 240.035 174.43 239.79 174.453 239.535C174.473 239.279 174.445 239.03 174.37 238.789C174.293 238.543 174.176 238.319 174.02 238.117C173.861 237.913 173.669 237.747 173.444 237.62C173.147 237.453 172.828 237.368 172.487 237.365C172.148 237.359 171.827 237.436 171.525 237.595C171.225 237.752 170.985 237.988 170.807 238.305Z" fill="black"/>
<path d="M254.285 234.345C253.84 234.117 253.485 233.824 253.219 233.464C252.953 233.105 252.791 232.715 252.734 232.297C252.677 231.878 252.739 231.467 252.921 231.062L253.831 231.528C253.687 231.897 253.697 232.27 253.863 232.645C254.032 233.019 254.315 233.307 254.712 233.51C255.031 233.673 255.352 233.744 255.677 233.721C256.003 233.7 256.304 233.596 256.579 233.408C256.858 233.218 257.082 232.958 257.252 232.627C257.425 232.288 257.505 231.947 257.492 231.606C257.482 231.262 257.388 230.948 257.209 230.661C257.03 230.375 256.775 230.146 256.445 229.974C256.209 229.85 255.946 229.762 255.657 229.709C255.369 229.655 255.114 229.644 254.893 229.677L254.067 229.121L256.494 225.538L260.531 227.603L260.103 228.438L256.856 226.776L255.411 228.928L255.456 228.951C255.68 228.906 255.934 228.903 256.217 228.943C256.5 228.982 256.771 229.069 257.032 229.202C257.507 229.445 257.873 229.776 258.128 230.194C258.387 230.61 258.523 231.069 258.534 231.57C258.549 232.072 258.427 232.574 258.17 233.077C257.916 233.573 257.578 233.959 257.157 234.234C256.739 234.509 256.278 234.659 255.776 234.687C255.275 234.711 254.779 234.597 254.285 234.345ZM260.891 237.725C260.319 237.432 259.912 237.028 259.669 236.511C259.427 235.992 259.352 235.38 259.444 234.677C259.537 233.972 259.8 233.197 260.232 232.352C260.662 231.512 261.135 230.85 261.651 230.364C262.172 229.877 262.713 229.58 263.276 229.472C263.842 229.363 264.409 229.453 264.975 229.743C265.542 230.033 265.945 230.439 266.185 230.961C266.43 231.481 266.505 232.095 266.412 232.8C266.323 233.504 266.064 234.276 265.634 235.116C265.202 235.961 264.727 236.627 264.209 237.115C263.692 237.601 263.153 237.898 262.59 238.006C262.029 238.111 261.462 238.017 260.891 237.725ZM261.318 236.89C261.884 237.18 262.464 237.132 263.057 236.746C263.651 236.361 264.206 235.662 264.724 234.65C265.068 233.977 265.289 233.368 265.387 232.821C265.487 232.276 265.467 231.81 265.325 231.425C265.187 231.042 264.93 230.754 264.556 230.563C263.994 230.275 263.414 230.328 262.814 230.72C262.216 231.109 261.659 231.809 261.142 232.818C260.798 233.491 260.577 234.098 260.477 234.641C260.378 235.184 260.399 235.646 260.539 236.027C260.681 236.41 260.941 236.697 261.318 236.89ZM266.711 239.228L266.44 239.607C266.25 239.873 266.026 240.148 265.769 240.432C265.515 240.716 265.267 240.98 265.024 241.223C264.782 241.466 264.587 241.658 264.438 241.799L263.755 241.45C263.871 241.305 264.023 241.113 264.212 240.875C264.401 240.636 264.606 240.366 264.828 240.065C265.05 239.767 265.266 239.456 265.477 239.133L265.739 238.731L266.711 239.228ZM273.589 234.285L269.614 242.054L268.673 241.573L272.144 234.79L272.098 234.766L269.557 235.055L270.046 234.099L272.648 233.803L273.589 234.285ZM274.282 244.577C273.761 244.31 273.348 243.983 273.043 243.593C272.742 243.203 272.563 242.788 272.508 242.348C272.453 241.905 272.535 241.475 272.752 241.056C272.918 240.726 273.138 240.455 273.412 240.245C273.687 240.031 273.986 239.889 274.309 239.818C274.637 239.746 274.955 239.758 275.264 239.852L275.287 239.807C274.965 239.52 274.775 239.16 274.72 238.726C274.665 238.29 274.745 237.866 274.958 237.456C275.158 237.06 275.438 236.758 275.8 236.55C276.161 236.343 276.565 236.24 277.011 236.242C277.459 236.244 277.911 236.362 278.366 236.595C278.817 236.826 279.173 237.121 279.435 237.482C279.697 237.843 279.85 238.23 279.893 238.645C279.939 239.061 279.862 239.467 279.662 239.862C279.449 240.273 279.148 240.584 278.76 240.794C278.376 241.002 277.977 241.061 277.563 240.971L277.54 241.017C277.795 241.211 277.986 241.46 278.114 241.765C278.244 242.068 278.304 242.393 278.294 242.743C278.286 243.09 278.199 243.428 278.033 243.758C277.816 244.177 277.51 244.493 277.117 244.706C276.727 244.919 276.286 245.017 275.793 245.001C275.304 244.984 274.801 244.842 274.282 244.577ZM274.709 243.742C275.061 243.922 275.393 244.021 275.707 244.038C276.021 244.054 276.3 243.995 276.545 243.859C276.791 243.722 276.986 243.516 277.131 243.239C277.278 242.944 277.335 242.646 277.301 242.345C277.267 242.043 277.154 241.762 276.962 241.501C276.772 241.241 276.513 241.028 276.185 240.859C275.853 240.69 275.524 240.603 275.198 240.599C274.874 240.596 274.58 240.668 274.315 240.817C274.053 240.967 273.849 241.189 273.701 241.484C273.556 241.761 273.499 242.038 273.53 242.315C273.563 242.594 273.679 242.856 273.879 243.102C274.078 243.348 274.355 243.561 274.709 243.742ZM276.596 240.055C276.874 240.197 277.149 240.268 277.421 240.267C277.696 240.267 277.946 240.198 278.172 240.062C278.398 239.926 278.581 239.724 278.721 239.457C278.853 239.193 278.908 238.932 278.886 238.676C278.866 238.416 278.775 238.178 278.615 237.962C278.455 237.743 278.233 237.561 277.947 237.415C277.656 237.266 277.374 237.19 277.101 237.188C276.829 237.183 276.583 237.248 276.364 237.385C276.145 237.519 275.97 237.718 275.838 237.982C275.698 238.249 275.638 238.513 275.657 238.775C275.679 239.038 275.77 239.281 275.93 239.504C276.091 239.726 276.313 239.91 276.596 240.055Z" fill="black"/>
<path d="M265.6 129.628C265.411 129.074 265.343 128.551 265.394 128.059C265.449 127.569 265.61 127.147 265.876 126.792C266.145 126.436 266.504 126.184 266.951 126.034C267.3 125.912 267.646 125.871 267.989 125.91C268.335 125.948 268.649 126.055 268.93 126.229C269.215 126.405 269.436 126.634 269.593 126.917L269.641 126.901C269.609 126.471 269.723 126.08 269.985 125.73C270.25 125.379 270.601 125.13 271.041 124.983C271.459 124.838 271.871 124.816 272.275 124.919C272.679 125.021 273.04 125.228 273.36 125.54C273.68 125.854 273.922 126.253 274.087 126.737C274.25 127.216 274.3 127.676 274.237 128.117C274.175 128.559 274.015 128.943 273.757 129.271C273.501 129.602 273.163 129.84 272.744 129.985C272.305 130.132 271.873 130.146 271.448 130.026C271.027 129.908 270.699 129.673 270.465 129.321L270.417 129.337C270.465 129.654 270.429 129.967 270.309 130.275C270.191 130.582 270.007 130.858 269.757 131.102C269.51 131.345 269.212 131.528 268.863 131.649C268.416 131.799 267.977 131.813 267.546 131.693C267.118 131.574 266.733 131.338 266.39 130.984C266.051 130.631 265.788 130.179 265.6 129.628ZM266.487 129.325C266.615 129.699 266.785 130.001 266.999 130.232C267.212 130.462 267.454 130.614 267.725 130.686C267.996 130.759 268.28 130.747 268.577 130.649C268.888 130.54 269.136 130.365 269.321 130.125C269.506 129.885 269.621 129.604 269.665 129.283C269.709 128.965 269.672 128.631 269.553 128.281C269.433 127.929 269.257 127.638 269.026 127.407C268.795 127.18 268.533 127.027 268.24 126.95C267.947 126.876 267.646 126.893 267.335 127.002C267.038 127.1 266.804 127.259 266.633 127.48C266.463 127.703 266.364 127.972 266.336 128.287C266.309 128.603 266.359 128.949 266.487 129.325ZM270.408 127.99C270.509 128.286 270.657 128.528 270.854 128.716C271.051 128.907 271.278 129.032 271.535 129.092C271.792 129.151 272.064 129.134 272.35 129.039C272.629 128.941 272.85 128.792 273.013 128.593C273.179 128.392 273.279 128.159 273.314 127.891C273.352 127.623 273.319 127.338 273.216 127.034C273.11 126.724 272.96 126.474 272.766 126.282C272.574 126.089 272.352 125.965 272.099 125.91C271.849 125.854 271.585 125.876 271.306 125.973C271.02 126.068 270.793 126.216 270.624 126.417C270.457 126.621 270.353 126.859 270.314 127.131C270.274 127.402 270.306 127.689 270.408 127.99ZM276.466 133.72C276.578 134.06 276.629 134.421 276.618 134.803C276.607 135.185 276.503 135.565 276.305 135.945C276.11 136.324 275.79 136.683 275.344 137.024C274.899 137.365 274.297 137.664 273.539 137.922C272.805 138.173 272.129 138.325 271.511 138.379C270.897 138.435 270.351 138.399 269.872 138.271C269.394 138.146 268.991 137.932 268.663 137.63C268.336 137.33 268.093 136.947 267.934 136.482C267.777 136.02 267.728 135.576 267.787 135.15C267.85 134.727 268.006 134.343 268.255 134C268.508 133.659 268.841 133.382 269.255 133.169L269.59 134.153C269.241 134.371 268.988 134.654 268.83 135.002C268.676 135.352 268.674 135.744 268.822 136.18C269.039 136.817 269.489 137.225 270.171 137.404C270.854 137.586 271.704 137.503 272.72 137.157L272.698 137.092C272.421 137.019 272.165 136.906 271.931 136.755C271.696 136.604 271.491 136.417 271.316 136.195C271.142 135.972 271.006 135.718 270.909 135.433C270.747 134.96 270.716 134.486 270.816 134.011C270.919 133.537 271.135 133.112 271.466 132.736C271.801 132.361 272.234 132.082 272.767 131.901C273.272 131.729 273.773 131.684 274.27 131.767C274.77 131.852 275.215 132.058 275.605 132.384C275.996 132.713 276.283 133.158 276.466 133.72ZM275.578 134.023C275.463 133.684 275.274 133.407 275.012 133.194C274.754 132.981 274.455 132.845 274.116 132.783C273.78 132.723 273.441 132.752 273.096 132.869C272.752 132.986 272.465 133.168 272.233 133.415C272.006 133.664 271.854 133.948 271.777 134.269C271.703 134.591 271.725 134.921 271.84 135.26C271.927 135.515 272.058 135.736 272.232 135.923C272.41 136.109 272.614 136.254 272.844 136.358C273.079 136.465 273.323 136.527 273.579 136.545C273.837 136.562 274.088 136.529 274.333 136.446C274.655 136.336 274.931 136.155 275.161 135.903C275.391 135.653 275.547 135.363 275.629 135.032C275.712 134.703 275.695 134.367 275.578 134.023ZM271.13 141.794L270.673 141.878C270.351 141.937 269.999 141.978 269.617 142.003C269.236 142.031 268.874 142.048 268.531 142.054C268.188 142.059 267.914 142.061 267.709 142.059L267.462 141.333C267.646 141.309 267.889 141.277 268.19 141.238C268.492 141.198 268.827 141.147 269.196 141.084C269.563 141.025 269.934 140.953 270.31 140.867L270.779 140.761L271.13 141.794ZM272.224 143.156L273.047 142.875L280.028 144.549L280.231 145.146L278.957 145.58L278.819 145.177L273.545 143.912L273.48 143.934L275.145 148.823L274.258 149.126L272.224 143.156ZM271.855 147.621L273.799 146.959L274.182 146.829L280.116 144.807L280.44 145.759L272.179 148.573L271.855 147.621ZM273.9 153.996C273.79 153.655 273.739 153.294 273.747 152.913C273.755 152.532 273.859 152.152 274.056 151.773C274.257 151.392 274.58 151.032 275.025 150.691C275.473 150.349 276.079 150.048 276.842 149.788C277.574 149.539 278.245 149.387 278.857 149.332C279.471 149.276 280.016 149.312 280.492 149.441C280.971 149.569 281.374 149.783 281.701 150.083C282.029 150.385 282.272 150.769 282.431 151.234C282.588 151.697 282.636 152.14 282.573 152.563C282.514 152.989 282.359 153.371 282.109 153.712C281.859 154.052 281.531 154.329 281.126 154.542L280.791 153.557C281.131 153.34 281.379 153.057 281.534 152.71C281.688 152.363 281.692 151.972 281.543 151.536C281.325 150.896 280.875 150.487 280.193 150.308C279.512 150.132 278.668 150.214 277.661 150.554L277.683 150.618C277.963 150.691 278.219 150.804 278.451 150.956C278.686 151.109 278.892 151.298 279.066 151.52C279.241 151.743 279.377 151.995 279.473 152.278C279.634 152.751 279.663 153.224 279.56 153.697C279.46 154.17 279.243 154.595 278.91 154.972C278.579 155.349 278.147 155.628 277.615 155.81C277.104 155.984 276.597 156.029 276.094 155.945C275.594 155.86 275.149 155.653 274.757 155.324C274.37 154.997 274.084 154.554 273.9 153.996ZM274.787 153.694C274.903 154.032 275.091 154.307 275.352 154.519C275.614 154.733 275.914 154.869 276.252 154.928C276.591 154.989 276.935 154.961 277.285 154.842C277.627 154.725 277.911 154.543 278.139 154.294C278.37 154.048 278.523 153.763 278.599 153.44C278.676 153.119 278.657 152.79 278.542 152.451C278.455 152.195 278.322 151.975 278.145 151.789C277.97 151.602 277.767 151.456 277.536 151.348C277.305 151.244 277.061 151.183 276.803 151.166C276.548 151.148 276.296 151.181 276.049 151.265C275.721 151.377 275.44 151.558 275.207 151.808C274.976 152.061 274.818 152.352 274.735 152.681C274.652 153.012 274.67 153.349 274.787 153.694Z" fill="black"/>
<path d="M142.692 320.702L54.501 59.0697L128.169 38.0825L209.6 20.8535H232.592L247.92 25.1494L340.63 287.385L197.566 220.753L142.692 320.702Z" stroke="#379482" stroke-width="2"/>
<path d="M0.281738 51.6697C7.76487 49.5316 238.677 -26.3697 282.507 11.0464M8.56951 67.7053C16.0526 65.5672 235.47 -11.4032 279.3 26.013" stroke="#C4C4C4"/>
<path d="M116.796 31.4384L114.724 22.9607L117.588 22.2605C118.253 22.0979 118.826 22.085 119.307 22.2219C119.79 22.3553 120.183 22.5999 120.487 22.9557C120.79 23.3114 121.003 23.739 121.125 24.2385C121.247 24.738 121.256 25.2169 121.152 25.6753C121.05 26.133 120.818 26.5348 120.455 26.8809C120.091 27.2242 119.58 27.4765 118.92 27.6377L116.867 28.1397L116.644 27.229L118.665 26.7351C119.12 26.6238 119.466 26.4558 119.704 26.231C119.941 26.0063 120.089 25.7449 120.148 25.4468C120.209 25.1453 120.198 24.8249 120.115 24.4854C120.032 24.146 119.894 23.858 119.702 23.6213C119.512 23.384 119.26 23.2235 118.944 23.1399C118.627 23.0535 118.239 23.0666 117.778 23.1792L115.973 23.6205L117.823 31.1874L116.796 31.4384ZM126.61 29.1796C126.036 29.3199 125.499 29.3064 124.999 29.1391C124.502 28.9712 124.072 28.6713 123.709 28.2394C123.348 27.8069 123.088 27.2622 122.928 26.6055C122.766 25.9431 122.744 25.3356 122.864 24.783C122.986 24.2296 123.229 23.7637 123.592 23.3853C123.959 23.0062 124.429 22.7464 125.003 22.6061C125.577 22.4658 126.113 22.4796 126.61 22.6476C127.11 22.8149 127.541 23.1161 127.901 23.5514C128.265 23.986 128.528 24.5345 128.69 25.1968C128.85 25.8536 128.869 26.4573 128.746 27.0079C128.626 27.5578 128.383 28.0223 128.017 28.4014C127.653 28.7799 127.184 29.0393 126.61 29.1796ZM126.396 28.302C126.832 28.1954 127.163 27.996 127.39 27.7036C127.617 27.4113 127.753 27.0664 127.799 26.6691C127.846 26.2718 127.817 25.8606 127.713 25.4356C127.609 25.0107 127.444 24.6312 127.22 24.2972C126.995 23.9632 126.714 23.7175 126.377 23.56C126.04 23.4025 125.654 23.3771 125.218 23.4837C124.782 23.5903 124.451 23.7911 124.224 24.0862C123.998 24.3813 123.862 24.7289 123.817 25.129C123.771 25.5291 123.801 25.9416 123.904 26.3666C124.008 26.7916 124.172 27.1697 124.397 27.5009C124.621 27.8321 124.901 28.0751 125.237 28.2298C125.573 28.3846 125.96 28.4086 126.396 28.302ZM130.95 27.9783L129.396 21.62L130.373 21.3812L131.927 27.7394L130.95 27.9783ZM129.633 20.4389C129.443 20.4854 129.263 20.4607 129.093 20.3648C128.926 20.2681 128.821 20.1287 128.776 19.9466C128.731 19.7645 128.761 19.592 128.864 19.4292C128.971 19.2658 129.119 19.1608 129.31 19.1143C129.5 19.0677 129.679 19.0928 129.846 19.1894C130.015 19.2854 130.122 19.4244 130.167 19.6066C130.211 19.7887 130.181 19.9615 130.074 20.1249C129.971 20.2877 129.824 20.3923 129.633 20.4389ZM137.014 21.2668L136.197 21.7297C136.106 21.5969 135.99 21.4747 135.848 21.363C135.709 21.2479 135.537 21.1671 135.333 21.1205C135.129 21.074 134.884 21.0855 134.6 21.155C134.211 21.2501 133.908 21.419 133.693 21.6618C133.479 21.9012 133.406 22.1575 133.473 22.4307C133.532 22.6735 133.667 22.8437 133.879 22.9413C134.09 23.0389 134.394 23.0887 134.792 23.0908L135.793 23.0918C136.395 23.0909 136.87 23.1984 137.219 23.4145C137.566 23.6279 137.794 23.9567 137.903 24.401C137.992 24.7653 137.967 25.1165 137.827 25.4548C137.69 25.7924 137.456 26.0895 137.124 26.3462C136.792 26.6029 136.379 26.7916 135.885 26.9123C135.236 27.0709 134.665 27.0613 134.171 26.8837C133.677 26.7061 133.308 26.3607 133.062 25.8475L133.933 25.389C134.105 25.7096 134.335 25.9255 134.622 26.0365C134.912 26.1469 135.257 26.1532 135.658 26.0554C136.113 25.944 136.451 25.7591 136.671 25.5005C136.894 25.2384 136.972 24.9708 136.905 24.6976C136.851 24.4768 136.728 24.3108 136.537 24.1996C136.346 24.0856 136.081 24.0304 135.742 24.0342L134.622 24.0449C134.006 24.0492 133.526 23.9399 133.182 23.717C132.84 23.4906 132.615 23.158 132.508 22.7192C132.42 22.3604 132.444 22.0184 132.578 21.6932C132.714 21.3673 132.939 21.0829 133.251 20.8399C133.566 20.5963 133.946 20.4198 134.394 20.3105C135.023 20.1567 135.55 20.1739 135.977 20.3622C136.406 20.5498 136.751 20.8513 137.014 21.2668ZM143.104 19.7779L142.287 20.2408C142.196 20.1081 142.08 19.9859 141.939 19.8742C141.799 19.7591 141.627 19.6783 141.423 19.6317C141.219 19.5852 140.974 19.5966 140.69 19.6661C140.301 19.7613 139.999 19.9302 139.783 20.173C139.57 20.4124 139.496 20.6686 139.563 20.9418C139.622 21.1847 139.758 21.3549 139.969 21.4525C140.18 21.55 140.484 21.5999 140.883 21.6019L141.883 21.603C142.485 21.602 142.961 21.7096 143.309 21.9257C143.656 22.139 143.884 22.4679 143.993 22.9122C144.082 23.2764 144.057 23.6277 143.917 23.966C143.78 24.3036 143.546 24.6007 143.214 24.8574C142.882 25.114 142.469 25.3027 141.975 25.4235C141.326 25.582 140.755 25.5725 140.261 25.3949C139.767 25.2173 139.398 24.8719 139.153 24.3587L140.023 23.9002C140.195 24.2208 140.425 24.4366 140.712 24.5477C141.002 24.6581 141.348 24.6643 141.748 24.5665C142.203 24.4552 142.541 24.2702 142.761 24.0116C142.984 23.7496 143.062 23.482 142.995 23.2087C142.941 22.988 142.819 22.822 142.628 22.7107C142.436 22.5967 142.171 22.5416 141.833 22.5453L140.712 22.556C140.096 22.5604 139.616 22.4511 139.272 22.2281C138.93 22.0017 138.706 21.6691 138.598 21.2303C138.511 20.8716 138.534 20.5296 138.668 20.2044C138.805 19.8785 139.029 19.5941 139.341 19.3511C139.656 19.1074 140.037 18.931 140.484 18.8217C141.113 18.6679 141.641 18.6851 142.067 18.8733C142.496 19.0609 142.841 19.3625 143.104 19.7779ZM147.804 24.016C147.401 24.1145 147.017 24.128 146.651 24.0565C146.285 23.9822 145.97 23.8238 145.706 23.5813C145.441 23.336 145.259 23.0064 145.157 22.5924C145.068 22.2281 145.068 21.9153 145.156 21.6539C145.244 21.3898 145.391 21.1635 145.6 20.9752C145.808 20.7868 146.05 20.6254 146.324 20.4911C146.6 20.3534 146.881 20.2291 147.167 20.1182C147.541 19.9741 147.845 19.8603 148.079 19.7768C148.316 19.6898 148.481 19.6011 148.576 19.5106C148.673 19.4195 148.703 19.2953 148.665 19.138L148.657 19.1049C148.557 18.6964 148.367 18.4064 148.088 18.2348C147.812 18.0624 147.449 18.0313 147 18.1412C146.533 18.2552 146.193 18.4467 145.978 18.7157C145.763 18.9847 145.63 19.2482 145.579 19.5064L144.57 19.4019C144.642 18.9751 144.789 18.6203 145.012 18.3376C145.238 18.0514 145.504 17.8254 145.811 17.6596C146.121 17.4903 146.436 17.3666 146.756 17.2883C146.96 17.2384 147.201 17.2059 147.478 17.1908C147.757 17.1723 148.039 17.2072 148.324 17.2955C148.611 17.3831 148.875 17.5571 149.114 17.8174C149.353 18.0777 149.534 18.4604 149.658 18.9654L150.682 23.1545L149.705 23.3934L149.494 22.5324L149.445 22.5445C149.412 22.6987 149.338 22.8733 149.222 23.0684C149.106 23.2635 148.933 23.4476 148.703 23.6207C148.474 23.7938 148.174 23.9256 147.804 24.016ZM147.739 23.102C148.125 23.0075 148.432 22.852 148.66 22.6355C148.89 22.4183 149.044 22.1731 149.12 21.8999C149.2 21.6261 149.207 21.3567 149.142 21.0918L148.924 20.1977C148.894 20.2575 148.815 20.3253 148.684 20.4011C148.555 20.4735 148.404 20.5471 148.229 20.622C148.056 20.6934 147.887 20.7611 147.722 20.825C147.558 20.8855 147.425 20.9354 147.324 20.9748C147.078 21.07 146.854 21.1819 146.651 21.3103C146.451 21.4354 146.301 21.5876 146.201 21.7669C146.104 21.9428 146.086 22.1549 146.146 22.4033C146.229 22.7427 146.418 22.9687 146.711 23.0811C147.007 23.1901 147.349 23.1971 147.739 23.102ZM152.507 18.655L153.442 22.4798L152.465 22.7186L150.911 16.3604L151.854 16.1297L152.097 17.1232L152.18 17.1029C152.25 16.7436 152.413 16.4289 152.669 16.1588C152.924 15.8859 153.291 15.6907 153.771 15.5733C154.202 15.4681 154.6 15.4643 154.966 15.562C155.332 15.6569 155.647 15.8604 155.914 16.1726C156.18 16.482 156.379 16.9071 156.511 17.448L157.498 21.4881L156.522 21.7269L155.55 17.753C155.428 17.2536 155.203 16.8961 154.876 16.6808C154.547 16.4628 154.157 16.4091 153.704 16.5197C153.393 16.5959 153.13 16.7317 152.918 16.9269C152.708 17.1215 152.564 17.3657 152.487 17.6596C152.41 17.9534 152.416 18.2852 152.507 18.655ZM160.494 14.0175L160.697 14.8454L157.402 15.6509L157.199 14.823L160.494 14.0175ZM157.787 13.0649L158.764 12.8261L160.246 18.8863C160.313 19.1622 160.404 19.3594 160.518 19.4779C160.633 19.5928 160.761 19.6583 160.899 19.6742C161.04 19.6866 161.182 19.6753 161.325 19.6402C161.433 19.6139 161.52 19.5868 161.586 19.5589C161.652 19.5282 161.704 19.5037 161.743 19.4853L162.157 20.3143C162.096 20.3553 162.01 20.4027 161.897 20.4566C161.786 20.5132 161.639 20.5638 161.456 20.6083C161.18 20.6757 160.895 20.6825 160.602 20.6286C160.31 20.5741 160.048 20.4466 159.815 20.2462C159.584 20.0452 159.424 19.7598 159.334 19.39L157.787 13.0649Z" fill="#8E8E8E"/>
</svg>
