<svg width="212" height="523" viewBox="0 0 212 523" fill="none" xmlns="http://www.w3.org/2000/svg">
<path d="M70.7018 319.481C70.5826 319.967 70.3787 320.38 70.0901 320.722C69.8015 321.064 69.4601 321.31 69.066 321.462C68.6718 321.614 68.2568 321.648 67.821 321.565L68.0648 320.572C68.4578 320.627 68.8177 320.531 69.1446 320.284C69.4695 320.033 69.685 319.691 69.7913 319.258C69.8767 318.91 69.8711 318.581 69.7747 318.271C69.679 317.958 69.508 317.689 69.2617 317.465C69.0134 317.237 68.7085 317.079 68.3471 316.99C67.9773 316.899 67.6277 316.9 67.298 316.992C66.9663 317.08 66.6817 317.244 66.4444 317.484C66.207 317.724 66.0426 318.025 65.9511 318.385C65.8847 318.644 65.8593 318.92 65.8751 319.214C65.888 319.506 65.9363 319.757 66.0199 319.964L65.6683 320.896L61.6227 319.359L62.7035 314.956L63.6139 315.179L62.7444 318.722L65.171 319.633L65.1831 319.583C65.0879 319.376 65.0269 319.13 65.0001 318.845C64.9734 318.561 64.9949 318.277 65.0647 317.992C65.192 317.474 65.4296 317.042 65.7774 316.697C66.1232 316.349 66.5384 316.112 67.0229 315.985C67.5081 315.856 68.0252 315.858 68.5743 315.993C69.1151 316.126 69.5681 316.366 69.9334 316.713C70.2966 317.056 70.5492 317.469 70.6911 317.952C70.8303 318.433 70.8339 318.943 70.7018 319.481ZM69.8892 314.783L69.0449 314.576L64.0659 309.405L64.2162 308.792L65.524 309.113L65.4224 309.527L69.1847 313.434L69.2509 313.451L70.4821 308.435L71.3925 308.658L69.8892 314.783ZM72.6066 311.22L70.6118 310.731L70.2186 310.634L64.1309 309.14L64.3706 308.163L72.8463 310.244L72.6066 311.22ZM72.6164 306.174L73.0472 306.35C73.3502 306.474 73.6692 306.629 74.0041 306.813C74.3398 306.995 74.6537 307.176 74.946 307.356C75.2382 307.536 75.47 307.682 75.6413 307.794L75.4585 308.539C75.2907 308.46 75.0691 308.356 74.7936 308.227C74.5181 308.098 74.2082 307.96 73.8637 307.814C73.5227 307.666 73.1707 307.527 72.8077 307.397L72.3564 307.234L72.6164 306.174ZM74.9371 302.226C74.7841 302.849 74.484 303.339 74.037 303.694C73.5872 304.049 73.0097 304.262 72.3044 304.335C71.5964 304.407 70.7817 304.33 69.8601 304.104C68.9441 303.879 68.1904 303.571 67.5989 303.18C67.0054 302.786 66.5913 302.327 66.3569 301.805C66.1204 301.279 66.078 300.706 66.2296 300.088C66.3813 299.47 66.6835 298.984 67.136 298.63C67.5865 298.273 68.1657 298.058 68.8737 297.986C69.5797 297.911 70.3906 297.986 71.3066 298.21C72.2281 298.437 72.986 298.745 73.5802 299.137C74.1717 299.528 74.5847 299.985 74.8191 300.507C75.0508 301.029 75.0902 301.602 74.9371 302.226ZM74.0266 302.002C74.1783 301.384 73.9982 300.831 73.4862 300.343C72.9742 299.854 72.1664 299.475 71.0628 299.204C70.3289 299.024 69.6847 298.949 69.1302 298.979C68.5763 299.007 68.1283 299.134 67.7861 299.36C67.4446 299.584 67.2238 299.9 67.1236 300.308C66.9732 300.92 67.1579 301.473 67.6774 301.966C68.1942 302.459 69.0031 302.84 70.1039 303.11C70.8378 303.291 71.4803 303.366 72.0314 303.338C72.5825 303.309 73.0274 303.183 73.3662 302.959C73.7056 302.732 73.9257 302.413 74.0266 302.002ZM76.7371 294.892C76.6462 295.238 76.4947 295.57 76.2824 295.886C76.0702 296.203 75.7785 296.468 75.4073 296.681C75.0334 296.893 74.5672 297.023 74.0086 297.07C73.4472 297.117 72.7747 297.044 71.9912 296.851C71.2407 296.667 70.5931 296.434 70.0482 296.151C69.5006 295.867 69.061 295.543 68.7294 295.178C68.395 294.812 68.1707 294.415 68.0566 293.986C67.9431 293.554 67.945 293.1 68.0621 292.623C68.1786 292.148 68.3774 291.749 68.6585 291.426C68.9375 291.1 69.2741 290.861 69.6683 290.709C70.0624 290.557 70.4873 290.5 70.9429 290.539L70.6951 291.549C70.2913 291.549 69.9307 291.654 69.6133 291.862C69.2959 292.071 69.0823 292.399 68.9726 292.846C68.8114 293.503 68.97 294.09 69.4483 294.608C69.9274 295.124 70.6825 295.509 71.7137 295.765L71.7299 295.699C71.5333 295.487 71.3783 295.255 71.2649 295.001C71.1494 294.745 71.078 294.476 71.0506 294.194C71.0232 293.912 71.0451 293.627 71.1162 293.337C71.2354 292.851 71.4658 292.437 71.8075 292.094C72.1464 291.75 72.5581 291.509 73.0425 291.37C73.5243 291.231 74.0383 291.228 74.5845 291.363C75.1088 291.491 75.5601 291.726 75.9384 292.068C76.314 292.409 76.578 292.823 76.7303 293.311C76.8805 293.795 76.8828 294.322 76.7371 294.892ZM75.8266 294.669C75.9119 294.321 75.9015 293.988 75.7954 293.669C75.69 293.348 75.5107 293.072 75.2575 292.84C75.005 292.605 74.6994 292.444 74.3408 292.356C73.9904 292.27 73.6524 292.27 73.3269 292.357C72.9992 292.44 72.7164 292.598 72.4783 292.829C72.2409 293.057 72.0795 293.345 71.9942 293.693C71.9298 293.955 71.9223 294.212 71.9716 294.464C72.0182 294.715 72.1101 294.949 72.2475 295.164C72.3855 295.376 72.5586 295.559 72.7666 295.712C72.9719 295.865 73.2015 295.973 73.4553 296.035C73.7919 296.118 74.1257 296.116 74.4568 296.031C74.7885 295.942 75.0779 295.782 75.325 295.55C75.5727 295.316 75.7399 295.022 75.8266 294.669Z" fill="black"/>
<path d="M156.878 373.796C156.602 374.286 156.271 374.675 155.887 374.964C155.504 375.25 155.099 375.422 154.673 375.478C154.245 375.531 153.827 375.455 153.417 375.25L153.944 374.314C154.2 374.433 154.46 374.468 154.721 374.42C154.981 374.37 155.226 374.253 155.458 374.067C155.69 373.881 155.888 373.642 156.053 373.35C156.237 373.024 156.343 372.702 156.371 372.385C156.4 372.069 156.353 371.782 156.231 371.524C156.109 371.266 155.914 371.061 155.647 370.911C155.367 370.753 155.082 370.684 154.791 370.702C154.497 370.72 154.215 370.828 153.943 371.027C153.671 371.226 153.426 371.518 153.209 371.904L152.866 372.513L152.049 372.053L152.392 371.444C152.562 371.142 152.657 370.847 152.676 370.558C152.697 370.266 152.645 370 152.519 369.76C152.395 369.517 152.199 369.321 151.932 369.17C151.675 369.025 151.419 368.956 151.164 368.962C150.909 368.969 150.67 369.046 150.447 369.194C150.224 369.339 150.034 369.552 149.877 369.831C149.729 370.094 149.638 370.368 149.603 370.656C149.568 370.939 149.599 371.204 149.697 371.452C149.793 371.698 149.964 371.899 150.21 372.054L149.707 372.945C149.317 372.705 149.036 372.389 148.863 371.995C148.688 371.599 148.619 371.172 148.656 370.714C148.694 370.252 148.836 369.803 149.083 369.365C149.348 368.894 149.671 368.545 150.051 368.315C150.429 368.085 150.823 367.966 151.235 367.96C151.646 367.954 152.031 368.052 152.39 368.254C152.818 368.495 153.119 368.813 153.295 369.209C153.471 369.602 153.509 370.023 153.409 370.472L153.469 370.505C153.819 370.07 154.234 369.81 154.715 369.726C155.194 369.64 155.675 369.733 156.157 370.005C156.571 370.238 156.878 370.56 157.081 370.97C157.282 371.377 157.368 371.827 157.338 372.319C157.309 372.811 157.155 373.303 156.878 373.796ZM152.734 362.886C152.912 362.576 153.147 362.297 153.439 362.051C153.731 361.805 154.084 361.629 154.499 361.524C154.912 361.417 155.393 361.416 155.944 361.521C156.495 361.625 157.119 361.875 157.817 362.268C158.492 362.649 159.056 363.051 159.509 363.475C159.96 363.896 160.297 364.327 160.521 364.77C160.746 365.209 160.855 365.652 160.848 366.099C160.843 366.542 160.719 366.978 160.478 367.406C160.238 367.832 159.94 368.165 159.583 368.404C159.226 368.639 158.836 368.778 158.414 368.821C157.991 368.86 157.562 368.796 157.128 368.63L157.638 367.724C158.033 367.839 158.413 367.839 158.777 367.725C159.141 367.607 159.435 367.347 159.661 366.946C159.992 366.36 159.996 365.752 159.675 365.125C159.355 364.494 158.727 363.916 157.792 363.389L157.758 363.448C157.888 363.704 157.975 363.969 158.018 364.245C158.062 364.521 158.059 364.798 158.01 365.077C157.96 365.355 157.862 365.626 157.714 365.888C157.468 366.324 157.136 366.663 156.715 366.905C156.294 367.144 155.832 367.265 155.331 367.27C154.829 367.27 154.332 367.133 153.842 366.856C153.377 366.594 153.01 366.25 152.741 365.825C152.471 365.396 152.327 364.927 152.31 364.418C152.295 363.908 152.436 363.397 152.734 362.886ZM153.55 363.346C153.375 363.658 153.294 363.983 153.309 364.321C153.323 364.655 153.42 364.969 153.601 365.263C153.78 365.553 154.027 365.787 154.344 365.965C154.661 366.144 154.988 366.237 155.326 366.245C155.663 366.249 155.977 366.173 156.267 366.017C156.556 365.857 156.788 365.621 156.964 365.309C157.097 365.074 157.174 364.829 157.197 364.575C157.217 364.319 157.19 364.07 157.114 363.828C157.037 363.583 156.92 363.359 156.763 363.156C156.604 362.953 156.412 362.787 156.187 362.66C155.89 362.493 155.571 362.408 155.23 362.405C154.891 362.4 154.57 362.477 154.269 362.636C153.968 362.793 153.729 363.03 153.55 363.346ZM162.309 361.484L162.676 361.769C162.935 361.97 163.2 362.205 163.473 362.472C163.748 362.738 164.001 362.997 164.234 363.249C164.467 363.5 164.651 363.704 164.786 363.858L164.41 364.526C164.269 364.405 164.084 364.245 163.853 364.046C163.623 363.848 163.361 363.632 163.069 363.399C162.78 363.164 162.478 362.936 162.164 362.713L161.773 362.434L162.309 361.484ZM165.631 358.26C165.451 358.569 165.215 358.848 164.926 359.096C164.636 359.343 164.284 359.52 163.869 359.625C163.452 359.729 162.968 359.729 162.417 359.624C161.864 359.518 161.236 359.266 160.533 358.87C159.86 358.491 159.299 358.092 158.85 357.673C158.399 357.252 158.063 356.822 157.842 356.381C157.618 355.938 157.509 355.495 157.515 355.052C157.522 354.606 157.646 354.168 157.887 353.74C158.127 353.315 158.426 352.984 158.783 352.749C159.14 352.509 159.528 352.369 159.949 352.329C160.369 352.289 160.794 352.349 161.222 352.509L160.712 353.415C160.323 353.306 159.947 353.31 159.585 353.426C159.224 353.541 158.93 353.8 158.704 354.2C158.372 354.79 158.366 355.398 158.688 356.026C159.01 356.651 159.634 357.226 160.558 357.75L160.592 357.69C160.459 357.433 160.373 357.167 160.332 356.893C160.289 356.615 160.293 356.337 160.342 356.058C160.392 355.779 160.49 355.51 160.636 355.25C160.882 354.815 161.215 354.477 161.636 354.239C162.055 353.999 162.517 353.877 163.021 353.874C163.522 353.87 164.018 354.006 164.508 354.282C164.978 354.547 165.349 354.895 165.622 355.325C165.892 355.755 166.035 356.225 166.05 356.736C166.065 357.243 165.925 357.751 165.631 358.26ZM164.814 357.8C164.99 357.488 165.07 357.165 165.053 356.829C165.038 356.491 164.94 356.177 164.759 355.885C164.578 355.592 164.328 355.354 164.006 355.173C163.691 354.996 163.366 354.905 163.029 354.901C162.691 354.893 162.376 354.969 162.085 355.127C161.795 355.283 161.562 355.517 161.386 355.829C161.253 356.064 161.177 356.31 161.157 356.566C161.134 356.82 161.16 357.07 161.234 357.314C161.31 357.555 161.427 357.778 161.587 357.982C161.743 358.184 161.935 358.35 162.163 358.478C162.465 358.648 162.787 358.736 163.129 358.743C163.472 358.748 163.794 358.671 164.094 358.514C164.396 358.355 164.636 358.117 164.814 357.8ZM161.684 347.245L169.287 351.529L168.768 352.45L162.13 348.71L162.105 348.754L162.292 351.305L161.356 350.778L161.165 348.166L161.684 347.245Z" fill="black"/>
<path d="M73.8327 410.387L74.0432 409.65L77.6787 407.408C78.1052 407.146 78.461 406.913 78.7462 406.711C79.0322 406.506 79.2588 406.302 79.4262 406.099C79.597 405.893 79.7191 405.662 79.7924 405.405C79.8766 405.11 79.8785 404.835 79.798 404.578C79.7203 404.323 79.5766 404.102 79.367 403.915C79.1574 403.728 78.901 403.591 78.5978 403.505C78.2754 403.413 77.9749 403.399 77.6963 403.464C77.4212 403.528 77.1842 403.66 76.9852 403.86C76.789 404.061 76.6453 404.321 76.5541 404.641L75.587 404.365C75.7273 403.873 75.9639 403.474 76.2967 403.167C76.6295 402.86 77.0208 402.659 77.4707 402.563C77.9233 402.467 78.3942 402.489 78.8832 402.629C79.3749 402.769 79.781 402.997 80.1014 403.313C80.4219 403.629 80.6398 403.994 80.755 404.408C80.8702 404.822 80.8663 405.245 80.7431 405.677C80.655 405.985 80.5128 406.271 80.3166 406.534C80.1239 406.796 79.8395 407.067 79.4634 407.35C79.0908 407.631 78.5904 407.961 77.9623 408.34L75.5019 409.818L75.4832 409.883L79.3843 410.997L79.127 411.898L73.8327 410.387ZM81.0816 412.456L86.9543 406.102L86.973 406.037L82.6458 404.802L82.9031 403.9L88.2793 405.435L88.008 406.385L82.147 412.76L81.0816 412.456ZM87.7554 413.12L87.5635 413.544C87.4282 413.842 87.2621 414.155 87.0651 414.483C86.8709 414.812 86.6784 415.119 86.4876 415.404C86.2969 415.689 86.1422 415.915 86.0236 416.082L85.2861 415.872C85.3715 415.707 85.4838 415.49 85.623 415.219C85.7623 414.949 85.9112 414.644 86.07 414.305C86.2306 413.97 86.3827 413.623 86.5262 413.266L86.7064 412.821L87.7554 413.12ZM91.6907 415.608C91.1498 415.454 90.6941 415.223 90.3237 414.917C89.956 414.611 89.695 414.257 89.5408 413.856C89.39 413.452 89.3665 413.027 89.4702 412.581L90.5028 412.876C90.4475 413.153 90.4737 413.413 90.5815 413.656C90.69 413.897 90.8616 414.109 91.0962 414.291C91.3307 414.473 91.6092 414.61 91.9316 414.702C92.2922 414.805 92.6297 414.833 92.9442 414.787C93.2587 414.741 93.5272 414.629 93.7496 414.45C93.9719 414.271 94.1252 414.034 94.2094 413.739C94.2975 413.43 94.2986 413.137 94.2127 412.858C94.1276 412.577 93.9566 412.327 93.6997 412.109C93.4429 411.891 93.1014 411.721 92.6752 411.599L92.0032 411.408L92.2605 410.506L92.9325 410.698C93.2658 410.793 93.5753 410.816 93.8609 410.768C94.1493 410.72 94.3957 410.607 94.6001 410.429C94.8073 410.252 94.9529 410.016 95.0371 409.721C95.1182 409.437 95.126 409.172 95.0603 408.925C94.9947 408.679 94.8639 408.465 94.668 408.282C94.4747 408.1 94.2238 407.964 93.9151 407.876C93.6255 407.794 93.3371 407.769 93.0499 407.802C92.7663 407.833 92.5154 407.926 92.2973 408.079C92.08 408.23 91.9247 408.443 91.8315 408.717L90.8481 408.437C90.99 408.002 91.2324 407.654 91.5753 407.395C91.9191 407.132 92.3182 406.966 92.7728 406.894C93.2301 406.824 93.7006 406.858 94.1841 406.996C94.7032 407.144 95.1184 407.376 95.4299 407.693C95.7422 408.006 95.9493 408.362 96.0513 408.761C96.1532 409.159 96.1477 409.556 96.0346 409.952C95.8997 410.425 95.6604 410.793 95.3167 411.055C94.9757 411.318 94.5752 411.453 94.1151 411.461L94.0964 411.526C94.6014 411.765 94.951 412.109 95.1451 412.557C95.3399 413.002 95.3613 413.492 95.2093 414.024C95.0791 414.481 94.8378 414.855 94.4855 415.147C94.1368 415.438 93.7197 415.626 93.2342 415.712C92.7488 415.798 92.2343 415.763 91.6907 415.608ZM98.8248 417.644C98.344 417.507 97.9383 417.288 97.6077 416.987C97.2771 416.686 97.0432 416.335 96.9062 415.936C96.7691 415.536 96.7504 415.12 96.8502 414.688L97.8337 414.968C97.7635 415.359 97.846 415.722 98.081 416.058C98.3195 416.392 98.6532 416.62 99.0821 416.743C99.4263 416.841 99.7553 416.848 100.069 416.763C100.385 416.679 100.66 416.518 100.894 416.28C101.13 416.041 101.3 415.742 101.402 415.384C101.507 415.018 101.519 414.669 101.44 414.336C101.364 414.001 101.211 413.71 100.979 413.464C100.748 413.218 100.454 413.043 100.097 412.938C99.8412 412.862 99.5662 412.826 99.2724 412.831C98.9793 412.833 98.7275 412.872 98.5168 412.948L97.5988 412.561L99.2858 408.576L103.646 409.82L103.389 410.722L99.8809 409.721L98.8794 412.112L98.9286 412.126C99.1397 412.038 99.3879 411.986 99.6731 411.97C99.9584 411.954 100.242 411.986 100.523 412.067C101.037 412.213 101.459 412.467 101.791 412.827C102.125 413.186 102.347 413.609 102.456 414.098C102.567 414.588 102.545 415.105 102.39 415.648C102.237 416.184 101.981 416.628 101.62 416.98C101.263 417.33 100.841 417.567 100.354 417.691C99.8672 417.812 99.3575 417.796 98.8248 417.644Z" fill="black"/>
<path d="M39.7557 46.801L42.7014 55.0161L41.7066 55.3728L39.1349 48.2006L39.0868 48.2179L37.5586 50.2688L37.1962 49.2579L38.7609 47.1577L39.7557 46.801ZM47.8801 53.286C47.3506 53.4758 46.846 53.5542 46.3663 53.5209C45.8893 53.4868 45.4711 53.3515 45.1117 53.1152C44.7541 52.8752 44.4873 52.5438 44.3116 52.1209L45.3224 51.7585C45.4387 52.0156 45.6116 52.2116 45.8411 52.3466C46.0697 52.4789 46.3323 52.5508 46.6291 52.562C46.9259 52.5733 47.2321 52.5224 47.5476 52.4093C47.9006 52.2827 48.1915 52.109 48.4201 51.8882C48.6488 51.6674 48.8014 51.4195 48.8778 51.1446C48.9543 50.8697 48.9408 50.5878 48.8372 50.299C48.7289 49.9968 48.5586 49.7576 48.3264 49.5813C48.0932 49.4024 47.8087 49.2991 47.4729 49.2717C47.1371 49.2442 46.7606 49.3052 46.3434 49.4548L45.6856 49.6907L45.3692 48.8082L46.027 48.5723C46.3533 48.4554 46.6183 48.2939 46.8221 48.088C47.0287 47.8812 47.1631 47.6459 47.2254 47.3821C47.2905 47.1173 47.2712 46.8406 47.1676 46.5517C47.0679 46.2736 46.9196 46.0537 46.7228 45.8919C46.5259 45.73 46.2946 45.6319 46.0287 45.5975C45.7655 45.5621 45.4828 45.5985 45.1807 45.7069C44.8972 45.8085 44.6485 45.9566 44.4345 46.151C44.2222 46.3418 44.0722 46.5631 43.9844 46.8149C43.8957 47.064 43.8935 47.3273 43.978 47.6049L43.0153 47.9501C42.8769 47.5138 42.8714 47.0902 42.9988 46.6794C43.1251 46.2659 43.3523 45.8977 43.6802 45.5749C44.0107 45.2512 44.4127 45.0044 44.886 44.8347C45.3941 44.6525 45.8669 44.5992 46.3045 44.6747C46.741 44.7475 47.1169 44.9161 47.4319 45.1804C47.747 45.4446 47.9741 45.7707 48.1131 46.1584C48.279 46.621 48.2987 47.0591 48.1724 47.4726C48.0487 47.8852 47.8021 48.2286 47.4327 48.5029L47.4557 48.5671C48.0052 48.4667 48.4894 48.542 48.9084 48.7932C49.3265 49.0416 49.629 49.4266 49.816 49.9481C49.9761 50.3947 49.9983 50.8394 49.8824 51.2824C49.7683 51.7217 49.5391 52.1177 49.1948 52.4705C48.8505 52.8234 48.4123 53.0952 47.8801 53.286ZM53.0279 50.0459L53.119 50.5021C53.1829 50.8233 53.2303 51.1745 53.2614 51.5557C53.2951 51.9359 53.3176 52.2975 53.329 52.6405C53.3403 52.9836 53.3465 53.2575 53.3475 53.4624L52.6254 53.7212C52.5988 53.5376 52.5633 53.2954 52.5188 52.9944C52.4742 52.6935 52.4177 52.3592 52.3492 51.9914C52.2844 51.6253 52.2059 51.255 52.1139 50.8806L52.001 50.4141L53.0279 50.0459ZM57.6015 49.8003C56.9971 50.017 56.4234 50.0371 55.8802 49.8606C55.3361 49.6815 54.8391 49.318 54.3891 48.7701C53.9382 48.2195 53.5526 47.4976 53.2324 46.6045C52.914 45.7166 52.7545 44.9182 52.7538 44.2092C52.7548 43.4966 52.9085 42.8983 53.2148 42.4142C53.5228 41.9265 53.9763 41.5753 54.5753 41.3605C55.1743 41.1457 55.7464 41.1292 56.2914 41.311C56.8382 41.4892 57.3371 41.8536 57.788 42.4042C58.2406 42.9511 58.6261 43.6685 58.9445 44.5563C59.2647 45.4495 59.4257 46.2519 59.4273 46.9636C59.428 47.6726 59.2752 48.2691 58.9689 48.7531C58.6617 49.2345 58.2059 49.5836 57.6015 49.8003ZM57.2851 48.9178C57.8841 48.703 58.2459 48.2474 58.3703 47.5508C58.4948 46.8543 58.3653 45.9712 57.9817 44.9015C57.7267 44.1902 57.4333 43.6118 57.1016 43.1664C56.7725 42.72 56.4192 42.4166 56.0418 42.2562C55.6671 42.0948 55.2818 42.085 54.886 42.2269C54.2923 42.4398 53.9333 42.899 53.8091 43.6045C53.6838 44.3073 53.8125 45.1923 54.1951 46.2593C54.4501 46.9706 54.7417 47.5481 55.0698 47.9918C55.3979 48.4355 55.7489 48.7367 56.1227 48.8955C56.4992 49.0532 56.8866 49.0607 57.2851 48.9178ZM61.9416 48.1173L61.6827 47.3953L63.33 43.4547C63.5236 42.9929 63.6773 42.5968 63.7911 42.2662C63.904 41.933 63.9692 41.635 63.9867 41.3722C64.0058 41.1058 63.9703 40.8469 63.8802 40.5955C63.7766 40.3067 63.6175 40.0816 63.4026 39.9202C63.1905 39.7578 62.9448 39.6618 62.6656 39.6321C62.3864 39.6025 62.0983 39.6409 61.8015 39.7473C61.4859 39.8605 61.234 40.0247 61.0456 40.2402C60.859 40.4519 60.7432 40.6972 60.6983 40.9759C60.656 41.2536 60.691 41.5489 60.8032 41.8618L59.8565 42.2012C59.6839 41.7198 59.6434 41.2575 59.7349 40.8143C59.8265 40.371 60.027 39.9792 60.3366 39.6388C60.6488 39.2975 61.0442 39.041 61.5229 38.8694C62.0043 38.6968 62.4672 38.6455 62.9118 38.7154C63.3564 38.7854 63.7462 38.955 64.0811 39.2242C64.4161 39.4934 64.6593 39.8393 64.8108 40.2618C64.9192 40.564 64.9703 40.8791 64.9642 41.2073C64.9598 41.5318 64.8872 41.9185 64.7464 42.3673C64.6072 42.8126 64.393 43.3723 64.1035 44.0465L62.966 46.6817L62.989 46.7458L66.8077 45.3766L67.1242 46.2591L61.9416 48.1173Z" fill="black"/>
<path d="M81.2154 41.2104C80.8658 41.2872 80.5017 41.3033 80.1233 41.2585C79.7449 41.2137 79.3763 41.0747 79.0175 40.8413C78.658 40.6052 78.3301 40.2493 78.0336 39.7735C77.7365 39.295 77.4951 38.6631 77.3093 37.878C77.1315 37.126 77.0443 36.4431 77.048 35.8291C77.051 35.2124 77.1395 34.6733 77.3135 34.2118C77.4869 33.7475 77.7384 33.3669 78.0681 33.0699C78.4006 32.7723 78.8059 32.567 79.2842 32.4538C79.7597 32.3414 80.2053 32.3367 80.6209 32.4398C81.0386 32.5395 81.4048 32.7302 81.7196 33.0119C82.0343 33.2936 82.2783 33.6461 82.4514 34.0693L81.4395 34.3086C81.2553 33.9494 80.9979 33.676 80.6675 33.4885C80.337 33.301 79.9479 33.2602 79.5 33.3662C78.842 33.5218 78.3914 33.9306 78.148 34.5924C77.9074 35.2536 77.908 36.1016 78.1498 37.1362L78.2161 37.1205C78.3154 36.8489 78.4518 36.6049 78.6254 36.3887C78.8012 36.1691 79.0082 35.9829 79.2465 35.8302C79.4848 35.6775 79.7491 35.5668 80.0394 35.4981C80.5259 35.383 80.9998 35.3994 81.461 35.5472C81.9215 35.6922 82.3238 35.9489 82.6678 36.3171C83.0111 36.6825 83.2475 37.1389 83.377 37.6863C83.5013 38.2116 83.4976 38.7204 83.3659 39.2128C83.2336 39.7024 82.985 40.1262 82.62 40.484C82.2572 40.8384 81.789 41.0805 81.2154 41.2104ZM80.9996 40.298C81.348 40.2156 81.6398 40.0546 81.875 39.8151C82.113 39.5749 82.2776 39.2893 82.3686 38.9583C82.4624 38.6266 82.4668 38.2811 82.3818 37.9217C82.2987 37.5706 82.1444 37.27 81.9188 37.0197C81.6953 36.766 81.4264 36.5859 81.1122 36.4792C80.8007 36.3719 80.4708 36.3594 80.1225 36.4418C79.8598 36.504 79.6276 36.6144 79.4257 36.773C79.2232 36.929 79.0575 37.117 78.9286 37.3373C78.8025 37.5569 78.7185 37.7942 78.6767 38.0494C78.6342 38.3017 78.6431 38.5551 78.7032 38.8094C78.783 39.1467 78.9363 39.4432 79.1632 39.699C79.3929 39.9541 79.6672 40.1388 79.9862 40.2531C80.3079 40.3668 80.6457 40.3817 80.9996 40.298ZM86.4577 38.6216L86.4973 39.0851C86.5249 39.4114 86.5328 39.7657 86.521 40.148C86.512 40.5296 86.494 40.8915 86.4669 41.2336C86.4398 41.5758 86.4154 41.8487 86.3935 42.0524L85.647 42.2289C85.6411 42.0435 85.6329 41.7988 85.6222 41.4948C85.6116 41.1907 85.5928 40.8522 85.5659 40.479C85.5424 40.108 85.5058 39.7313 85.4562 39.3489L85.3961 38.8727L86.4577 38.6216ZM89.1166 30.128C89.4656 30.0484 89.8296 30.0323 90.2087 30.0799C90.5878 30.1274 90.9567 30.2679 91.3155 30.5012C91.6736 30.7318 92.001 31.0849 92.2974 31.5607C92.5939 32.0365 92.8343 32.6642 93.0187 33.4438C93.1973 34.1986 93.284 34.886 93.2788 35.5061C93.2758 36.1228 93.1877 36.6633 93.0143 37.1276C92.8437 37.5912 92.5922 37.9718 92.2597 38.2694C91.93 38.5664 91.526 38.7714 91.0478 38.8845C90.5723 38.997 90.1257 39.0034 89.708 38.9037C89.2924 38.8006 88.9258 38.6085 88.6083 38.3274C88.2928 38.043 88.049 37.6847 87.8767 37.2525L88.8885 37.0131C89.072 37.3814 89.3293 37.6606 89.6604 37.8509C89.9936 38.0377 90.3841 38.0782 90.832 37.9722C91.4872 37.8172 91.9365 37.4088 92.1799 36.7469C92.426 36.0844 92.4255 35.2306 92.1783 34.1856L92.1119 34.2013C92.012 34.4702 91.8756 34.7141 91.7026 34.9331C91.5296 35.1521 91.324 35.3379 91.0857 35.4906C90.8474 35.6433 90.5817 35.7543 90.2887 35.8237C89.8021 35.9388 89.3272 35.9241 88.8639 35.7797C88.4027 35.6319 88.0005 35.3753 87.6571 35.0099C87.3159 34.641 87.0805 34.1829 86.951 33.6355C86.8281 33.1157 86.8317 32.6128 86.9619 32.1265C87.0943 31.6369 87.3415 31.2135 87.7037 30.8563C88.0686 30.4985 88.5396 30.2558 89.1166 30.128ZM89.3324 31.0403C88.984 31.1227 88.6909 31.2841 88.4528 31.5243C88.2169 31.7611 88.0521 32.0453 87.9583 32.3769C87.8666 32.7051 87.8626 33.0462 87.9463 33.4001C88.03 33.7539 88.1836 34.0577 88.4071 34.3114C88.6327 34.5616 88.9012 34.7404 89.2127 34.8477C89.5263 34.9516 89.8573 34.9624 90.2056 34.88C90.4682 34.8178 90.7008 34.7088 90.9033 34.5529C91.1052 34.3942 91.2691 34.2051 91.3953 33.9855C91.5235 33.7625 91.6089 33.5248 91.6514 33.2724C91.6932 33.0173 91.6844 32.764 91.6248 32.5124C91.5464 32.1806 91.3926 31.8886 91.1636 31.6362C90.9374 31.3832 90.6634 31.1999 90.3416 31.0862C90.0227 30.9719 89.6862 30.9566 89.3324 31.0403ZM96.4038 28.4043C96.7527 28.3246 97.1168 28.3086 97.4959 28.3561C97.8749 28.4037 98.2439 28.5441 98.6027 28.7774C98.9608 29.008 99.2881 29.3612 99.5846 29.8369C99.8811 30.3127 100.121 30.9404 100.306 31.7201C100.484 32.4748 100.571 33.1622 100.566 33.7823C100.563 34.399 100.475 34.9395 100.302 35.4038C100.131 35.8675 99.8794 36.2481 99.5469 36.5457C99.2172 36.8426 98.8132 37.0476 98.335 37.1608C97.8594 37.2733 97.4128 37.2797 96.9951 37.1799C96.5796 37.0768 96.213 36.8847 95.8955 36.6037C95.58 36.3192 95.3362 35.9609 95.1639 35.5287L96.1757 35.2894C96.3592 35.6576 96.6164 35.9369 96.9475 36.1271C97.2807 36.314 97.6713 36.3544 98.1191 36.2485C98.7744 36.0935 99.2237 35.685 99.467 35.0232C99.7132 34.3607 99.7127 33.5069 99.4655 32.4619L99.3991 32.4775C99.2992 32.7464 99.1628 32.9903 98.9898 33.2093C98.8168 33.4283 98.6112 33.6142 98.3729 33.7669C98.1346 33.9196 97.8689 34.0306 97.5759 34.0999C97.0893 34.215 96.6144 34.2004 96.1511 34.056C95.6899 33.9082 95.2876 33.6515 94.9443 33.2861C94.6031 32.9172 94.3677 32.4591 94.2382 31.9117C94.1153 31.392 94.1189 30.889 94.2491 30.4028C94.3814 29.9132 94.6287 29.4898 94.9909 29.1326C95.3558 28.7748 95.8268 28.532 96.4038 28.4043ZM96.6196 29.3166C96.2712 29.399 95.978 29.5603 95.74 29.8005C95.5041 30.0373 95.3392 30.3215 95.2454 30.6532C95.1538 30.9814 95.1498 31.3224 95.2335 31.6763C95.3172 32.0302 95.4708 32.3339 95.6943 32.5876C95.9199 32.8378 96.1884 33.0166 96.4999 33.1239C96.8135 33.2278 97.1444 33.2386 97.4928 33.1562C97.7554 33.0941 97.988 32.985 98.1905 32.8291C98.3923 32.6705 98.5563 32.4813 98.6825 32.2617C98.8107 32.0387 98.8961 31.801 98.9386 31.5487C98.9804 31.2936 98.9715 31.0402 98.912 30.7886C98.8336 30.4569 98.6798 30.1648 98.4508 29.9125C98.2245 29.6595 97.9506 29.4761 97.6288 29.3625C97.3099 29.2482 96.9734 29.2329 96.6196 29.3166Z" fill="black"/>
<path d="M63.8239 130.39L64.6571 130.142L71.5672 132.087L71.7471 132.691L70.4564 133.075L70.3349 132.667L65.1136 131.198L65.0482 131.217L66.5214 136.167L65.6229 136.435L63.8239 130.39ZM63.2802 134.838L65.2489 134.252L65.6369 134.136L71.645 132.348L71.9318 133.312L63.5671 135.801L63.2802 134.838ZM73.6345 138.615C73.7339 138.959 73.7707 139.322 73.7448 139.703C73.7189 140.084 73.5997 140.46 73.3872 140.832C73.1774 141.203 72.8434 141.55 72.3853 141.873C71.9272 142.196 71.3142 142.471 70.5463 142.7C69.803 142.921 69.1216 143.047 68.5022 143.077C67.8864 143.109 67.3417 143.052 66.8683 142.905C66.3957 142.761 66.0014 142.532 65.6853 142.217C65.3701 141.905 65.1424 141.513 65.0022 141.042C64.8628 140.574 64.831 140.128 64.9068 139.705C64.9861 139.285 65.157 138.908 65.4195 138.575C65.6855 138.244 66.0294 137.98 66.451 137.783L66.7476 138.78C66.3904 138.984 66.1263 139.257 65.9552 139.598C65.7876 139.941 65.7695 140.334 65.9008 140.775C66.0928 141.42 66.5262 141.845 67.2008 142.051C67.8763 142.259 68.7286 142.209 69.7579 141.903L69.7384 141.838C69.4643 141.753 69.213 141.631 68.9845 141.471C68.756 141.311 68.5588 141.116 68.3928 140.887C68.2267 140.657 68.1008 140.399 68.0149 140.11C67.8723 139.631 67.8598 139.156 67.9776 138.685C68.0989 138.216 68.3322 137.8 68.6775 137.436C69.0263 137.075 69.4703 136.813 70.0094 136.653C70.5213 136.501 71.0237 136.476 71.5166 136.578C72.0129 136.682 72.4497 136.905 72.8269 137.246C73.205 137.59 73.4742 138.047 73.6345 138.615ZM72.736 138.883C72.6339 138.54 72.4561 138.256 72.2027 138.032C71.9529 137.81 71.6598 137.662 71.3233 137.587C70.9904 137.514 70.6497 137.53 70.3012 137.633C69.9526 137.737 69.6581 137.908 69.4176 138.145C69.1806 138.385 69.0174 138.663 68.928 138.98C68.8421 139.299 68.8502 139.63 68.9523 139.973C69.0293 140.232 69.1514 140.458 69.3186 140.651C69.4885 140.844 69.6867 140.997 69.9131 141.11C70.143 141.225 70.3852 141.297 70.6396 141.325C70.8967 141.352 71.1491 141.329 71.3969 141.255C71.7236 141.158 72.0064 140.988 72.2453 140.745C72.4851 140.505 72.6525 140.221 72.7476 139.893C72.8436 139.568 72.8397 139.231 72.736 138.883ZM67.9883 146.475L67.5278 146.54C67.2036 146.587 66.8503 146.615 66.468 146.625C66.0864 146.637 65.7241 146.64 65.381 146.632C65.0379 146.625 64.764 146.616 64.5594 146.606L64.3406 145.871C64.5254 145.854 64.7693 145.832 65.0722 145.804C65.3751 145.776 65.7121 145.738 66.0831 145.69C66.4522 145.645 66.8262 145.587 67.2051 145.516L67.6771 145.429L67.9883 146.475ZM67.3713 148.584L68.1065 148.366L71.9506 150.227C72.401 150.446 72.7881 150.621 73.1119 150.753C73.4384 150.884 73.7324 150.966 73.9938 150.997C74.2587 151.031 74.5192 151.01 74.7752 150.934C75.0692 150.846 75.3028 150.7 75.4757 150.494C75.6495 150.291 75.7589 150.051 75.8038 149.774C75.8488 149.497 75.8263 149.207 75.7364 148.905C75.6407 148.584 75.4906 148.323 75.2858 148.123C75.0846 147.925 74.8462 147.796 74.5704 147.736C74.2954 147.678 73.9986 147.697 73.68 147.792L73.3932 146.828C73.8833 146.682 74.3471 146.667 74.7847 146.783C75.2223 146.899 75.6025 147.12 75.9253 147.448C76.2489 147.779 76.4833 148.188 76.6283 148.675C76.7742 149.165 76.7999 149.63 76.7056 150.07C76.6113 150.51 76.4206 150.89 76.1333 151.21C75.8461 151.53 75.4874 151.753 75.0572 151.881C74.7495 151.973 74.432 152.007 74.1047 151.983C73.7809 151.96 73.3988 151.867 72.9584 151.701C72.5214 151.538 71.9743 151.293 71.3171 150.967L68.7485 149.686L68.6831 149.706L69.8403 153.594L68.9417 153.861L67.3713 148.584ZM70.1705 158.409C70.0101 157.869 69.9596 157.361 70.0192 156.884C70.0795 156.41 70.2376 156 70.4933 155.654C70.7526 155.31 71.0982 155.062 71.5301 154.91L71.8364 155.939C71.5733 156.041 71.368 156.203 71.2206 156.424C71.0759 156.645 70.9897 156.904 70.9621 157.199C70.9346 157.495 70.9686 157.804 71.0642 158.125C71.1712 158.484 71.3286 158.784 71.5365 159.025C71.7444 159.265 71.9835 159.431 72.2538 159.523C72.524 159.614 72.8062 159.616 73.1003 159.529C73.408 159.437 73.6562 159.28 73.845 159.058C74.0365 158.835 74.1552 158.557 74.2011 158.223C74.247 157.889 74.2068 157.51 74.0804 157.085L73.881 156.415L74.7796 156.148L74.9789 156.818C75.0778 157.15 75.2244 157.423 75.4188 157.638C75.6139 157.856 75.8415 158.003 76.1015 158.08C76.3622 158.159 76.6397 158.155 76.9337 158.068C77.2169 157.983 77.4447 157.847 77.6171 157.66C77.7895 157.472 77.9002 157.246 77.9492 156.983C77.999 156.722 77.9782 156.438 77.8866 156.13C77.8007 155.841 77.6666 155.585 77.4842 155.361C77.3054 155.138 77.0927 154.976 76.8461 154.875C76.6022 154.772 76.3394 154.756 76.0576 154.825L75.7659 153.845C76.2091 153.73 76.6324 153.748 77.0356 153.898C77.4415 154.047 77.7966 154.294 78.1009 154.639C78.406 154.987 78.6302 155.402 78.7737 155.884C78.9276 156.401 78.9549 156.876 78.8554 157.309C78.7587 157.741 78.5697 158.107 78.2885 158.407C78.0073 158.707 77.6693 158.916 77.2745 159.033C76.8034 159.173 76.3649 159.169 75.959 159.02C75.5539 158.874 75.2245 158.609 74.9709 158.225L74.9056 158.244C74.9757 158.799 74.8738 159.278 74.6 159.682C74.3289 160.086 73.9278 160.367 73.3969 160.525C72.9422 160.66 72.4969 160.658 72.061 160.518C71.6286 160.38 71.2458 160.129 70.9124 159.766C70.5791 159.403 70.3318 158.95 70.1705 158.409Z" fill="black"/>
<path d="M138.312 177.921C138.145 177.36 138.097 176.834 138.168 176.345C138.242 175.858 138.419 175.442 138.699 175.098C138.982 174.753 139.35 174.514 139.803 174.383C140.156 174.275 140.503 174.247 140.845 174.299C141.189 174.351 141.499 174.469 141.773 174.654C142.051 174.841 142.262 175.079 142.408 175.368L142.457 175.353C142.441 174.922 142.571 174.537 142.846 174.197C143.124 173.856 143.486 173.621 143.93 173.492C144.354 173.363 144.766 173.357 145.166 173.476C145.566 173.594 145.919 173.815 146.226 174.138C146.533 174.465 146.76 174.873 146.906 175.363C147.05 175.848 147.082 176.31 147.002 176.748C146.922 177.187 146.747 177.565 146.477 177.883C146.208 178.203 145.861 178.428 145.437 178.557C144.993 178.686 144.561 178.683 144.141 178.547C143.724 178.413 143.406 178.165 143.186 177.804L143.137 177.819C143.172 178.137 143.124 178.448 142.992 178.751C142.863 179.053 142.668 179.321 142.409 179.556C142.153 179.789 141.848 179.96 141.494 180.068C141.042 180.2 140.602 180.197 140.176 180.06C139.754 179.925 139.378 179.674 139.049 179.306C138.724 178.941 138.478 178.479 138.312 177.921ZM139.211 177.653C139.323 178.032 139.482 178.34 139.686 178.579C139.891 178.817 140.127 178.978 140.395 179.061C140.662 179.145 140.947 179.143 141.247 179.057C141.562 178.96 141.817 178.795 142.011 178.563C142.206 178.33 142.331 178.054 142.387 177.735C142.444 177.418 142.42 177.083 142.315 176.729C142.209 176.373 142.045 176.075 141.822 175.836C141.601 175.599 141.345 175.437 141.055 175.348C140.765 175.262 140.463 175.268 140.148 175.365C139.848 175.451 139.608 175.601 139.428 175.814C139.25 176.031 139.14 176.296 139.1 176.61C139.061 176.924 139.097 177.272 139.211 177.653ZM143.181 176.472C143.27 176.771 143.409 177.019 143.598 177.215C143.787 177.413 144.009 177.547 144.264 177.617C144.519 177.686 144.791 177.679 145.08 177.596C145.363 177.509 145.589 177.369 145.76 177.176C145.934 176.982 146.043 176.752 146.089 176.487C146.137 176.22 146.115 175.933 146.023 175.626C145.93 175.313 145.79 175.056 145.604 174.857C145.419 174.657 145.202 174.524 144.952 174.46C144.704 174.394 144.439 174.405 144.157 174.492C143.867 174.575 143.634 174.714 143.458 174.909C143.283 175.106 143.17 175.34 143.12 175.609C143.07 175.879 143.09 176.167 143.181 176.472ZM140.451 185.106C140.354 184.761 140.317 184.399 140.34 184.018C140.364 183.638 140.481 183.262 140.694 182.891C140.909 182.518 141.246 182.17 141.704 181.847C142.165 181.524 142.782 181.247 143.555 181.016C144.296 180.796 144.973 180.67 145.586 180.639C146.202 180.607 146.745 180.664 147.216 180.812C147.689 180.958 148.083 181.188 148.399 181.5C148.715 181.815 148.943 182.208 149.083 182.679C149.222 183.148 149.252 183.592 149.173 184.013C149.097 184.436 148.928 184.812 148.664 185.142C148.401 185.473 148.063 185.736 147.65 185.933L147.354 184.937C147.702 184.732 147.96 184.46 148.129 184.119C148.297 183.779 148.316 183.388 148.184 182.947C147.992 182.299 147.558 181.872 146.883 181.667C146.209 181.464 145.363 181.513 144.344 181.813L144.363 181.879C144.64 181.962 144.891 182.085 145.117 182.246C145.346 182.409 145.544 182.605 145.71 182.834C145.876 183.063 146.002 183.321 146.087 183.606C146.229 184.086 146.24 184.56 146.119 185.029C146 185.497 145.767 185.913 145.419 186.277C145.073 186.641 144.631 186.903 144.092 187.063C143.575 187.217 143.066 187.243 142.567 187.139C142.071 187.035 141.634 186.811 141.256 186.467C140.881 186.125 140.613 185.671 140.451 185.106ZM141.349 184.838C141.451 185.182 141.629 185.464 141.881 185.685C142.135 185.909 142.429 186.057 142.765 186.129C143.101 186.204 143.446 186.188 143.8 186.083C144.146 185.98 144.438 185.809 144.675 185.569C144.915 185.332 145.08 185.053 145.168 184.733C145.258 184.416 145.251 184.086 145.149 183.743C145.072 183.485 144.949 183.259 144.779 183.066C144.612 182.873 144.414 182.718 144.187 182.602C143.961 182.489 143.719 182.419 143.462 182.391C143.208 182.363 142.955 182.387 142.705 182.461C142.372 182.56 142.085 182.73 141.843 182.971C141.601 183.215 141.432 183.499 141.336 183.824C141.241 184.152 141.245 184.49 141.349 184.838ZM143.334 190.192L142.873 190.258C142.549 190.304 142.196 190.332 141.813 190.342C141.432 190.355 141.07 190.358 140.726 190.35C140.383 190.343 140.109 190.334 139.905 190.324L139.686 189.588C139.871 189.572 140.115 189.55 140.418 189.522C140.721 189.494 141.058 189.456 141.428 189.408C141.798 189.363 142.172 189.305 142.551 189.234L143.023 189.147L143.334 190.192ZM144.374 191.596L145.207 191.348L152.117 193.293L152.297 193.897L151.006 194.281L150.885 193.873L145.663 192.403L145.598 192.423L147.071 197.373L146.173 197.64L144.374 191.596ZM143.83 196.043L145.799 195.458L146.187 195.342L152.195 193.554L152.482 194.518L144.117 197.007L143.83 196.043ZM145.61 202.444C145.427 201.829 145.439 201.255 145.645 200.722C145.854 200.189 146.244 199.712 146.816 199.293C147.39 198.873 148.132 198.528 149.042 198.257C149.946 197.988 150.752 197.873 151.46 197.911C152.171 197.951 152.76 198.138 153.227 198.47C153.697 198.804 154.022 199.277 154.204 199.886C154.385 200.496 154.37 201.068 154.159 201.603C153.951 202.139 153.56 202.617 152.985 203.037C152.414 203.459 151.677 203.804 150.773 204.073C149.863 204.344 149.053 204.46 148.342 204.423C147.634 204.385 147.047 204.199 146.581 203.867C146.117 203.534 145.794 203.059 145.61 202.444ZM146.509 202.176C146.69 202.786 147.126 203.173 147.814 203.335C148.503 203.498 149.392 203.417 150.481 203.093C151.205 202.877 151.799 202.616 152.262 202.31C152.726 202.006 153.048 201.67 153.229 201.301C153.411 200.936 153.442 200.552 153.322 200.149C153.142 199.545 152.703 199.161 152.005 198.998C151.311 198.834 150.42 198.914 149.333 199.237C148.609 199.453 148.016 199.712 147.555 200.016C147.094 200.319 146.774 200.653 146.595 201.017C146.417 201.384 146.388 201.771 146.509 202.176Z" fill="black"/>
<path d="M81.6444 215.561L30.5806 46.0959L77.1047 27.4751L101.11 21.4738L149.817 168.151L199.581 316.383L133.41 434.919L34.5812 407.979L58.1128 311.77L81.6444 215.561Z" stroke="#379482" stroke-width="2"/>
<path d="M19.9058 45.4984C42.5894 35.6392 93.2494 14.72 109.973 16.1432M13.0586 29.9213C35.7423 20.062 90.3314 -1.38849 109.973 0.687431" stroke="#C4C4C4"/>
<path d="M5.30421 412.35C36.5604 417.513 145.139 440.539 209.399 473.473M2.73504 431.855C33.3559 436.913 141.291 459.091 206.83 492.978" stroke="#C4C4C4"/>
<path d="M95.9759 439.254L97.1837 439.617L97.9357 447.409L98.0336 447.439L102.962 441.357L104.17 441.72L101.654 450.077L100.707 449.792L102.619 443.443L102.537 443.418L98.0142 448.982L97.1002 448.706L96.3999 441.571L96.3182 441.546L94.4071 447.896L93.4604 447.611L95.9759 439.254ZM105.353 451.351C104.956 451.231 104.618 451.048 104.339 450.801C104.061 450.551 103.87 450.255 103.765 449.912C103.662 449.566 103.671 449.189 103.794 448.781C103.902 448.422 104.061 448.152 104.269 447.972C104.479 447.788 104.721 447.669 104.996 447.612C105.271 447.555 105.561 447.539 105.866 447.562C106.174 447.584 106.479 447.619 106.781 447.669C107.177 447.734 107.497 447.791 107.741 447.837C107.988 447.882 108.176 447.89 108.304 447.86C108.434 447.831 108.523 447.739 108.569 447.584L108.579 447.551C108.7 447.149 108.684 446.803 108.531 446.513C108.381 446.225 108.084 446.014 107.64 445.88C107.18 445.742 106.79 445.734 106.468 445.857C106.146 445.979 105.898 446.139 105.723 446.335L104.907 445.734C105.185 445.402 105.492 445.171 105.828 445.041C106.167 444.909 106.512 444.849 106.861 444.862C107.213 444.873 107.547 444.927 107.863 445.022C108.064 445.082 108.288 445.176 108.535 445.304C108.785 445.429 109.01 445.603 109.21 445.823C109.414 446.045 109.552 446.328 109.626 446.674C109.7 447.019 109.662 447.441 109.513 447.939L108.27 452.068L107.307 451.779L107.562 450.93L107.513 450.915C107.407 451.031 107.254 451.144 107.055 451.253C106.856 451.363 106.614 451.434 106.328 451.466C106.042 451.499 105.717 451.46 105.353 451.351ZM105.76 450.53C106.141 450.644 106.484 450.666 106.791 450.595C107.099 450.525 107.356 450.392 107.561 450.195C107.768 449.999 107.911 449.771 107.989 449.51L108.255 448.628C108.199 448.665 108.096 448.683 107.945 448.682C107.797 448.679 107.629 448.666 107.441 448.642C107.256 448.616 107.076 448.588 106.901 448.559C106.729 448.528 106.589 448.504 106.482 448.486C106.222 448.444 105.972 448.426 105.732 448.434C105.496 448.44 105.289 448.495 105.113 448.599C104.94 448.702 104.816 448.875 104.742 449.12C104.642 449.454 104.689 449.745 104.885 449.991C105.085 450.235 105.376 450.414 105.76 450.53ZM109.32 454.948L111.914 446.33L112.844 446.61L112.545 447.606L112.659 447.64C112.762 447.552 112.902 447.443 113.078 447.312C113.257 447.179 113.485 447.082 113.762 447.02C114.043 446.956 114.387 446.985 114.795 447.108C115.323 447.267 115.748 447.539 116.071 447.924C116.394 448.309 116.596 448.778 116.676 449.33C116.756 449.882 116.697 450.487 116.499 451.146C116.299 451.809 116.013 452.351 115.641 452.77C115.269 453.186 114.843 453.467 114.363 453.613C113.884 453.757 113.383 453.75 112.861 453.593C112.458 453.472 112.156 453.308 111.954 453.102C111.753 452.893 111.612 452.683 111.533 452.472C111.455 452.259 111.398 452.085 111.362 451.949L111.28 451.924L110.283 455.238L109.32 454.948ZM111.917 449.749C111.775 450.222 111.718 450.66 111.748 451.064C111.779 451.465 111.897 451.807 112.102 452.092C112.308 452.373 112.604 452.572 112.99 452.688C113.393 452.81 113.761 452.805 114.094 452.674C114.431 452.541 114.722 452.314 114.967 451.993C115.215 451.67 115.406 451.286 115.541 450.839C115.673 450.399 115.725 449.981 115.695 449.586C115.669 449.19 115.551 448.847 115.342 448.559C115.135 448.268 114.828 448.062 114.42 447.939C114.028 447.821 113.669 447.821 113.343 447.939C113.017 448.055 112.733 448.269 112.491 448.582C112.249 448.892 112.058 449.281 111.917 449.749ZM120.508 446.638L117.992 454.995L117.029 454.705L119.545 446.348L120.508 446.638ZM122.345 456.448C121.741 456.266 121.26 455.976 120.902 455.577C120.548 455.177 120.325 454.7 120.233 454.148C120.145 453.593 120.198 452.995 120.391 452.353C120.584 451.711 120.872 451.18 121.253 450.761C121.638 450.34 122.082 450.055 122.587 449.907C123.095 449.758 123.631 449.768 124.197 449.938C124.524 450.037 124.83 450.188 125.115 450.393C125.401 450.597 125.637 450.861 125.825 451.185C126.013 451.505 126.124 451.889 126.159 452.336C126.194 452.782 126.123 453.298 125.947 453.883L125.824 454.291L120.993 452.837L121.244 452.004L125.096 453.164C125.202 452.81 125.226 452.473 125.168 452.153C125.113 451.834 124.98 451.555 124.77 451.317C124.563 451.079 124.285 450.908 123.937 450.803C123.553 450.688 123.193 450.683 122.855 450.789C122.521 450.893 122.234 451.074 121.994 451.331C121.753 451.588 121.581 451.889 121.477 452.235L121.31 452.79C121.167 453.263 121.128 453.689 121.192 454.067C121.26 454.443 121.415 454.761 121.657 455.021C121.9 455.278 122.216 455.465 122.605 455.583C122.858 455.659 123.097 455.692 123.323 455.683C123.551 455.672 123.762 455.616 123.955 455.517C124.149 455.415 124.32 455.268 124.467 455.075L125.319 455.616C125.126 455.902 124.878 456.13 124.574 456.3C124.272 456.467 123.93 456.566 123.55 456.597C123.171 456.625 122.769 456.575 122.345 456.448Z" fill="#8E8E8E"/>
</svg>
