<svg width="213" height="367" viewBox="0 0 213 367" fill="none" xmlns="http://www.w3.org/2000/svg">
<path d="M62.1367 189.183L140.75 51.0401L191.56 31.8854L157.588 162.885L140.602 228.385L123.617 293.885L38.0902 270.559L31.0848 268.546L46.3483 229.423L62.1367 189.183Z" stroke="#379482" stroke-width="2"/>
<path d="M69.3544 271.579C68.8191 271.407 68.3715 271.161 68.0118 270.842C67.6548 270.523 67.406 270.161 67.2655 269.755C67.1286 269.346 67.1196 268.921 67.2384 268.479L68.2604 268.808C68.1956 269.083 68.213 269.344 68.3124 269.591C68.4127 269.835 68.5769 270.052 68.8052 270.242C69.0334 270.432 69.307 270.579 69.6261 270.682C69.9829 270.797 70.3193 270.837 70.6352 270.801C70.9511 270.766 71.2233 270.663 71.4516 270.492C71.6799 270.321 71.8412 270.089 71.9354 269.797C72.034 269.492 72.0451 269.198 71.9687 268.917C71.8932 268.633 71.7308 268.377 71.4816 268.151C71.2323 267.924 70.8968 267.743 70.4751 267.606L69.81 267.392L70.0978 266.5L70.7629 266.714C71.0928 266.821 71.4013 266.855 71.6884 266.816C71.9782 266.778 72.2283 266.674 72.4387 266.503C72.6518 266.333 72.8054 266.102 72.8996 265.81C72.9903 265.528 73.0071 265.264 72.9499 265.015C72.8927 264.767 72.7693 264.548 72.5797 264.359C72.3928 264.17 72.1466 264.026 71.8411 263.928C71.5545 263.835 71.2671 263.801 70.979 263.824C70.6944 263.846 70.4405 263.93 70.2173 264.075C69.995 264.219 69.8326 264.426 69.7301 264.697L68.7567 264.383C68.9134 263.953 69.1675 263.614 69.5191 263.367C69.8716 263.116 70.2762 262.963 70.733 262.907C71.1924 262.853 71.6614 262.903 72.14 263.057C72.6537 263.223 73.0608 263.469 73.3613 263.796C73.6627 264.12 73.8576 264.483 73.9459 264.884C74.0342 265.286 74.0151 265.683 73.8886 266.075C73.7377 266.543 73.486 266.902 73.1336 267.152C72.7838 267.404 72.3789 267.525 71.9188 267.517L71.8979 267.582C72.3945 267.838 72.7321 268.193 72.9108 268.648C73.0904 269.1 73.0951 269.589 72.925 270.116C72.7793 270.568 72.5254 270.934 72.1634 271.214C71.8049 271.492 71.3816 271.666 70.8936 271.736C70.4055 271.805 69.8924 271.753 69.3544 271.579ZM76.6259 273.925C76.0906 273.753 75.643 273.507 75.2833 273.188C74.9262 272.87 74.6775 272.507 74.537 272.101C74.4001 271.692 74.3911 271.267 74.5099 270.825L75.5319 271.154C75.4671 271.429 75.4845 271.69 75.5839 271.937C75.6842 272.181 75.8484 272.398 76.0767 272.588C76.3049 272.779 76.5785 272.925 76.8976 273.028C77.2544 273.143 77.5908 273.183 77.9067 273.148C78.2226 273.112 78.4948 273.009 78.7231 272.838C78.9514 272.667 79.1127 272.435 79.2069 272.143C79.3055 271.838 79.3166 271.544 79.2402 271.263C79.1647 270.979 79.0023 270.723 78.7531 270.497C78.5038 270.27 78.1683 270.089 77.7465 269.953L77.0814 269.738L77.3693 268.846L78.0344 269.06C78.3643 269.167 78.6728 269.201 78.9599 269.162C79.2497 269.124 79.4998 269.02 79.7102 268.849C79.9233 268.679 80.0769 268.448 80.1711 268.156C80.2618 267.875 80.2786 267.61 80.2214 267.362C80.1642 267.113 80.0408 266.894 79.8512 266.705C79.6643 266.516 79.4181 266.372 79.1126 266.274C78.826 266.181 78.5386 266.147 78.2505 266.17C77.9659 266.192 77.712 266.276 77.4888 266.422C77.2665 266.565 77.1041 266.772 77.0016 267.044L76.0282 266.729C76.1849 266.299 76.439 265.961 76.7906 265.713C77.1431 265.462 77.5477 265.309 78.0045 265.254C78.4639 265.199 78.9329 265.249 79.4115 265.403C79.9252 265.569 80.3323 265.815 80.6328 266.142C80.9342 266.466 81.1291 266.829 81.2174 267.231C81.3057 267.632 81.2866 268.029 81.1601 268.421C81.0092 268.889 80.7575 269.248 80.4051 269.498C80.0553 269.75 79.6504 269.871 79.1903 269.863L79.1694 269.928C79.666 270.184 80.0036 270.539 80.1823 270.994C80.3619 271.446 80.3666 271.935 80.1965 272.463C80.0508 272.914 79.7969 273.28 79.4349 273.56C79.0764 273.838 78.6531 274.012 78.165 274.082C77.677 274.151 77.1639 274.099 76.6259 273.925ZM82.6813 274.5L82.4751 274.917C82.3296 275.211 82.1529 275.518 81.9449 275.839C81.7396 276.16 81.5367 276.461 81.3364 276.739C81.136 277.018 80.9737 277.239 80.8495 277.402L80.1195 277.166C80.2105 277.004 80.3302 276.791 80.4786 276.525C80.6269 276.26 80.7862 275.96 80.9564 275.627C81.1284 275.298 81.2922 274.956 81.4478 274.604L81.6431 274.165L82.6813 274.5ZM84.0719 276.203L84.3075 275.473L88.0173 273.356C88.4524 273.108 88.8159 272.888 89.1079 272.696C89.4007 272.501 89.6342 272.305 89.8083 272.107C89.9861 271.908 90.116 271.681 90.198 271.427C90.2922 271.135 90.3035 270.859 90.2318 270.6C90.1628 270.342 90.0268 270.116 89.8237 269.922C89.6205 269.729 89.3689 269.583 89.0688 269.486C88.7498 269.383 88.45 269.36 88.1693 269.415C87.8922 269.469 87.6508 269.593 87.4451 269.786C87.2422 269.981 87.0897 270.236 86.9876 270.552L86.0305 270.243C86.1875 269.757 86.4376 269.366 86.7806 269.07C87.1236 268.775 87.5216 268.587 87.9745 268.506C88.4302 268.427 88.9 268.465 89.3839 268.621C89.8706 268.778 90.2687 269.02 90.5782 269.346C90.8877 269.673 91.093 270.045 91.194 270.463C91.2951 270.881 91.2767 271.303 91.1389 271.73C91.0403 272.036 90.8885 272.317 90.6834 272.573C90.4819 272.827 90.1884 273.089 89.8029 273.359C89.421 273.627 88.9096 273.94 88.2689 274.297L85.7596 275.69L85.7387 275.755L89.5995 277.001L89.3116 277.893L84.0719 276.203ZM93.6103 279.406C93.0533 279.226 92.5931 278.968 92.2296 278.633C91.8697 278.296 91.627 277.915 91.5017 277.489C91.3771 277.061 91.3886 276.623 91.5361 276.175C91.6468 275.823 91.8205 275.52 92.057 275.268C92.2944 275.014 92.5671 274.826 92.875 274.704C93.1864 274.581 93.5023 274.541 93.8225 274.584L93.8382 274.536C93.474 274.305 93.2296 273.98 93.1052 273.56C92.9816 273.138 92.9923 272.707 93.1372 272.268C93.2706 271.845 93.499 271.502 93.8226 271.24C94.1462 270.977 94.5282 270.81 94.9687 270.741C95.4118 270.672 95.8768 270.716 96.3634 270.873C96.8447 271.028 97.2436 271.263 97.5602 271.577C97.8767 271.891 98.0895 272.249 98.1985 272.651C98.3102 273.055 98.2994 273.468 98.166 273.89C98.0211 274.33 97.7738 274.685 97.4243 274.954C97.0783 275.221 96.694 275.344 96.2715 275.321L96.2558 275.369C96.5385 275.52 96.7674 275.736 96.9426 276.016C97.1187 276.294 97.23 276.606 97.2764 276.953C97.3238 277.296 97.2921 277.644 97.1814 277.996C97.0339 278.444 96.7831 278.805 96.4291 279.079C96.0786 279.351 95.6589 279.519 95.1698 279.582C94.6844 279.643 94.1645 279.584 93.6103 279.406ZM93.8982 278.513C94.274 278.635 94.618 278.678 94.9304 278.645C95.2427 278.611 95.509 278.508 95.7292 278.334C95.9494 278.16 96.1089 277.925 96.2075 277.629C96.306 277.314 96.3143 277.011 96.2325 276.719C96.1506 276.427 95.994 276.167 95.7627 275.94C95.5341 275.714 95.2441 275.545 94.8926 275.431C94.5385 275.317 94.1999 275.284 93.8769 275.332C93.5567 275.381 93.2779 275.5 93.0408 275.689C92.8063 275.879 92.6399 276.131 92.5414 276.446C92.4427 276.742 92.4306 277.025 92.5051 277.294C92.5823 277.563 92.7391 277.803 92.9756 278.014C93.2121 278.225 93.5197 278.391 93.8982 278.513ZM95.17 274.571C95.4674 274.667 95.7502 274.693 96.0184 274.648C96.2893 274.604 96.5255 274.497 96.7269 274.326C96.9283 274.155 97.0766 273.927 97.1717 273.641C97.2598 273.359 97.2725 273.093 97.2099 272.843C97.1481 272.59 97.0207 272.37 96.8275 272.182C96.6352 271.992 96.3863 271.847 96.0808 271.749C95.7699 271.648 95.4794 271.619 95.2094 271.66C94.9402 271.699 94.7081 271.803 94.513 271.973C94.3187 272.14 94.1776 272.365 94.0896 272.647C93.9944 272.932 93.9772 273.203 94.0381 273.458C94.1017 273.715 94.2305 273.94 94.4246 274.134C94.6188 274.328 94.8672 274.474 95.17 274.571Z" fill="black"/>
<path d="M154.575 50.9798L158.468 58.7905L157.522 59.262L154.123 52.4428L154.077 52.4656L152.801 54.6823L152.322 53.7213L153.629 51.4512L154.575 50.9798ZM163.269 56.5305C162.746 56.7916 162.237 56.9294 161.742 56.9441C161.249 56.9549 160.809 56.8521 160.422 56.6356C160.033 56.4166 159.735 56.0954 159.527 55.6721C159.36 55.3429 159.273 55.0054 159.266 54.6598C159.257 54.3117 159.321 53.9866 159.456 53.6843C159.592 53.3783 159.79 53.1289 160.049 52.9361L160.026 52.8904C159.604 52.98 159.202 52.9186 158.82 52.7059C158.437 52.4907 158.143 52.1753 157.939 51.7596C157.739 51.3642 157.662 50.9595 157.71 50.5453C157.758 50.1312 157.914 49.7452 158.18 49.3872C158.449 49.028 158.812 48.7343 159.27 48.5062C159.722 48.2806 160.171 48.1694 160.617 48.1725C161.063 48.1756 161.466 48.2828 161.825 48.4941C162.187 48.7042 162.468 49.0069 162.668 49.4023C162.872 49.818 162.944 50.2443 162.882 50.6813C162.822 51.1145 162.633 51.4706 162.315 51.7497L162.338 51.7955C162.645 51.7057 162.96 51.6997 163.281 51.7776C163.601 51.853 163.899 51.9982 164.174 52.2132C164.448 52.4257 164.669 52.6966 164.836 53.0259C165.044 53.4492 165.117 53.8825 165.056 54.3259C164.996 54.7654 164.813 55.1787 164.507 55.5658C164.203 55.9491 163.791 56.2707 163.269 56.5305ZM162.851 55.6915C163.204 55.5153 163.481 55.306 163.681 55.0636C163.881 54.8212 163.998 54.5609 164.034 54.2827C164.07 54.0045 164.02 53.7249 163.883 53.444C163.733 53.1503 163.527 52.9277 163.264 52.7762C163.002 52.6247 162.708 52.5487 162.384 52.5483C162.063 52.5467 161.737 52.6282 161.406 52.793C161.073 52.959 160.808 53.1721 160.611 53.4323C160.416 53.6912 160.3 53.9712 160.263 54.2723C160.228 54.5721 160.286 54.8688 160.435 55.1625C160.572 55.4434 160.761 55.6539 161.002 55.794C161.246 55.9328 161.526 55.9948 161.843 55.9799C162.159 55.965 162.495 55.8689 162.851 55.6915ZM161.003 51.9844C161.283 51.845 161.503 51.6655 161.663 51.4459C161.826 51.2251 161.92 50.9831 161.944 50.7202C161.969 50.4572 161.915 50.1903 161.783 49.9196C161.649 49.6564 161.472 49.4574 161.252 49.3224C161.032 49.1849 160.786 49.1167 160.517 49.1176C160.246 49.116 159.967 49.1868 159.68 49.33C159.388 49.4757 159.159 49.6578 158.995 49.8761C158.83 50.0919 158.737 50.3287 158.716 50.5866C158.694 50.8419 158.751 51.1012 158.885 51.3643C159.017 51.6351 159.194 51.8405 159.416 51.9806C159.64 52.1193 159.89 52.1901 160.164 52.193C160.439 52.1959 160.719 52.1264 161.003 51.9844ZM167.916 52.7476L168.061 53.19C168.162 53.5014 168.25 53.8445 168.326 54.2194C168.404 54.593 168.469 54.9495 168.521 55.2887C168.573 55.628 168.611 55.8993 168.636 56.1026L167.95 56.4448C167.902 56.2656 167.838 56.0292 167.758 55.7357C167.679 55.4421 167.583 55.1167 167.472 54.7596C167.364 54.4037 167.243 54.0453 167.107 53.6843L166.94 53.2343L167.916 52.7476ZM168.02 44.2777L171.914 52.0884L170.968 52.5599L167.569 45.7408L167.523 45.7636L166.247 47.9803L165.768 47.0192L167.074 44.7492L168.02 44.2777ZM176.852 49.76C176.349 50.0109 175.857 50.1482 175.377 50.1717C174.899 50.194 174.468 50.109 174.083 49.9167C173.7 49.7205 173.396 49.4229 173.171 49.0237L174.132 48.5446C174.278 48.7862 174.473 48.9605 174.717 49.0675C174.959 49.172 175.229 49.2123 175.525 49.1886C175.821 49.1648 176.119 49.0781 176.419 48.9286C176.754 48.7613 177.023 48.5545 177.224 48.3083C177.425 48.0621 177.547 47.798 177.591 47.516C177.634 47.234 177.588 46.9557 177.451 46.6811C177.307 46.3938 177.11 46.1763 176.859 46.0286C176.606 45.8783 176.311 45.8094 175.975 45.8217C175.638 45.834 175.271 45.9389 174.875 46.1367L174.249 46.4484L173.831 45.6094L174.457 45.2976C174.767 45.143 175.011 44.9515 175.189 44.723C175.37 44.4932 175.476 44.2437 175.506 43.9744C175.54 43.7038 175.488 43.4313 175.351 43.1567C175.219 42.8922 175.046 42.6913 174.832 42.5538C174.617 42.4163 174.376 42.3462 174.108 42.3433C173.842 42.3391 173.566 42.4087 173.278 42.5519C173.009 42.6862 172.779 42.8625 172.59 43.0808C172.401 43.2953 172.279 43.5327 172.221 43.7931C172.162 44.051 172.191 44.3127 172.308 44.5784L171.392 45.0346C171.204 44.6177 171.148 44.1977 171.226 43.7747C171.303 43.3492 171.485 42.9569 171.773 42.5977C172.063 42.2372 172.433 41.9448 172.883 41.7205C173.366 41.4797 173.829 41.371 174.273 41.3944C174.715 41.4153 175.108 41.5384 175.452 41.7637C175.796 41.989 176.06 42.286 176.244 42.6547C176.463 43.0945 176.534 43.5272 176.457 43.9527C176.383 44.377 176.179 44.7471 175.844 45.063L175.875 45.124C176.408 44.9595 176.898 44.9773 177.344 45.1773C177.788 45.3748 178.134 45.7214 178.381 46.2172C178.593 46.6418 178.667 47.0809 178.604 47.5344C178.543 47.984 178.362 48.4044 178.062 48.7953C177.761 49.1862 177.358 49.5078 176.852 49.76Z" fill="black"/>
<path d="M107.799 140.526C107.563 140.967 107.263 141.317 106.899 141.577C106.535 141.836 106.143 141.991 105.723 142.041C105.304 142.09 104.893 142.02 104.492 141.832L104.974 140.93C105.341 141.081 105.713 141.077 106.091 140.918C106.468 140.756 106.762 140.478 106.972 140.084C107.141 139.769 107.217 139.448 107.2 139.124C107.185 138.797 107.086 138.494 106.903 138.216C106.718 137.934 106.462 137.705 106.134 137.53C105.798 137.35 105.459 137.264 105.117 137.271C104.774 137.275 104.458 137.363 104.168 137.537C103.879 137.711 103.645 137.961 103.467 138.288C103.339 138.522 103.246 138.784 103.188 139.072C103.129 139.359 103.113 139.613 103.143 139.835L102.572 140.651L99.0325 138.16L101.17 134.161L101.997 134.603L100.277 137.82L102.402 139.304L102.427 139.259C102.386 139.034 102.387 138.781 102.432 138.498C102.477 138.216 102.568 137.946 102.706 137.688C102.957 137.217 103.295 136.858 103.717 136.61C104.138 136.358 104.599 136.231 105.1 136.228C105.602 136.223 106.102 136.353 106.601 136.62C107.092 136.882 107.472 137.227 107.74 137.653C108.006 138.076 108.149 138.539 108.167 139.042C108.183 139.543 108.06 140.038 107.799 140.526ZM111.24 134.087C111.005 134.528 110.705 134.879 110.34 135.138C109.976 135.398 109.584 135.552 109.165 135.602C108.745 135.651 108.335 135.582 107.933 135.393L108.415 134.491C108.782 134.642 109.155 134.638 109.533 134.479C109.91 134.317 110.203 134.039 110.413 133.646C110.582 133.33 110.658 133.01 110.642 132.685C110.626 132.358 110.527 132.055 110.344 131.777C110.16 131.495 109.904 131.266 109.576 131.091C109.24 130.911 108.901 130.825 108.559 130.833C108.216 130.836 107.899 130.925 107.61 131.098C107.32 131.272 107.087 131.523 106.909 131.85C106.78 132.084 106.687 132.345 106.63 132.633C106.57 132.92 106.555 133.174 106.584 133.396L106.013 134.212L102.474 131.721L104.611 127.722L105.438 128.164L103.719 131.381L105.844 132.865L105.868 132.82C105.827 132.595 105.829 132.342 105.874 132.06C105.918 131.777 106.009 131.507 106.147 131.249C106.399 130.778 106.736 130.419 107.158 130.171C107.58 129.919 108.041 129.792 108.541 129.789C109.044 129.784 109.544 129.914 110.043 130.181C110.534 130.443 110.913 130.788 111.181 131.215C111.448 131.638 111.591 132.1 111.609 132.603C111.624 133.104 111.501 133.599 111.24 134.087ZM112.799 128.387L113.173 128.664C113.436 128.859 113.707 129.088 113.985 129.349C114.266 129.609 114.525 129.862 114.764 130.108C115.002 130.355 115.191 130.554 115.329 130.705L114.967 131.382C114.824 131.263 114.635 131.108 114.4 130.914C114.165 130.721 113.899 130.511 113.602 130.285C113.308 130.057 113.001 129.835 112.682 129.619L112.285 129.349L112.799 128.387ZM113.047 126.658L112.28 126.248L108.736 120.005L109.034 119.449L110.221 120.084L110.02 120.459L112.698 125.176L112.758 125.209L115.193 120.654L116.02 121.096L113.047 126.658ZM116.562 123.878L114.75 122.91L114.393 122.719L108.865 119.764L109.339 118.878L117.036 122.992L116.562 123.878ZM118.48 120.29L113.51 113.208L113.45 113.176L111.328 117.144L110.502 116.702L113.137 111.772L114.009 112.238L119.002 119.313L118.48 120.29Z" fill="black"/>
<path d="M134.502 185.828C134.604 185.485 134.77 185.16 134.997 184.854C135.225 184.547 135.529 184.295 135.909 184.097C136.286 183.899 136.754 183.787 137.314 183.763C137.874 183.739 138.539 183.839 139.309 184.062C140.053 184.277 140.695 184.54 141.232 184.85C141.767 185.156 142.195 185.498 142.514 185.878C142.833 186.254 143.041 186.66 143.137 187.096C143.233 187.529 143.213 187.982 143.076 188.454C142.94 188.923 142.726 189.315 142.434 189.63C142.139 189.941 141.792 190.166 141.391 190.304C140.988 190.439 140.556 190.475 140.095 190.412L140.385 189.413C140.795 189.435 141.165 189.348 141.494 189.153C141.82 188.955 142.047 188.635 142.175 188.193C142.363 187.546 142.228 186.954 141.772 186.417C141.316 185.877 140.572 185.457 139.541 185.158L139.522 185.224C139.707 185.443 139.852 185.682 139.958 185.94C140.063 186.198 140.124 186.469 140.14 186.751C140.155 187.034 140.121 187.32 140.038 187.609C139.898 188.089 139.652 188.496 139.299 188.828C138.943 189.157 138.522 189.381 138.035 189.5C137.546 189.616 137.031 189.595 136.491 189.439C135.978 189.29 135.542 189.04 135.182 188.687C134.821 188.331 134.574 187.907 134.441 187.416C134.309 186.923 134.33 186.393 134.502 185.828ZM135.403 186.089C135.303 186.433 135.299 186.767 135.391 187.093C135.481 187.415 135.648 187.698 135.89 187.943C136.131 188.184 136.426 188.355 136.775 188.456C137.125 188.558 137.465 188.573 137.795 188.504C138.124 188.43 138.412 188.284 138.659 188.066C138.903 187.844 139.075 187.561 139.175 187.217C139.25 186.958 139.27 186.702 139.234 186.449C139.195 186.195 139.111 185.959 138.982 185.742C138.85 185.52 138.686 185.329 138.487 185.168C138.285 185.006 138.06 184.889 137.812 184.817C137.484 184.722 137.155 184.712 136.822 184.788C136.491 184.86 136.196 185.009 135.939 185.233C135.683 185.454 135.504 185.74 135.403 186.089ZM136.781 178.39L145.164 180.819L144.87 181.834L137.551 179.714L137.537 179.763L138.303 182.203L137.272 181.904L136.487 179.405L136.781 178.39ZM144.995 177.114L145.418 177.308C145.715 177.444 146.028 177.612 146.355 177.81C146.683 178.006 146.989 178.199 147.273 178.391C147.558 178.583 147.784 178.739 147.95 178.858L147.737 179.595C147.572 179.508 147.355 179.395 147.085 179.255C146.815 179.115 146.511 178.964 146.173 178.804C145.839 178.642 145.493 178.489 145.135 178.344L144.691 178.162L144.995 177.114ZM138.908 170.621C139.01 170.278 139.175 169.953 139.403 169.647C139.631 169.34 139.935 169.088 140.314 168.89C140.691 168.692 141.16 168.581 141.72 168.557C142.28 168.533 142.945 168.632 143.714 168.855C144.459 169.071 145.1 169.333 145.638 169.643C146.173 169.949 146.6 170.292 146.919 170.671C147.239 171.047 147.447 171.454 147.542 171.889C147.639 172.323 147.618 172.775 147.482 173.247C147.346 173.717 147.131 174.109 146.839 174.423C146.545 174.734 146.197 174.959 145.797 175.097C145.394 175.232 144.962 175.268 144.501 175.205L144.79 174.207C145.201 174.228 145.571 174.141 145.899 173.947C146.226 173.749 146.453 173.428 146.581 172.986C146.768 172.34 146.634 171.748 146.177 171.21C145.722 170.67 144.978 170.25 143.947 169.952L143.928 170.017C144.112 170.236 144.258 170.475 144.363 170.733C144.469 170.992 144.53 171.262 144.545 171.545C144.561 171.827 144.527 172.113 144.443 172.403C144.304 172.883 144.058 173.289 143.704 173.621C143.349 173.95 142.927 174.174 142.44 174.293C141.951 174.409 141.437 174.389 140.896 174.232C140.383 174.083 139.947 173.833 139.588 173.48C139.227 173.124 138.98 172.701 138.847 172.21C138.715 171.716 138.735 171.187 138.908 170.621ZM139.808 170.882C139.709 171.226 139.705 171.561 139.797 171.886C139.887 172.208 140.053 172.491 140.296 172.736C140.537 172.977 140.832 173.149 141.181 173.25C141.53 173.351 141.87 173.367 142.201 173.297C142.53 173.224 142.818 173.078 143.064 172.859C143.309 172.637 143.481 172.354 143.581 172.011C143.656 171.751 143.675 171.495 143.639 171.242C143.6 170.989 143.516 170.753 143.387 170.535C143.256 170.314 143.091 170.122 142.892 169.961C142.691 169.799 142.466 169.682 142.218 169.61C141.89 169.516 141.56 169.506 141.228 169.581C140.896 169.653 140.602 169.802 140.345 170.026C140.088 170.248 139.909 170.533 139.808 170.882ZM149.651 165.76C149.494 166.3 149.262 166.755 148.954 167.124C148.646 167.491 148.292 167.75 147.89 167.903C147.486 168.052 147.061 168.074 146.615 167.968L146.914 166.937C147.19 166.993 147.451 166.968 147.695 166.861C147.936 166.754 148.148 166.583 148.331 166.349C148.514 166.115 148.652 165.838 148.745 165.516C148.85 165.155 148.88 164.818 148.835 164.503C148.79 164.189 148.678 163.92 148.501 163.697C148.323 163.473 148.086 163.319 147.792 163.234C147.483 163.145 147.19 163.142 146.911 163.227C146.629 163.311 146.379 163.481 146.16 163.737C145.94 163.993 145.769 164.334 145.646 164.76L145.451 165.431L144.551 165.17L144.745 164.499C144.842 164.166 144.866 163.856 144.819 163.571C144.773 163.282 144.661 163.035 144.484 162.83C144.307 162.622 144.072 162.476 143.777 162.39C143.493 162.308 143.228 162.299 142.982 162.364C142.735 162.428 142.52 162.558 142.336 162.754C142.153 162.946 142.017 163.197 141.928 163.505C141.844 163.794 141.818 164.082 141.85 164.37C141.88 164.654 141.972 164.905 142.124 165.123C142.274 165.341 142.486 165.498 142.761 165.592L142.476 166.574C142.041 166.43 141.695 166.187 141.437 165.843C141.176 165.498 141.011 165.098 140.941 164.643C140.873 164.186 140.908 163.715 141.048 163.232C141.199 162.714 141.433 162.3 141.75 161.989C142.065 161.678 142.422 161.473 142.821 161.372C143.219 161.272 143.617 161.279 144.012 161.394C144.484 161.53 144.851 161.771 145.112 162.116C145.374 162.458 145.507 162.859 145.513 163.319L145.579 163.338C145.819 162.834 146.164 162.486 146.613 162.294C147.06 162.1 147.549 162.081 148.081 162.235C148.537 162.367 148.91 162.61 149.201 162.963C149.49 163.313 149.677 163.731 149.761 164.217C149.845 164.703 149.808 165.217 149.651 165.76Z" fill="black"/>
<path d="M59.657 234.62C59.457 235.145 59.1885 235.58 58.8513 235.923C58.5152 236.263 58.1406 236.493 57.7273 236.612C57.3125 236.728 56.8873 236.715 56.4517 236.574L56.8335 235.57C57.1045 235.649 57.3658 235.645 57.6176 235.558C57.8668 235.471 58.0921 235.318 58.2936 235.1C58.4952 234.881 58.6555 234.616 58.7747 234.302C58.9081 233.952 58.9652 233.618 58.9461 233.301C58.927 232.983 58.8378 232.706 58.6787 232.469C58.5196 232.233 58.2966 232.06 58.0098 231.95C57.7098 231.836 57.4173 231.81 57.1324 231.872C56.8448 231.933 56.5814 232.082 56.3422 232.319C56.103 232.556 55.9046 232.882 55.747 233.296L55.4986 233.95L54.6223 233.616L54.8708 232.963C54.994 232.639 55.0437 232.333 55.0198 232.044C54.9969 231.753 54.9055 231.498 54.7456 231.279C54.5868 231.057 54.3639 230.892 54.0772 230.783C53.801 230.678 53.5375 230.647 53.2866 230.692C53.0356 230.736 52.8107 230.848 52.6116 231.028C52.4136 231.205 52.2575 231.443 52.1434 231.743C52.0363 232.025 51.9871 232.31 51.9957 232.599C52.0027 232.884 52.0732 233.142 52.2075 233.372C52.3391 233.602 52.5377 233.775 52.8035 233.891L52.4399 234.847C52.0185 234.668 51.6931 234.397 51.4637 234.033C51.2317 233.668 51.0996 233.256 51.0676 232.797C51.0365 232.336 51.1104 231.87 51.2892 231.4C51.4811 230.895 51.748 230.501 52.0898 230.218C52.429 229.934 52.8014 229.758 53.207 229.69C53.6127 229.623 54.008 229.662 54.393 229.809C54.8524 229.983 55.1981 230.253 55.4301 230.618C55.6631 230.98 55.7637 231.391 55.732 231.85L55.7957 231.874C56.0766 231.391 56.4487 231.072 56.912 230.917C57.3726 230.761 57.8618 230.782 58.3795 230.979C58.823 231.147 59.1753 231.42 59.4365 231.796C59.6961 232.168 59.848 232.6 59.8922 233.091C59.9364 233.582 59.858 234.091 59.657 234.62ZM62.3374 227.574C62.1091 228.174 61.7514 228.623 61.2642 228.921C60.7743 229.218 60.175 229.359 59.4661 229.345C58.7546 229.33 57.9555 229.153 57.0686 228.816C56.1871 228.48 55.4767 228.083 54.9376 227.622C54.3968 227.158 54.0421 226.652 53.8734 226.105C53.7032 225.554 53.7311 224.981 53.9574 224.386C54.1837 223.791 54.5431 223.346 55.0356 223.05C55.5265 222.75 56.1277 222.608 56.8391 222.624C57.549 222.635 58.3447 222.809 59.2262 223.144C60.1131 223.482 60.8274 223.881 61.3692 224.342C61.9083 224.803 62.2622 225.307 62.4309 225.854C62.5969 226.401 62.5657 226.974 62.3374 227.574ZM61.4612 227.241C61.6874 226.646 61.5764 226.075 61.1282 225.527C60.6799 224.98 59.9247 224.504 58.8626 224.1C58.1563 223.831 57.5261 223.678 56.972 223.641C56.4189 223.6 55.9587 223.672 55.5914 223.854C55.2251 224.034 54.9672 224.32 54.8177 224.713C54.5935 225.303 54.709 225.874 55.1642 226.427C55.6168 226.979 56.3728 227.457 57.4322 227.86C58.1385 228.129 58.7669 228.283 59.3174 228.322C59.8678 228.361 60.3248 228.29 60.6885 228.109C61.0531 227.926 61.3107 227.636 61.4612 227.241ZM63.1964 221.625L63.6023 221.852C63.8878 222.013 64.1855 222.205 64.4953 222.429C64.8061 222.651 65.0955 222.869 65.3635 223.083C65.6315 223.297 65.8437 223.471 66 223.603L65.7272 224.32C65.5704 224.221 65.3632 224.091 65.1056 223.929C64.848 223.767 64.5573 223.592 64.2333 223.405C63.913 223.217 63.5807 223.035 63.2364 222.862L62.8085 222.644L63.1964 221.625ZM57.5312 215.328L65.6881 218.431L65.3123 219.418L58.1909 216.709L58.1728 216.757L58.7375 219.252L57.7338 218.87L57.1554 216.315L57.5312 215.328ZM67.6618 213.578C67.484 214.045 67.231 214.431 66.9027 214.735C66.5744 215.038 66.2053 215.241 65.7955 215.344C65.3857 215.446 64.9697 215.429 64.5474 215.293L64.911 214.337C65.2943 214.44 65.6633 214.389 66.018 214.184C66.3711 213.975 66.627 213.662 66.7856 213.245C66.9129 212.91 66.9477 212.583 66.89 212.263C66.8333 211.941 66.6965 211.653 66.4796 211.4C66.261 211.144 65.9778 210.95 65.63 210.817C65.2742 210.682 64.9271 210.64 64.5887 210.69C64.2487 210.737 63.9461 210.865 63.6811 211.074C63.4161 211.284 63.2161 211.562 63.0811 211.908C62.9835 212.157 62.9246 212.428 62.9042 212.721C62.8812 213.013 62.8985 213.268 62.956 213.484L62.4929 214.366L58.666 212.344L60.2782 208.107L61.1544 208.44L59.8574 211.849L62.154 213.051L62.1722 213.003C62.1031 212.786 62.0727 212.534 62.081 212.248C62.0894 211.963 62.1455 211.683 62.2496 211.41C62.4395 210.911 62.7282 210.511 63.1156 210.212C63.5015 209.909 63.9426 209.724 64.439 209.657C64.9364 209.588 65.4493 209.654 65.9777 209.855C66.4982 210.053 66.9184 210.347 67.2384 210.736C67.5568 211.122 67.7568 211.563 67.8386 212.059C67.9177 212.554 67.8588 213.06 67.6618 213.578Z" fill="black"/>
<path d="M60.4134 286.471L61.6259 286.819L62.4797 294.6L62.5781 294.628L67.4262 288.482L68.6387 288.83L66.2327 297.219L65.2824 296.946L67.1103 290.573L67.0284 290.549L62.5789 296.171L61.6613 295.908L60.8677 288.782L60.7858 288.759L58.9578 295.133L58.0075 294.86L60.4134 286.471ZM69.9477 298.444C69.549 298.33 69.2087 298.151 68.9268 297.907C68.6457 297.661 68.4507 297.367 68.3417 297.026C68.2336 296.682 68.2383 296.305 68.3557 295.895C68.4591 295.535 68.6139 295.263 68.8201 295.08C69.0272 294.894 69.2679 294.771 69.5422 294.71C69.8166 294.65 70.1062 294.63 70.411 294.649C70.7192 294.667 71.0249 294.698 71.3281 294.744C71.7245 294.804 72.045 294.856 72.2897 294.9C72.5378 294.941 72.7255 294.946 72.8527 294.915C72.9827 294.884 73.07 294.791 73.1147 294.635L73.1241 294.603C73.24 294.199 73.2195 293.853 73.0625 293.565C72.9082 293.279 72.6086 293.072 72.1634 292.944C71.7019 292.812 71.3111 292.809 70.991 292.936C70.6709 293.063 70.4247 293.226 70.2524 293.424L69.4288 292.834C69.7023 292.498 70.0061 292.263 70.3403 292.129C70.678 291.992 71.0215 291.928 71.3707 291.936C71.7235 291.943 72.0582 291.992 72.375 292.083C72.5771 292.141 72.8022 292.232 73.0502 292.356C73.3018 292.478 73.5293 292.649 73.7328 292.867C73.939 293.085 74.0814 293.367 74.1599 293.712C74.2383 294.056 74.2059 294.478 74.0626 294.978L72.8737 299.124L71.907 298.846L72.1513 297.994L72.1022 297.98C71.9975 298.098 71.8464 298.213 71.6488 298.325C71.4512 298.436 71.2098 298.51 70.9245 298.547C70.6392 298.583 70.3136 298.549 69.9477 298.444ZM70.3442 297.618C70.7265 297.728 71.0703 297.745 71.3755 297.67C71.6835 297.596 71.9384 297.459 72.1404 297.26C72.3451 297.061 72.485 296.831 72.5602 296.569L72.8139 295.684C72.7589 295.721 72.6558 295.741 72.5048 295.742C72.3573 295.741 72.1891 295.73 72.0003 295.708C71.8149 295.684 71.6345 295.659 71.4589 295.632C71.2868 295.604 71.147 295.581 71.0393 295.565C70.7787 295.526 70.5285 295.512 70.2889 295.523C70.0528 295.532 69.8471 295.59 69.6718 295.696C69.5 295.801 69.3788 295.976 69.3084 296.221C69.212 296.557 69.2634 296.847 69.4626 297.09C69.6653 297.332 69.9591 297.507 70.3442 297.618ZM73.9615 301.989L76.4426 293.338L77.3766 293.606L77.0899 294.605L77.2046 294.638C77.3069 294.549 77.4452 294.438 77.6194 294.305C77.7971 294.17 78.0239 294.069 78.2998 294.003C78.5793 293.936 78.9239 293.961 79.3335 294.078C79.8633 294.23 80.2922 294.497 80.6204 294.877C80.9486 295.258 81.1564 295.724 81.2436 296.275C81.3309 296.826 81.2797 297.432 81.0902 298.093C80.8991 298.759 80.6201 299.305 80.2533 299.728C79.8872 300.149 79.4651 300.436 78.9869 300.589C78.5095 300.738 78.0086 300.738 77.4843 300.588C77.0801 300.472 76.7757 300.312 76.5711 300.109C76.3672 299.902 76.2244 299.694 76.1426 299.485C76.0617 299.272 76.0021 299.099 75.964 298.964L75.8821 298.94L74.9282 302.266L73.9615 301.989ZM76.4907 296.756C76.3544 297.231 76.3039 297.671 76.339 298.074C76.3749 298.474 76.4972 298.815 76.7061 299.097C76.9158 299.376 77.2145 299.571 77.6023 299.682C78.0064 299.798 78.3742 299.788 78.7057 299.652C79.0406 299.515 79.3285 299.284 79.5692 298.96C79.8134 298.634 79.9997 298.247 80.1282 297.8C80.255 297.357 80.3011 296.939 80.2664 296.545C80.2352 296.149 80.1128 295.808 79.8992 295.522C79.6892 295.234 79.3794 295.031 78.9697 294.914C78.5765 294.801 78.2175 294.806 77.8927 294.929C77.5687 295.048 77.2875 295.266 77.0491 295.582C76.8116 295.895 76.6254 296.287 76.4907 296.756ZM85.04 293.534L82.634 301.923L81.6673 301.646L84.0732 293.257L85.04 293.534ZM87.005 303.318C86.3987 303.144 85.9141 302.861 85.5512 302.467C85.1918 302.071 84.9627 301.598 84.8637 301.046C84.7683 300.493 84.813 299.894 84.9978 299.249C85.1826 298.605 85.463 298.071 85.8388 297.646C86.2181 297.22 86.659 296.93 87.1614 296.775C87.6673 296.619 88.2042 296.622 88.7722 296.785C89.0999 296.879 89.4079 297.027 89.696 297.228C89.9842 297.428 90.2241 297.689 90.4158 298.01C90.6083 298.329 90.7248 298.711 90.7653 299.157C90.8058 299.603 90.7419 300.119 90.5735 300.707L90.456 301.116L85.6061 299.725L85.8457 298.89L89.7126 299.999C89.8144 299.644 89.8342 299.306 89.7721 298.987C89.7127 298.669 89.5764 298.392 89.3632 298.156C89.1527 297.921 88.8727 297.754 88.5232 297.654C88.1381 297.543 87.7775 297.543 87.4414 297.654C87.1089 297.762 86.824 297.947 86.5869 298.207C86.3497 298.467 86.1815 298.77 86.082 299.117L85.9222 299.674C85.7859 300.149 85.7523 300.575 85.8214 300.953C85.894 301.328 86.0531 301.644 86.2987 301.901C86.5451 302.155 86.8635 302.338 87.254 302.45C87.508 302.523 87.7476 302.553 87.9727 302.541C88.2014 302.527 88.4116 302.469 88.6033 302.367C88.7958 302.263 88.9643 302.113 89.1089 301.918L89.9677 302.448C89.7785 302.737 89.5334 302.968 89.2324 303.141C88.9321 303.312 88.5921 303.416 88.2124 303.452C87.8334 303.485 87.431 303.44 87.005 303.318Z" fill="#8E8E8E"/>
<path d="M115.086 55.2114L212.469 17.977M111.06 35.1288L207.87 0.758545" stroke="#C4C4C4"/>
<path d="M4.27805 287.108L143.382 324.623M11.9138 268.516L148.362 306.695" stroke="#C4C4C4"/>
</svg>
