<svg width="167" height="428" viewBox="0 0 167 428" fill="none" xmlns="http://www.w3.org/2000/svg">
<path d="M65.5971 332.478C65.0618 332.306 64.6142 332.06 64.2545 331.741C63.8974 331.423 63.6487 331.06 63.5082 330.654C63.3713 330.245 63.3622 329.82 63.4811 329.378L64.503 329.707C64.4383 329.982 64.4557 330.243 64.5551 330.49C64.6553 330.734 64.8196 330.951 65.0478 331.141C65.2761 331.332 65.5497 331.478 65.8687 331.581C66.2256 331.696 66.562 331.736 66.8779 331.701C67.1938 331.665 67.4659 331.562 67.6943 331.391C67.9226 331.22 68.0839 330.988 68.1781 330.696C68.2767 330.391 68.2878 330.097 68.2114 329.816C68.1359 329.532 67.9735 329.276 67.7243 329.05C67.475 328.823 67.1395 328.642 66.7177 328.506L66.0526 328.291L66.3405 327.399L67.0056 327.613C67.3355 327.72 67.6439 327.754 67.9311 327.715C68.2209 327.677 68.471 327.573 68.6814 327.402C68.8944 327.232 69.0481 327.001 69.1423 326.709C69.233 326.428 69.2498 326.163 69.1926 325.915C69.1354 325.666 69.012 325.447 68.8224 325.258C68.6355 325.069 68.3893 324.925 68.0838 324.827C67.7972 324.734 67.5098 324.7 67.2217 324.723C66.9371 324.745 66.6832 324.829 66.46 324.975C66.2377 325.118 66.0752 325.325 65.9727 325.597L64.9994 325.282C65.1561 324.852 65.4102 324.514 65.7618 324.266C66.1143 324.015 66.5189 323.862 66.9756 323.807C67.4351 323.752 67.9041 323.802 68.3826 323.956C68.8963 324.122 69.3035 324.368 69.604 324.695C69.9054 325.019 70.1002 325.382 70.1886 325.784C70.2769 326.185 70.2578 326.582 70.1313 326.974C69.9804 327.442 69.7287 327.801 69.3763 328.051C69.0265 328.303 68.6216 328.424 68.1615 328.416L68.1406 328.481C68.6372 328.737 68.9748 329.092 69.1535 329.547C69.333 329.999 69.3378 330.488 69.1677 331.016C69.022 331.467 68.7681 331.833 68.4061 332.113C68.0476 332.391 67.6243 332.565 67.1362 332.635C66.6482 332.704 66.1351 332.652 65.5971 332.478ZM75.6986 326.442L73.0188 334.748L72.013 334.423L74.3526 327.172L74.304 327.156L71.8418 327.848L72.1715 326.826L74.6929 326.118L75.6986 326.442ZM76.7269 334.69L76.5207 335.107C76.3753 335.401 76.1985 335.708 75.9905 336.029C75.7852 336.351 75.5823 336.651 75.382 336.93C75.1816 337.208 75.0193 337.429 74.8951 337.592L74.1651 337.356C74.2561 337.195 74.3758 336.981 74.5242 336.716C74.6725 336.45 74.8318 336.151 75.002 335.817C75.174 335.488 75.3378 335.147 75.4935 334.794L75.6887 334.355L76.7269 334.69ZM80.575 337.311C80.0397 337.138 79.5922 336.892 79.2324 336.573C78.8754 336.255 78.6266 335.893 78.4861 335.486C78.3492 335.078 78.3402 334.653 78.459 334.21L79.481 334.54C79.4163 334.815 79.4336 335.076 79.533 335.323C79.6333 335.567 79.7975 335.784 80.0258 335.974C80.254 336.164 80.5276 336.311 80.8467 336.414C81.2036 336.529 81.5399 336.569 81.8558 336.533C82.1718 336.498 82.4439 336.395 82.6722 336.224C82.9006 336.052 83.0618 335.821 83.1561 335.529C83.2546 335.223 83.2657 334.93 83.1893 334.649C83.1138 334.365 82.9515 334.109 82.7022 333.882C82.453 333.656 82.1174 333.474 81.6957 333.338L81.0306 333.124L81.3184 332.231L81.9835 332.446C82.3134 332.553 82.6219 332.586 82.909 332.548C83.1988 332.51 83.4489 332.405 83.6593 332.235C83.8724 332.064 84.026 331.833 84.1202 331.541C84.211 331.26 84.2277 330.996 84.1705 330.747C84.1133 330.499 83.9899 330.28 83.8003 330.09C83.6134 329.902 83.3672 329.758 83.0617 329.66C82.7751 329.567 82.4878 329.533 82.1996 329.556C81.915 329.578 81.6611 329.661 81.4379 329.807C81.2156 329.951 81.0532 330.158 80.9507 330.429L79.9774 330.115C80.134 329.685 80.3882 329.346 80.7397 329.098C81.0922 328.848 81.4968 328.695 81.9536 328.639C82.413 328.585 82.882 328.634 83.3606 328.789C83.8743 328.955 84.2814 329.201 84.5819 329.528C84.8833 329.852 85.0782 330.215 85.1665 330.616C85.2548 331.018 85.2357 331.415 85.1093 331.807C84.9583 332.275 84.7067 332.634 84.3542 332.884C84.0044 333.135 83.5995 333.257 83.1395 333.249L83.1185 333.314C83.6151 333.57 83.9528 333.925 84.1314 334.379C84.311 334.831 84.3157 335.321 84.1456 335.848C83.9999 336.3 83.746 336.666 83.384 336.946C83.0255 337.224 82.6022 337.398 82.1142 337.467C81.6261 337.537 81.113 337.485 80.575 337.311ZM90.6766 331.275L87.9967 339.58L86.9909 339.256L89.3306 332.005L89.2819 331.989L86.8197 332.681L87.1495 331.659L89.6708 330.95L90.6766 331.275Z" fill="black"/>
<path d="M104.924 73.3326C104.578 73.422 104.215 73.4512 103.835 73.4201C103.455 73.389 103.082 73.2633 102.715 73.043C102.347 72.82 102.006 72.4762 101.693 72.0114C101.379 71.5438 101.115 70.9211 100.901 70.1431C100.696 69.3981 100.584 68.7187 100.566 68.105C100.547 67.4886 100.616 66.9467 100.773 66.4792C100.929 66.0089 101.167 65.6195 101.486 65.3109C101.807 65.0015 102.205 64.7817 102.679 64.6514C103.15 64.5218 103.595 64.5011 104.014 64.5892C104.435 64.6738 104.808 64.8511 105.133 65.1213C105.458 65.3915 105.714 65.7349 105.902 66.1516L104.9 66.4273C104.703 66.0749 104.436 65.811 104.099 65.6355C103.762 65.46 103.371 65.4333 102.928 65.5553C102.276 65.7346 101.84 66.1593 101.621 66.8295C101.404 67.499 101.435 68.3463 101.714 69.3715L101.78 69.3535C101.869 69.0785 101.997 68.8298 102.162 68.6074C102.33 68.3816 102.53 68.1881 102.763 68.0269C102.996 67.8657 103.256 67.7455 103.543 67.6665C104.025 67.5339 104.5 67.5332 104.966 67.6643C105.431 67.7926 105.843 68.0346 106.2 68.3902C106.556 68.743 106.809 69.1906 106.958 69.733C107.101 70.2534 107.115 70.762 107.002 71.2589C106.887 71.753 106.654 72.1854 106.302 72.5561C105.952 72.9233 105.493 73.1822 104.924 73.3326ZM104.676 72.4286C105.021 72.3338 105.307 72.1624 105.533 71.9145C105.763 71.6658 105.917 71.3745 105.996 71.0404C106.078 70.7056 106.069 70.3602 105.972 70.0041C105.876 69.6562 105.711 69.3613 105.476 69.1193C105.244 68.8739 104.969 68.7035 104.651 68.6083C104.336 68.5122 104.006 68.5117 103.66 68.6066C103.4 68.6781 103.172 68.7968 102.976 68.9627C102.779 69.1258 102.621 69.3197 102.5 69.5445C102.381 69.7684 102.306 70.0087 102.274 70.2651C102.24 70.5189 102.258 70.7717 102.327 71.0237C102.419 71.3579 102.583 71.6487 102.819 71.8962C103.058 72.1428 103.339 72.3175 103.662 72.4203C103.987 72.5223 104.325 72.5251 104.676 72.4286ZM110.07 70.5566L110.126 71.0184C110.166 71.3435 110.186 71.6973 110.188 72.0798C110.193 72.4615 110.188 72.8238 110.173 73.1666C110.159 73.5095 110.144 73.7831 110.13 73.9875L109.39 74.1908C109.377 74.0057 109.36 73.7615 109.339 73.458C109.317 73.1546 109.286 72.8169 109.246 72.445C109.209 72.0751 109.159 71.6999 109.095 71.3196L109.018 70.8458L110.07 70.5566ZM114.649 70.6588C114.03 70.829 113.456 70.8055 112.928 70.5884C112.399 70.3684 111.931 69.9683 111.524 69.3878C111.116 68.8046 110.787 68.0555 110.535 67.1406C110.285 66.2312 110.187 65.423 110.24 64.716C110.295 64.0055 110.493 63.4206 110.836 62.9611C111.18 62.4982 111.659 62.1824 112.272 62.0137C112.886 61.845 113.457 61.872 113.987 62.0946C114.519 62.3138 114.989 62.715 115.396 63.2982C115.806 63.8779 116.136 64.6225 116.386 65.5319C116.638 66.4468 116.737 67.2591 116.685 67.9688C116.632 68.6758 116.434 69.259 116.092 69.7185C115.749 70.1751 115.268 70.4886 114.649 70.6588ZM114.401 69.7548C115.014 69.5861 115.41 69.1593 115.587 68.4742C115.763 67.7891 115.701 66.8987 115.4 65.803C115.2 65.0744 114.951 64.4754 114.654 64.0061C114.36 63.536 114.031 63.2067 113.666 63.0181C113.305 62.8287 112.922 62.7898 112.516 62.9012C111.908 63.0684 111.515 63.4991 111.338 64.1931C111.16 64.8844 111.221 65.7765 111.521 66.8695C111.722 67.5981 111.969 68.1961 112.262 68.6634C112.556 69.1308 112.883 69.4577 113.243 69.6444C113.607 69.8302 113.992 69.8671 114.401 69.7548ZM119.438 60.0435C119.784 59.9513 120.147 59.9221 120.528 59.956C120.908 59.9898 121.282 60.1169 121.649 60.3371C122.015 60.5546 122.355 60.8958 122.669 61.3606C122.982 61.8254 123.245 62.444 123.457 63.2165C123.663 63.9643 123.774 64.6481 123.791 65.268C123.811 65.8844 123.742 66.4277 123.586 66.898C123.432 67.3675 123.194 67.7569 122.873 68.0663C122.554 68.3749 122.157 68.5944 121.684 68.7247C121.212 68.8542 120.766 68.8767 120.345 68.7921C119.926 68.704 119.553 68.5253 119.226 68.2559C118.9 67.983 118.644 67.6337 118.456 67.208L119.458 66.9323C119.655 67.2937 119.922 67.5635 120.26 67.7417C120.6 67.9164 120.991 67.9428 121.435 67.8207C122.084 67.6422 122.519 67.2179 122.738 66.5477C122.96 65.8767 122.929 65.0235 122.644 63.9881L122.578 64.0062C122.488 64.2784 122.361 64.5271 122.196 64.7522C122.031 64.9773 121.832 65.1704 121.599 65.3316C121.367 65.4928 121.105 65.6133 120.815 65.6932C120.333 65.8257 119.857 65.8282 119.389 65.7006C118.923 65.5695 118.512 65.3275 118.156 64.9747C117.801 64.6184 117.549 64.169 117.4 63.6267C117.259 63.1117 117.244 62.6089 117.357 62.1183C117.471 61.6242 117.703 61.1922 118.052 60.8222C118.404 60.4515 118.866 60.1919 119.438 60.0435ZM119.687 60.9474C119.342 61.0423 119.054 61.2141 118.825 61.4627C118.598 61.7079 118.443 61.9978 118.362 62.3326C118.282 62.6639 118.29 63.0049 118.386 63.3555C118.483 63.7062 118.647 64.0042 118.88 64.2496C119.114 64.4916 119.389 64.6606 119.704 64.7566C120.021 64.8491 120.353 64.848 120.698 64.7531C120.958 64.6815 121.186 64.5642 121.383 64.4011C121.579 64.2352 121.736 64.0403 121.854 63.8163C121.974 63.5888 122.051 63.3482 122.085 63.0945C122.117 62.838 122.099 62.5852 122.031 62.3359C121.94 62.0072 121.776 61.7209 121.538 61.4769C121.303 61.2322 121.023 61.0589 120.697 60.9569C120.374 60.8542 120.037 60.851 119.687 60.9474Z" fill="black"/>
<path d="M69.0998 193.878C69.2021 193.535 69.3672 193.211 69.5951 192.904C69.8229 192.597 70.1267 192.345 70.5063 192.148C70.8832 191.949 71.3517 191.838 71.9118 191.814C72.4719 191.79 73.1367 191.889 73.9062 192.112C74.6511 192.328 75.2923 192.591 75.8296 192.9C76.3651 193.206 76.7923 193.549 77.1113 193.928C77.431 194.305 77.6387 194.711 77.7342 195.147C77.8306 195.58 77.8104 196.032 77.6736 196.504C77.5376 196.974 77.3235 197.366 77.0312 197.68C76.737 197.991 76.3895 198.216 75.9886 198.354C75.5858 198.489 75.1538 198.525 74.6928 198.462L74.9822 197.464C75.393 197.485 75.7627 197.399 76.0912 197.204C76.4178 197.006 76.6451 196.686 76.7731 196.244C76.9605 195.597 76.8259 195.005 76.3694 194.467C75.9136 193.927 75.17 193.508 74.1386 193.209L74.1196 193.274C74.3046 193.493 74.4498 193.732 74.5554 193.991C74.661 194.249 74.7216 194.519 74.7374 194.802C74.7531 195.084 74.7191 195.37 74.6353 195.66C74.4961 196.14 74.2498 196.546 73.8962 196.879C73.5406 197.207 73.1193 197.431 72.6323 197.551C72.1433 197.666 71.6286 197.646 71.0883 197.489C70.5753 197.341 70.1392 197.09 69.7799 196.737C69.4187 196.381 69.1717 195.958 69.0389 195.467C68.9069 194.973 68.9272 194.444 69.0998 193.878ZM70.0003 194.139C69.9007 194.483 69.8969 194.818 69.9889 195.143C70.0791 195.465 70.2454 195.748 70.488 195.993C70.7287 196.234 71.0237 196.406 71.3729 196.507C71.7222 196.608 72.0622 196.624 72.393 196.554C72.7219 196.481 73.0096 196.335 73.2563 196.116C73.501 195.894 73.6731 195.612 73.7728 195.268C73.8479 195.009 73.8673 194.752 73.8312 194.499C73.7923 194.246 73.7083 194.01 73.5792 193.792C73.4481 193.571 73.2832 193.379 73.0843 193.218C72.8828 193.056 72.6579 192.939 72.4096 192.867C72.0821 192.773 71.7522 192.763 71.4198 192.838C71.0883 192.911 70.7939 193.059 70.5367 193.283C70.2803 193.505 70.1014 193.79 70.0003 194.139ZM71.3788 186.441L79.7614 188.869L79.4673 189.884L72.1489 187.764L72.1347 187.813L72.9007 190.254L71.8692 189.955L71.0847 187.456L71.3788 186.441ZM79.5924 185.165L80.0155 185.358C80.3131 185.495 80.6255 185.662 80.9525 185.86C81.2804 186.056 81.5866 186.25 81.8711 186.442C82.1557 186.633 82.3813 186.789 82.5478 186.908L82.3344 187.645C82.17 187.559 81.9529 187.446 81.683 187.305C81.4131 187.165 81.1091 187.015 80.7709 186.855C80.4363 186.693 80.0904 186.539 79.733 186.394L79.2889 186.212L79.5924 185.165ZM73.5054 178.672C73.6077 178.329 73.7728 178.004 74.0007 177.697C74.2285 177.391 74.5323 177.138 74.9119 176.941C75.2888 176.742 75.7573 176.631 76.3174 176.607C76.8775 176.583 77.5423 176.682 78.3118 176.905C79.0567 177.121 79.6978 177.384 80.2352 177.693C80.7707 177.999 81.1979 178.342 81.5169 178.721C81.8366 179.098 82.0443 179.504 82.1398 179.94C82.2362 180.373 82.216 180.826 82.0792 181.298C81.9432 181.767 81.7291 182.159 81.4368 182.474C81.1426 182.785 80.7951 183.009 80.3942 183.148C79.9914 183.282 79.5594 183.318 79.0984 183.256L79.3878 182.257C79.7986 182.278 80.1683 182.192 80.4968 181.997C80.8234 181.799 81.0507 181.479 81.1787 181.037C81.3661 180.39 81.2315 179.798 80.775 179.261C80.3192 178.72 79.5756 178.301 78.5442 178.002L78.5252 178.067C78.7102 178.287 78.8554 178.525 78.961 178.784C79.0666 179.042 79.1272 179.313 79.143 179.595C79.1587 179.878 79.1247 180.164 79.0409 180.453C78.9017 180.933 78.6554 181.339 78.3018 181.672C77.9462 182.001 77.5249 182.225 77.0379 182.344C76.5489 182.459 76.0342 182.439 75.4939 182.282C74.9809 182.134 74.5448 181.883 74.1855 181.531C73.8243 181.175 73.5773 180.751 73.4445 180.26C73.3125 179.766 73.3328 179.237 73.5054 178.672ZM74.4059 178.933C74.3062 179.276 74.3025 179.611 74.3945 179.936C74.4847 180.258 74.651 180.542 74.8936 180.786C75.1343 181.028 75.4293 181.199 75.7785 181.3C76.1278 181.401 76.4678 181.417 76.7986 181.347C77.1275 181.274 77.4152 181.128 77.6619 180.91C77.9066 180.688 78.0787 180.405 78.1783 180.061C78.2535 179.802 78.2729 179.546 78.2368 179.293C78.1979 179.039 78.1139 178.803 77.9848 178.585C77.8537 178.364 77.6888 178.173 77.4899 178.012C77.2884 177.85 77.0635 177.733 76.8152 177.661C76.4877 177.566 76.1578 177.556 75.8254 177.631C75.4939 177.704 75.1995 177.852 74.9423 178.076C74.6859 178.298 74.507 178.583 74.4059 178.933ZM84.2484 173.81C84.0918 174.351 83.8595 174.805 83.5514 175.175C83.2442 175.541 82.8894 175.801 82.4873 175.953C82.0833 176.103 81.6584 176.124 81.2128 176.019L81.5116 174.987C81.7881 175.044 82.0483 175.019 82.2922 174.912C82.5333 174.804 82.7455 174.634 82.9286 174.4C83.1117 174.166 83.2499 173.888 83.3432 173.566C83.4475 173.206 83.4772 172.868 83.4324 172.554C83.3875 172.239 83.2761 171.97 83.0982 171.747C82.9203 171.524 82.684 171.37 82.3893 171.284C82.0809 171.195 81.7873 171.193 81.5083 171.278C81.2267 171.362 80.9763 171.532 80.7572 171.787C80.5381 172.043 80.3669 172.384 80.2436 172.81L80.0491 173.481L79.1487 173.22L79.3431 172.549C79.4396 172.216 79.4641 171.907 79.4168 171.621C79.3703 171.332 79.2584 171.086 79.0812 170.88C78.9048 170.673 78.6693 170.526 78.3746 170.441C78.0908 170.358 77.8256 170.35 77.5792 170.414C77.3327 170.479 77.1176 170.609 76.9339 170.804C76.7509 170.997 76.6148 171.247 76.5254 171.555C76.4416 171.845 76.4158 172.133 76.4479 172.42C76.4781 172.704 76.5694 172.955 76.722 173.174C76.8718 173.392 77.0839 173.548 77.3583 173.642L77.0737 174.625C76.6391 174.481 76.2927 174.237 76.0345 173.893C75.7735 173.548 75.6084 173.149 75.539 172.694C75.4705 172.236 75.5062 171.766 75.6461 171.283C75.7963 170.764 76.0302 170.35 76.3478 170.04C76.6627 169.729 77.0196 169.523 77.4184 169.423C77.8172 169.322 78.2144 169.329 78.61 169.444C79.0821 169.581 79.4486 169.822 79.7096 170.166C79.9713 170.508 80.1051 170.909 80.1108 171.37L80.1763 171.388C80.417 170.884 80.7618 170.536 81.2109 170.344C81.6573 170.151 82.1465 170.131 82.6786 170.286C83.1343 170.418 83.5076 170.66 83.7986 171.014C84.0877 171.364 84.2742 171.782 84.3583 172.267C84.4423 172.753 84.4057 173.267 84.2484 173.81Z" fill="black"/>
<path d="M102.64 45.46L120.429 38.7617L165.046 186.74L144.485 270.751L123.924 354.762L29.0464 328.915L47.4448 258.051L65.8432 187.187L102.64 45.46Z" stroke="#379482" stroke-width="2"/>
<path d="M60.9457 348.129L62.1581 348.477L63.012 356.258L63.1103 356.287L67.9584 350.141L69.1709 350.488L66.7649 358.877L65.8146 358.605L67.6426 352.231L67.5606 352.208L63.1111 357.83L62.1935 357.566L61.3999 350.441L61.318 350.417L59.49 356.791L58.5397 356.518L60.9457 348.129ZM70.4799 360.102C70.0812 359.988 69.7409 359.809 69.459 359.566C69.1779 359.32 68.9829 359.026 68.874 358.684C68.7658 358.34 68.7705 357.963 68.888 357.553C68.9913 357.193 69.1462 356.921 69.3524 356.738C69.5594 356.552 69.8001 356.429 70.0745 356.369C70.3489 356.309 70.6384 356.288 70.9432 356.308C71.2514 356.325 71.5572 356.357 71.8603 356.402C72.2567 356.463 72.5773 356.515 72.8219 356.558C73.07 356.6 73.2577 356.605 73.385 356.573C73.5149 356.543 73.6023 356.45 73.6469 356.294L73.6563 356.261C73.7722 355.857 73.7517 355.511 73.5947 355.224C73.4405 354.937 73.1408 354.73 72.6957 354.602C72.2341 354.47 71.8433 354.467 71.5232 354.594C71.2031 354.721 70.9569 354.884 70.7846 355.083L69.961 354.492C70.2345 354.157 70.5384 353.922 70.8725 353.787C71.2102 353.65 71.5537 353.586 71.9029 353.595C72.2557 353.601 72.5905 353.65 72.9072 353.741C73.1093 353.799 73.3344 353.89 73.5825 354.015C73.834 354.137 74.0616 354.307 74.265 354.525C74.4713 354.744 74.6136 355.025 74.6921 355.37C74.7706 355.715 74.7381 356.137 74.5948 356.637L73.4059 360.782L72.4392 360.505L72.6836 359.653L72.6344 359.639C72.5297 359.756 72.3786 359.871 72.181 359.983C71.9835 360.095 71.742 360.169 71.4567 360.205C71.1714 360.242 70.8458 360.207 70.4799 360.102ZM70.8764 359.276C71.2587 359.386 71.6025 359.403 71.9077 359.328C72.2157 359.254 72.4707 359.117 72.6726 358.918C72.8773 358.72 73.0172 358.489 73.0924 358.227L73.3462 357.343C73.2911 357.38 73.1881 357.399 73.037 357.4C72.8895 357.399 72.7214 357.388 72.5325 357.366C72.3472 357.343 72.1667 357.318 71.9911 357.291C71.8191 357.262 71.6792 357.24 71.5715 357.224C71.3109 357.184 71.0608 357.17 70.8211 357.181C70.585 357.191 70.3793 357.248 70.204 357.355C70.0322 357.459 69.9111 357.634 69.8406 357.88C69.7442 358.216 69.7957 358.505 69.9948 358.749C70.1975 358.99 70.4914 359.166 70.8764 359.276ZM74.4937 363.648L76.9749 354.996L77.9088 355.264L77.6221 356.264L77.7368 356.297C77.8392 356.208 77.9774 356.097 78.1516 355.963C78.3293 355.828 78.5561 355.728 78.8321 355.662C79.1115 355.594 79.4561 355.619 79.8657 355.737C80.3955 355.889 80.8245 356.155 81.1527 356.536C81.4809 356.917 81.6886 357.383 81.7758 357.934C81.8631 358.485 81.8119 359.091 81.6224 359.752C81.4313 360.418 81.1523 360.963 80.7855 361.387C80.4194 361.808 79.9973 362.095 79.5191 362.247C79.0417 362.397 78.5408 362.397 78.0165 362.246C77.6124 362.13 77.308 361.971 77.1033 361.767C76.8994 361.561 76.7566 361.353 76.6749 361.143C76.5939 360.931 76.5344 360.757 76.4963 360.622L76.4143 360.599L75.4604 363.925L74.4937 363.648ZM77.0229 358.415C76.8867 358.89 76.8361 359.329 76.8712 359.732C76.9071 360.133 77.0295 360.474 77.2383 360.755C77.448 361.034 77.7467 361.229 78.1345 361.34C78.5387 361.456 78.9065 361.446 79.2379 361.311C79.5729 361.173 79.8607 360.943 80.1014 360.619C80.3456 360.293 80.5319 359.906 80.6604 359.458C80.7873 359.016 80.8333 358.597 80.7986 358.203C80.7674 357.807 80.645 357.466 80.4315 357.18C80.2214 356.892 79.9116 356.69 79.502 356.572C79.1087 356.459 78.7497 356.464 78.4249 356.587C78.1009 356.707 77.8197 356.925 77.5814 357.241C77.3438 357.554 77.1577 357.945 77.0229 358.415ZM85.5722 355.192L83.1662 363.581L82.1995 363.304L84.6055 354.915L85.5722 355.192ZM87.5372 364.977C86.9309 364.803 86.4464 364.519 86.0835 364.125C85.7241 363.73 85.4949 363.256 85.3959 362.705C85.3005 362.151 85.3452 361.552 85.53 360.908C85.7149 360.263 85.9952 359.729 86.371 359.305C86.7504 358.879 87.1912 358.588 87.6936 358.434C88.1995 358.278 88.7364 358.281 89.3044 358.444C89.6321 358.538 89.9401 358.685 90.2283 358.886C90.5164 359.087 90.7564 359.348 90.948 359.669C91.1405 359.987 91.257 360.369 91.2975 360.815C91.338 361.261 91.2741 361.778 91.1057 362.365L90.9882 362.775L86.1383 361.384L86.378 360.548L90.2448 361.657C90.3466 361.302 90.3665 360.965 90.3043 360.646C90.245 360.327 90.1087 360.05 89.8954 359.815C89.685 359.58 89.4049 359.412 89.0554 359.312C88.6703 359.202 88.3098 359.202 87.9737 359.312C87.6411 359.421 87.3562 359.605 87.1191 359.865C86.882 360.125 86.7137 360.429 86.6142 360.775L86.4544 361.332C86.3182 361.808 86.2846 362.234 86.3537 362.611C86.4262 362.987 86.5853 363.303 86.8309 363.56C87.0773 363.813 87.3957 363.996 87.7862 364.108C88.0402 364.181 88.2798 364.211 88.505 364.199C88.7336 364.185 88.9438 364.127 89.1355 364.025C89.328 363.921 89.4966 363.771 89.6411 363.576L90.4999 364.106C90.3107 364.395 90.0656 364.626 89.7646 364.8C89.4643 364.971 89.1243 365.074 88.7446 365.11C88.3657 365.143 87.9632 365.099 87.5372 364.977Z" fill="#8E8E8E"/>
<path d="M63.5527 55.7618L160.935 18.5274M59.5264 35.6792L156.336 1.30896" stroke="#C4C4C4"/>
<path d="M4.80979 348.766L143.914 386.281M12.4456 330.175L148.894 368.354" stroke="#C4C4C4"/>
<path d="M135.916 286.072C135.797 286.558 135.593 286.972 135.304 287.313C135.016 287.655 134.674 287.902 134.28 288.053C133.886 288.205 133.471 288.239 133.035 288.156L133.279 287.163C133.672 287.218 134.032 287.122 134.359 286.875C134.684 286.624 134.899 286.282 135.006 285.849C135.091 285.501 135.085 285.172 134.989 284.862C134.893 284.549 134.722 284.28 134.476 284.056C134.228 283.828 133.923 283.67 133.561 283.581C133.192 283.491 132.842 283.491 132.512 283.583C132.181 283.671 131.896 283.835 131.659 284.075C131.421 284.315 131.257 284.616 131.165 284.976C131.099 285.235 131.074 285.511 131.089 285.805C131.102 286.097 131.151 286.348 131.234 286.555L130.883 287.487L126.837 285.95L127.918 281.547L128.828 281.77L127.959 285.313L130.385 286.224L130.398 286.175C130.302 285.967 130.241 285.721 130.214 285.436C130.188 285.152 130.209 284.868 130.279 284.583C130.406 284.065 130.644 283.633 130.992 283.288C131.338 282.94 131.753 282.703 132.237 282.576C132.722 282.447 133.24 282.449 133.789 282.584C134.329 282.717 134.782 282.957 135.148 283.304C135.511 283.647 135.764 284.06 135.905 284.543C136.045 285.024 136.048 285.534 135.916 286.072ZM135.104 281.374L134.259 281.167L129.28 275.996L129.431 275.383L130.738 275.704L130.637 276.118L134.399 280.025L134.465 280.042L135.696 275.026L136.607 275.249L135.104 281.374ZM137.821 277.811L135.826 277.322L135.433 277.225L129.345 275.731L129.585 274.754L138.061 276.835L137.821 277.811ZM137.831 272.766L138.262 272.941C138.565 273.066 138.884 273.22 139.218 273.404C139.554 273.586 139.868 273.767 140.16 273.947C140.453 274.127 140.684 274.273 140.856 274.386L140.673 275.13C140.505 275.051 140.283 274.947 140.008 274.818C139.733 274.689 139.423 274.552 139.078 274.406C138.737 274.258 138.385 274.118 138.022 273.988L137.571 273.825L137.831 272.766ZM140.151 268.817C139.998 269.44 139.698 269.93 139.251 270.285C138.802 270.64 138.224 270.853 137.519 270.926C136.811 270.998 135.996 270.921 135.074 270.695C134.159 270.47 133.405 270.162 132.813 269.771C132.22 269.377 131.806 268.918 131.571 268.396C131.335 267.87 131.292 267.298 131.444 266.68C131.596 266.062 131.898 265.575 132.35 265.221C132.801 264.864 133.38 264.649 134.088 264.577C134.794 264.502 135.605 264.577 136.521 264.801C137.442 265.028 138.2 265.337 138.795 265.728C139.386 266.119 139.799 266.576 140.033 267.098C140.265 267.62 140.305 268.193 140.151 268.817ZM139.241 268.593C139.393 267.975 139.213 267.422 138.701 266.934C138.189 266.445 137.381 266.066 136.277 265.795C135.543 265.615 134.899 265.54 134.345 265.57C133.791 265.598 133.343 265.725 133 265.951C132.659 266.175 132.438 266.491 132.338 266.899C132.188 267.511 132.372 268.064 132.892 268.557C133.409 269.05 134.217 269.431 135.318 269.702C136.052 269.882 136.695 269.957 137.246 269.929C137.797 269.9 138.242 269.774 138.581 269.55C138.92 269.323 139.14 269.004 139.241 268.593ZM141.951 261.483C141.861 261.83 141.709 262.161 141.497 262.477C141.285 262.794 140.993 263.059 140.622 263.272C140.248 263.484 139.782 263.614 139.223 263.661C138.662 263.708 137.989 263.635 137.206 263.443C136.455 263.258 135.807 263.025 135.263 262.742C134.715 262.458 134.275 262.134 133.944 261.769C133.609 261.403 133.385 261.006 133.271 260.577C133.157 260.145 133.159 259.691 133.276 259.214C133.393 258.739 133.592 258.34 133.873 258.017C134.152 257.691 134.488 257.452 134.883 257.3C135.277 257.148 135.702 257.091 136.157 257.13L135.909 258.14C135.506 258.14 135.145 258.245 134.828 258.454C134.51 258.662 134.297 258.99 134.187 259.437C134.026 260.094 134.184 260.681 134.663 261.199C135.142 261.715 135.897 262.1 136.928 262.356L136.944 262.29C136.748 262.078 136.593 261.846 136.479 261.593C136.364 261.336 136.292 261.067 136.265 260.785C136.238 260.504 136.259 260.218 136.331 259.928C136.45 259.443 136.68 259.028 137.022 258.685C137.361 258.341 137.772 258.1 138.257 257.961C138.739 257.822 139.253 257.82 139.799 257.954C140.323 258.082 140.774 258.317 141.153 258.659C141.528 259 141.792 259.414 141.945 259.902C142.095 260.386 142.097 260.913 141.951 261.483ZM141.041 261.26C141.126 260.912 141.116 260.579 141.01 260.26C140.904 259.939 140.725 259.663 140.472 259.431C140.219 259.196 139.914 259.035 139.555 258.947C139.205 258.861 138.867 258.861 138.541 258.948C138.214 259.032 137.931 259.189 137.693 259.42C137.455 259.648 137.294 259.936 137.209 260.284C137.144 260.546 137.137 260.803 137.186 261.055C137.233 261.306 137.324 261.54 137.462 261.755C137.6 261.967 137.773 262.15 137.981 262.303C138.186 262.456 138.416 262.564 138.67 262.626C139.006 262.709 139.34 262.707 139.671 262.622C140.003 262.533 140.292 262.373 140.539 262.141C140.787 261.907 140.954 261.613 141.041 261.26Z" fill="black"/>
<path d="M129.431 115.747L130.264 115.499L137.174 117.444L137.354 118.048L136.063 118.432L135.942 118.024L130.721 116.554L130.655 116.574L132.128 121.524L131.23 121.791L129.431 115.747ZM128.887 120.194L130.856 119.609L131.244 119.493L137.252 117.705L137.539 118.669L129.174 121.158L128.887 120.194ZM139.241 123.972C139.341 124.316 139.378 124.679 139.352 125.06C139.326 125.441 139.207 125.817 138.994 126.189C138.784 126.559 138.45 126.906 137.992 127.229C137.534 127.552 136.921 127.828 136.153 128.057C135.41 128.278 134.729 128.404 134.109 128.434C133.493 128.466 132.949 128.409 132.475 128.262C132.003 128.118 131.608 127.889 131.292 127.574C130.977 127.262 130.749 126.87 130.609 126.399C130.47 125.931 130.438 125.485 130.514 125.062C130.593 124.642 130.764 124.265 131.026 123.932C131.292 123.6 131.636 123.337 132.058 123.14L132.355 124.137C131.997 124.341 131.733 124.613 131.562 124.955C131.395 125.298 131.376 125.69 131.508 126.131C131.7 126.777 132.133 127.202 132.808 127.407C133.483 127.615 134.336 127.566 135.365 127.26L135.345 127.195C135.071 127.11 134.82 126.988 134.591 126.828C134.363 126.667 134.166 126.473 134 126.243C133.834 126.014 133.708 125.755 133.622 125.467C133.479 124.987 133.467 124.512 133.585 124.042C133.706 123.573 133.939 123.157 134.284 122.793C134.633 122.431 135.077 122.17 135.616 122.01C136.128 121.858 136.631 121.832 137.123 121.935C137.62 122.039 138.057 122.262 138.434 122.603C138.812 122.947 139.081 123.403 139.241 123.972ZM138.343 124.24C138.241 123.896 138.063 123.613 137.81 123.389C137.56 123.167 137.267 123.019 136.93 122.944C136.597 122.871 136.257 122.886 135.908 122.99C135.56 123.094 135.265 123.264 135.025 123.502C134.788 123.742 134.624 124.02 134.535 124.337C134.449 124.656 134.457 124.987 134.559 125.33C134.636 125.589 134.758 125.815 134.926 126.008C135.095 126.2 135.294 126.353 135.52 126.467C135.75 126.582 135.992 126.654 136.246 126.682C136.504 126.709 136.756 126.686 137.004 126.612C137.331 126.515 137.613 126.345 137.852 126.102C138.092 125.861 138.259 125.577 138.355 125.25C138.451 124.925 138.447 124.588 138.343 124.24ZM133.595 131.831L133.135 131.897C132.811 131.943 132.457 131.971 132.075 131.981C131.693 131.994 131.331 131.997 130.988 131.989C130.645 131.982 130.371 131.973 130.166 131.963L129.948 131.227C130.132 131.211 130.376 131.189 130.679 131.161C130.982 131.133 131.319 131.095 131.69 131.047C132.059 131.002 132.433 130.944 132.812 130.873L133.284 130.786L133.595 131.831ZM132.978 133.941L133.713 133.722L137.558 135.584C138.008 135.803 138.395 135.978 138.719 136.11C139.045 136.241 139.339 136.322 139.601 136.354C139.866 136.388 140.126 136.367 140.382 136.291C140.676 136.203 140.91 136.057 141.083 135.851C141.256 135.648 141.366 135.408 141.411 135.131C141.456 134.854 141.433 134.564 141.343 134.262C141.248 133.94 141.098 133.68 140.893 133.48C140.692 133.282 140.453 133.153 140.177 133.093C139.902 133.035 139.606 133.054 139.287 133.149L139 132.185C139.49 132.039 139.954 132.024 140.392 132.14C140.829 132.255 141.209 132.477 141.532 132.805C141.856 133.135 142.09 133.544 142.235 134.032C142.381 134.522 142.407 134.987 142.313 135.427C142.218 135.867 142.028 136.247 141.74 136.567C141.453 136.886 141.094 137.11 140.664 137.238C140.356 137.33 140.039 137.363 139.712 137.339C139.388 137.317 139.006 137.223 138.565 137.058C138.128 136.895 137.581 136.65 136.924 136.324L134.355 135.043L134.29 135.063L135.447 138.951L134.549 139.218L132.978 133.941ZM135.777 143.765C135.617 143.226 135.567 142.718 135.626 142.241C135.686 141.767 135.845 141.356 136.1 141.011C136.36 140.667 136.705 140.419 137.137 140.266L137.443 141.296C137.18 141.398 136.975 141.559 136.828 141.781C136.683 142.002 136.597 142.26 136.569 142.556C136.541 142.852 136.576 143.16 136.671 143.482C136.778 143.841 136.936 144.141 137.143 144.382C137.351 144.622 137.59 144.788 137.861 144.879C138.131 144.971 138.413 144.973 138.707 144.885C139.015 144.794 139.263 144.637 139.452 144.415C139.643 144.192 139.762 143.913 139.808 143.58C139.854 143.246 139.814 142.867 139.687 142.442L139.488 141.772L140.387 141.505L140.586 142.174C140.685 142.507 140.831 142.78 141.026 142.995C141.221 143.213 141.448 143.36 141.708 143.436C141.969 143.516 142.247 143.512 142.541 143.424C142.824 143.34 143.052 143.204 143.224 143.017C143.396 142.829 143.507 142.603 143.556 142.34C143.606 142.079 143.585 141.795 143.494 141.487C143.408 141.198 143.273 140.942 143.091 140.717C142.912 140.495 142.7 140.333 142.453 140.232C142.209 140.129 141.946 140.113 141.665 140.182L141.373 139.201C141.816 139.087 142.239 139.105 142.643 139.255C143.048 139.404 143.404 139.651 143.708 139.996C144.013 140.344 144.237 140.759 144.381 141.241C144.535 141.758 144.562 142.233 144.462 142.666C144.366 143.098 144.177 143.464 143.895 143.764C143.614 144.064 143.276 144.273 142.881 144.39C142.41 144.53 141.972 144.526 141.566 144.377C141.161 144.231 140.831 143.966 140.578 143.582L140.513 143.601C140.583 144.155 140.481 144.635 140.207 145.039C139.936 145.443 139.535 145.724 139.004 145.882C138.549 146.017 138.104 146.015 137.668 145.875C137.236 145.737 136.853 145.486 136.519 145.123C136.186 144.76 135.939 144.307 135.777 143.765Z" fill="black"/>
</svg>
