<svg width="271" height="266" viewBox="0 0 271 266" fill="none" xmlns="http://www.w3.org/2000/svg">
<path d="M201.283 24.3329L201.54 23.5025L206.998 18.8402L207.601 19.0267L207.203 20.3131L206.796 20.187L202.671 23.71L202.651 23.7751L207.585 25.3028L207.308 26.1983L201.283 24.3329ZM204.678 27.2576L205.285 25.2956L205.405 24.9088L207.259 18.9208L208.22 19.2183L205.638 27.5551L204.678 27.2576ZM213.704 20.9164L211.123 29.2532L210.113 28.9406L212.367 21.6622L212.318 21.6471L209.864 22.3683L210.182 21.3425L212.694 20.6038L213.704 20.9164ZM214.83 29.152L214.629 29.5714C214.487 29.8665 214.314 30.1758 214.109 30.4992C213.908 30.8234 213.709 31.126 213.511 31.407C213.314 31.688 213.155 31.9107 213.033 32.075L212.3 31.8482C212.389 31.6854 212.506 31.4704 212.651 31.2031C212.796 30.9358 212.952 30.6345 213.118 30.2994C213.286 29.9678 213.446 29.6247 213.598 29.2701L213.788 28.8293L214.83 29.152ZM218.643 31.7065C218.165 31.5586 217.764 31.3304 217.44 31.022C217.117 30.7136 216.891 30.3581 216.762 29.9556C216.634 29.5531 216.625 29.1368 216.734 28.7067L217.711 29.0092C217.632 29.3982 217.707 29.7632 217.934 30.1043C218.165 30.4435 218.494 30.679 218.92 30.8109C219.262 30.9168 219.59 30.9309 219.906 30.8531C220.224 30.7762 220.503 30.6215 220.741 30.389C220.983 30.1547 221.159 29.8598 221.269 29.5042C221.382 29.1406 221.402 28.7915 221.33 28.457C221.262 28.1206 221.115 27.8268 220.89 27.5755C220.664 27.3243 220.374 27.1422 220.019 27.0295C219.765 26.9478 219.491 26.906 219.197 26.9042C218.904 26.8998 218.651 26.933 218.439 27.0041L217.53 26.5977L219.305 22.6507L223.636 23.9918L223.359 24.8874L219.875 23.8085L218.82 26.1764L218.869 26.1915C219.082 26.1088 219.331 26.0625 219.617 26.0528C219.902 26.0431 220.185 26.0815 220.464 26.168C220.975 26.326 221.391 26.5889 221.715 26.9566C222.042 27.3225 222.254 27.7511 222.352 28.2423C222.452 28.7344 222.419 29.2504 222.251 29.7905C222.087 30.3224 221.82 30.7603 221.452 31.1043C221.087 31.4464 220.66 31.6739 220.17 31.7869C219.681 31.8972 219.172 31.8704 218.643 31.7065ZM228.559 25.516L225.978 33.8528L224.968 33.5402L227.222 26.2618L227.173 26.2466L224.719 26.9679L225.037 25.9421L227.549 25.2034L228.559 25.516Z" fill="black"/>
<path d="M121.788 103.197C121.48 103.694 121.12 104.08 120.708 104.353C120.294 104.621 119.866 104.766 119.423 104.786C118.977 104.804 118.555 104.689 118.155 104.438C117.839 104.246 117.588 104.006 117.399 103.716C117.209 103.424 117.091 103.115 117.047 102.787C117.001 102.455 117.038 102.138 117.157 101.838L117.114 101.811C116.802 102.109 116.428 102.269 115.991 102.29C115.552 102.309 115.136 102.195 114.744 101.949C114.365 101.719 114.087 101.415 113.909 101.038C113.732 100.661 113.661 100.25 113.699 99.806C113.738 99.3592 113.892 98.9183 114.161 98.4833C114.426 98.0531 114.75 97.7219 115.13 97.4896C115.511 97.2573 115.91 97.1363 116.326 97.1267C116.745 97.1146 117.143 97.2238 117.522 97.4544C117.914 97.7002 118.199 98.0251 118.377 98.4289C118.554 98.8288 118.581 99.2312 118.458 99.6359L118.501 99.6628C118.715 99.4244 118.979 99.2537 119.294 99.1506C119.605 99.046 119.935 99.0126 120.282 99.0503C120.627 99.0864 120.958 99.2004 121.273 99.3921C121.673 99.6425 121.964 99.9722 122.145 100.381C122.325 100.787 122.387 101.234 122.332 101.724C122.275 102.21 122.094 102.701 121.788 103.197ZM120.99 102.704C121.198 102.368 121.323 102.044 121.365 101.733C121.407 101.422 121.37 101.138 121.254 100.883C121.138 100.627 120.948 100.416 120.683 100.25C120.401 100.079 120.109 99.9984 119.806 100.008C119.503 100.018 119.213 100.108 118.938 100.278C118.663 100.446 118.429 100.687 118.235 101.001C118.04 101.318 117.926 101.639 117.896 101.964C117.867 102.286 117.916 102.585 118.043 102.861C118.171 103.134 118.376 103.356 118.658 103.527C118.923 103.694 119.194 103.773 119.473 103.765C119.753 103.754 120.024 103.659 120.285 103.48C120.546 103.301 120.781 103.042 120.99 102.704ZM117.467 100.526C117.631 100.26 117.723 99.992 117.744 99.7208C117.766 99.4473 117.718 99.1923 117.601 98.9559C117.483 98.7195 117.297 98.521 117.042 98.3603C116.789 98.2074 116.534 98.1314 116.276 98.1324C116.016 98.1319 115.772 98.203 115.543 98.3457C115.312 98.4869 115.112 98.6941 114.944 98.9672C114.772 99.2451 114.674 99.5201 114.649 99.7921C114.622 100.063 114.668 100.313 114.786 100.543C114.902 100.772 115.087 100.962 115.339 101.115C115.594 101.276 115.853 101.357 116.115 101.359C116.379 101.359 116.629 101.288 116.864 101.145C117.098 101.003 117.299 100.797 117.467 100.526ZM122.474 98.4546L121.734 97.9976L118.588 91.5451L118.92 91.0086L120.065 91.7165L119.841 92.079L122.219 96.9544L122.277 96.9903L124.992 92.5967L125.789 93.0895L122.474 98.4546ZM126.156 95.9009L124.409 94.8212L124.064 94.6083L118.732 91.3131L119.26 90.4576L126.685 95.0454L126.156 95.9009ZM127.718 91.103L128.074 91.403C128.324 91.6143 128.58 91.8593 128.842 92.1381C129.105 92.4144 129.348 92.6831 129.571 92.9443C129.794 93.2054 129.969 93.4158 130.098 93.5753L129.694 94.2278C129.559 94.1009 129.38 93.9336 129.158 93.726C128.936 93.5185 128.683 93.2922 128.4 93.0473C128.121 92.8015 127.829 92.5609 127.524 92.3254L127.145 92.031L127.718 91.103ZM131.133 88.0737C130.825 88.5715 130.465 88.9568 130.053 89.2297C129.64 89.4986 129.211 89.643 128.768 89.6631C128.323 89.6816 127.9 89.5657 127.5 89.3154C127.185 89.1236 126.933 88.8828 126.745 88.5929C126.554 88.3014 126.436 87.9917 126.392 87.6637C126.347 87.3318 126.383 87.0155 126.502 86.715L126.459 86.6881C126.148 86.9866 125.773 87.1462 125.337 87.1667C124.897 87.1858 124.481 87.0725 124.089 86.8266C123.711 86.5961 123.432 86.2923 123.255 85.9152C123.077 85.5382 123.007 85.1275 123.044 84.6831C123.083 84.2364 123.237 83.7955 123.506 83.3605C123.772 82.9303 124.095 82.599 124.476 82.3667C124.856 82.1344 125.255 82.0135 125.672 82.0038C126.09 81.9917 126.488 82.101 126.867 82.3315C127.259 82.5774 127.544 82.9022 127.722 83.3061C127.899 83.706 127.926 84.1083 127.803 84.5131L127.846 84.5399C128.061 84.3016 128.325 84.1308 128.639 84.0277C128.951 83.9232 129.28 83.8897 129.628 83.9274C129.973 83.9636 130.303 84.0776 130.619 84.2693C131.018 84.5196 131.309 84.8494 131.49 85.2586C131.67 85.6639 131.733 86.1116 131.677 86.6015C131.621 87.0875 131.439 87.5782 131.133 88.0737ZM130.336 87.5808C130.543 87.2449 130.668 86.9213 130.71 86.61C130.752 86.2987 130.715 86.0154 130.599 85.76C130.483 85.5046 130.293 85.2936 130.029 85.1269C129.747 84.9561 129.454 84.8755 129.151 84.8852C128.848 84.8949 128.558 84.9849 128.283 85.1552C128.009 85.3231 127.775 85.5642 127.58 85.8784C127.385 86.1949 127.272 86.5158 127.241 86.8409C127.212 87.1635 127.261 87.4626 127.388 87.7381C127.516 88.0112 127.722 88.2332 128.003 88.404C128.268 88.5707 128.539 88.65 128.818 88.6419C129.098 88.6315 129.369 88.5366 129.63 88.3573C129.891 88.178 130.126 87.9192 130.336 87.5808ZM126.812 85.4034C126.976 85.1376 127.069 84.8691 127.089 84.598C127.111 84.3244 127.064 84.0695 126.946 83.8331C126.828 83.5967 126.642 83.3981 126.387 83.2374C126.134 83.0845 125.879 83.0086 125.621 83.0096C125.361 83.0091 125.117 83.0802 124.888 83.2229C124.657 83.3641 124.458 83.5712 124.289 83.8443C124.117 84.1222 124.019 84.3972 123.995 84.6693C123.968 84.9398 124.013 85.1902 124.132 85.4202C124.247 85.6488 124.432 85.8396 124.685 85.9924C124.939 86.1532 125.198 86.2345 125.461 86.2365C125.725 86.2361 125.974 86.1648 126.209 86.0226C126.444 85.8805 126.645 85.6741 126.812 85.4034ZM127.638 76.9008L135.062 81.4886L134.507 82.3876L128.025 78.3822L127.998 78.4257L128.081 80.982L127.168 80.4175L127.082 77.7998L127.638 76.9008Z" fill="black"/>
<path d="M239.924 87.4979C239.698 88.0133 239.409 88.4339 239.055 88.7599C238.703 89.0833 238.317 89.2945 237.899 89.3935C237.479 89.4888 237.055 89.4552 236.626 89.2927L237.057 88.3089C237.324 88.4008 237.585 88.4097 237.841 88.3355C238.094 88.2602 238.326 88.1185 238.538 87.9105C238.75 87.7024 238.923 87.4449 239.058 87.1377C239.208 86.7942 239.282 86.4635 239.278 86.1456C239.274 85.8278 239.199 85.5467 239.052 85.3023C238.904 85.058 238.69 84.8743 238.409 84.7513C238.115 84.6227 237.824 84.5822 237.536 84.63C237.246 84.6767 236.976 84.8127 236.725 85.038C236.475 85.2632 236.261 85.5789 236.083 85.9849L235.803 86.6252L234.944 86.2494L235.224 85.6091C235.363 85.2916 235.428 84.988 235.418 84.6985C235.409 84.4063 235.331 84.147 235.182 83.9206C235.034 83.6915 234.819 83.5155 234.538 83.3925C234.267 83.2741 234.006 83.2309 233.753 83.2629C233.5 83.295 233.27 83.3958 233.062 83.5655C232.856 83.7325 232.688 83.9631 232.56 84.2572C232.439 84.5331 232.376 84.8155 232.37 85.1046C232.363 85.3899 232.421 85.6509 232.544 85.8876C232.664 86.1232 232.854 86.3055 233.114 86.4347L232.704 87.3717C232.292 87.1727 231.98 86.8859 231.769 86.5113C231.555 86.1355 231.443 85.7176 231.434 85.2575C231.425 84.7949 231.522 84.3333 231.723 83.8726C231.94 83.3781 232.225 82.9977 232.581 82.7314C232.933 82.464 233.314 82.3065 233.722 82.2588C234.131 82.2112 234.524 82.2699 234.901 82.4351C235.351 82.6321 235.684 82.9185 235.897 83.2943C236.112 83.6674 236.193 84.0825 236.139 84.5394L236.201 84.5668C236.505 84.0983 236.893 83.7979 237.363 83.6657C237.831 83.5323 238.318 83.5767 238.826 83.7988C239.26 83.989 239.599 84.2782 239.841 84.6665C240.083 85.0511 240.213 85.4896 240.233 85.9822C240.253 86.4748 240.15 86.98 239.924 87.4979ZM242.966 80.5449C242.817 80.8706 242.611 81.1712 242.348 81.4467C242.085 81.7223 241.752 81.9333 241.35 82.0799C240.945 82.2253 240.464 82.2735 239.905 82.2245C239.344 82.1744 238.694 81.9876 237.955 81.6642C237.247 81.3544 236.649 81.0136 236.16 80.6417C235.669 80.2687 235.292 79.8739 235.027 79.4575C234.76 79.0399 234.607 78.6101 234.568 78.1681C234.53 77.7236 234.61 77.2761 234.807 76.8259C235.002 76.3782 235.266 76.0193 235.599 75.7491C235.929 75.4752 236.302 75.2971 236.716 75.2148C237.131 75.1325 237.559 75.1494 238.001 75.2654L237.584 76.218C237.186 76.1493 236.813 76.1907 236.465 76.3421C236.116 76.4935 235.85 76.7801 235.665 77.2017C235.394 77.8211 235.45 78.427 235.833 79.0193C236.217 79.609 236.895 80.1181 237.867 80.5466L237.895 80.4842C237.737 80.2416 237.624 79.986 237.556 79.7172C237.486 79.4448 237.461 79.1674 237.482 78.8852C237.504 78.6029 237.574 78.3252 237.694 78.0519C237.894 77.5938 238.192 77.2249 238.587 76.9451C238.98 76.6642 239.427 76.4969 239.928 76.4433C240.426 76.3885 240.933 76.4738 241.448 76.6993C241.943 76.9157 242.347 77.2245 242.662 77.6256C242.974 78.0257 243.163 78.479 243.23 78.9857C243.295 79.4887 243.207 80.0084 242.966 80.5449ZM242.107 80.1691C242.251 79.8412 242.297 79.5112 242.247 79.1792C242.198 78.8446 242.069 78.5414 241.859 78.2698C241.65 77.9955 241.377 77.7843 241.038 77.6363C240.708 77.4917 240.375 77.4343 240.039 77.4642C239.702 77.4904 239.397 77.597 239.122 77.7841C238.85 77.9685 238.641 78.2247 238.498 78.5526C238.39 78.7999 238.338 79.0519 238.344 79.3086C238.347 79.5641 238.397 79.8096 238.496 80.045C238.596 80.2778 238.735 80.4875 238.914 80.6743C239.09 80.8599 239.298 81.0051 239.537 81.1099C239.855 81.2488 240.184 81.3045 240.525 81.2768C240.867 81.2466 241.179 81.1383 241.462 80.9521C241.746 80.7632 241.961 80.5023 242.107 80.1691ZM244.047 74.7991L244.442 75.0461C244.719 75.2202 245.007 75.4268 245.305 75.6659C245.605 75.9025 245.883 76.1344 246.141 76.3616C246.398 76.5889 246.601 76.7725 246.751 76.9124L246.443 77.6151C246.292 77.5084 246.091 77.3679 245.842 77.1937C245.592 77.0194 245.31 76.831 244.996 76.6283C244.685 76.4241 244.362 76.2269 244.027 76.0367L243.61 75.7986L244.047 74.7991ZM244.159 73.056L243.363 72.7075L239.341 66.7614L239.593 66.1836L240.827 66.7234L240.656 67.1138L243.695 71.6066L243.758 71.6339L245.828 66.9023L246.687 67.2781L244.159 73.056ZM247.445 70.01L245.564 69.1866L245.193 69.0243L239.45 66.5115L239.853 65.5902L247.848 69.0886L247.445 70.01ZM250.197 64.0193C249.962 64.5555 249.66 64.9876 249.29 65.3157C248.919 65.64 248.515 65.8432 248.079 65.9254C247.64 66.0064 247.206 65.951 246.775 65.7594C246.435 65.6139 246.152 65.4109 245.925 65.1503C245.695 64.8886 245.535 64.5984 245.445 64.2799C245.354 63.9577 245.346 63.6394 245.421 63.3251L245.374 63.3046C245.108 63.6439 244.76 63.8545 244.33 63.9363C243.898 64.017 243.471 63.9632 243.048 63.775C242.64 63.5999 242.322 63.3382 242.093 62.9899C241.864 62.6417 241.737 62.2449 241.712 61.7997C241.687 61.3518 241.778 60.8937 241.983 60.4252C242.186 59.9619 242.459 59.5885 242.803 59.305C243.147 59.0215 243.525 58.8457 243.936 58.7775C244.349 58.7068 244.759 58.7589 245.166 58.934C245.589 59.1222 245.917 59.4037 246.15 59.7786C246.381 60.1496 246.464 60.5442 246.399 60.9622L246.446 60.9827C246.625 60.7166 246.862 60.5104 247.159 60.3642C247.453 60.2168 247.774 60.1374 248.123 60.1259C248.47 60.1132 248.813 60.1796 249.153 60.325C249.584 60.5167 249.918 60.8023 250.155 61.182C250.39 61.558 250.515 61.9924 250.529 62.4853C250.541 62.9744 250.43 63.4858 250.197 64.0193ZM249.338 63.6435C249.496 63.2817 249.574 62.9438 249.572 62.6297C249.57 62.3156 249.494 62.0402 249.343 61.8037C249.192 61.5672 248.974 61.385 248.689 61.2571C248.386 61.1276 248.085 61.089 247.786 61.1412C247.487 61.1934 247.214 61.3232 246.965 61.5305C246.717 61.7353 246.519 62.0069 246.371 62.3453C246.222 62.6862 246.155 63.0198 246.17 63.3459C246.187 63.6695 246.277 63.9587 246.442 64.2136C246.607 64.4659 246.842 64.6568 247.145 64.7863C247.43 64.9142 247.71 64.9545 247.985 64.9074C248.261 64.8576 248.516 64.7256 248.749 64.5114C248.982 64.2972 249.179 64.0079 249.338 63.6435ZM245.543 61.9831C245.669 61.6968 245.722 61.418 245.705 61.1467C245.688 60.8727 245.605 60.627 245.455 60.4095C245.305 60.192 245.093 60.0216 244.818 59.8983C244.546 59.7825 244.283 59.7432 244.028 59.7804C243.77 59.8165 243.538 59.9212 243.332 60.0946C243.123 60.2669 242.955 60.5001 242.826 60.7942C242.695 61.0935 242.637 61.3795 242.651 61.6523C242.662 61.924 242.742 62.1654 242.892 62.3766C243.039 62.5866 243.248 62.7495 243.52 62.8653C243.795 62.9886 244.062 63.0328 244.322 62.9979C244.584 62.9603 244.821 62.8547 245.033 62.6809C245.246 62.5072 245.416 62.2746 245.543 61.9831Z" fill="black"/>
<path d="M165.687 161.465C165.306 161.788 164.898 162.004 164.464 162.112C164.03 162.22 163.609 162.22 163.201 162.113C162.792 162.005 162.436 161.79 162.131 161.467L162.911 160.804C163.197 161.079 163.545 161.212 163.954 161.203C164.365 161.19 164.74 161.039 165.079 160.75C165.352 160.518 165.54 160.249 165.644 159.94C165.75 159.631 165.768 159.313 165.7 158.987C165.632 158.657 165.477 158.35 165.236 158.066C164.99 157.776 164.706 157.572 164.385 157.453C164.065 157.331 163.738 157.297 163.405 157.353C163.072 157.408 162.763 157.556 162.477 157.795C162.272 157.965 162.09 158.174 161.931 158.421C161.77 158.666 161.662 158.897 161.608 159.115L160.778 159.664L158.398 156.049L161.853 153.113L162.46 153.827L159.681 156.189L161.114 158.349L161.153 158.316C161.198 158.092 161.292 157.857 161.437 157.61C161.582 157.364 161.766 157.146 161.989 156.957C162.396 156.611 162.841 156.4 163.325 156.324C163.809 156.245 164.285 156.295 164.752 156.476C165.221 156.655 165.638 156.96 166.005 157.391C166.365 157.815 166.592 158.275 166.685 158.77C166.778 159.261 166.741 159.744 166.574 160.218C166.404 160.69 166.109 161.106 165.687 161.465ZM171.418 156.592C170.989 156.957 170.545 157.208 170.084 157.346C169.626 157.482 169.187 157.503 168.767 157.408C168.348 157.31 167.981 157.094 167.668 156.76L168.486 156.065C168.685 156.264 168.916 156.387 169.179 156.432C169.439 156.475 169.71 156.45 169.992 156.356C170.274 156.262 170.542 156.106 170.798 155.889C171.083 155.646 171.294 155.381 171.431 155.094C171.567 154.807 171.622 154.521 171.597 154.237C171.571 153.953 171.459 153.694 171.261 153.46C171.053 153.215 170.809 153.051 170.53 152.968C170.248 152.883 169.946 152.887 169.622 152.979C169.298 153.072 168.967 153.262 168.629 153.549L168.097 154.002L167.49 153.287L168.022 152.835C168.286 152.61 168.477 152.366 168.595 152.101C168.716 151.835 168.759 151.567 168.724 151.298C168.691 151.028 168.576 150.775 168.377 150.542C168.186 150.317 167.969 150.163 167.728 150.081C167.487 149.999 167.236 149.989 166.975 150.05C166.716 150.11 166.464 150.244 166.22 150.452C165.99 150.647 165.81 150.873 165.678 151.13C165.547 151.384 165.484 151.644 165.491 151.91C165.496 152.174 165.587 152.422 165.764 152.652L164.984 153.314C164.701 152.955 164.547 152.56 164.521 152.131C164.493 151.699 164.576 151.275 164.769 150.857C164.964 150.437 165.254 150.065 165.637 149.739C166.048 149.39 166.472 149.173 166.908 149.089C167.342 149.004 167.753 149.029 168.141 149.165C168.529 149.301 168.856 149.526 169.123 149.84C169.442 150.215 169.614 150.618 169.642 151.049C169.672 151.479 169.562 151.887 169.313 152.274L169.357 152.326C169.836 152.038 170.316 151.938 170.796 152.025C171.275 152.111 171.694 152.364 172.053 152.786C172.36 153.148 172.538 153.556 172.585 154.011C172.633 154.463 172.559 154.914 172.361 155.366C172.163 155.817 171.849 156.226 171.418 156.592ZM175.093 151.746L175.339 152.14C175.512 152.418 175.68 152.73 175.844 153.076C176.009 153.42 176.158 153.75 176.289 154.067C176.421 154.384 176.523 154.639 176.596 154.83L176.012 155.327C175.922 155.164 175.804 154.95 175.656 154.684C175.508 154.418 175.337 154.125 175.144 153.805C174.954 153.486 174.75 153.167 174.532 152.849L174.262 152.452L175.093 151.746ZM177.272 151.459L176.776 150.874L176.928 146.606C176.946 146.106 176.95 145.681 176.94 145.331C176.929 144.98 176.885 144.678 176.808 144.426C176.732 144.17 176.608 143.94 176.435 143.736C176.236 143.503 176.008 143.348 175.75 143.273C175.494 143.196 175.23 143.192 174.959 143.263C174.687 143.334 174.431 143.471 174.191 143.676C173.935 143.893 173.757 144.135 173.657 144.403C173.557 144.667 173.535 144.937 173.591 145.214C173.65 145.489 173.786 145.753 174.002 146.006L173.236 146.658C172.904 146.268 172.703 145.85 172.633 145.402C172.562 144.955 172.612 144.518 172.781 144.09C172.953 143.661 173.233 143.282 173.62 142.952C174.01 142.621 174.425 142.41 174.866 142.318C175.307 142.227 175.731 142.248 176.139 142.382C176.548 142.516 176.897 142.754 177.188 143.096C177.396 143.341 177.555 143.618 177.665 143.927C177.775 144.232 177.844 144.619 177.87 145.089C177.897 145.555 177.894 146.154 177.86 146.887L177.725 149.754L177.769 149.806L180.86 147.178L181.467 147.893L177.272 151.459ZM183.016 146.576L180.989 138.165L180.944 138.113L177.516 141.028L176.909 140.313L181.168 136.692L181.809 137.445L183.86 145.859L183.016 146.576Z" fill="black"/>
<path d="M64.5186 172.535C64.2012 172.369 63.9119 172.147 63.6507 171.87C63.3895 171.592 63.1963 171.249 63.0713 170.84C62.9475 170.428 62.9248 169.944 63.0033 169.389C63.083 168.832 63.3039 168.192 63.666 167.471C64.0128 166.781 64.3848 166.201 64.782 165.733C65.1805 165.263 65.5947 164.906 66.0245 164.665C66.4556 164.42 66.8929 164.29 67.3363 164.274C67.7823 164.26 68.2249 164.363 68.6641 164.583C69.1008 164.803 69.4452 165.085 69.6974 165.431C69.9535 165.776 70.1116 166.158 70.1719 166.576C70.2321 166.994 70.1926 167.421 70.0534 167.856L69.1242 167.389C69.2138 166.996 69.1922 166.621 69.0595 166.265C68.9267 165.909 68.6547 165.628 68.2434 165.421C67.6391 165.118 67.0312 165.141 66.4195 165.492C65.8103 165.844 65.266 166.495 64.7866 167.443L64.8476 167.473C65.0981 167.329 65.3594 167.23 65.6313 167.176C65.9071 167.12 66.1854 167.111 66.4661 167.147C66.7468 167.183 67.0205 167.268 67.287 167.401C67.7339 167.626 68.0865 167.943 68.345 168.352C68.6047 168.759 68.7481 169.214 68.7752 169.718C68.8035 170.218 68.6915 170.72 68.4391 171.223C68.1968 171.705 67.8671 172.093 67.4499 172.385C67.0339 172.675 66.5711 172.84 66.0616 172.88C65.5559 172.919 65.0415 172.803 64.5186 172.535ZM64.9393 171.697C65.2592 171.857 65.5862 171.921 65.9204 171.889C66.2571 171.858 66.5667 171.745 66.8491 171.55C67.134 171.356 67.3594 171.094 67.5251 170.764C67.687 170.441 67.7619 170.112 67.7498 169.775C67.7415 169.437 67.6512 169.126 67.4789 168.843C67.3092 168.56 67.0643 168.339 66.7445 168.178C66.5033 168.057 66.2544 167.992 65.9977 167.984C65.7424 167.974 65.4946 168.011 65.2543 168.097C65.0166 168.185 64.7997 168.313 64.6038 168.481C64.4091 168.647 64.2531 168.847 64.1358 169.081C63.9803 169.39 63.9073 169.716 63.9169 170.058C63.929 170.401 64.0205 170.719 64.1915 171.011C64.3651 171.305 64.6143 171.534 64.9393 171.697ZM70.1991 173.918L69.9316 174.299C69.7431 174.567 69.5215 174.843 69.2669 175.129C69.0149 175.416 68.7686 175.681 68.528 175.926C68.2875 176.171 68.0934 176.364 67.9458 176.506L67.2603 176.162C67.3749 176.016 67.5258 175.823 67.713 175.584C67.9002 175.344 68.1033 175.072 68.3223 174.769C68.5426 174.47 68.7566 174.157 68.9643 173.832L69.2242 173.429L70.1991 173.918ZM71.4001 175.857L78.3536 170.708L78.3842 170.647L74.3628 168.628L74.7836 167.79L79.7798 170.299L79.3362 171.183L72.3902 176.354L71.4001 175.857ZM79.6512 180.134C79.3338 179.968 79.0446 179.747 78.7833 179.469C78.5221 179.192 78.3289 178.848 78.2039 178.439C78.0801 178.027 78.0574 177.544 78.1359 176.989C78.2156 176.431 78.4365 175.792 78.7986 175.071C79.1454 174.38 79.5174 173.801 79.9146 173.333C80.3131 172.862 80.7273 172.506 81.1571 172.264C81.5882 172.019 82.0255 171.889 82.469 171.874C82.9149 171.859 83.3575 171.962 83.7967 172.183C84.2334 172.402 84.5778 172.685 84.83 173.031C85.0861 173.375 85.2442 173.757 85.3045 174.175C85.3647 174.593 85.3252 175.02 85.186 175.455L84.2568 174.989C84.3464 174.595 84.3249 174.22 84.1921 173.864C84.0593 173.508 83.7873 173.227 83.376 173.021C82.7718 172.717 82.1638 172.741 81.5521 173.092C80.9429 173.444 80.3986 174.094 79.9192 175.042L79.9802 175.073C80.2307 174.928 80.492 174.829 80.764 174.775C81.0398 174.72 81.318 174.71 81.5987 174.746C81.8794 174.782 82.1531 174.867 82.4197 175.001C82.8665 175.225 83.2191 175.542 83.4776 175.952C83.7373 176.359 83.8807 176.814 83.9078 177.317C83.9362 177.818 83.8241 178.319 83.5717 178.822C83.3294 179.304 82.9997 179.692 82.5825 179.985C82.1665 180.275 81.7038 180.44 81.1942 180.48C80.6885 180.518 80.1741 180.403 79.6512 180.134ZM80.0719 179.296C80.3918 179.457 80.7188 179.521 81.053 179.488C81.3898 179.457 81.6993 179.344 81.9817 179.149C82.2666 178.955 82.492 178.693 82.6577 178.363C82.8196 178.041 82.8945 177.711 82.8824 177.374C82.8741 177.036 82.7838 176.726 82.6115 176.442C82.4418 176.16 82.197 175.938 81.8771 175.777C81.6359 175.656 81.387 175.592 81.1304 175.584C80.875 175.573 80.6272 175.611 80.3869 175.697C80.1492 175.784 79.9323 175.912 79.7364 176.081C79.5417 176.247 79.3857 176.446 79.2684 176.68C79.1129 176.99 79.0399 177.315 79.0495 177.657C79.0616 178 79.1531 178.318 79.3241 178.611C79.4977 178.904 79.7469 179.133 80.0719 179.296Z" fill="black"/>
<path d="M89.1362 188.645L89.634 188.061L93.8721 187.531C94.369 187.47 94.7892 187.406 95.1326 187.341C95.4778 187.273 95.7688 187.181 96.0055 187.066C96.2462 186.95 96.4532 186.79 96.6265 186.587C96.8256 186.354 96.9418 186.104 96.975 185.837C97.0104 185.572 96.9716 185.312 96.8585 185.054C96.7454 184.797 96.5689 184.567 96.329 184.362C96.0739 184.144 95.8061 184.008 95.5256 183.951C95.249 183.895 94.9787 183.916 94.7146 184.016C94.4526 184.117 94.2137 184.294 93.998 184.547L93.2329 183.894C93.5647 183.505 93.9457 183.24 94.3759 183.099C94.806 182.958 95.2456 182.938 95.6949 183.037C96.1462 183.138 96.5653 183.354 96.9522 183.684C97.3413 184.016 97.616 184.392 97.7763 184.812C97.9366 185.233 97.9833 185.655 97.9162 186.08C97.8491 186.504 97.6699 186.887 97.3787 187.229C97.1703 187.473 96.9223 187.674 96.6346 187.832C96.3508 187.99 95.9792 188.119 95.5197 188.22C95.0642 188.32 94.4721 188.413 93.7432 188.497L90.8912 188.82L90.847 188.872L93.9335 191.504L93.3251 192.218L89.1362 188.645ZM96.8303 195.364C96.4023 194.999 96.0835 194.6 95.8738 194.168C95.6664 193.737 95.5758 193.307 95.6022 192.877C95.6326 192.448 95.7875 192.051 96.0671 191.689L96.8841 192.386C96.7189 192.614 96.6347 192.862 96.6317 193.128C96.6305 193.392 96.6987 193.656 96.8365 193.919C96.9743 194.182 97.1707 194.422 97.4257 194.64C97.711 194.883 98.0063 195.049 98.3116 195.138C98.6169 195.226 98.9078 195.236 99.1843 195.165C99.4608 195.095 99.6987 194.943 99.8978 194.71C100.106 194.465 100.229 194.199 100.267 193.91C100.306 193.618 100.254 193.32 100.111 193.015C99.9678 192.71 99.7277 192.414 99.3905 192.126L98.8588 191.673L99.4672 190.959L99.9989 191.413C100.263 191.638 100.534 191.788 100.814 191.862C101.097 191.938 101.368 191.938 101.627 191.861C101.889 191.786 102.12 191.632 102.319 191.398C102.511 191.173 102.628 190.935 102.671 190.684C102.713 190.433 102.683 190.183 102.581 189.935C102.481 189.69 102.309 189.462 102.064 189.254C101.835 189.059 101.583 188.916 101.308 188.827C101.037 188.738 100.77 188.718 100.508 188.767C100.248 188.814 100.018 188.943 99.8196 189.154L99.0415 188.49C99.3513 188.153 99.7161 187.938 100.136 187.844C100.557 187.748 100.99 187.762 101.433 187.886C101.878 188.012 102.292 188.238 102.675 188.565C103.085 188.915 103.367 189.299 103.519 189.716C103.673 190.131 103.713 190.541 103.64 190.946C103.568 191.35 103.398 191.709 103.13 192.023C102.812 192.397 102.441 192.632 102.02 192.728C101.6 192.825 101.18 192.782 100.758 192.598L100.714 192.65C101.074 193.077 101.249 193.534 101.24 194.023C101.232 194.509 101.048 194.963 100.689 195.384C100.381 195.745 100.006 195.986 99.5642 196.105C99.1263 196.225 98.6687 196.223 98.1914 196.1C97.7141 195.976 97.2604 195.731 96.8303 195.364ZM102.201 198.22L101.85 198.526C101.603 198.741 101.322 198.957 101.007 199.173C100.694 199.391 100.391 199.591 100.099 199.771C99.8072 199.951 99.5726 200.093 99.3953 200.196L98.8118 199.698C98.9578 199.584 99.1504 199.432 99.3893 199.244C99.6283 199.056 99.8903 198.841 100.175 198.598C100.461 198.36 100.743 198.108 101.022 197.842L101.371 197.512L102.201 198.22ZM102.831 200.326L103.329 199.742L107.567 199.212C108.064 199.151 108.484 199.087 108.828 199.022C109.173 198.954 109.464 198.862 109.7 198.747C109.941 198.631 110.148 198.472 110.321 198.268C110.521 198.035 110.637 197.785 110.67 197.518C110.705 197.254 110.667 196.993 110.553 196.736C110.44 196.479 110.264 196.248 110.024 196.043C109.769 195.826 109.501 195.689 109.221 195.632C108.944 195.576 108.674 195.597 108.409 195.697C108.147 195.798 107.909 195.975 107.693 196.228L106.928 195.575C107.26 195.186 107.641 194.921 108.071 194.78C108.501 194.64 108.941 194.619 109.39 194.718C109.841 194.819 110.26 195.035 110.647 195.365C111.036 195.697 111.311 196.073 111.471 196.494C111.632 196.914 111.678 197.337 111.611 197.761C111.544 198.186 111.365 198.568 111.074 198.91C110.865 199.154 110.617 199.355 110.329 199.513C110.046 199.671 109.674 199.8 109.215 199.901C108.759 200.001 108.167 200.094 107.438 200.178L104.586 200.501L104.542 200.553L107.628 203.185L107.02 203.899L102.831 200.326ZM110.525 207.045C110.097 206.68 109.778 206.281 109.569 205.849C109.361 205.418 109.271 204.988 109.297 204.558C109.327 204.129 109.482 203.733 109.762 203.37L110.579 204.067C110.414 204.295 110.33 204.543 110.327 204.809C110.325 205.073 110.394 205.337 110.531 205.6C110.669 205.863 110.866 206.103 111.121 206.321C111.406 206.564 111.701 206.73 112.007 206.819C112.312 206.908 112.603 206.917 112.879 206.846C113.156 206.776 113.394 206.624 113.593 206.391C113.801 206.147 113.924 205.88 113.961 205.591C114.001 205.299 113.949 205.001 113.806 204.696C113.663 204.391 113.423 204.095 113.085 203.807L112.554 203.354L113.162 202.641L113.694 203.094C113.958 203.319 114.229 203.469 114.509 203.543C114.791 203.62 115.062 203.619 115.322 203.542C115.584 203.467 115.815 203.313 116.014 203.079C116.206 202.854 116.323 202.616 116.365 202.365C116.408 202.114 116.378 201.864 116.276 201.617C116.176 201.371 116.004 201.144 115.759 200.935C115.53 200.74 115.278 200.598 115.003 200.509C114.732 200.419 114.465 200.399 114.203 200.448C113.943 200.495 113.713 200.624 113.515 200.835L112.736 200.172C113.046 199.835 113.411 199.619 113.831 199.525C114.252 199.43 114.685 199.444 115.128 199.568C115.573 199.694 115.987 199.92 116.37 200.246C116.78 200.596 117.062 200.98 117.214 201.397C117.367 201.812 117.408 202.222 117.335 202.627C117.263 203.032 117.093 203.391 116.825 203.704C116.506 204.078 116.136 204.313 115.715 204.409C115.295 204.507 114.875 204.463 114.453 204.279L114.409 204.331C114.769 204.758 114.944 205.216 114.935 205.704C114.927 206.19 114.743 206.644 114.384 207.066C114.076 207.427 113.701 207.667 113.259 207.787C112.821 207.906 112.364 207.904 111.886 207.781C111.409 207.657 110.955 207.412 110.525 207.045Z" fill="black"/>
<path d="M73.6996 184.886L54.1602 174.314L173.576 1.5L268.901 32.1192L233.075 114.986L182.358 153.593L131.641 192.2L115.155 217.628L73.6996 184.886Z" stroke="#379482" stroke-width="2"/>
<path d="M27.1233 162.91C54.0011 179.678 87.6229 193.298 134.311 248.382M17.2619 179.933C43.5934 196.36 72.1622 207.184 119.665 263.638" stroke="#C4C4C4"/>
<path d="M91.3911 215.194L92.3667 215.993L90.0693 223.476L90.1484 223.541L97.034 219.818L98.0097 220.617L92.4782 227.368L91.7135 226.741L95.9161 221.612L95.8502 221.558L89.5381 224.958L88.7997 224.353L90.8929 217.496L90.8269 217.442L86.6243 222.571L85.8596 221.944L91.3911 215.194ZM95.4043 229.964C95.0835 229.701 94.8419 229.402 94.6794 229.067C94.5187 228.729 94.456 228.382 94.4913 228.025C94.5283 227.666 94.6819 227.322 94.952 226.993C95.1897 226.702 95.4395 226.514 95.7014 226.428C95.9651 226.339 96.2349 226.321 96.5107 226.375C96.7865 226.428 97.0604 226.524 97.3326 226.662C97.6087 226.801 97.8769 226.951 98.1373 227.112C98.4773 227.325 98.751 227.5 98.9584 227.637C99.1698 227.773 99.3401 227.852 99.4694 227.874C99.601 227.897 99.718 227.846 99.8207 227.721L99.8423 227.694C100.109 227.369 100.227 227.043 100.196 226.717C100.168 226.393 99.9752 226.084 99.617 225.791C99.2457 225.486 98.8879 225.329 98.5437 225.319C98.1995 225.309 97.9089 225.361 97.672 225.475L97.1497 224.606C97.5336 224.407 97.9057 224.311 98.2659 224.32C98.6301 224.328 98.9708 224.405 99.2881 224.552C99.6094 224.697 99.8975 224.875 100.152 225.084C100.315 225.217 100.486 225.39 100.664 225.602C100.847 225.814 100.988 226.06 101.089 226.341C101.191 226.624 101.211 226.939 101.146 227.286C101.082 227.634 100.885 228.009 100.555 228.411L97.822 231.746L97.0441 231.109L97.6059 230.423L97.5664 230.391C97.4236 230.458 97.2394 230.503 97.0137 230.528C96.788 230.552 96.5369 230.524 96.2606 230.445C95.9842 230.365 95.6988 230.205 95.4043 229.964ZM96.0956 229.362C96.4032 229.614 96.712 229.766 97.022 229.818C97.3342 229.872 97.6224 229.847 97.8868 229.744C98.1533 229.643 98.373 229.487 98.5458 229.276L99.1292 228.564C99.0639 228.577 98.9616 228.554 98.8226 228.495C98.6875 228.436 98.5375 228.359 98.3727 228.264C98.2118 228.169 98.0561 228.074 97.9055 227.98C97.7588 227.886 97.6392 227.81 97.5467 227.752C97.323 227.613 97.0989 227.501 96.8745 227.416C96.6541 227.331 96.4423 227.303 96.2392 227.331C96.0401 227.359 95.8595 227.472 95.6975 227.67C95.476 227.94 95.4085 228.226 95.495 228.528C95.5856 228.83 95.7857 229.108 96.0956 229.362ZM97.6861 234.808L103.39 227.847L104.142 228.463L103.483 229.267L103.575 229.343C103.704 229.302 103.875 229.254 104.088 229.201C104.305 229.147 104.553 229.145 104.832 229.194C105.116 229.242 105.422 229.402 105.752 229.672C106.178 230.021 106.466 230.435 106.617 230.915C106.768 231.395 106.774 231.905 106.636 232.445C106.497 232.986 106.211 233.522 105.775 234.054C105.335 234.59 104.863 234.98 104.359 235.224C103.856 235.466 103.355 235.562 102.855 235.513C102.358 235.461 101.898 235.262 101.476 234.917C101.151 234.65 100.934 234.383 100.827 234.115C100.721 233.845 100.673 233.597 100.681 233.373C100.69 233.146 100.705 232.962 100.723 232.823L100.657 232.769L98.464 235.446L97.6861 234.808ZM102.081 231.005C101.767 231.387 101.547 231.771 101.42 232.155C101.294 232.537 101.271 232.898 101.352 233.239C101.434 233.578 101.631 233.876 101.943 234.131C102.268 234.398 102.61 234.535 102.968 234.542C103.33 234.548 103.685 234.45 104.035 234.248C104.388 234.045 104.712 233.764 105.008 233.403C105.299 233.047 105.507 232.682 105.632 232.306C105.76 231.93 105.782 231.568 105.7 231.221C105.621 230.874 105.416 230.565 105.087 230.295C104.77 230.036 104.439 229.898 104.092 229.882C103.747 229.864 103.403 229.952 103.059 230.148C102.716 230.341 102.39 230.627 102.081 231.005ZM111.207 231.432L105.676 238.182L104.898 237.545L110.429 230.794L111.207 231.432ZM109.137 241.194C108.649 240.795 108.316 240.342 108.139 239.837C107.966 239.331 107.943 238.806 108.07 238.26C108.202 237.714 108.48 237.182 108.905 236.663C109.33 236.145 109.799 235.765 110.312 235.524C110.829 235.283 111.349 235.191 111.871 235.248C112.398 235.305 112.89 235.521 113.347 235.895C113.61 236.111 113.835 236.369 114.02 236.667C114.205 236.966 114.322 237.3 114.371 237.671C114.422 238.039 114.377 238.436 114.238 238.862C114.098 239.288 113.835 239.737 113.448 240.209L113.178 240.539L109.275 237.341L109.826 236.669L112.938 239.218C113.172 238.933 113.324 238.631 113.393 238.313C113.465 237.997 113.449 237.689 113.347 237.388C113.246 237.089 113.055 236.825 112.774 236.594C112.464 236.34 112.133 236.197 111.781 236.166C111.432 236.134 111.098 236.19 110.777 236.335C110.456 236.48 110.182 236.692 109.953 236.971L109.586 237.419C109.272 237.802 109.073 238.18 108.987 238.554C108.905 238.927 108.926 239.28 109.05 239.613C109.175 239.944 109.395 240.238 109.709 240.496C109.914 240.663 110.122 240.786 110.333 240.864C110.549 240.941 110.765 240.971 110.981 240.954C111.199 240.934 111.413 240.863 111.623 240.742L112.202 241.568C111.914 241.758 111.597 241.874 111.252 241.914C110.909 241.952 110.556 241.912 110.193 241.795C109.832 241.675 109.48 241.475 109.137 241.194Z" fill="#8E8E8E"/>
</svg>
