<svg width="404" height="274" viewBox="0 0 404 274" fill="none" xmlns="http://www.w3.org/2000/svg">
<path d="M111.395 165.269L50.4727 228.766L192.053 245.927L270.137 142.102L396.272 30.554L234.039 87.7093L126.84 131.805L111.395 165.269Z" stroke="#379482" stroke-width="2"/>
<path d="M111.608 229.143L111.704 228.279L116.187 222.673L116.814 222.743L116.665 224.081L116.241 224.034L112.854 228.27L112.847 228.338L117.98 228.909L117.876 229.841L111.608 229.143ZM115.493 231.377L115.72 229.335L115.765 228.933L116.458 222.703L117.458 222.814L116.492 231.488L115.493 231.377ZM119.265 231.797L119.35 231.034L122.562 228.219C122.939 227.889 123.251 227.601 123.498 227.354C123.746 227.105 123.936 226.866 124.067 226.637C124.201 226.406 124.283 226.158 124.313 225.893C124.347 225.588 124.303 225.316 124.181 225.076C124.062 224.837 123.883 224.643 123.645 224.494C123.408 224.344 123.132 224.252 122.819 224.217C122.485 224.18 122.187 224.217 121.923 224.328C121.662 224.436 121.451 224.605 121.288 224.836C121.128 225.067 121.029 225.347 120.992 225.677L119.993 225.566C120.05 225.058 120.216 224.625 120.493 224.267C120.771 223.909 121.123 223.645 121.551 223.476C121.981 223.306 122.449 223.25 122.954 223.306C123.463 223.363 123.901 223.52 124.27 223.778C124.638 224.037 124.914 224.36 125.096 224.749C125.279 225.138 125.345 225.556 125.295 226.002C125.26 226.321 125.167 226.627 125.018 226.919C124.871 227.208 124.636 227.524 124.312 227.865C123.991 228.204 123.553 228.612 122.996 229.091L120.816 230.957L120.809 231.025L124.841 231.474L124.737 232.406L119.265 231.797ZM128.126 231.583L128.007 232.032C127.923 232.349 127.811 232.685 127.672 233.041C127.535 233.398 127.396 233.732 127.256 234.045C127.115 234.358 127 234.607 126.911 234.792L126.149 234.707C126.205 234.53 126.28 234.297 126.372 234.007C126.465 233.717 126.561 233.392 126.661 233.032C126.764 232.674 126.856 232.307 126.938 231.931L127.042 231.462L128.126 231.583ZM132.342 233.373C131.704 233.301 131.179 233.067 130.769 232.67C130.359 232.27 130.073 231.725 129.909 231.035C129.746 230.342 129.717 229.524 129.822 228.581C129.927 227.644 130.134 226.857 130.445 226.22C130.76 225.58 131.161 225.11 131.649 224.81C132.14 224.507 132.701 224.391 133.334 224.462C133.966 224.532 134.487 224.769 134.897 225.172C135.31 225.572 135.598 226.119 135.761 226.811C135.927 227.502 135.958 228.315 135.853 229.253C135.748 230.196 135.54 230.987 135.229 231.627C134.918 232.264 134.518 232.733 134.03 233.033C133.543 233.33 132.98 233.444 132.342 233.373ZM132.445 232.441C133.078 232.511 133.603 232.261 134.021 231.69C134.439 231.119 134.711 230.269 134.837 229.14C134.92 228.389 134.911 227.74 134.809 227.194C134.71 226.649 134.526 226.221 134.257 225.911C133.992 225.601 133.65 225.423 133.232 225.376C132.605 225.307 132.081 225.561 131.659 226.14C131.238 226.717 130.964 227.568 130.839 228.695C130.755 229.446 130.763 230.092 130.863 230.635C130.962 231.178 131.145 231.603 131.411 231.91C131.68 232.217 132.025 232.394 132.445 232.441ZM139.796 234.202C139.158 234.131 138.633 233.897 138.223 233.5C137.813 233.1 137.527 232.555 137.363 231.865C137.2 231.172 137.171 230.354 137.276 229.411C137.381 228.474 137.588 227.687 137.899 227.049C138.214 226.41 138.615 225.94 139.102 225.64C139.594 225.337 140.155 225.221 140.788 225.292C141.42 225.362 141.941 225.599 142.351 226.002C142.764 226.402 143.052 226.948 143.215 227.641C143.381 228.331 143.412 229.145 143.307 230.083C143.202 231.026 142.994 231.817 142.683 232.457C142.372 233.094 141.972 233.563 141.484 233.863C140.997 234.16 140.434 234.273 139.796 234.202ZM139.899 233.271C140.532 233.341 141.057 233.091 141.475 232.52C141.893 231.949 142.165 231.099 142.291 229.969C142.374 229.218 142.365 228.57 142.263 228.024C142.164 227.478 141.98 227.051 141.711 226.741C141.446 226.431 141.104 226.253 140.686 226.206C140.059 226.137 139.535 226.391 139.113 226.97C138.692 227.546 138.418 228.398 138.293 229.524C138.209 230.275 138.217 230.922 138.317 231.465C138.416 232.008 138.599 232.433 138.865 232.74C139.134 233.047 139.479 233.224 139.899 233.271Z" fill="black"/>
<path d="M219.485 203.064C219.148 203.515 218.77 203.858 218.352 204.094C217.935 204.329 217.511 204.446 217.081 204.447C216.65 204.444 216.245 204.314 215.865 204.058L216.509 203.199C216.748 203.349 217 203.418 217.266 203.404C217.53 203.388 217.789 203.304 218.043 203.149C218.296 202.995 218.524 202.784 218.725 202.516C218.95 202.216 219.097 201.911 219.166 201.6C219.235 201.29 219.226 200.999 219.138 200.728C219.051 200.456 218.884 200.228 218.638 200.044C218.382 199.852 218.108 199.746 217.817 199.727C217.524 199.706 217.229 199.777 216.934 199.939C216.639 200.101 216.358 200.359 216.092 200.714L215.673 201.273L214.923 200.711L215.342 200.152C215.55 199.874 215.682 199.593 215.739 199.309C215.797 199.023 215.78 198.752 215.686 198.498C215.595 198.241 215.426 198.021 215.181 197.837C214.944 197.66 214.699 197.558 214.446 197.531C214.192 197.505 213.945 197.55 213.704 197.668C213.465 197.783 213.249 197.97 213.057 198.227C212.876 198.468 212.75 198.728 212.679 199.008C212.607 199.284 212.604 199.552 212.669 199.81C212.732 200.067 212.876 200.288 213.099 200.473L212.486 201.292C212.13 201.004 211.892 200.653 211.772 200.24C211.649 199.826 211.636 199.393 211.732 198.943C211.829 198.491 212.029 198.063 212.331 197.661C212.654 197.229 213.019 196.924 213.426 196.746C213.831 196.566 214.237 196.5 214.646 196.547C215.054 196.594 215.423 196.741 215.753 196.988C216.146 197.282 216.404 197.637 216.526 198.052C216.651 198.464 216.634 198.887 216.477 199.319L216.531 199.36C216.935 198.974 217.38 198.77 217.868 198.748C218.354 198.725 218.819 198.88 219.262 199.212C219.642 199.497 219.905 199.856 220.053 200.289C220.199 200.719 220.226 201.175 220.133 201.659C220.04 202.144 219.824 202.612 219.485 203.064ZM216.789 191.71C217.006 191.425 217.275 191.18 217.597 190.973C217.918 190.767 218.292 190.638 218.717 190.587C219.139 190.535 219.617 190.596 220.149 190.772C220.682 190.947 221.269 191.275 221.91 191.755C222.53 192.22 223.037 192.692 223.431 193.172C223.824 193.647 224.102 194.119 224.267 194.586C224.433 195.051 224.484 195.505 224.419 195.946C224.356 196.386 224.178 196.802 223.883 197.195C223.59 197.586 223.251 197.877 222.867 198.068C222.481 198.256 222.077 198.343 221.653 198.331C221.229 198.314 220.812 198.196 220.403 197.974L221.026 197.142C221.403 197.307 221.779 197.357 222.155 197.291C222.531 197.221 222.857 197.001 223.133 196.633C223.536 196.094 223.62 195.493 223.382 194.829C223.147 194.162 222.599 193.507 221.74 192.863L221.699 192.918C221.795 193.188 221.846 193.463 221.854 193.742C221.861 194.021 221.822 194.295 221.737 194.565C221.652 194.835 221.519 195.091 221.339 195.332C221.039 195.732 220.665 196.025 220.217 196.211C219.768 196.393 219.295 196.454 218.797 196.393C218.299 196.329 217.824 196.128 217.374 195.79C216.947 195.47 216.627 195.082 216.416 194.625C216.204 194.164 216.122 193.681 216.171 193.174C216.222 192.666 216.428 192.178 216.789 191.71ZM217.54 192.272C217.325 192.559 217.203 192.87 217.174 193.207C217.145 193.54 217.201 193.864 217.341 194.179C217.481 194.489 217.696 194.754 217.987 194.972C218.278 195.19 218.591 195.325 218.925 195.376C219.259 195.424 219.579 195.389 219.887 195.272C220.195 195.151 220.456 194.947 220.67 194.66C220.832 194.444 220.941 194.212 220.996 193.962C221.05 193.711 221.054 193.461 221.01 193.211C220.966 192.958 220.879 192.721 220.75 192.5C220.619 192.277 220.45 192.088 220.243 191.933C219.97 191.729 219.665 191.603 219.327 191.556C218.991 191.507 218.664 191.542 218.344 191.661C218.026 191.777 217.758 191.981 217.54 192.272ZM226.465 191.56L226.793 191.89C227.023 192.123 227.256 192.39 227.492 192.691C227.73 192.99 227.948 193.279 228.146 193.559C228.345 193.839 228.501 194.064 228.614 194.235L228.154 194.848C228.031 194.71 227.868 194.527 227.665 194.301C227.462 194.074 227.231 193.826 226.971 193.557C226.715 193.287 226.446 193.021 226.162 192.76L225.811 192.433L226.465 191.56ZM223.064 183.335C223.281 183.05 223.55 182.805 223.872 182.598C224.193 182.392 224.566 182.263 224.991 182.213C225.414 182.16 225.892 182.221 226.424 182.397C226.957 182.572 227.543 182.9 228.185 183.38C228.805 183.845 229.312 184.318 229.706 184.797C230.099 185.272 230.377 185.744 230.542 186.211C230.708 186.677 230.759 187.13 230.694 187.571C230.631 188.011 230.452 188.427 230.158 188.82C229.865 189.211 229.526 189.502 229.141 189.693C228.756 189.881 228.352 189.968 227.928 189.956C227.503 189.939 227.087 189.821 226.677 189.599L227.301 188.767C227.678 188.932 228.054 188.982 228.43 188.916C228.806 188.846 229.131 188.626 229.407 188.258C229.811 187.719 229.894 187.118 229.657 186.454C229.422 185.787 228.874 185.132 228.015 184.488L227.974 184.543C228.069 184.813 228.121 185.088 228.128 185.367C228.136 185.646 228.097 185.92 228.012 186.19C227.927 186.46 227.794 186.716 227.614 186.957C227.314 187.357 226.94 187.65 226.492 187.836C226.043 188.018 225.57 188.079 225.072 188.018C224.573 187.954 224.099 187.753 223.649 187.415C223.222 187.095 222.902 186.707 222.691 186.25C222.478 185.789 222.397 185.306 222.446 184.8C222.497 184.291 222.703 183.803 223.064 183.335ZM223.814 183.897C223.6 184.184 223.478 184.495 223.449 184.832C223.42 185.165 223.475 185.489 223.616 185.804C223.756 186.115 223.971 186.379 224.262 186.597C224.553 186.815 224.866 186.95 225.2 187.001C225.534 187.049 225.854 187.014 226.162 186.897C226.47 186.776 226.73 186.572 226.945 186.285C227.107 186.069 227.216 185.837 227.271 185.587C227.324 185.336 227.329 185.086 227.285 184.836C227.241 184.583 227.154 184.346 227.025 184.125C226.894 183.902 226.725 183.713 226.518 183.558C226.245 183.354 225.94 183.228 225.602 183.181C225.266 183.132 224.938 183.167 224.619 183.286C224.301 183.402 224.032 183.606 223.814 183.897ZM232.991 184.84L229.152 177.086L229.098 177.045L226.399 180.646L225.649 180.084L229.001 175.61L229.793 176.203L233.655 183.953L232.991 184.84Z" fill="black"/>
<path d="M292.814 112.589C292.438 112.919 292.034 113.141 291.601 113.255C291.169 113.369 290.748 113.375 290.338 113.274C289.928 113.172 289.568 112.962 289.259 112.644L290.029 111.97C290.319 112.241 290.669 112.369 291.078 112.353C291.488 112.334 291.861 112.178 292.197 111.884C292.466 111.648 292.65 111.376 292.749 111.066C292.85 110.755 292.864 110.436 292.791 110.112C292.718 109.783 292.559 109.478 292.314 109.198C292.063 108.912 291.777 108.712 291.454 108.598C291.132 108.48 290.804 108.451 290.472 108.511C290.14 108.572 289.833 108.724 289.551 108.967C289.349 109.14 289.169 109.352 289.014 109.601C288.857 109.849 288.753 110.081 288.702 110.299L287.88 110.861L285.447 107.281L288.858 104.294L289.476 105L286.732 107.403L288.197 109.541L288.235 109.508C288.276 109.283 288.367 109.046 288.509 108.798C288.65 108.55 288.831 108.329 289.051 108.136C289.452 107.784 289.895 107.567 290.377 107.484C290.86 107.398 291.336 107.441 291.806 107.615C292.278 107.787 292.7 108.086 293.072 108.512C293.439 108.93 293.673 109.387 293.773 109.881C293.873 110.37 293.843 110.854 293.683 111.33C293.521 111.805 293.231 112.224 292.814 112.589ZM292.735 100.9L298.485 107.465L297.69 108.161L292.67 102.429L292.632 102.463L291.961 104.931L291.253 104.123L291.94 101.596L292.735 100.9ZM300.34 104.254L300.592 104.646C300.769 104.921 300.942 105.23 301.11 105.574C301.281 105.915 301.434 106.243 301.571 106.559C301.707 106.874 301.813 107.126 301.889 107.316L301.312 107.822C301.22 107.661 301.098 107.448 300.946 107.185C300.795 106.921 300.62 106.63 300.421 106.313C300.227 105.996 300.018 105.681 299.795 105.366L299.52 104.973L300.34 104.254ZM304.494 102.361C304.054 102.747 303.597 103.01 303.122 103.149C302.648 103.285 302.196 103.297 301.767 103.186C301.336 103.073 300.966 102.838 300.657 102.482C300.412 102.206 300.242 101.901 300.147 101.569C300.05 101.234 300.029 100.904 300.083 100.577C300.137 100.247 300.265 99.9551 300.467 99.7028L300.433 99.6643C300.048 99.8582 299.643 99.9008 299.22 99.7922C298.794 99.6815 298.43 99.451 298.127 99.1007C297.833 98.7692 297.656 98.3971 297.597 97.9845C297.538 97.5719 297.591 97.1587 297.758 96.7449C297.926 96.3293 298.203 95.953 298.588 95.6162C298.968 95.283 299.374 95.0613 299.806 94.951C300.238 94.8408 300.655 94.8422 301.056 94.9554C301.46 95.0667 301.808 95.2881 302.102 95.6196C302.405 95.9699 302.583 96.3641 302.634 96.8024C302.686 97.2367 302.593 97.6292 302.357 97.9799L302.39 98.0184C302.665 97.8534 302.968 97.7677 303.298 97.7614C303.627 97.753 303.952 97.8179 304.273 97.9559C304.592 98.0918 304.874 98.2977 305.12 98.5737C305.428 98.9304 305.609 99.3309 305.662 99.7753C305.716 100.216 305.644 100.662 305.447 101.114C305.25 101.562 304.932 101.978 304.494 102.361ZM303.877 101.656C304.174 101.396 304.388 101.123 304.52 100.838C304.651 100.553 304.699 100.271 304.663 99.993C304.627 99.7148 304.508 99.4572 304.304 99.2202C304.085 98.9742 303.829 98.8113 303.536 98.7315C303.243 98.6517 302.94 98.6527 302.627 98.7346C302.315 98.8147 302.021 98.9763 301.743 99.2196C301.463 99.4648 301.261 99.7383 301.136 100.04C301.013 100.34 300.972 100.64 301.013 100.941C301.055 101.24 301.186 101.512 301.406 101.758C301.609 101.995 301.846 102.151 302.115 102.225C302.386 102.297 302.672 102.286 302.974 102.191C303.277 102.097 303.577 101.918 303.877 101.656ZM301.148 98.54C301.383 98.3341 301.55 98.1046 301.649 97.8515C301.751 97.5965 301.78 97.3387 301.737 97.0781C301.694 96.8176 301.574 96.5731 301.378 96.3447C301.181 96.1243 300.959 95.9767 300.713 95.902C300.464 95.8251 300.21 95.8213 299.949 95.8906C299.687 95.9578 299.435 96.0972 299.194 96.3086C298.948 96.5239 298.774 96.7579 298.67 97.0108C298.565 97.2615 298.535 97.5142 298.581 97.7689C298.624 98.0214 298.745 98.2579 298.941 98.4783C299.138 98.7067 299.361 98.8604 299.611 98.9394C299.864 99.0166 300.123 99.0217 300.39 98.9548C300.656 98.8878 300.908 98.7496 301.148 98.54ZM310.057 97.49C309.617 97.8755 309.16 98.1381 308.685 98.2778C308.211 98.4135 307.76 98.4258 307.33 98.3148C306.899 98.2017 306.529 97.9668 306.22 97.6101C305.975 97.3341 305.805 97.0299 305.71 96.6975C305.613 96.3629 305.592 96.0324 305.646 95.7058C305.7 95.3752 305.828 95.0837 306.03 94.8313L305.996 94.7928C305.611 94.9867 305.206 95.0294 304.783 94.9208C304.357 94.81 303.993 94.5795 303.69 94.2293C303.396 93.8977 303.219 93.5257 303.16 93.113C303.101 92.7004 303.155 92.2872 303.321 91.8735C303.489 91.4578 303.766 91.0816 304.151 90.7447C304.531 90.4116 304.937 90.1899 305.369 90.0796C305.802 89.9693 306.218 89.9708 306.619 90.0839C307.023 90.1952 307.371 90.4166 307.665 90.7482C307.968 91.0984 308.146 91.4927 308.197 91.9309C308.249 92.3652 308.156 92.7577 307.92 93.1084L307.953 93.1469C308.228 92.9819 308.531 92.8963 308.861 92.89C309.19 92.8816 309.515 92.9464 309.836 93.0844C310.155 93.2203 310.437 93.4263 310.683 93.7023C310.991 94.0589 311.172 94.4595 311.225 94.9039C311.279 95.3443 311.207 95.7905 311.01 96.2425C310.813 96.6905 310.495 97.1063 310.057 97.49ZM309.44 96.7847C309.737 96.5245 309.951 96.2518 310.083 95.9666C310.214 95.6814 310.262 95.3997 310.226 95.1215C310.19 94.8433 310.071 94.5858 309.867 94.3488C309.648 94.1027 309.392 93.9398 309.099 93.86C308.806 93.7802 308.503 93.7813 308.19 93.8632C307.879 93.9432 307.584 94.1049 307.306 94.3482C307.026 94.5933 306.824 94.8668 306.699 95.1686C306.577 95.4685 306.535 95.7688 306.576 96.0694C306.619 96.3682 306.749 96.6406 306.969 96.8866C307.172 97.1236 307.409 97.2792 307.678 97.3534C307.949 97.4257 308.235 97.4145 308.538 97.3198C308.84 97.2251 309.14 97.0467 309.44 96.7847ZM306.711 93.6685C306.946 93.4626 307.113 93.2331 307.213 92.98C307.314 92.725 307.343 92.4672 307.3 92.2067C307.257 91.9461 307.137 91.7016 306.941 91.4732C306.744 91.2528 306.522 91.1052 306.276 91.0305C306.027 90.9536 305.773 90.9499 305.512 91.0192C305.25 91.0864 304.999 91.2257 304.757 91.4372C304.511 91.6524 304.337 91.8865 304.233 92.1393C304.128 92.39 304.098 92.6427 304.144 92.8974C304.187 93.1499 304.308 93.3864 304.504 93.6068C304.701 93.8352 304.924 93.989 305.175 94.068C305.427 94.1451 305.686 94.1502 305.953 94.0833C306.219 94.0164 306.472 93.8781 306.711 93.6685Z" fill="black"/>
<path d="M271.588 87.8273L271.258 87.0232L272.5 79.9529L273.083 79.7133L273.595 80.9589L273.201 81.1208L272.262 86.4632L272.288 86.5262L277.066 84.564L277.422 85.4312L271.588 87.8273ZM276.068 87.9222L275.288 86.0222L275.134 85.6477L272.752 79.8493L273.683 79.4672L276.998 87.5401L276.068 87.9222ZM279.831 86.3765L280.509 77.7509L280.483 77.6878L276.32 79.3974L275.964 78.5302L281.136 76.4061L281.511 77.3206L280.856 85.9555L279.831 86.3765ZM285.483 82.7653L285.595 83.217C285.673 83.5349 285.737 83.8835 285.785 84.263C285.836 84.6413 285.875 85.0015 285.902 85.3437C285.929 85.6858 285.947 85.9592 285.957 86.1638L285.248 86.4552C285.213 86.273 285.167 86.0326 285.108 85.734C285.05 85.4354 284.979 85.1039 284.893 84.7396C284.812 84.3769 284.717 84.0106 284.608 83.6407L284.474 83.1798L285.483 82.7653ZM286.777 73.9599C287.11 73.8266 287.467 73.7537 287.848 73.7412C288.23 73.7287 288.617 73.8095 289.008 73.9837C289.397 74.1553 289.776 74.4528 290.143 74.8762C290.511 75.2996 290.847 75.8819 291.151 76.6229C291.446 77.3403 291.639 78.0057 291.731 78.6189C291.825 79.2284 291.823 79.7761 291.724 80.2618C291.629 80.7465 291.44 81.1618 291.158 81.5079C290.879 81.8528 290.512 82.1187 290.058 82.3054C289.606 82.491 289.165 82.5674 288.737 82.5344C288.311 82.4977 287.919 82.3654 287.561 82.1377C287.205 81.9062 286.908 81.5905 286.67 81.1907L287.632 80.7957C287.871 81.1306 288.168 81.366 288.525 81.502C288.884 81.6343 289.276 81.613 289.701 81.4382C290.324 81.1824 290.704 80.7086 290.84 80.0167C290.98 79.3238 290.845 78.4807 290.437 77.4873L290.374 77.5132C290.318 77.7944 290.221 78.0567 290.085 78.3001C289.948 78.5435 289.774 78.7593 289.563 78.9475C289.352 79.1357 289.107 79.287 288.828 79.4014C288.365 79.5913 287.894 79.6513 287.414 79.5814C286.935 79.5077 286.498 79.3173 286.101 79.0102C285.706 78.6994 285.402 78.2839 285.189 77.7636C284.986 77.2695 284.91 76.7722 284.963 76.2716C285.017 75.7672 285.194 75.3103 285.496 74.9008C285.8 74.4902 286.227 74.1766 286.777 73.9599ZM287.134 74.8272C286.802 74.9631 286.538 75.1684 286.341 75.443C286.145 75.7139 286.027 76.0204 285.986 76.3626C285.947 76.7012 285.996 77.0386 286.135 77.375C286.273 77.7114 286.472 77.9873 286.733 78.2028C286.995 78.4146 287.288 78.549 287.612 78.6062C287.938 78.6596 288.267 78.6184 288.598 78.4824C288.848 78.3798 289.06 78.2357 289.236 78.05C289.41 77.8616 289.543 77.6491 289.633 77.4124C289.724 77.1721 289.771 76.9239 289.774 76.6681C289.775 76.4095 289.727 76.1607 289.628 75.9216C289.499 75.6062 289.301 75.3419 289.036 75.1286C288.772 74.9141 288.473 74.776 288.137 74.7142C287.805 74.6514 287.47 74.689 287.134 74.8272ZM297.063 79.428C296.601 79.618 296.146 79.6971 295.7 79.6653C295.254 79.6336 294.854 79.5032 294.499 79.2744C294.144 79.0455 293.871 78.7304 293.682 78.3291L294.628 77.9406C294.815 78.2907 295.104 78.5249 295.497 78.6432C295.891 78.7577 296.294 78.7303 296.707 78.5608C297.038 78.4248 297.301 78.2264 297.494 77.9656C297.691 77.7037 297.807 77.4072 297.843 77.0761C297.881 76.7413 297.829 76.4017 297.687 76.0575C297.543 75.7053 297.336 75.4231 297.068 75.2109C296.801 74.9949 296.501 74.8619 296.167 74.8116C295.833 74.7614 295.493 74.8057 295.148 74.9445C294.9 75.0433 294.662 75.1856 294.434 75.3713C294.205 75.5543 294.032 75.7408 293.913 75.9308L292.953 76.196L291.81 72.0219L296.004 70.2993L296.36 71.1665L292.986 72.5523L293.68 75.0498L293.728 75.0304C293.839 74.831 294.002 74.6366 294.216 74.4474C294.43 74.2581 294.672 74.1079 294.943 73.9967C295.437 73.7938 295.926 73.7313 296.409 73.8091C296.894 73.8833 297.331 74.0787 297.719 74.3954C298.109 74.7109 298.412 75.1302 298.627 75.6531C298.839 76.1682 298.912 76.6756 298.847 77.1753C298.783 77.6712 298.598 78.1187 298.292 78.5177C297.985 78.9141 297.576 79.2176 297.063 79.428Z" fill="black"/>
<path d="M177.513 121.846L177.197 121.036L178.557 113.988L179.144 113.758L179.635 115.012L179.238 115.167L178.21 120.493L178.235 120.557L183.045 118.674L183.387 119.547L177.513 121.846ZM181.991 122.015L181.243 120.103L181.095 119.726L178.811 113.888L179.747 113.522L182.928 121.649L181.991 122.015ZM185.093 111.43L188.274 119.557L187.29 119.942L184.513 112.846L184.465 112.865L182.997 114.959L182.605 113.959L184.109 111.815L185.093 111.43ZM191.109 117.166L191.213 117.619C191.286 117.938 191.344 118.288 191.386 118.668C191.43 119.047 191.463 119.408 191.485 119.751C191.506 120.093 191.52 120.367 191.527 120.572L190.812 120.851C190.781 120.668 190.738 120.427 190.685 120.128C190.632 119.828 190.566 119.496 190.487 119.13C190.411 118.766 190.322 118.398 190.219 118.026L190.093 117.563L191.109 117.166ZM195.674 116.789C195.076 117.023 194.503 117.059 193.955 116.899C193.406 116.735 192.899 116.386 192.433 115.851C191.966 115.314 191.56 114.604 191.214 113.72C190.871 112.842 190.688 112.048 190.667 111.339C190.648 110.627 190.784 110.025 191.076 109.532C191.37 109.036 191.813 108.671 192.406 108.44C192.999 108.208 193.57 108.175 194.12 108.341C194.672 108.503 195.181 108.853 195.647 109.39C196.116 109.924 196.522 110.63 196.865 111.508C197.211 112.392 197.395 113.189 197.417 113.901C197.438 114.609 197.303 115.21 197.01 115.703C196.717 116.193 196.272 116.555 195.674 116.789ZM195.332 115.916C195.925 115.684 196.273 115.218 196.377 114.518C196.482 113.818 196.327 112.939 195.913 111.881C195.638 111.177 195.328 110.608 194.983 110.172C194.641 109.735 194.28 109.442 193.898 109.293C193.518 109.142 193.133 109.143 192.742 109.297C192.154 109.527 191.809 109.996 191.705 110.705C191.6 111.411 191.754 112.292 192.167 113.347C192.442 114.051 192.75 114.62 193.091 115.054C193.432 115.488 193.791 115.779 194.169 115.927C194.55 116.074 194.938 116.07 195.332 115.916ZM202.658 114.055C202.06 114.289 201.487 114.326 200.939 114.165C200.39 114.002 199.883 113.653 199.417 113.118C198.951 112.581 198.544 111.87 198.199 110.987C197.855 110.108 197.672 109.315 197.651 108.606C197.632 107.894 197.768 107.291 198.061 106.799C198.354 106.302 198.798 105.938 199.39 105.706C199.983 105.474 200.554 105.441 201.104 105.607C201.656 105.77 202.165 106.12 202.632 106.657C203.1 107.191 203.506 107.897 203.849 108.775C204.195 109.659 204.379 110.456 204.401 111.167C204.422 111.876 204.287 112.477 203.995 112.969C203.701 113.459 203.256 113.821 202.658 114.055ZM202.316 113.182C202.909 112.951 203.257 112.485 203.362 111.785C203.466 111.085 203.311 110.206 202.897 109.148C202.622 108.444 202.312 107.874 201.967 107.439C201.626 107.002 201.264 106.709 200.882 106.559C200.503 106.409 200.117 106.41 199.726 106.563C199.138 106.793 198.793 107.263 198.689 107.971C198.584 108.677 198.738 109.558 199.151 110.614C199.426 111.318 199.734 111.886 200.075 112.321C200.416 112.755 200.775 113.046 201.154 113.194C201.534 113.34 201.922 113.337 202.316 113.182Z" fill="black"/>
<path d="M119.338 160.321L127.169 164.173L126.703 165.121L119.866 161.758L119.843 161.804L120.172 164.34L119.209 163.866L118.872 161.269L119.338 160.321ZM128.277 161.921L127.589 161.582L126.031 157.605C125.849 157.139 125.683 156.748 125.535 156.431C125.385 156.113 125.224 155.854 125.054 155.653C124.882 155.448 124.677 155.287 124.437 155.169C124.162 155.033 123.891 154.982 123.624 155.016C123.359 155.047 123.115 155.149 122.894 155.322C122.673 155.495 122.493 155.723 122.354 156.006C122.206 156.306 122.139 156.6 122.154 156.885C122.167 157.167 122.254 157.424 122.416 157.656C122.579 157.884 122.809 158.072 123.107 158.219L122.664 159.121C122.205 158.896 121.854 158.592 121.611 158.21C121.369 157.828 121.24 157.407 121.226 156.947C121.213 156.484 121.318 156.025 121.543 155.569C121.768 155.11 122.065 154.751 122.433 154.492C122.801 154.233 123.199 154.083 123.627 154.044C124.055 154.004 124.471 154.083 124.873 154.282C125.161 154.423 125.417 154.614 125.641 154.854C125.864 155.09 126.081 155.419 126.292 155.839C126.502 156.256 126.737 156.807 126.998 157.492L128.014 160.177L128.075 160.207L129.866 156.567L130.707 156.98L128.277 161.921ZM131.083 153.513L131.466 153.778C131.735 153.964 132.014 154.183 132.301 154.435C132.59 154.685 132.858 154.929 133.104 155.168C133.351 155.406 133.546 155.599 133.689 155.745L133.351 156.433C133.204 156.32 133.01 156.171 132.769 155.986C132.527 155.8 132.254 155.6 131.949 155.383C131.648 155.165 131.334 154.954 131.007 154.749L130.602 154.492L131.083 153.513ZM134.202 150.147C133.981 150.595 133.693 150.955 133.338 151.227C132.983 151.499 132.596 151.666 132.179 151.73C131.761 151.794 131.349 151.738 130.941 151.563L131.392 150.645C131.764 150.784 132.136 150.767 132.509 150.596C132.88 150.421 133.164 150.133 133.361 149.733C133.519 149.412 133.584 149.089 133.556 148.765C133.53 148.439 133.421 148.14 133.229 147.868C133.035 147.592 132.771 147.372 132.437 147.208C132.096 147.04 131.754 146.965 131.412 146.984C131.069 146.999 130.756 147.098 130.473 147.282C130.189 147.465 129.964 147.723 129.797 148.056C129.677 148.294 129.593 148.558 129.545 148.848C129.495 149.137 129.489 149.392 129.526 149.613L128.982 150.447L125.361 148.077L127.362 144.009L128.204 144.422L126.593 147.696L128.768 149.107L128.79 149.061C128.742 148.838 128.735 148.584 128.77 148.301C128.805 148.017 128.887 147.744 129.016 147.482C129.252 147.002 129.577 146.632 129.99 146.37C130.403 146.104 130.859 145.962 131.36 145.942C131.862 145.919 132.366 146.033 132.873 146.283C133.373 146.528 133.764 146.86 134.046 147.277C134.327 147.691 134.485 148.149 134.52 148.65C134.553 149.151 134.447 149.649 134.202 150.147ZM134.417 145.384L133.637 145L129.885 138.88L130.164 138.314L131.372 138.908L131.184 139.291L134.019 143.915L134.08 143.945L136.36 139.311L137.201 139.724L134.417 145.384ZM137.837 142.487L135.994 141.581L135.63 141.402L130.006 138.635L130.449 137.733L138.281 141.585L137.837 142.487Z" fill="black"/>
<path d="M85.08 210.146L84.5508 209.591L84.4602 205.321C84.4501 204.82 84.4301 204.396 84.4003 204.048C84.3685 203.697 84.3073 203.398 84.2168 203.151C84.1264 202.9 83.989 202.677 83.8048 202.484C83.5931 202.262 83.3563 202.121 83.0946 202.06C82.8348 201.998 82.5713 202.009 82.304 202.095C82.0367 202.181 81.7889 202.333 81.5607 202.551C81.318 202.782 81.1542 203.034 81.0693 203.308C80.9845 203.577 80.978 203.848 81.0498 204.121C81.1237 204.392 81.2753 204.648 81.5047 204.888L80.7767 205.582C80.4239 205.212 80.1995 204.806 80.1036 204.364C80.0077 203.921 80.0323 203.482 80.1774 203.045C80.3246 202.607 80.5822 202.212 80.9503 201.861C81.3204 201.508 81.7229 201.274 82.1577 201.158C82.5925 201.041 83.0176 201.038 83.4329 201.149C83.8482 201.259 84.2107 201.477 84.5204 201.802C84.7419 202.034 84.9163 202.302 85.0437 202.604C85.1712 202.903 85.2615 203.286 85.3146 203.753C85.3678 204.216 85.3986 204.815 85.4072 205.549L85.4349 208.419L85.4819 208.468L88.4184 205.669L89.0652 206.348L85.08 210.146ZM92.556 203.185C92.1488 203.573 91.7192 203.849 91.2672 204.013C90.8172 204.175 90.3801 204.221 89.9558 204.151C89.5316 204.076 89.1535 203.881 88.8214 203.566L89.5988 202.825C89.8093 203.013 90.0468 203.122 90.3113 203.152C90.5738 203.181 90.8431 203.14 91.119 203.03C91.3949 202.92 91.6542 202.749 91.8968 202.518C92.1683 202.259 92.3638 201.983 92.4834 201.688C92.6029 201.394 92.642 201.105 92.6005 200.823C92.5591 200.541 92.4325 200.289 92.2208 200.066C91.9993 199.834 91.7467 199.684 91.463 199.617C91.1773 199.548 90.8754 199.569 90.5572 199.68C90.2391 199.791 89.9196 199.999 89.5988 200.305L89.093 200.787L88.4461 200.109L88.952 199.626C89.2029 199.387 89.3798 199.132 89.4827 198.861C89.5877 198.589 89.6153 198.319 89.5654 198.053C89.5176 197.784 89.3878 197.539 89.1761 197.317C88.9723 197.103 88.7476 196.962 88.5021 196.894C88.2565 196.826 88.0053 196.83 87.7483 196.906C87.4933 196.98 87.2496 197.128 87.0173 197.35C86.7993 197.557 86.6319 197.793 86.515 198.058C86.3983 198.318 86.3508 198.581 86.3725 198.847C86.3923 199.111 86.4971 199.353 86.6867 199.572L85.9464 200.278C85.6432 199.935 85.4665 199.55 85.4165 199.123C85.3645 198.693 85.423 198.265 85.592 197.837C85.763 197.407 86.0305 197.019 86.3945 196.672C86.7852 196.299 87.1959 196.059 87.6265 195.951C88.0551 195.84 88.467 195.842 88.8621 195.956C89.2573 196.07 89.5969 196.276 89.8811 196.574C90.2203 196.93 90.4158 197.323 90.4678 197.752C90.5219 198.179 90.4356 198.593 90.209 198.993L90.256 199.043C90.7177 198.728 91.1909 198.601 91.6758 198.661C92.1587 198.719 92.5912 198.948 92.9734 199.349C93.3008 199.692 93.5012 200.09 93.5748 200.542C93.6485 200.99 93.5994 201.445 93.4276 201.907C93.2557 202.369 92.9652 202.795 92.556 203.185ZM95.9495 198.137L96.2177 198.517C96.4062 198.785 96.5919 199.087 96.7747 199.423C96.9596 199.757 97.1267 200.078 97.2761 200.387C97.4254 200.696 97.542 200.944 97.626 201.131L97.0707 201.66C96.972 201.503 96.8414 201.296 96.6787 201.039C96.5161 200.782 96.329 200.499 96.1173 200.191C95.9097 199.882 95.688 199.576 95.4522 199.271L95.1599 198.89L95.9495 198.137ZM96.7262 196.573L96.1264 195.943L94.7157 188.905L95.1722 188.47L96.1013 189.444L95.7928 189.738L96.859 195.057L96.906 195.106L100.645 191.542L101.291 192.221L96.7262 196.573ZM100.935 195.034L99.5174 193.547L99.2381 193.254L94.9131 188.717L95.6411 188.023L101.663 194.34L100.935 195.034ZM103.88 192.227L101.377 183.944L101.33 183.895L98.0731 187L97.4262 186.321L101.473 182.463L102.155 183.179L104.682 191.462L103.88 192.227Z" fill="black"/>
<path d="M240.631 258.469L46.3103 235.529C42.9322 235.13 41.1348 231.72 42.4606 228.903C48.7315 215.577 57.6259 198.434 67.7915 182.184C78.007 165.854 89.2943 150.771 100.287 141.277C103.185 138.775 108.599 135.446 116.434 131.419C124.164 127.445 133.917 122.956 145.229 118.09C167.847 108.361 196.48 97.2171 227.179 85.7873C280.831 65.8115 340.605 45.0324 385.276 29.5039C391.719 27.2641 397.848 25.1335 403.599 23.1304" stroke="#C4C4C4"/>
<path d="M0.796875 245.861L239.052 273.429M403.318 1.45776C397.317 3.72148 390.922 6.12917 384.199 8.66031C337.59 26.2085 275.222 49.6901 219.242 72.2641C187.211 85.1805 161.434 93.9414 137.834 104.936C126.031 110.435 115.855 115.507 107.789 119.998C99.6148 124.549 93.965 128.311 90.9419 131.139C79.4719 141.867 58.8664 167.404 48.2077 185.858L28.4494 225.468C26.53 229.316 22.3657 231.506 18.1076 230.907L3.82615 228.898" stroke="#C4C4C4"/>
<path d="M207.481 90.2635L204.25 82.1561L206.99 81.0646C207.626 80.8111 208.191 80.7188 208.687 80.7875C209.184 80.8525 209.607 81.0401 209.957 81.3502C210.307 81.6603 210.577 82.0542 210.767 82.5319C210.957 83.0096 211.033 83.4826 210.993 83.951C210.956 84.4184 210.782 84.8487 210.471 85.2418C210.158 85.6323 209.687 85.9532 209.056 86.2045L207.093 86.9869L206.746 86.116L208.677 85.3462C209.113 85.1727 209.433 84.9582 209.637 84.7026C209.841 84.447 209.951 84.1675 209.968 83.8642C209.986 83.5572 209.931 83.2414 209.801 82.9168C209.672 82.5922 209.495 82.3261 209.272 82.1185C209.051 81.9098 208.779 81.786 208.454 81.747C208.129 81.7055 207.746 81.7725 207.305 81.9481L205.579 82.6358L208.463 89.8723L207.481 90.2635ZM216.886 86.6628C216.337 86.8815 215.803 86.9428 215.285 86.8466C214.769 86.7494 214.301 86.5122 213.882 86.1349C213.465 85.7567 213.131 85.2535 212.881 84.6254C212.629 83.992 212.523 83.3933 212.565 82.8295C212.609 82.2645 212.784 81.7694 213.092 81.3441C213.402 80.9177 213.832 80.5951 214.381 80.3764C214.93 80.1577 215.462 80.0969 215.978 80.1941C216.496 80.2903 216.964 80.5288 217.382 80.9098C217.803 81.2896 218.139 81.7962 218.392 82.4296C218.642 83.0577 218.744 83.6529 218.699 84.2152C218.657 84.7765 218.481 85.2703 218.17 85.6967C217.863 86.122 217.435 86.444 216.886 86.6628ZM216.551 85.8235C216.968 85.6574 217.269 85.4138 217.453 85.0927C217.637 84.7717 217.724 84.4113 217.714 84.0114C217.705 83.6115 217.619 83.2083 217.457 82.8019C217.295 82.3955 217.08 82.0425 216.811 81.7431C216.541 81.4436 216.229 81.2393 215.874 81.1301C215.518 81.021 215.132 81.0495 214.715 81.2156C214.298 81.3818 213.998 81.6267 213.815 81.9504C213.632 82.274 213.546 82.6371 213.557 83.0397C213.567 83.4422 213.653 83.8467 213.815 84.2531C213.977 84.6595 214.192 85.0112 214.46 85.308C214.729 85.6048 215.04 85.8065 215.394 85.913C215.749 86.0195 216.134 85.9897 216.551 85.8235ZM221.017 84.87L218.594 78.7894L219.528 78.4172L221.951 84.4977L221.017 84.87ZM218.665 77.5867C218.483 77.6593 218.301 77.6599 218.12 77.5884C217.941 77.5159 217.817 77.3925 217.747 77.2184C217.678 77.0442 217.683 76.8693 217.763 76.6937C217.846 76.5171 217.978 76.3925 218.16 76.32C218.342 76.2474 218.523 76.2474 218.701 76.3199C218.883 76.3913 219.008 76.5142 219.078 76.6884C219.147 76.8625 219.14 77.0379 219.058 77.2145C218.978 77.3901 218.847 77.5142 218.665 77.5867ZM226.089 77.3809L225.344 77.9528C225.236 77.834 225.104 77.7291 224.948 77.6382C224.794 77.5435 224.613 77.4874 224.404 77.4697C224.195 77.452 223.955 77.4973 223.683 77.6056C223.311 77.7539 223.035 77.9632 222.855 78.2336C222.677 78.5003 222.64 78.7643 222.744 79.0256C222.836 79.2578 222.994 79.4076 223.217 79.4749C223.439 79.5422 223.748 79.5492 224.142 79.4959L225.133 79.3579C225.73 79.2733 226.215 79.3137 226.59 79.4794C226.964 79.6423 227.235 79.9363 227.405 80.3612C227.543 80.7095 227.567 81.0609 227.476 81.4153C227.387 81.7686 227.197 82.0955 226.903 82.3958C226.61 82.6961 226.227 82.9404 225.755 83.1286C225.135 83.3757 224.568 83.4457 224.054 83.3384C223.541 83.2312 223.127 82.9405 222.812 82.4663L223.611 81.8913C223.825 82.1849 224.083 82.3667 224.383 82.4368C224.686 82.5057 225.028 82.464 225.411 82.3115C225.847 82.138 226.155 81.9079 226.338 81.6211C226.522 81.3307 226.562 81.0548 226.458 80.7936C226.374 80.5824 226.229 80.4351 226.025 80.3514C225.819 80.2652 225.549 80.2474 225.214 80.2981L224.106 80.4644C223.497 80.5544 223.006 80.5128 222.635 80.3398C222.264 80.1631 221.996 79.865 221.829 79.4454C221.692 79.1023 221.667 78.7604 221.755 78.4197C221.845 78.078 222.028 77.7651 222.303 77.4812C222.581 77.1961 222.933 76.9684 223.361 76.7981C223.963 76.5583 224.488 76.502 224.936 76.6292C225.387 76.7554 225.771 77.0059 226.089 77.3809ZM231.913 75.0602L231.168 75.6321C231.06 75.5133 230.928 75.4084 230.772 75.3174C230.618 75.2228 230.437 75.1666 230.228 75.1489C230.019 75.1313 229.779 75.1766 229.507 75.2849C229.135 75.4332 228.859 75.6425 228.679 75.9129C228.501 76.1796 228.464 76.4436 228.568 76.7048C228.661 76.9371 228.818 77.0869 229.041 77.1541C229.263 77.2214 229.572 77.2284 229.967 77.1752L230.957 77.0372C231.554 76.9525 232.039 76.993 232.414 77.1586C232.788 77.3216 233.06 77.6155 233.229 78.0404C233.368 78.3888 233.391 78.7402 233.3 79.0945C233.212 79.4479 233.021 79.7747 232.728 80.075C232.434 80.3753 232.052 80.6196 231.579 80.8078C230.959 81.055 230.392 81.1249 229.878 81.0177C229.365 80.9104 228.951 80.6197 228.636 80.1456L229.435 79.5706C229.65 79.8642 229.907 80.046 230.207 80.116C230.51 80.185 230.853 80.1432 231.235 79.9908C231.671 79.8172 231.98 79.5871 232.162 79.3004C232.346 79.0099 232.386 78.7341 232.282 78.4728C232.198 78.2617 232.053 78.1143 231.849 78.0307C231.643 77.9444 231.373 77.9267 231.039 77.9774L229.93 78.1437C229.321 78.2336 228.83 78.1921 228.459 78.0191C228.089 77.8424 227.82 77.5442 227.653 77.1246C227.516 76.7815 227.492 76.4397 227.579 76.099C227.669 75.7572 227.852 75.4444 228.127 75.1604C228.405 74.8754 228.758 74.6477 229.185 74.4773C229.787 74.2376 230.312 74.1813 230.76 74.3085C231.211 74.4346 231.595 74.6852 231.913 75.0602ZM237.156 78.6039C236.771 78.7574 236.392 78.8242 236.021 78.8042C235.648 78.7815 235.314 78.6684 235.018 78.465C234.722 78.2588 234.495 77.9578 234.337 77.562C234.199 77.2136 234.155 76.9039 234.206 76.6328C234.256 76.359 234.371 76.1144 234.551 75.8989C234.731 75.6834 234.948 75.49 235.201 75.3189C235.455 75.1441 235.716 74.982 235.984 74.8325C236.334 74.6378 236.62 74.4828 236.84 74.3675C237.062 74.2486 237.213 74.1378 237.295 74.035C237.379 73.9312 237.391 73.8041 237.331 73.6536L237.318 73.622C237.162 73.2314 236.935 72.9705 236.635 72.8392C236.337 72.707 235.973 72.7265 235.543 72.8979C235.097 73.0757 234.786 73.3126 234.611 73.6089C234.435 73.9051 234.34 74.1846 234.326 74.4473L233.313 74.484C233.324 74.0514 233.42 73.6796 233.602 73.3686C233.786 73.0539 234.018 72.7931 234.3 72.5861C234.583 72.3755 234.877 72.2091 235.184 72.0872C235.379 72.0093 235.613 71.9437 235.885 71.8903C236.159 71.8331 236.443 71.8285 236.737 71.8763C237.034 71.9232 237.319 72.0589 237.592 72.2834C237.865 72.508 238.098 72.8618 238.29 73.3447L239.886 77.3509L238.952 77.7231L238.624 76.8997L238.577 76.9187C238.566 77.0759 238.517 77.2591 238.429 77.4684C238.341 77.6778 238.195 77.8841 237.992 78.0875C237.789 78.2908 237.51 78.463 237.156 78.6039ZM236.964 77.7079C237.334 77.5606 237.616 77.364 237.812 77.1179C238.01 76.8707 238.128 76.6066 238.166 76.3254C238.206 76.0433 238.176 75.7755 238.075 75.5221L237.734 74.6671C237.714 74.7303 237.644 74.8086 237.525 74.9018C237.408 74.9913 237.268 75.0853 237.105 75.1837C236.944 75.2785 236.786 75.369 236.631 75.4553C236.478 75.538 236.353 75.6058 236.258 75.659C236.028 75.7874 235.822 75.9293 235.639 76.0847C235.458 76.2364 235.33 76.4079 235.257 76.5993C235.185 76.7871 235.196 76.9997 235.291 77.2372C235.42 77.5618 235.638 77.7594 235.944 77.83C236.252 77.8968 236.592 77.8561 236.964 77.7079ZM241.068 72.6413L242.526 76.2991L241.592 76.6714L239.169 70.5909L240.071 70.2313L240.45 71.1813L240.529 71.1498C240.549 70.7842 240.666 70.4499 240.882 70.1469C241.096 69.8412 241.433 69.5968 241.892 69.4139C242.304 69.2498 242.698 69.1907 243.074 69.2366C243.449 69.2798 243.79 69.4375 244.097 69.7096C244.404 69.979 244.66 70.3724 244.866 70.8896L246.405 74.7533L245.471 75.1256L243.957 71.3252C243.767 70.8476 243.494 70.5249 243.14 70.3572C242.785 70.1868 242.39 70.1879 241.958 70.3604C241.659 70.4792 241.419 70.6501 241.235 70.873C241.055 71.0948 240.946 71.3566 240.911 71.6583C240.875 71.96 240.927 72.2877 241.068 72.6413ZM248.334 66.9388L248.65 67.7306L245.498 68.9862L245.183 68.1944L248.334 66.9388ZM245.521 66.3717L246.455 65.9994L248.764 71.7949C248.87 72.0588 248.987 72.2415 249.116 72.343C249.247 72.4407 249.382 72.4879 249.521 72.4844C249.662 72.4772 249.801 72.4462 249.938 72.3915C250.041 72.3505 250.123 72.3116 250.185 72.2747C250.246 72.2353 250.294 72.2037 250.331 72.18L250.855 72.9435C250.801 72.9925 250.722 73.0515 250.618 73.1204C250.515 73.1921 250.377 73.2626 250.203 73.332C249.939 73.4371 249.657 73.4834 249.359 73.4709C249.063 73.4573 248.786 73.3675 248.527 73.2016C248.271 73.0345 248.072 72.7742 247.931 72.4205L245.521 66.3717Z" fill="#8E8E8E"/>
<path d="M167.975 252.217L169.226 252.378L171.237 259.943L171.339 259.957L175.21 253.153L176.461 253.315L175.341 261.97L174.36 261.843L175.211 255.267L175.127 255.256L171.571 261.482L170.625 261.36L168.771 254.434L168.686 254.423L167.835 260.999L166.855 260.872L167.975 252.217ZM179.198 262.623C178.786 262.57 178.423 262.444 178.108 262.246C177.793 262.045 177.556 261.784 177.397 261.462C177.239 261.138 177.187 260.765 177.241 260.342C177.289 259.97 177.402 259.678 177.578 259.466C177.755 259.251 177.974 259.094 178.237 258.993C178.499 258.892 178.782 258.829 179.086 258.802C179.394 258.773 179.701 258.758 180.007 258.758C180.408 258.758 180.733 258.762 180.981 258.768C181.233 258.772 181.419 258.749 181.54 258.698C181.664 258.649 181.737 258.543 181.757 258.383L181.762 258.349C181.816 257.932 181.743 257.593 181.545 257.333C181.35 257.073 181.022 256.913 180.563 256.853C180.087 256.792 179.7 256.848 179.403 257.021C179.105 257.195 178.886 257.393 178.746 257.615L177.843 257.154C178.063 256.782 178.328 256.504 178.638 256.321C178.952 256.135 179.282 256.02 179.628 255.976C179.978 255.93 180.316 255.928 180.643 255.97C180.851 255.997 181.088 256.053 181.352 256.139C181.619 256.222 181.869 256.356 182.103 256.541C182.34 256.727 182.523 256.984 182.652 257.313C182.781 257.642 182.813 258.064 182.746 258.579L182.193 262.856L181.195 262.727L181.309 261.848L181.258 261.842C181.172 261.974 181.04 262.11 180.862 262.25C180.683 262.39 180.455 262.5 180.179 262.579C179.902 262.657 179.575 262.672 179.198 262.623ZM179.466 261.747C179.86 261.798 180.203 261.764 180.493 261.644C180.787 261.524 181.018 261.351 181.188 261.124C181.36 260.897 181.464 260.648 181.499 260.378L181.617 259.465C181.569 259.51 181.47 259.544 181.32 259.568C181.174 259.589 181.006 259.603 180.816 259.61C180.63 259.615 180.448 259.617 180.27 259.617C180.096 259.614 179.954 259.613 179.845 259.613C179.581 259.614 179.332 259.637 179.097 259.684C178.865 259.729 178.67 259.817 178.513 259.948C178.358 260.077 178.265 260.268 178.232 260.522C178.187 260.869 178.282 261.147 178.515 261.358C178.752 261.566 179.068 261.696 179.466 261.747ZM183.698 265.526L184.853 256.601L185.816 256.725L185.683 257.756L185.801 257.772C185.889 257.668 186.009 257.538 186.161 257.38C186.317 257.22 186.526 257.086 186.789 256.98C187.055 256.871 187.4 256.844 187.822 256.899C188.369 256.97 188.833 257.169 189.214 257.496C189.596 257.823 189.871 258.252 190.04 258.784C190.209 259.316 190.25 259.923 190.161 260.605C190.072 261.292 189.878 261.873 189.579 262.347C189.281 262.818 188.906 263.165 188.456 263.388C188.007 263.607 187.512 263.682 186.971 263.612C186.554 263.558 186.229 263.446 185.996 263.275C185.763 263.102 185.591 262.918 185.479 262.723C185.367 262.525 185.282 262.362 185.224 262.234L185.139 262.224L184.695 265.655L183.698 265.526ZM185.413 259.973C185.35 260.463 185.366 260.905 185.461 261.298C185.557 261.689 185.729 262.008 185.978 262.255C186.227 262.499 186.551 262.647 186.951 262.699C187.368 262.753 187.731 262.688 188.038 262.504C188.348 262.318 188.598 262.047 188.788 261.69C188.98 261.331 189.106 260.921 189.166 260.459C189.225 260.002 189.208 259.582 189.115 259.197C189.024 258.81 188.852 258.492 188.598 258.241C188.347 257.988 188.01 257.834 187.588 257.779C187.182 257.727 186.828 257.786 186.525 257.956C186.223 258.123 185.978 258.38 185.789 258.728C185.601 259.074 185.476 259.488 185.413 259.973ZM193.382 255.504L192.262 264.159L191.265 264.03L192.385 255.375L193.382 255.504ZM196.793 264.883C196.168 264.802 195.646 264.594 195.228 264.259C194.814 263.922 194.516 263.488 194.335 262.958C194.158 262.425 194.112 261.826 194.198 261.161C194.284 260.496 194.481 259.926 194.789 259.45C195.1 258.972 195.493 258.619 195.966 258.391C196.443 258.16 196.974 258.083 197.56 258.159C197.898 258.203 198.225 258.302 198.54 258.457C198.855 258.613 199.131 258.835 199.369 259.123C199.607 259.409 199.78 259.769 199.887 260.204C199.994 260.639 200.008 261.16 199.929 261.765L199.875 262.188L194.871 261.541L194.983 260.678L198.972 261.195C199.019 260.828 198.989 260.492 198.879 260.186C198.773 259.88 198.596 259.626 198.35 259.426C198.107 259.225 197.805 259.101 197.444 259.055C197.047 259.003 196.691 259.058 196.375 259.217C196.062 259.374 195.808 259.599 195.613 259.892C195.417 260.185 195.297 260.51 195.25 260.868L195.176 261.443C195.112 261.933 195.143 262.359 195.268 262.722C195.396 263.082 195.601 263.371 195.882 263.588C196.164 263.802 196.506 263.935 196.909 263.987C197.171 264.021 197.413 264.015 197.633 263.969C197.857 263.921 198.056 263.832 198.231 263.703C198.405 263.571 198.55 263.397 198.663 263.183L199.592 263.578C199.448 263.892 199.24 264.157 198.969 264.374C198.698 264.588 198.377 264.741 198.007 264.834C197.637 264.924 197.233 264.94 196.793 264.883Z" fill="#8E8E8E"/>
</svg>
